<?xml version="1.0" encoding="utf-8"?>
<!-- Generator: Adobe Illustrator 23.0.6, SVG Export Plug-In . SVG Version: 6.00 Build 0)  -->
<svg version="1.1" id="圖層_1" xmlns="http://www.w3.org/2000/svg" xmlns:xlink="http://www.w3.org/1999/xlink" x="0px" y="0px"
	 viewBox="0 0 256 256" style="enable-background:new 0 0 256 256;" xml:space="preserve">
<style type="text/css">
	.st0{fill:#FFFFFF;}
	.st1{fill:#4B70B5;}
</style>
<rect x="0" y="0.16" class="st0" width="256" height="256"/>
<g>
	<g>
		<path class="st1" d="M203.24,224.86H51.81c-13.18,0.2-24.04-10.3-24.28-23.48V54.95c0.24-13.18,11.1-23.69,24.28-23.48h151.43
			c13.18-0.2,24.05,10.3,24.29,23.48v146.42C227.28,214.56,216.42,225.06,203.24,224.86z M51.81,38.5
			c-9.24-0.14-16.84,7.22-17.01,16.45v146.42c0.17,9.23,7.78,16.59,17.01,16.45h151.43c9.24,0.14,16.85-7.21,17.02-16.45V54.95
			c-0.17-9.24-7.78-16.6-17.02-16.45H51.81z"/>
		<path class="st1" d="M205.18,174.19c-18.81,0-37.62,0.09-56.43-0.06c-4.32-0.06-8.62-0.55-12.85-1.46
			c-5.24-0.89-9.25-5.16-9.81-10.44c-0.89-4.35-0.48-8.87,1.19-12.99c1.68-4.27,5.58-7.27,10.14-7.78c3.66-0.52,7.36-0.8,11.06-0.86
			c14.54-0.09,29.09-0.04,43.63-0.04h2.41v-24.81h-2.28c-15.36,0-30.76,0-46.15,0c-2.59-0.01-5.17-0.17-7.74-0.46
			c-5.94-0.09-10.93-4.5-11.75-10.39c-1.94-6.39-0.06-13.33,4.82-17.88c2.43-2.17,5.6-3.33,8.85-3.22
			c6.35-0.16,12.72-0.2,19.08-0.22c15.24-0.03,30.48-0.03,45.73,0h2.66V58.91c-0.75-0.04-1.35-0.09-1.97-0.09
			c-25.03,0.05-50.06,0.12-75.09,0.18c-7.89-0.2-15.64,2.2-22.02,6.85c-7.13,5.32-12.16,12.98-14.2,21.64
			c-1.38,5.15-1.68,10.53-0.88,15.81H71.33c-6.15,0.13-11.02,5.22-10.89,11.37c0.13,5.96,4.93,10.76,10.89,10.89h33.88
			c1.49,0,2.97,0.32,4.33,0.94c3.94,1.84,6.46,5.8,6.44,10.15c0.1,6.04-4.71,11.02-10.75,11.13H55.94
			c-6.15,0.13-11.02,5.22-10.89,11.37c0.13,5.96,4.93,10.76,10.89,10.89h37.85c0.97,5.26,3.2,10.2,6.51,14.39
			c5.87,7.36,14.4,12.1,23.75,13.21c5.88,0.82,11.81,1.24,17.75,1.26c21.4,0.14,42.79,0.07,64.19,0.07c0.55,0,1.1-0.05,1.78-0.08
			v-24.71h-2.6"/>
	</g>
	<path class="st1" d="M71.5,94.75c6.05-0.09,10.89-5.07,10.8-11.13c0,0,0-0.01,0-0.01c0.09-6.05-4.74-11.03-10.79-11.13
		c0,0-0.01,0-0.01,0H51.52c-6.04,0.11-10.85,5.09-10.75,11.13c-0.1,6.05,4.73,11.03,10.78,11.13H71.5"/>
</g>
</svg>
