<svg xmlns="http://www.w3.org/2000/svg" viewBox="0 0 149.857 36.573"><defs><style>.a{fill:#22283c;}.b{fill:#4d7bf3;}</style></defs><path class="a" d="M7.2,20.58V11.189L0,0H6.438L9.207,5.3l.084.155a6.419,6.419,0,0,1,.6,1.588,5.53,5.53,0,0,1,.6-1.532c.056-.1.094-.173.113-.211L13.353,0h6.453l-7.2,11.189V20.58H7.2" transform="translate(44.828 7.759)"/><path class="a" d="M8.194,15.2a8.5,8.5,0,0,1-5.953-2.057A7.062,7.062,0,0,1,0,7.7,7.415,7.415,0,0,1,2.241,2.194,7.812,7.812,0,0,1,7.913,0,7.214,7.214,0,0,1,13.48,2.221a8.7,8.7,0,0,1,2.038,6.087v.239H4.723a3.65,3.65,0,0,0,.843,2.537,3.055,3.055,0,0,0,2.346.892,3.951,3.951,0,0,0,1.92-.428,2.806,2.806,0,0,0,1.188-1.271L14.787,11.8A4.924,4.924,0,0,1,12.4,14.31,9.118,9.118,0,0,1,8.194,15.2ZM7.745,3.051A2.771,2.771,0,0,0,5.8,3.718a3.483,3.483,0,0,0-.963,2h5.749a3.062,3.062,0,0,0-.92-1.94A2.72,2.72,0,0,0,7.745,3.051Z" transform="translate(61.207 13.793)"/><path class="a" d="M6.536,22.336A5.977,5.977,0,0,1,1.771,20.27,8.3,8.3,0,0,1,0,14.7,8.233,8.233,0,0,1,1.764,9.229a5.766,5.766,0,0,1,4.6-2.088,5.883,5.883,0,0,1,2.93.647,5.733,5.733,0,0,1,2.018,2.165c-.056-.338-.1-.713-.127-1.145s-.04-.892-.04-1.385V0h4.807V21.79H11.345V19.483a6.854,6.854,0,0,1-2.151,2.145A5.134,5.134,0,0,1,6.536,22.336Zm1.7-11.2a3.085,3.085,0,0,0-2.389.957A3.749,3.749,0,0,0,4.976,14.7a3.77,3.77,0,0,0,.864,2.622,3.093,3.093,0,0,0,2.4.949,3.1,3.1,0,0,0,2.4-.957,3.726,3.726,0,0,0,.879-2.614,3.731,3.731,0,0,0-.879-2.615A3.1,3.1,0,0,0,8.237,11.133Z" transform="translate(78.448 6.897)"/><path class="a" d="M4.779,20.918H0V.45H4.611V2.84A6.791,6.791,0,0,1,6.761.7,5.167,5.167,0,0,1,9.418,0a6.007,6.007,0,0,1,4.766,2.047,8.215,8.215,0,0,1,1.771,5.545,8.31,8.31,0,0,1-1.764,5.5,5.746,5.746,0,0,1-4.6,2.1,5.776,5.776,0,0,1-2.929-.661,5.86,5.86,0,0,1-2.019-2.178,10.122,10.122,0,0,1,.107,1.025c.023.408.034.909.034,1.491v6.043Zm2.91-16.9a3.059,3.059,0,0,0-2.382.957,3.77,3.77,0,0,0-.866,2.615,3.764,3.764,0,0,0,.866,2.615,3.057,3.057,0,0,0,2.382.956,3.107,3.107,0,0,0,2.4-.956,3.731,3.731,0,0,0,.878-2.615,3.759,3.759,0,0,0-.871-2.615A3.108,3.108,0,0,0,7.689,4.02Z" transform="translate(97.414 13.793)"/><path class="a" d="M6.242,15.2A5.6,5.6,0,0,1,1.7,13.123,8.533,8.533,0,0,1,0,7.564,8.147,8.147,0,0,1,1.778,2.047,6.045,6.045,0,0,1,6.566,0,5.386,5.386,0,0,1,9.328.682a5.708,5.708,0,0,1,1.99,2.1V.45h4.624v14.2h-4.6V12.344a6.621,6.621,0,0,1-2.212,2.165A5.859,5.859,0,0,1,6.242,15.2Zm2-11.259A3.115,3.115,0,0,0,5.828,4.9a3.782,3.782,0,0,0-.879,2.636,3.716,3.716,0,0,0,.886,2.614,3.132,3.132,0,0,0,2.4.956,3.144,3.144,0,0,0,2.417-.956,3.71,3.71,0,0,0,.887-2.614,3.766,3.766,0,0,0-.887-2.63A3.124,3.124,0,0,0,8.239,3.937Z" transform="translate(116.379 13.793)"/><path class="a" d="M1.729,20.468l3.992-8.435L0,0H5.553L7.535,5.131q.252.648.422,1.2a9.024,9.024,0,0,1,.253,1.033,8.732,8.732,0,0,1,.246-1.047c.108-.36.247-.756.414-1.188L10.88,0h5.356L7.309,20.468H1.729" transform="translate(133.621 14.655)"/><path class="a" d="M.655,3.939H0V0H1.407A2.062,2.062,0,0,1,1.97.075a1.279,1.279,0,0,1,.454.233A1.086,1.086,0,0,1,2.73.7a.957.957,0,0,1,.11.476.752.752,0,0,1-.062.321l-.013.033a1.13,1.13,0,0,1-.212.365,1.28,1.28,0,0,1-.331.272,1.517,1.517,0,0,1-.287.13l.079.054.167.158a1.777,1.777,0,0,1,.154.2c.05.074.1.158.166.256l.553.874.062.1-.768,0-.019-.03-.476-.785a2.537,2.537,0,0,0-.194-.287l-.189-.188-.2-.1a.852.852,0,0,0-.247-.033H.655V3.938ZM.655.6V1.915h.652a1.023,1.023,0,0,0,.344-.055.774.774,0,0,0,.269-.155A.676.676,0,0,0,2.1,1.459l.021-.045a.375.375,0,0,0,.042-.194A.5.5,0,0,0,1.948.782.958.958,0,0,0,1.313.6Z" transform="translate(136.207 1.724)"/><path class="a" d="M3.254,6.509A3.254,3.254,0,1,1,6.507,3.254,3.258,3.258,0,0,1,3.254,6.509Zm0-6.018A2.764,2.764,0,1,0,6.016,3.254,2.767,2.767,0,0,0,3.254.491Z" transform="translate(134.483 0.862)"/><path class="b" d="M34.313,36.573H4.742A4.6,4.6,0,0,1,0,32.132V4.441A4.6,4.6,0,0,1,4.742,0h29.57a4.6,4.6,0,0,1,4.743,4.442v27.69A4.6,4.6,0,0,1,34.313,36.573ZM4.742,1.33A3.225,3.225,0,0,0,1.42,4.441v27.69a3.225,3.225,0,0,0,3.322,3.111h29.57a3.226,3.226,0,0,0,3.323-3.111V4.441A3.226,3.226,0,0,0,34.313,1.33Z" transform="translate(0)"/><path class="b" d="M31.244,21.817c-3.673,0-7.347.016-11.019-.012a13.282,13.282,0,0,1-2.509-.276A2.277,2.277,0,0,1,15.8,19.555a4.132,4.132,0,0,1,.232-2.456,2.408,2.408,0,0,1,1.981-1.472,17.6,17.6,0,0,1,2.159-.162c2.84-.017,5.68-.007,8.52-.007h.471V10.767h-.446q-4.506,0-9.012,0a14.516,14.516,0,0,1-1.511-.086,2.329,2.329,0,0,1-2.3-1.956,3.241,3.241,0,0,1,.942-3.382,2.516,2.516,0,0,1,1.729-.609c1.24-.03,2.483-.039,3.726-.041q4.464-.008,8.93,0h.52V.017C31.6.01,31.484,0,31.363,0Q24.031.016,16.7.035A7.054,7.054,0,0,0,9.627,5.422a7.071,7.071,0,0,0-.172,2.99H5.106a2.1,2.1,0,1,0,0,4.209h6.615a2.1,2.1,0,0,1,0,4.209H2.1a2.1,2.1,0,0,0,0,4.209H9.491a6.106,6.106,0,0,0,1.272,2.722A7.036,7.036,0,0,0,15.4,26.255a26.751,26.751,0,0,0,3.466.239c4.178.028,8.356.013,12.534.013.108,0,.215-.009.347-.016V21.817h-.508" transform="translate(3.448 5.172)"/><path class="b" d="M6,4.209A2.1,2.1,0,1,0,6,0h-3.9a2.1,2.1,0,1,0,0,4.209H6" transform="translate(2.586 7.759)"/></svg>