<svg xmlns="http://www.w3.org/2000/svg" viewBox="0 0 994.98 480.96"><defs><style>.cls-1{fill:#181f37;}.cls-1,.cls-2,.cls-9{fill-rule:evenodd;}.cls-2{fill:#4c70b4;}.cls-3{fill:none;stroke:#4c70b4;stroke-linecap:round;stroke-miterlimit:10;stroke-width:24.74px;}.cls-4,.cls-9{fill:#fff;}.cls-5{fill:#ff321e;}.cls-6{fill:#ed171f;}.cls-7{fill:#082f67;}.cls-8{fill:#006a65;}</style></defs><g id="Layer_2" data-name="Layer 2"><g id="Layer_1-2" data-name="Layer 1"><g id="Layer_2-2" data-name="Layer 2-2"><g id="Layer_1-2-2" data-name="Layer 1-2-2"><g id="Group"><path id="Fill-4" class="cls-1" d="M342.06,111.68V74.53L313.29,30.27H339l11.07,21,.34.64a25.33,25.33,0,0,1,2.41,6.28,21.78,21.78,0,0,1,2.42-6.06c.22-.41.38-.68.45-.84l11-21h25.79L363.69,74.55V111.7H342.06"/><path id="Fill-5" class="cls-1" d="M421.07,76.78a12,12,0,0,0-3.68-7.68,10.87,10.87,0,0,0-7.67-2.89A11.13,11.13,0,0,0,402,68.85c-1.94,1.76-3.21,4.41-3.84,7.93ZM440.79,88H397.64c0,4.33,1.16,7.67,3.37,10s5.34,3.53,9.38,3.53a15.8,15.8,0,0,0,7.67-1.69,11.16,11.16,0,0,0,4.75-5l15.06,6a19.52,19.52,0,0,1-9.55,10q-6.85,3.5-16.8,3.5-14.82,0-23.79-8.14t-9-21.5q0-13.12,9-21.79t22.67-8.68q14.1,0,22.25,8.78t8.14,24Z"/><path id="Fill-6" class="cls-1" d="M493.69,85.06q0-6.57-3.52-10.34t-9.59-3.79q-6.06,0-9.55,3.79t-3.47,10.34q0,6.61,3.45,10.37c2.31,2.51,5.5,3.76,9.6,3.76s7.24-1.26,9.59-3.78S493.71,89.44,493.69,85.06Zm17.76,28H493v-9.15a27.41,27.41,0,0,1-8.6,8.48,20.52,20.52,0,0,1-10.62,2.8q-12,0-19.05-8.17t-7.08-22q0-13.42,7-21.66t18.4-8.26q7.2,0,11.72,2.55a22.8,22.8,0,0,1,8.06,8.57c-.22-1.34-.39-2.84-.51-4.53s-.16-3.52-.16-5.48V26.86h19.19v86.19Z"/><path id="Fill-7" class="cls-1" d="M541.22,84.17q0,6.56,3.46,10.34t9.52,3.78q6.06,0,9.59-3.78t3.51-10.34q0-6.56-3.49-10.34t-9.59-3.78q-6.08,0-9.52,3.78T541.22,84.17ZM523.5,136.86v-81H542v9.46a26.91,26.91,0,0,1,8.57-8.45,20.58,20.58,0,0,1,10.61-2.78q12,0,19,8.09t7.08,21.94q0,13.42-7,21.74t-18.4,8.32q-7.2,0-11.71-2.61a23.19,23.19,0,0,1-8.07-8.62,38.49,38.49,0,0,1,.43,4c.09,1.6.14,3.56.14,5.9v23.92H523.5Z"/><path id="Fill-8" class="cls-1" d="M645.41,84q0-6.57-3.55-10.4t-9.65-3.84q-6.13,0-9.64,3.84T619.05,84q0,6.57,3.54,10.34a12.49,12.49,0,0,0,9.59,3.78q6.12,0,9.66-3.78C644.2,91.79,645.38,88.34,645.41,84ZM663,56v56.17H644.61V103a26.32,26.32,0,0,1-8.84,8.56,23.44,23.44,0,0,1-11.55,2.72q-11.36,0-18.15-8.2t-6.8-22q0-13.74,7.11-21.83t19.13-8.09a21.47,21.47,0,0,1,11,2.7,22.63,22.63,0,0,1,8,8.31V55.91Z"/><path id="Fill-9" class="cls-1" d="M675.1,138.52,691,105.15,668.19,57.56H690.4l7.92,20.3q1,2.55,1.68,4.76a35.7,35.7,0,0,1,1,4.08,32.83,32.83,0,0,1,1-4.14c.42-1.43,1-3,1.65-4.7l8-20.3h21.4l-35.65,81H675.1"/><g id="Group-4"><path id="Fill-10" class="cls-1" d="M718.47,31.78h2.62a3.9,3.9,0,0,1,2.56.73,2,2,0,0,1,.84,1.74,1.54,1.54,0,0,1-.17.76l-.09.18a2.57,2.57,0,0,1-.69,1,2.9,2.9,0,0,1-1.08.64,4,4,0,0,1-1.37.22h-2.6V31.78Zm7.38,9.38c-.25-.38-.46-.72-.64-1a8.3,8.3,0,0,0-.64-.8l-.67-.64-.32-.22a6.2,6.2,0,0,0,1.15-.51,5,5,0,0,0,1.32-1.07,4.61,4.61,0,0,0,.85-1.45v-.13a2.82,2.82,0,0,0,.25-1.28,3.77,3.77,0,0,0-.44-1.92,4.27,4.27,0,0,0-1.2-1.5,5,5,0,0,0-1.81-.92,8.34,8.34,0,0,0-2.28-.29h-5.57V45h2.62V39.36H720a3.76,3.76,0,0,1,1,.13l.79.4.76.75a10.72,10.72,0,0,1,.77,1.13l1.92,3.11.08.12h3.07l-.25-.39Z"/><path id="Fill-11" class="cls-1" d="M722,48a11,11,0,1,1,.07,0Zm0-23.8a35.34,35.34,0,1,0,.07,0H722Z"/></g></g><g id="Group-2"><path id="Fill-12" class="cls-2" d="M145,5.34c-7.4,0-13.43,5.61-13.43,12.5V129.06c0,6.89,6,12.49,13.43,12.49H264.41c7.4,0,13.43-5.6,13.43-12.49V17.84c0-6.89-6-12.5-13.43-12.5ZM264.38,146.9H145c-10.56,0-19.18-8-19.18-17.84V17.84C125.78,8,134.37,0,145,0H264.41C275,0,283.59,8,283.59,17.84V129.06C283.53,138.9,275,146.9,264.38,146.9Z"/><path id="Fill-13" class="cls-2" d="M266,108.41c-14.83,0-29.68.06-44.51,0a54,54,0,0,1-10.14-1.11,9.18,9.18,0,0,1-7.72-7.93,16.53,16.53,0,0,1,.93-9.87,9.71,9.71,0,0,1,8-5.91,68.72,68.72,0,0,1,8.72-.64c11.48-.07,23,0,34.42,0h1.92V64H219.32a59.43,59.43,0,0,1-6.11-.35c-5.23-.55-8-2.84-9.29-7.85s-.31-9.8,3.83-13.59a10.23,10.23,0,0,1,7-2.44c5-.12,10-.15,15.05-.16H268V20.84c-.57,0-1.05-.07-1.54-.07l-59.23.14a28.91,28.91,0,0,0-17.35,5.21,28.61,28.61,0,0,0-11.21,16.43,28.28,28.28,0,0,0-.7,12H160.31a8.45,8.45,0,0,0,0,16.9H187a8.46,8.46,0,1,1,.58,16.91,5.61,5.61,0,0,1-.58,0H148.21a8.46,8.46,0,0,0,0,16.91h29.84a24.43,24.43,0,0,0,5.11,10.93c4.8,5.83,11.26,9,18.75,10a109.32,109.32,0,0,0,14,1c16.88.11,33.75,0,50.63,0a10,10,0,0,0,1.4-.07V108.41h-2.05"/><path id="Fill-14" class="cls-2" d="M160.47,48.07a8.46,8.46,0,1,0,.58-16.91,5.61,5.61,0,0,0-.58,0H144.73a8.46,8.46,0,0,0,0,16.91h15.74"/></g></g></g><path class="cls-3" d="M772.49,67.16H910.61a72.25,72.25,0,0,1,72,72.05V396.59a72.25,72.25,0,0,1-72,72H84.37a72.25,72.25,0,0,1-72-72V139.21a72.27,72.27,0,0,1,72-72.05"/><g id="Layer_2-2-2" data-name="Layer 2"><g id="Layer_1-2-2-2" data-name="Layer 1-2"><path class="cls-4" d="M856.9,315.17h0a241.61,241.61,0,0,1-213.94,0h0v41A43.88,43.88,0,0,0,686.84,400H813a43.88,43.88,0,0,0,43.88-43.88Z"/><path class="cls-5" d="M813,179.69H686.84A50.28,50.28,0,0,0,636.54,230h0V356.16a50.3,50.3,0,0,0,50.3,50.3H813a50.3,50.3,0,0,0,50.3-50.3h0V230A50.29,50.29,0,0,0,813,179.69ZM813,400H686.84a43.62,43.62,0,0,1-22.76-6.35q-.9-.56-1.77-1.14A43.89,43.89,0,0,1,643,356.16v-41h0a241.61,241.61,0,0,0,213.94,0h0v41A43.83,43.83,0,0,1,813,400Z"/><path class="cls-4" d="M697.33,308.06c-3.88,0-6.28-2.23-5.38-6.14l3.21-14.05H699l-3.22,14.07a2.14,2.14,0,0,0,2.28,2.81,3.61,3.61,0,0,0,3.55-2.81l3.22-14.07h3.88l-3.21,14.05C704.64,305.83,701.21,308.06,697.33,308.06Z"/><path class="cls-4" d="M716.51,307.78l2.24-9.77c.34-1.49-.36-2.39-2-2.39a7.28,7.28,0,0,0-2.31.35l-2.73,11.81h-3.74l3.23-14.09a17.42,17.42,0,0,1,6.14-1.08c4.4,0,6,1.82,5.29,5l-2.32,10.16Z"/><path class="cls-4" d="M723.89,307.78,727.3,293h3.75l-3.41,14.84Zm5.81-17.2A1.62,1.62,0,0,1,728,289.1a1.85,1.85,0,0,1,.06-.57,2.72,2.72,0,0,1,2.6-2,1.59,1.59,0,0,1,1.74,1.44,1.51,1.51,0,0,1-.05.56,2.78,2.78,0,0,1-2.59,2.05Z"/><path class="cls-4" d="M737.39,308.11c-4.31,0-5.94-3.33-4.93-7.76s4.16-7.74,8.48-7.74,5.95,3.31,4.94,7.74S741.71,308.11,737.39,308.11Zm2.88-12.55c-2,0-3.41,1.79-4.1,4.78s-.09,4.73,1.9,4.73,3.37-1.76,4-4.73S742.24,295.56,740.27,295.56Z"/><path class="cls-4" d="M755.82,307.78l2.23-9.77c.34-1.49-.36-2.39-2-2.39a7.19,7.19,0,0,0-2.31.35L751,307.78h-3.73l3.23-14.09a17.38,17.38,0,0,1,6.14-1.08c4.4,0,6,1.82,5.29,5l-2.32,10.16Z"/><path class="cls-4" d="M770.7,300.18a11,11,0,0,1-1.81-.13l-1.77,7.73h-3.8l4.4-19.19a16.54,16.54,0,0,1,6-1.08c4.95,0,7.1,2.5,6.21,6.39C779.09,297.51,775.84,300.18,770.7,300.18Zm2.38-9.69a7.94,7.94,0,0,0-2.05.3l-1.44,6.31a7.9,7.9,0,0,0,1.61.14c2.73,0,4.48-1.27,4.95-3.36.5-2.28-.57-3.39-3.07-3.39Z"/><path class="cls-4" d="M785.06,308.11c-4.45,0-6.28-1.76-5.58-4.78.92-4.05,5.3-4.85,9.85-5.09l.17-.77c.35-1.55-.59-2.12-2.29-2.12a13.6,13.6,0,0,0-4.36.88l-.34-2.54a17.21,17.21,0,0,1,5.73-1.07c3.8,0,5.58,1.49,4.71,5.29l-2.09,9.14A15.56,15.56,0,0,1,785.06,308.11Zm3.72-7.51c-2.78.14-5.26.39-5.77,2.62-.32,1.4.59,2.2,2.55,2.2a7.38,7.38,0,0,0,2.19-.3Z"/><path class="cls-4" d="M798.55,313.7h-3.93l3.58-5.92L796,293h4.24l.64,9.33a16.59,16.59,0,0,1,0,2.34h0a25.56,25.56,0,0,1,1-2.34l4.92-9.33h4.2Z"/><path class="cls-6" d="M731.19,350.81H751.5a3,3,0,0,1,3,3.9l-7.16,30.76a5.2,5.2,0,0,1-4.77,3.89H722.2a3,3,0,0,1-3-3.89l7.16-30.76a5.23,5.23,0,0,1,4.78-3.9"/><path class="cls-7" d="M748.84,350.81H769c2.15,0,1.18,1.75.68,3.9l-7.15,30.76c-.51,2.14-.35,3.89-2.5,3.89H739.85a3,3,0,0,1-3-3.89L744,354.71c.51-2.15,1.77-3.9,3.92-3.9"/><path class="cls-8" d="M769.53,350.81h8.12a3,3,0,0,1,3,3.9l-7.16,30.76a5.23,5.23,0,0,1-4.78,3.89H757.94a3,3,0,0,1-3-3.89l7.15-30.76a5.2,5.2,0,0,1,4.77-3.9Z"/><path class="cls-4" d="M664.26,230h43.6a3.49,3.49,0,1,0,0-7h-43.6a3.49,3.49,0,1,0,0,7Z"/><path class="cls-4" d="M730.43,236.33a3.63,3.63,0,1,0-7.22-.77,3.3,3.3,0,0,0,0,.77h0V270h0a3.63,3.63,0,1,0,7.25.32,1.71,1.71,0,0,0,0-.32h0V236.36Z"/><path class="cls-4" d="M820.7,252.25h0l-10.56-10.56h0a3.63,3.63,0,0,0-5.13,5.13h0l10.57,10.56h0a3.62,3.62,0,1,0,5.12-5.13Z"/><path class="cls-4" d="M711.32,241.22H660.88a3.49,3.49,0,1,0,0,7h8.18l-5.91,14.94h0a7.57,7.57,0,0,0,4.47,9.72,7.69,7.69,0,0,0,2.64.47h33.09a8.12,8.12,0,0,0,8.12-8.12h0a8.14,8.14,0,0,0-.68-3.26l-2.73-5.86h0a3.69,3.69,0,0,0-6.69,3.11h0l1.91,4.09h0a2,2,0,0,1,.23.94,2.13,2.13,0,0,1-2.14,2.13h-28.1a2.43,2.43,0,0,1-2.42-2.44A2.66,2.66,0,0,1,671,263h0l5.83-14.82h34.46a3.49,3.49,0,1,0,0-7Z"/><path class="cls-4" d="M840.85,229H836.3v-5.14h0a3.65,3.65,0,0,0-7.29,0h0V229H805.78a3.43,3.43,0,1,0,0,6.86H829v28.52a2.4,2.4,0,0,1-2.41,2.4h-3.05a3.44,3.44,0,1,0,0,6.87h5.06a7.71,7.71,0,0,0,7.7-7.71h0V235.82h4.56a3.43,3.43,0,0,0,0-6.86Z"/><path class="cls-4" d="M768.37,264.34a2.39,2.39,0,0,1-2.4,2.4h-3.08a3.44,3.44,0,0,0,0,6.87H768a7.7,7.7,0,0,0,7.69-7.71V252.58l-7.28,7.28Z"/><path class="cls-4" d="M797.12,231.11l-7.25,7.26V270h0a3.63,3.63,0,0,0,7.25,0h0Z"/><path class="cls-4" d="M797.27,221.7a3.59,3.59,0,0,0-5.09,0h0l-16.53,16.51V230.7h0A7.69,7.69,0,0,0,768,223H735.49a2.3,2.3,0,0,1-1.57-.62l-1.31-1.31a3.51,3.51,0,0,0-5,5h0L730,228.4h0a5.73,5.73,0,0,0,3.8,1.44H766a2.41,2.41,0,0,1,2.37,2.39v13.24L764.83,249l-11.68-11.67h0a3.61,3.61,0,0,0-5.09,0h0l-2.54,2.55L761.6,256h0a4.57,4.57,0,0,0,6.46,0h0l29.2-29.21h0a3.59,3.59,0,0,0,0-5.07Z"/><path class="cls-4" d="M745.5,239.9l-11.67,11.68h0a3.6,3.6,0,1,0,4.87,5.31c.07-.07.15-.14.22-.22h0l9.31-9.31Z"/></g></g><g id="Layer_2-3" data-name="Layer 2"><g id="Layer_1-2-3" data-name="Layer 1-2"><path class="cls-6" d="M202.63,179.69h90.51c12.63,0,20.47,10.29,17.55,23L268.56,383.51c-3,12.65-15.62,22.95-28.26,22.95H149.82c-12.63,0-20.48-10.3-17.54-22.95l42.15-180.85c2.95-12.68,15.57-23,28.2-23"/><path class="cls-7" d="M285.61,179.69H389.67c12.63,0,6.94,10.29,4,23L351.51,383.51c-2.95,12.65-2.05,22.95-14.69,22.95h-104c-12.66,0-20.48-10.3-17.52-22.95l42.12-180.85c3-12.68,15.6-23,28.23-23"/><path class="cls-8" d="M385.53,179.69H476c12.64,0,20.48,10.29,17.53,23L451.43,383.51c-3,12.65-15.59,22.95-28.27,22.95H332.72c-12.66,0-20.51-10.3-17.54-22.95L357.3,202.66c3-12.68,15.59-23,28.23-23"/><path class="cls-9" d="M370.43,349.82H379l2.47-8.19H372.9Zm6.83-22.63-2.93,9.7a41.5,41.5,0,0,1,5-2.18c1.75-.41,4.4-.74,4.4-.74l2.05-6.78Zm4.24-14-2.84,9.33a45.74,45.74,0,0,1,4.91-1.91A29.57,29.57,0,0,1,388,320l2.05-6.79Zm18.86,0-11,36.49h3l-2.29,7.5h-3l-.68,2.35h-10.5l.68-2.35h-21.3l2.15-6.92h2.15l11.19-37.05,2.24-7.51h10.7l-1.12,3.79a19.65,19.65,0,0,1,5.55-2.73c2.73-.72,18.23-1,18.23-1l-2.3,7.43Z"/><path class="cls-4" d="M405.09,305.8h11.42l.13,4.26c-.07.68.56,1.05,1.87,1.05h2.32l-2.12,7h-6.14c-5.35.4-7.37-1.9-7.26-4.48Z"/><path class="cls-4" d="M406.59,339.15H395.67l1.87-6.27H410l1.78-5.7H399.49l2.1-7.07h34.24l-2.15,7.07H422.21l-1.79,5.7h11.52l-1.9,6.27H417.6l-2.2,2.64h5.05l1.22,7.89a4.34,4.34,0,0,0,.4,1.62,6.15,6.15,0,0,0,2.65.43h1.53l-2.33,7.68H420c-.6,0-1.49-.06-2.73-.12a6.58,6.58,0,0,1-2.78-1.15,3.76,3.76,0,0,1-2-2.69l-1.22-7.88-5.65,7.76a9.63,9.63,0,0,1-8.32,4.31h-7.94l2-6.82h3a4.73,4.73,0,0,0,2.22-.65,3.33,3.33,0,0,0,1.69-1.36Z"/><path class="cls-4" d="M287.31,322h28.83L314,328.9H302.48l-1.79,5.85h11.82l-2.15,7.11H298.54l-2.85,9.56c-.35,1.05,2.79,1.21,3.92,1.21l5.91-.82-2.37,7.86h-13.3a13.32,13.32,0,0,1-3-.41,3.17,3.17,0,0,1-2.12-1.55c-.48-.78-1.21-1.41-.72-3.07L287.81,342h-6.55l2.17-7.23H290l1.75-5.85h-6.56Z"/><path class="cls-4" d="M306.73,309.65h11.82l-2.16,7.21H300.22l-1.75,1.51c-.74.73-1,.43-2,1a11.74,11.74,0,0,1-5.32,1.36H286l2.11-6.92h1.55a5.54,5.54,0,0,0,2.67-.4,6.41,6.41,0,0,0,1.75-2.25l3-5.4h11.76Z"/><path class="cls-9" d="M329.43,321.48a18.66,18.66,0,0,1,8.74-3.91c1.26-.24,9.12-.16,9.12-.16l1.19-4H331.83Zm15.6,3H328.51l-1,3.34h14.29a12.2,12.2,0,0,1,2.18-.05Zm-21.4-18.69h10.08l-1.46,5.07a27.92,27.92,0,0,1,5.41-3.42,45,45,0,0,1,7.24-1.58l16.3-.08-5.56,18.5a21,21,0,0,1-2.72,6.14,7,7,0,0,1-2.77,2.53,10.09,10.09,0,0,1-3.77,1.27c-1.09.08-2.73.13-5,.15h-15.7L321.22,349c-.42,1.45-.63,2.13-.35,2.52a1.83,1.83,0,0,0,1.51.75l6.92-.68-2.36,8H319.2c-2.46,0-4.26-.05-5.52-.15s-2.44,0-3.27-.65-1.83-1.47-1.81-2.33a27.74,27.74,0,0,1,.92-3.91Z"/><path class="cls-4" d="M353,335.67l-.92,4.44a6.28,6.28,0,0,1-1.8,3.34,7.37,7.37,0,0,1-5.42,1.9l-5.58.23-.05,5c-.08,1.44.31,1.29.54,1.52a1.88,1.88,0,0,0,.73.44l1.77-.09,5.34-.31-2.21,7.34h-6.14c-4.3,0-7.5-.09-8.53-.93-1-.64-1.16-1.47-1.13-2.87l.38-19.59h9.82l-.13,4H342a3.33,3.33,0,0,0,1.68-.29,2,2,0,0,0,.68-1l1-3.11Z"/><path class="cls-4" d="M213.37,237.46C213,239,206.73,268,206.71,268c-1.36,5.85-2.32,10-5.66,12.73a10.21,10.21,0,0,1-6.68,2.33c-4.09,0-6.53-2.05-6.94-5.94l-.08-1.37s1.26-7.86,1.27-7.89,6.59-26.41,7.77-29.89c.05-.19.07-.29.1-.39-12.83.11-15.12,0-15.26-.19-.07.26-.42,1.9-.42,1.9l-6.73,29.76-.58,2.53-1.11,8.25a12.25,12.25,0,0,0,1.44,6.14c3.07,5.37,11.82,6.14,16.76,6.14,6.38,0,12.35-1.36,16.38-3.82,7-4.15,8.87-10.64,10.5-16.38l.76-2.95s6.82-27.42,8-31a1.86,1.86,0,0,1,.1-.39c-9.3.1-12,0-12.91-.19"/><path class="cls-4" d="M250.92,291.89c-4.56-.06-6.15-.06-11.48.22l-.2-.4c.47-2,1-4,1.42-6.07l.65-2.77a103.56,103.56,0,0,0,2-10.84c.09-.92.4-3.22-2.22-3.22a9.07,9.07,0,0,0-3.41,1.07c-.64,2.3-1.95,8.73-2.54,11.67-1.33,6.19-1.41,6.88-2,9.95l-.38.39c-4.7-.06-6.32-.06-11.71.22l-.26-.46c.9-3.67,1.81-7.38,2.67-11a160.51,160.51,0,0,0,3.41-18.83l.42-.3c5.27-.74,6.54-.88,12.24-2.05l.47.54-.85,3.17c1-.57,1.87-1.15,2.86-1.66a18,18,0,0,1,7.32-1.71c2.49,0,5.22.68,6.36,3.58,1.08,2.58.37,5.75-1,12l-.74,3.17c-1.46,6.95-1.7,8.19-2.51,13Z"/><path class="cls-4" d="M269.4,291.89c-2.73,0-4.49-.06-6.22,0s-3.41.11-5.93.23l-.15-.23-.18-.22a41.11,41.11,0,0,1,1.43-4.49,30.08,30.08,0,0,0,1.29-4.54c.8-3.49,1.29-5.92,1.64-8.05s.57-3.83.83-5.87l.21-.15.23-.2c2.73-.38,4.46-.64,6.23-.91s3.58-.61,6.4-1.14l.11.25.08.24c-.53,2.16-1.06,4.32-1.57,6.51s-1,4.32-1.52,6.49c-1,4.59-1.42,6.29-1.68,7.51s-.3,1.8-.68,4.18l-.24.22Z"/><path class="cls-4" d="M298.39,275.73c-.26,1.17-1.28,5.57-2.69,7.44a4.39,4.39,0,0,1-3.41,2.19c-.37,0-2.61,0-2.66-3.34a22.54,22.54,0,0,1,.73-5.17c1.2-5.3,2.62-9.75,6.22-9.75,2.84,0,3,3.31,1.8,8.63m11.9.51c1.59-7,.36-10.28-1.2-12.29-2.38-3-6.56-4-10.92-4-2.6,0-8.82.26-13.69,4.78-3.47,3.22-5.1,7.61-6.08,11.81s-2.11,12,5,14.87a21.05,21.05,0,0,0,7.38,1.19c5.19,0,10.52-1.44,14.52-5.68,3.1-3.45,4.51-8.57,5-10.67"/><path class="cls-4" d="M421.54,292.37c-5.46-.05-7.07-.05-12.15.17l-.34-.41c1.37-5.23,2.78-10.43,4-15.7a119,119,0,0,0,2.51-13.77l.41-.34c5.46-.78,7-1,12.64-2l.18.46c-1,4.29-2.08,8.59-3.07,12.9-2.1,9-2.86,13.65-3.67,18.34Z"/><path class="cls-4" d="M413.28,276.33c-.25,1.12-1.29,5.57-2.73,7.4a6.23,6.23,0,0,1-4.42,2.15c-.35,0-2.58,0-2.67-3.3a23,23,0,0,1,.75-5.17c1.2-5.2,2.62-9.63,6.22-9.63,2.84,0,4.06,3.23,2.83,8.55m10.86.52c1.59-7-4.82-.61-5.85-2.91-1.58-3.58-.59-10.85-6.92-13.28-2.43-.94-8.15.28-13,4.73-3.45,3.22-5.1,7.56-6.06,11.75s-2.11,11.93,4.94,14.7a14.22,14.22,0,0,0,6.34,1.13c7.09-.39,12.51-11.09,16.5-15.33,3.08-3.36,3.63,1.26,4.09-.79"/><path class="cls-4" d="M341.36,291.89c-4.56-.06-6.11-.06-11.47.22l-.19-.4c.45-2,1-4,1.44-6.07l.64-2.77A110.11,110.11,0,0,0,333.83,272c.09-.92.39-3.22-2.21-3.22a8.89,8.89,0,0,0-3.41,1.07c-.63,2.3-1.94,8.73-2.57,11.67-1.3,6.19-1.36,6.88-2,9.95l-.39.39c-4.69-.06-6.3-.06-11.69.22l-.24-.46c.89-3.67,1.77-7.38,2.64-11a160.51,160.51,0,0,0,3.41-18.83l.42-.3c5.27-.74,6.55-.88,12.24-2.05l.45.54-.83,3.17c.94-.57,1.89-1.15,2.86-1.66a17.92,17.92,0,0,1,7.3-1.71c2.49,0,5.22.68,6.4,3.58,1.07,2.58.34,5.75-1.09,12l-.72,3.17c-1.49,6.95-1.72,8.19-2.5,13Z"/><path class="cls-4" d="M380.8,237.41l-3.79.05c-9.83.11-13.78.06-15.39-.13-.17.68-.42,2-.42,2l-3.51,16.38-8.82,36.36c8.58-.09,12.1-.09,13.57.06l2.34-11.33s1.72-7.13,1.82-7.39a3.89,3.89,0,0,1,1.08-1h.79c7.4,0,15.78,0,22.32-4.83a23.82,23.82,0,0,0,8.87-14.12,20.92,20.92,0,0,0,.62-4.92,10.36,10.36,0,0,0-1.78-6.32c-3.34-4.68-10-4.77-17.68-4.77m4.92,17a11.93,11.93,0,0,1-6.14,8.15c-2.51,1.26-5.55,1.37-8.7,1.37h-2l.16-.81,3.74-16.26.1-.83.07-.68,1.5.16,7.91.68c3.05,1.16,4.3,4.22,3.41,8.19"/><path class="cls-4" d="M466.5,260.21l-.44-.48c-5.6,1.12-6.63,1.32-11.79,2l-.39.37a2,2,0,0,0-.05.24v-.07c-3.84,8.87-3.72,7-6.86,13.94v-.87l-.84-15.13-.49-.48c-5.88,1.12-6,1.32-11.46,2l-.44.37c0,.2-.05.4-.08.61l0,.08a75.16,75.16,0,0,1,1.2,8.19c.32,2.68.73,5.4,1.05,8,.54,4.44.84,6.64,1.48,13.4-3.65,6.08-4.54,8.37-8,13.69l.19.49c5.31-.2,6.53-.2,10.46-.2l.87-1c3-6.4,25.58-45.21,25.58-45.21"/><path class="cls-4" d="M274.41,264c3-2.09,3.41-5,.84-6.5s-7.06-1-10.09,1.07-3.41,5-.84,6.48,7.05,1.05,10.09-1"/><path class="cls-4" d="M440.52,305.94l-4.42,7.57c-1.37,2.58-4,4.52-8.12,4.54l-7-.12L423,311.1h1.36a3.77,3.77,0,0,0,1.66-.24,1.9,1.9,0,0,0,.89-.79l2.6-4.14Z"/></g></g></g></g></svg>