<svg width="1571" height="481" viewBox="0 0 1571 481" fill="none" xmlns="http://www.w3.org/2000/svg">
<path fill-rule="evenodd" clip-rule="evenodd" d="M338.519 111.68V74.53L310.113 30.27H335.528L346.458 51.27L346.793 51.91C347.859 53.8869 348.659 55.9989 349.173 58.19C349.664 56.06 350.47 54.017 351.562 52.13C351.779 51.72 351.937 51.45 352.007 51.29L362.867 30.29H388.331L359.876 74.55V111.7H338.519" fill="#181F37"/>
<path fill-rule="evenodd" clip-rule="evenodd" d="M416.53 76.78C416.286 73.8562 414.994 71.124 412.896 69.1C410.84 67.1736 408.123 66.1366 405.323 66.21C402.527 66.0651 399.782 67.0097 397.652 68.85C395.736 70.61 394.482 73.26 393.86 76.78H416.53ZM436 88H393.396C393.396 92.33 394.541 95.67 396.724 98C398.906 100.33 401.996 101.53 405.985 101.53C408.609 101.621 411.214 101.04 413.558 99.84C415.603 98.7161 417.244 96.9659 418.248 94.84L433.117 100.84C431.282 105.225 427.929 108.781 423.688 110.84C419.173 113.173 413.643 114.34 407.101 114.34C397.346 114.34 389.516 111.627 383.611 106.2C377.707 100.773 374.762 93.6066 374.775 84.7C374.775 75.9533 377.72 68.69 383.611 62.91C389.503 57.13 396.964 54.2366 405.995 54.23C415.276 54.23 422.599 57.1566 427.963 63.01C433.328 68.8633 436.007 76.86 436 87V88Z" fill="#181F37"/>
<path fill-rule="evenodd" clip-rule="evenodd" d="M488.231 85.0599C488.231 80.6799 487.073 77.2332 484.756 74.7199C482.439 72.2065 479.282 70.9432 475.287 70.9299C471.298 70.9299 468.155 72.1932 465.858 74.7199C463.56 77.2465 462.418 80.6932 462.432 85.0599C462.432 89.4665 463.567 92.9232 465.838 95.4299C468.119 97.9399 471.268 99.1899 475.317 99.1899C479.365 99.1899 482.465 97.9299 484.785 95.4099C487.105 92.8899 488.251 89.4399 488.231 85.0599ZM505.766 113.06H487.57V103.91C485.4 107.343 482.498 110.241 479.078 112.39C475.899 114.27 472.274 115.238 468.593 115.19C460.694 115.19 454.424 112.467 449.784 107.02C445.143 101.573 442.813 94.2399 442.793 85.0199C442.793 76.0732 445.097 68.8532 449.705 63.3599C454.312 57.8665 460.368 55.1132 467.872 55.0999C472.611 55.0999 476.468 55.9499 479.444 57.6499C482.792 59.7508 485.536 62.7062 487.402 66.2199C487.184 64.8799 487.017 63.3799 486.898 61.6899C486.78 59.9999 486.74 58.1699 486.74 56.2099V26.8599H505.687V113.05L505.766 113.06Z" fill="#181F37"/>
<path fill-rule="evenodd" clip-rule="evenodd" d="M535.16 84.17C535.16 88.5433 536.298 91.99 538.576 94.51C540.853 97.03 543.987 98.29 547.975 98.29C551.964 98.29 555.121 97.03 557.444 94.51C559.768 91.99 560.923 88.5433 560.91 84.17C560.91 79.7967 559.761 76.35 557.464 73.83C555.167 71.31 552.01 70.05 547.995 70.05C544 70.05 540.867 71.31 538.596 73.83C536.325 76.35 535.179 79.7967 535.16 84.17ZM517.664 136.86V55.86H535.88V65.32C538.037 61.8944 540.93 59.006 544.342 56.87C547.521 55.0006 551.142 54.0398 554.818 54.09C562.717 54.09 568.986 56.7867 573.627 62.18C578.267 67.5733 580.597 74.8867 580.617 84.12C580.617 93.0667 578.313 100.313 573.706 105.86C569.098 111.407 563.042 114.18 555.539 114.18C550.799 114.18 546.945 113.31 543.977 111.57C540.631 109.441 537.886 106.472 536.009 102.95C536.218 104.275 536.36 105.61 536.433 106.95C536.522 108.55 536.572 110.51 536.572 112.85V136.77H517.664V136.86Z" fill="#181F37"/>
<path fill-rule="evenodd" clip-rule="evenodd" d="M638.032 83.9998C638.032 79.6198 636.863 76.1532 634.527 73.5998C632.19 71.0465 629.014 69.7665 624.999 69.7598C620.964 69.7598 617.791 71.0398 615.481 73.5998C613.17 76.1598 612.012 79.6265 612.005 83.9998C612.005 88.3798 613.17 91.8265 615.5 94.3398C616.723 95.615 618.2 96.6117 619.832 97.2635C621.465 97.9153 623.216 98.2072 624.969 98.1198C628.997 98.1198 632.177 96.8598 634.507 94.3398C636.837 91.7898 638.002 88.3398 638.032 83.9998ZM655.389 55.9998V112.17H637.242V103C635.044 106.514 632.052 109.448 628.514 111.56C625.006 113.442 621.078 114.379 617.11 114.28C609.639 114.28 603.665 111.547 599.189 106.08C594.713 100.613 592.475 93.2798 592.475 84.0798C592.475 74.9198 594.815 67.6432 599.495 62.2498C604.175 56.8565 610.471 54.1598 618.383 54.1598C622.177 54.06 625.927 54.9924 629.244 56.8598C632.524 58.899 635.227 61.7615 637.094 65.1698V55.9098L655.389 55.9998Z" fill="#181F37"/>
<path fill-rule="evenodd" clip-rule="evenodd" d="M667.346 138.52L683.084 105.15L660.523 57.5601H682.452L690.272 77.8601C690.93 79.5601 691.483 81.1467 691.931 82.6201C692.339 83.9593 692.668 85.3216 692.918 86.7001C693.159 85.2998 693.488 83.9169 693.906 82.5601C694.32 81.1301 694.893 79.5601 695.535 77.8601L703.434 57.5601H724.563L689.364 138.56H667.346" fill="#181F37"/>
<path fill-rule="evenodd" clip-rule="evenodd" d="M710.167 31.78H712.754C713.655 31.7156 714.55 31.974 715.282 32.51C715.554 32.7055 715.773 32.9676 715.918 33.2719C716.063 33.5761 716.129 33.9126 716.111 34.25C716.12 34.5137 716.063 34.7754 715.943 35.01L715.855 35.19C715.708 35.573 715.475 35.9156 715.173 36.19C714.866 36.4771 714.503 36.6952 714.107 36.83C713.672 36.9826 713.214 37.0571 712.754 37.05H710.187V31.78H710.167ZM717.454 41.16C717.207 40.78 717 40.44 716.822 40.16C716.628 39.8804 716.417 39.6132 716.19 39.36L715.529 38.72L715.213 38.5C715.607 38.3694 715.988 38.1986 716.348 37.99C716.84 37.7113 717.28 37.3494 717.651 36.92C718.017 36.4929 718.301 36.0014 718.491 35.47V35.34C718.671 34.9387 718.755 34.5004 718.738 34.06C718.763 33.3923 718.613 32.7297 718.303 32.14C718.023 31.557 717.618 31.0446 717.118 30.64C716.59 30.2149 715.982 29.902 715.331 29.72C714.598 29.5186 713.84 29.421 713.08 29.43H707.581V45H710.167V39.36H711.629C711.962 39.358 712.294 39.4017 712.616 39.49L713.396 39.89L714.146 40.64C714.423 40.9999 714.677 41.3773 714.907 41.77L716.802 44.88L716.881 45H719.912L719.666 44.61L717.454 41.16Z" fill="#181F37"/>
<path fill-rule="evenodd" clip-rule="evenodd" d="M713.603 47.9999C711.47 47.9881 709.388 47.3367 707.62 46.1278C705.851 44.919 704.476 43.2069 703.667 41.2074C702.859 39.208 702.653 37.0107 703.075 34.8928C703.498 32.7749 704.53 30.8312 706.042 29.3068C707.554 27.7824 709.478 26.7456 711.571 26.3272C713.664 25.9088 715.832 26.1275 717.803 26.9557C719.773 27.7839 721.458 29.1846 722.643 30.981C723.829 32.7775 724.462 34.8892 724.464 37.0499C724.466 38.4925 724.185 39.9211 723.639 41.2535C723.093 42.5859 722.293 43.7957 721.283 44.8135C720.274 45.8312 719.075 46.6367 717.757 47.1835C716.439 47.7304 715.028 48.0079 713.603 47.9999V47.9999ZM713.603 24.2C711.095 24.2256 708.65 25.0027 706.577 26.4333C704.504 27.8638 702.895 29.8839 701.954 32.2389C701.012 34.5939 700.78 37.1784 701.286 39.6669C701.792 42.1553 703.015 44.4363 704.799 46.2224C706.583 48.0085 708.849 49.2198 711.312 49.7037C713.774 50.1876 716.323 49.9224 718.637 48.9416C720.952 47.9607 722.927 46.308 724.316 44.1919C725.704 42.0757 726.443 39.5907 726.439 37.0499C726.431 35.3539 726.093 33.6761 725.442 32.1131C724.792 30.55 723.844 29.1325 722.651 27.9421C721.458 26.7516 720.045 25.8117 718.492 25.1764C716.939 24.541 715.278 24.2228 713.603 24.24V24.2Z" fill="#181F37"/>
<path fill-rule="evenodd" clip-rule="evenodd" d="M143.903 5.34C136.597 5.34 130.643 10.95 130.643 17.84V129.06C130.643 135.95 136.567 141.55 143.903 141.55H261.852C269.158 141.55 275.112 135.95 275.112 129.06V17.84C275.112 10.95 269.188 5.34 261.852 5.34H143.903ZM261.822 146.9H143.903C133.477 146.9 124.966 138.9 124.966 129.06V17.84C124.975 8 133.457 0 143.903 0H261.852C272.258 0 280.789 8 280.789 17.84V129.06C280.73 138.9 272.258 146.9 261.822 146.9Z" fill="#4C70B4"/>
<path fill-rule="evenodd" clip-rule="evenodd" d="M263.372 108.41C248.73 108.41 234.068 108.47 219.425 108.41C216.061 108.361 212.709 107.989 209.414 107.3C207.464 107 205.664 106.062 204.288 104.631C202.912 103.2 202.036 101.352 201.791 99.37C201.094 96.0623 201.415 92.6177 202.71 89.5C203.378 87.8851 204.465 86.4833 205.855 85.4429C207.246 84.4025 208.888 83.7623 210.608 83.59C213.462 83.1921 216.338 82.9784 219.218 82.95C230.553 82.88 241.878 82.95 253.203 82.95H255.098V64H217.332C215.317 63.9884 213.303 63.8715 211.299 63.65C206.136 63.1 203.401 60.81 202.127 55.8C200.853 50.79 201.821 46 205.909 42.21C207.831 40.551 210.296 39.6806 212.82 39.77C217.757 39.65 222.693 39.62 227.68 39.61H265.347V20.84C264.784 20.84 264.31 20.77 263.826 20.77L205.346 20.91C199.232 20.7445 193.227 22.5707 188.215 26.12C182.704 30.0797 178.778 35.9089 177.147 42.55C176.068 46.4533 175.832 50.5462 176.456 54.55H159.069C156.856 54.55 154.734 55.4403 153.169 57.025C151.605 58.6096 150.726 60.7589 150.726 63C150.726 65.2411 151.605 67.3904 153.169 68.9751C154.734 70.5598 156.856 71.45 159.069 71.45H185.451C186.571 71.411 187.688 71.6008 188.734 72.0081C189.781 72.4155 190.736 73.032 191.542 73.8209C192.348 74.6099 192.989 75.5552 193.427 76.6005C193.865 77.6457 194.091 78.7696 194.091 79.905C194.091 81.0405 193.865 82.1643 193.427 83.2096C192.989 84.2548 192.348 85.2001 191.542 85.9891C190.736 86.7781 189.781 87.3946 188.734 87.8019C187.688 88.2092 186.571 88.399 185.451 88.36H147.122C144.957 88.4354 142.907 89.3592 141.402 90.9366C139.897 92.514 139.056 94.6216 139.056 96.815C139.056 99.0084 139.897 101.116 141.402 102.693C142.907 104.271 144.957 105.195 147.122 105.27H176.584C177.335 109.284 179.07 113.042 181.63 116.2C186.369 122.03 192.747 125.2 200.142 126.2C204.724 126.833 209.341 127.167 213.965 127.2C230.632 127.31 247.288 127.2 263.955 127.2C264.389 127.2 264.814 127.2 265.337 127.13V108.41H263.313" fill="#4C70B4"/>
<path fill-rule="evenodd" clip-rule="evenodd" d="M159.227 48.07C160.347 48.1091 161.464 47.9193 162.51 47.5119C163.557 47.1046 164.512 46.4881 165.318 45.6991C166.124 44.9101 166.765 43.9648 167.203 42.9196C167.641 41.8743 167.867 40.7505 167.867 39.615C167.867 38.4796 167.641 37.3557 167.203 36.3105C166.765 35.2652 166.124 34.3199 165.318 33.531C164.512 32.742 163.557 32.1255 162.51 31.7181C161.464 31.3108 160.347 31.121 159.227 31.16H143.686C141.521 31.2354 139.471 32.1592 137.966 33.7366C136.461 35.314 135.62 37.4217 135.62 39.615C135.62 41.8084 136.461 43.916 137.966 45.4934C139.471 47.0708 141.521 47.9946 143.686 48.07H159.227Z" fill="#4C70B4"/>
<path d="M763.219 67.1602H1487.21C1506.06 67.2287 1524.11 74.8433 1537.42 88.3419C1550.74 101.84 1558.25 120.127 1558.3 139.21V396.59C1558.24 415.665 1550.72 433.938 1537.41 447.426C1524.09 460.914 1506.05 468.522 1487.21 468.59H83.8042C64.971 468.522 46.9285 460.914 33.6113 447.426C20.2942 433.938 12.7827 415.665 12.7151 396.59V139.21C12.7697 120.127 20.2754 101.84 33.594 88.3419C46.9126 74.8433 64.9625 67.2287 83.8042 67.1602" stroke="#4C70B4" stroke-width="24.74" stroke-miterlimit="10" stroke-linecap="round"/>
<path fill-rule="evenodd" clip-rule="evenodd" d="M178.28 252.761L200.256 299.028H155.403L178.28 252.761ZM212.004 325.049H238.873L188.685 217.942H181.318C180.122 217.948 178.95 218.278 177.926 218.896C176.911 219.527 176.096 220.434 175.577 221.511L125 325.049H142.931L151.993 307.56H203.595L212.004 325.049Z" fill="#373530"/>
<path fill-rule="evenodd" clip-rule="evenodd" d="M273.427 325.05H249.119V222.589C249.119 221.982 249.241 221.382 249.478 220.823C249.715 220.265 250.061 219.76 250.497 219.338C251.383 218.466 252.576 217.978 253.818 217.978H273.427V325.05Z" fill="#373530"/>
<path fill-rule="evenodd" clip-rule="evenodd" d="M294.803 250.642C294.801 250.039 294.92 249.443 295.154 248.887C295.388 248.332 295.731 247.829 296.163 247.409C297.053 246.546 298.244 246.064 299.484 246.067H319.27V325.05H294.803V250.642Z" fill="#35322C"/>
<path fill-rule="evenodd" clip-rule="evenodd" d="M364.335 303.038C364.324 304.896 364.697 306.737 365.43 308.444C366.135 310.119 367.189 311.625 368.522 312.86C369.917 314.155 371.556 315.158 373.344 315.811C375.335 316.544 377.442 316.909 379.563 316.888C381.716 316.859 383.8 316.127 385.498 314.804C387.5 313.27 389.155 311.332 390.356 309.115C391.857 306.374 392.969 303.436 393.66 300.388C394.521 296.777 394.954 293.077 394.95 289.365C395.003 284.866 394.643 280.372 393.872 275.939C393.306 272.586 392.277 269.328 390.816 266.258C389.748 263.951 388.136 261.938 386.117 260.393C384.394 259.117 382.307 258.43 380.163 258.432C378.625 258.438 377.097 258.694 375.641 259.192C374.178 259.724 372.784 260.43 371.489 261.294C370.112 262.215 368.828 263.268 367.656 264.439C366.47 265.629 365.366 266.898 364.353 268.237L364.335 303.038ZM339.727 250.695C339.727 250.084 339.852 249.48 340.091 248.919C340.331 248.357 340.682 247.85 341.122 247.427C342.019 246.562 343.215 246.075 344.461 246.066H364.335V252.267C367.277 249.946 370.537 248.06 374.016 246.667C378.09 245.114 382.429 244.37 386.788 244.477C391.662 244.394 396.492 245.408 400.921 247.444C405.048 249.36 408.735 252.109 411.75 255.518C414.807 258.974 417.17 262.986 418.71 267.336C420.361 271.918 421.187 276.757 421.148 281.627C421.215 287.725 420.241 293.788 418.268 299.558C416.469 304.779 413.64 309.585 409.948 313.691C406.297 317.725 401.828 320.935 396.84 323.107C391.398 325.403 385.539 326.546 379.633 326.463C376.401 326.463 373.609 326.339 371.26 326.11C368.906 325.83 366.601 325.236 364.406 324.343V356H339.727V250.695Z" fill="#332D28"/>
<path fill-rule="evenodd" clip-rule="evenodd" d="M449.572 298.905C449.572 289.736 457.203 282.723 466.549 282.052C472.484 281.61 476.053 282.652 478.137 283.959V311.023C474.98 313.932 470.841 315.541 466.549 315.528C464.342 315.551 462.153 315.14 460.106 314.317C458.059 313.494 456.194 312.276 454.617 310.733C453.041 309.189 451.784 307.35 450.918 305.32C450.052 303.291 449.595 301.111 449.572 298.905V298.905ZM484.55 246.968C472.802 243.682 457.945 243.063 437.647 248.239C438.319 250.236 439.202 253.751 439.838 255.8C471.954 250.2 478.137 254.546 478.137 268.166V272.424C472.29 272.017 465.365 271.028 459.712 270.958C437.753 270.604 429.769 287.722 429.769 298.534C429.769 317.436 448.141 334.978 478.137 322.029V325.05H503.24V267.371C503.24 256.171 493.365 249.405 484.55 246.968" fill="#332D28"/>
<path fill-rule="evenodd" clip-rule="evenodd" d="M509.776 244.6H535.745L561.343 293.34L582.4 247.745C582.828 246.792 583.529 245.986 584.414 245.43C585.301 244.886 586.323 244.598 587.364 244.6H601.232L560.548 332.469C550.743 356.495 526.965 352.961 522.602 352.961V339.677C525.87 339.677 536.734 339.801 541.592 334.536C542.756 333.031 543.729 331.387 544.489 329.643C545.214 328.159 545.85 326.834 546.415 325.65L549.259 319.326L509.776 244.6Z" fill="#332D28"/>
<path fill-rule="evenodd" clip-rule="evenodd" d="M320.153 222.677C320.153 229.125 314.253 234.354 306.957 234.354C299.661 234.354 293.743 229.054 293.743 222.677C293.743 216.3 299.661 211 306.957 211C314.253 211 320.153 216.3 320.153 222.677Z" fill="#009FE3"/>
<path fill-rule="evenodd" clip-rule="evenodd" d="M774.497 325.88H756.513C756.224 325.884 755.939 325.811 755.687 325.668C755.436 325.525 755.227 325.318 755.082 325.067L734.131 289.029L723.372 301.554V325.88H708.763C708.33 325.88 707.915 325.709 707.607 325.405C707.3 325.101 707.125 324.687 707.12 324.255V246.525C707.12 246.09 707.293 245.672 707.601 245.364C707.909 245.056 708.327 244.883 708.763 244.883H723.372V277.882C723.377 278.099 723.466 278.306 723.622 278.458C723.777 278.61 723.985 278.695 724.203 278.695C724.321 278.693 724.438 278.665 724.545 278.613C724.652 278.561 724.746 278.487 724.821 278.394L752.22 245.483C752.374 245.294 752.568 245.142 752.788 245.038C753.008 244.934 753.249 244.881 753.492 244.883H772.483L744.889 277.069L774.497 325.88ZM687.582 325.88H672.76C672.327 325.88 671.912 325.709 671.605 325.405C671.297 325.101 671.122 324.687 671.117 324.255V293.64C671.117 293.204 670.944 292.786 670.636 292.478C670.328 292.17 669.91 291.997 669.474 291.997H642.569V325.88H627.73C627.517 325.88 627.305 325.838 627.108 325.756C626.911 325.674 626.732 325.555 626.581 325.404C626.43 325.253 626.31 325.074 626.229 324.877C626.147 324.679 626.105 324.468 626.105 324.255V246.525C626.105 246.093 626.276 245.678 626.58 245.37C626.884 245.062 627.298 244.887 627.73 244.883H642.569V277.988H669.474C669.91 277.988 670.328 277.815 670.636 277.507C670.944 277.199 671.117 276.781 671.117 276.345V246.543C671.117 246.107 671.29 245.69 671.598 245.381C671.907 245.073 672.324 244.9 672.76 244.9H687.582V325.88Z" fill="#009FE3"/>
<path d="M992.03 212.17H896.52C893.551 212.182 890.613 212.778 887.875 213.925C885.136 215.073 882.65 216.748 880.559 218.856C878.468 220.964 876.812 223.463 875.687 226.211C874.561 228.958 873.988 231.901 874 234.87V234.87V331.2C873.979 337.194 876.338 342.951 880.558 347.208C884.779 351.464 890.516 353.871 896.51 353.9H992.03C998.024 353.871 1003.76 351.464 1007.98 347.208C1012.2 342.951 1014.56 337.194 1014.54 331.2V331.2V234.88C1014.57 228.887 1012.21 223.128 1008 218.87C1003.78 214.612 998.043 212.202 992.05 212.17V212.17" fill="#1677FF"/>
<path d="M989.71 301.17C984.09 299.27 976.54 296.36 968.12 293.3C973.411 283.939 977.36 273.881 979.85 263.42H952.15V253.36H986.15V247.74H952.15V231H938.31C937.681 230.987 937.072 231.223 936.616 231.658C936.161 232.093 935.896 232.691 935.88 233.32V247.77H901.54V253.39H935.88V263.45H907.55V269H962.55C960.611 275.768 957.96 282.311 954.64 288.52C936.78 282.52 917.77 277.77 905.82 280.73C898.18 282.63 893.26 286.03 890.36 289.55C877.08 305.85 886.64 330.55 914.65 330.55C931.22 330.55 947.2 321.23 959.57 305.87C978.03 314.8 1014.57 330.18 1014.57 330.18V308.37C1014.57 308.37 1009.97 308 989.74 301.17H989.71ZM911.99 321.17C890.12 321.17 883.66 303.81 894.47 294.3C898.07 291.1 904.66 289.53 908.17 289.18C921.17 287.88 933.17 292.9 947.38 299.86C937.38 312.98 924.71 321.17 911.99 321.17" fill="white"/>
<path d="M1179.17 232.93C1179.17 240.26 1184.53 245.19 1192 245.19C1199.47 245.19 1204.83 240.26 1204.83 232.93C1204.83 225.6 1199.48 220.65 1192 220.65C1184.52 220.65 1179.17 225.73 1179.17 232.93Z" fill="#1677FF"/>
<path d="M1165.62 223.76H1143.34V326.7H1165.62V223.76Z" fill="black"/>
<path d="M1104.28 227.28H1074.39L1040.96 326.69H1061.57L1067.2 307.24H1102.6L1107.96 326.69H1134.33L1104.28 227.28ZM1071.85 291L1085.1 245.17H1085.66L1098.21 291H1071.85Z" fill="black"/>
<path d="M1203.13 251.12H1180.85V326.71H1203.13V251.12Z" fill="black"/>
<path d="M1435.95 251.26L1436.09 251.12H1415.08L1401.82 297.09H1401.12L1385.89 251.12H1360.93L1390.97 326.98L1378.42 350.1V350.67H1398.02L1435.95 251.26Z" fill="black"/>
<path d="M1258.55 249.56C1250.36 249.56 1244.03 252.67 1236.84 258.56V251.12H1214.56V350.64H1236.84V326C1241.08 327.153 1245.45 327.722 1249.84 327.69C1269.72 327.69 1287.63 313.03 1287.63 286.94C1287.63 263.53 1274.63 249.57 1258.63 249.57L1258.55 249.56ZM1244.53 313.73C1241.95 313.759 1239.38 313.381 1236.92 312.61V271.72C1241.57 268.47 1245.38 266.92 1250.17 266.92C1258.49 266.92 1265.17 273.55 1265.17 287.65C1265.17 305.7 1255.44 313.74 1244.58 313.74" fill="black"/>
<path d="M1356.56 307.8V276.19C1356.56 258.98 1346.41 249.53 1328.5 249.53C1317.08 249.53 1309.15 251.53 1294.8 255.88L1298.74 273.22C1311.86 267.22 1317.64 264.76 1323.74 264.76C1331.08 264.76 1334.32 269.97 1334.32 278.02V278.58C1308.8 283.38 1300.9 286.03 1295.96 290.99C1292.3 294.66 1290.75 299.88 1290.75 305.94C1290.75 320.46 1302.04 328.22 1312.61 328.22C1320.51 328.22 1326.85 325.22 1335.46 318.77L1337.01 326.69H1359.29L1356.56 307.8ZM1334.28 308.36C1328.36 311.61 1324.97 312.88 1321.03 312.88C1315.67 312.88 1312.28 309.35 1312.28 303.71C1312.21 302.626 1312.36 301.54 1312.73 300.517C1313.09 299.494 1313.66 298.556 1314.4 297.76C1317.08 295.07 1322.29 293.1 1334.28 290.31V308.36Z" fill="black"/>
</svg>
