<svg width="849" height="481" viewBox="0 0 849 481" fill="none" xmlns="http://www.w3.org/2000/svg">
<path fill-rule="evenodd" clip-rule="evenodd" d="M338.519 111.68V74.53L310.113 30.27H335.528L346.457 51.27L346.793 51.91C347.858 53.8869 348.659 55.9989 349.173 58.19C349.664 56.06 350.47 54.017 351.562 52.13C351.779 51.72 351.937 51.45 352.006 51.29L362.867 30.29H388.331L359.876 74.55V111.7H338.519" fill="#181F37"/>
<path fill-rule="evenodd" clip-rule="evenodd" d="M416.53 76.78C416.286 73.8562 414.994 71.124 412.896 69.1C410.84 67.1736 408.123 66.1366 405.323 66.21C402.527 66.0651 399.782 67.0097 397.652 68.85C395.736 70.61 394.482 73.26 393.86 76.78H416.53ZM436 88H393.396C393.396 92.33 394.541 95.67 396.723 98C398.905 100.33 401.996 101.53 405.985 101.53C408.609 101.621 411.214 101.04 413.558 99.84C415.603 98.7161 417.244 96.9659 418.248 94.84L433.117 100.84C431.282 105.225 427.929 108.781 423.688 110.84C419.172 113.173 413.643 114.34 407.101 114.34C397.345 114.34 389.516 111.627 383.611 106.2C377.707 100.773 374.761 93.6066 374.775 84.7C374.775 75.9533 377.72 68.69 383.611 62.91C389.503 57.13 396.964 54.2366 405.995 54.23C415.276 54.23 422.599 57.1566 427.963 63.01C433.328 68.8633 436.007 76.86 436 87V88Z" fill="#181F37"/>
<path fill-rule="evenodd" clip-rule="evenodd" d="M488.231 85.0599C488.231 80.6799 487.072 77.2332 484.756 74.7199C482.439 72.2065 479.282 70.9432 475.287 70.9299C471.298 70.9299 468.155 72.1932 465.858 74.7199C463.56 77.2465 462.418 80.6932 462.432 85.0599C462.432 89.4665 463.567 92.9232 465.838 95.4299C468.119 97.9399 471.268 99.1899 475.316 99.1899C479.365 99.1899 482.465 97.9299 484.785 95.4099C487.105 92.8899 488.251 89.4399 488.231 85.0599ZM505.766 113.06H487.569V103.91C485.4 107.343 482.498 110.241 479.078 112.39C475.899 114.27 472.274 115.238 468.593 115.19C460.694 115.19 454.424 112.467 449.784 107.02C445.143 101.573 442.813 94.2399 442.793 85.0199C442.793 76.0732 445.097 68.8532 449.705 63.3599C454.312 57.8665 460.368 55.1132 467.872 55.0999C472.611 55.0999 476.468 55.9499 479.444 57.6499C482.792 59.7508 485.536 62.7062 487.402 66.2199C487.184 64.8799 487.017 63.3799 486.898 61.6899C486.78 59.9999 486.74 58.1699 486.74 56.2099V26.8599H505.687V113.05L505.766 113.06Z" fill="#181F37"/>
<path fill-rule="evenodd" clip-rule="evenodd" d="M535.16 84.17C535.16 88.5433 536.298 91.99 538.576 94.51C540.853 97.03 543.987 98.29 547.975 98.29C551.964 98.29 555.121 97.03 557.444 94.51C559.768 91.99 560.923 88.5433 560.91 84.17C560.91 79.7967 559.761 76.35 557.464 73.83C555.167 71.31 552.01 70.05 547.995 70.05C544 70.05 540.867 71.31 538.596 73.83C536.325 76.35 535.179 79.7967 535.16 84.17ZM517.664 136.86V55.86H535.88V65.32C538.037 61.8944 540.93 59.006 544.342 56.87C547.521 55.0006 551.142 54.0398 554.818 54.09C562.717 54.09 568.986 56.7867 573.627 62.18C578.267 67.5733 580.597 74.8867 580.617 84.12C580.617 93.0667 578.313 100.313 573.706 105.86C569.098 111.407 563.042 114.18 555.539 114.18C550.799 114.18 546.945 113.31 543.977 111.57C540.631 109.441 537.886 106.472 536.009 102.95C536.218 104.275 536.36 105.61 536.433 106.95C536.522 108.55 536.572 110.51 536.572 112.85V136.77H517.664V136.86Z" fill="#181F37"/>
<path fill-rule="evenodd" clip-rule="evenodd" d="M638.032 83.9998C638.032 79.6198 636.863 76.1532 634.526 73.5998C632.19 71.0465 629.014 69.7665 624.999 69.7598C620.964 69.7598 617.791 71.0398 615.48 73.5998C613.17 76.1598 612.012 79.6265 612.005 83.9998C612.005 88.3798 613.17 91.8265 615.5 94.3398C616.723 95.615 618.2 96.6117 619.832 97.2635C621.465 97.9153 623.216 98.2072 624.969 98.1198C628.997 98.1198 632.177 96.8598 634.507 94.3398C636.837 91.7898 638.002 88.3398 638.032 83.9998ZM655.389 55.9998V112.17H637.242V103C635.044 106.514 632.052 109.448 628.513 111.56C625.005 113.442 621.078 114.379 617.11 114.28C609.639 114.28 603.665 111.547 599.189 106.08C594.713 100.613 592.475 93.2798 592.475 84.0798C592.475 74.9198 594.815 67.6432 599.495 62.2498C604.175 56.8565 610.471 54.1598 618.383 54.1598C622.177 54.06 625.927 54.9924 629.244 56.8598C632.523 58.899 635.227 61.7615 637.094 65.1698V55.9098L655.389 55.9998Z" fill="#181F37"/>
<path fill-rule="evenodd" clip-rule="evenodd" d="M667.346 138.52L683.084 105.15L660.523 57.5601H682.452L690.272 77.8601C690.93 79.5601 691.483 81.1467 691.931 82.6201C692.339 83.9593 692.668 85.3216 692.918 86.7001C693.158 85.2998 693.488 83.9169 693.906 82.5601C694.32 81.1301 694.893 79.5601 695.535 77.8601L703.434 57.5601H724.563L689.364 138.56H667.346" fill="#181F37"/>
<path fill-rule="evenodd" clip-rule="evenodd" d="M710.167 31.78H712.754C713.655 31.7156 714.55 31.974 715.282 32.51C715.554 32.7055 715.773 32.9676 715.918 33.2719C716.063 33.5761 716.129 33.9126 716.111 34.25C716.12 34.5137 716.063 34.7754 715.943 35.01L715.854 35.19C715.708 35.573 715.475 35.9156 715.173 36.19C714.866 36.4771 714.503 36.6952 714.107 36.83C713.672 36.9826 713.214 37.0571 712.754 37.05H710.187V31.78H710.167ZM717.454 41.16C717.207 40.78 717 40.44 716.822 40.16C716.628 39.8804 716.417 39.6132 716.19 39.36L715.529 38.72L715.213 38.5C715.607 38.3694 715.988 38.1986 716.348 37.99C716.84 37.7113 717.28 37.3494 717.651 36.92C718.016 36.4929 718.301 36.0014 718.491 35.47V35.34C718.671 34.9387 718.755 34.5004 718.737 34.06C718.763 33.3923 718.613 32.7297 718.303 32.14C718.023 31.557 717.618 31.0446 717.118 30.64C716.59 30.2149 715.982 29.902 715.331 29.72C714.598 29.5186 713.84 29.421 713.08 29.43H707.581V45H710.167V39.36H711.629C711.962 39.358 712.294 39.4017 712.616 39.49L713.396 39.89L714.146 40.64C714.423 40.9999 714.677 41.3773 714.907 41.77L716.802 44.88L716.881 45H719.912L719.666 44.61L717.454 41.16Z" fill="#181F37"/>
<path fill-rule="evenodd" clip-rule="evenodd" d="M713.603 47.9999C711.47 47.9881 709.388 47.3367 707.619 46.1278C705.851 44.919 704.476 43.2069 703.667 41.2074C702.858 39.208 702.652 37.0107 703.075 34.8928C703.498 32.7749 704.53 30.8312 706.042 29.3068C707.554 27.7824 709.478 26.7456 711.571 26.3272C713.664 25.9088 715.832 26.1275 717.803 26.9557C719.773 27.7839 721.457 29.1846 722.643 30.981C723.828 32.7775 724.462 34.8892 724.464 37.0499C724.465 38.4925 724.185 39.9211 723.639 41.2535C723.093 42.5859 722.292 43.7957 721.283 44.8135C720.273 45.8312 719.075 46.6367 717.757 47.1835C716.439 47.7304 715.028 48.0079 713.603 47.9999V47.9999ZM713.603 24.2C711.095 24.2256 708.65 25.0027 706.577 26.4333C704.504 27.8638 702.895 29.8839 701.953 32.2389C701.012 34.5939 700.78 37.1784 701.286 39.6669C701.792 42.1553 703.015 44.4363 704.799 46.2224C706.583 48.0085 708.849 49.2198 711.311 49.7037C713.774 50.1876 716.323 49.9224 718.637 48.9416C720.951 47.9607 722.927 46.308 724.315 44.1919C725.704 42.0757 726.442 39.5907 726.439 37.0499C726.431 35.3539 726.092 33.6761 725.442 32.1131C724.792 30.55 723.843 29.1325 722.651 27.9421C721.458 26.7516 720.044 25.8117 718.492 25.1764C716.939 24.541 715.278 24.2228 713.603 24.24V24.2Z" fill="#181F37"/>
<path fill-rule="evenodd" clip-rule="evenodd" d="M143.903 5.34C136.596 5.34 130.643 10.95 130.643 17.84V129.06C130.643 135.95 136.567 141.55 143.903 141.55H261.852C269.158 141.55 275.112 135.95 275.112 129.06V17.84C275.112 10.95 269.188 5.34 261.852 5.34H143.903ZM261.822 146.9H143.903C133.476 146.9 124.965 138.9 124.965 129.06V17.84C124.975 8 133.457 0 143.903 0H261.852C272.258 0 280.789 8 280.789 17.84V129.06C280.73 138.9 272.258 146.9 261.822 146.9Z" fill="#4C70B4"/>
<path fill-rule="evenodd" clip-rule="evenodd" d="M263.372 108.41C248.73 108.41 234.068 108.47 219.425 108.41C216.061 108.361 212.709 107.989 209.413 107.3C207.463 107 205.664 106.062 204.288 104.631C202.912 103.2 202.035 101.352 201.791 99.37C201.094 96.0623 201.415 92.6177 202.709 89.5C203.377 87.8851 204.464 86.4833 205.855 85.4429C207.245 84.4025 208.888 83.7623 210.608 83.59C213.462 83.1921 216.337 82.9784 219.218 82.95C230.553 82.88 241.877 82.95 253.202 82.95H255.098V64H217.332C215.316 63.9884 213.303 63.8715 211.299 63.65C206.135 63.1 203.4 60.81 202.127 55.8C200.853 50.79 201.821 46 205.908 42.21C207.83 40.551 210.296 39.6806 212.82 39.77C217.757 39.65 222.693 39.62 227.679 39.61H265.347V20.84C264.784 20.84 264.31 20.77 263.826 20.77L205.346 20.91C199.232 20.7445 193.227 22.5707 188.215 26.12C182.704 30.0797 178.777 35.9089 177.147 42.55C176.068 46.4533 175.832 50.5462 176.456 54.55H159.068C156.856 54.55 154.734 55.4403 153.169 57.025C151.604 58.6096 150.725 60.7589 150.725 63C150.725 65.2411 151.604 67.3904 153.169 68.9751C154.734 70.5598 156.856 71.45 159.068 71.45H185.45C186.571 71.411 187.688 71.6008 188.734 72.0081C189.781 72.4155 190.735 73.032 191.542 73.8209C192.348 74.6099 192.989 75.5552 193.427 76.6005C193.865 77.6457 194.091 78.7696 194.091 79.905C194.091 81.0405 193.865 82.1643 193.427 83.2096C192.989 84.2548 192.348 85.2001 191.542 85.9891C190.735 86.7781 189.781 87.3946 188.734 87.8019C187.688 88.2092 186.571 88.399 185.45 88.36H147.122C144.957 88.4354 142.906 89.3592 141.402 90.9366C139.897 92.514 139.056 94.6216 139.056 96.815C139.056 99.0084 139.897 101.116 141.402 102.693C142.906 104.271 144.957 105.195 147.122 105.27H176.584C177.335 109.284 179.07 113.042 181.629 116.2C186.369 122.03 192.747 125.2 200.142 126.2C204.724 126.833 209.341 127.167 213.965 127.2C230.632 127.31 247.288 127.2 263.955 127.2C264.389 127.2 264.814 127.2 265.337 127.13V108.41H263.313" fill="#4C70B4"/>
<path fill-rule="evenodd" clip-rule="evenodd" d="M159.226 48.07C160.347 48.1091 161.464 47.9193 162.51 47.5119C163.557 47.1046 164.511 46.4881 165.318 45.6991C166.124 44.9101 166.765 43.9648 167.203 42.9196C167.641 41.8743 167.867 40.7505 167.867 39.615C167.867 38.4796 167.641 37.3557 167.203 36.3105C166.765 35.2652 166.124 34.3199 165.318 33.531C164.511 32.742 163.557 32.1255 162.51 31.7181C161.464 31.3108 160.347 31.121 159.226 31.16H143.686C141.521 31.2354 139.47 32.1592 137.966 33.7366C136.461 35.314 135.62 37.4217 135.62 39.615C135.62 41.8084 136.461 43.916 137.966 45.4934C139.47 47.0708 141.521 47.9946 143.686 48.07H159.226Z" fill="#4C70B4"/>
<path d="M761 67.1602C779.842 67.2287 802.391 74.8433 815.71 88.3419C829.028 101.84 836.534 120.127 836.589 139.21V396.59C836.521 415.665 829.009 433.938 815.692 447.426C802.375 460.914 784.333 468.522 765.499 468.59H84.0891C65.2559 468.522 47.2134 460.914 33.8963 447.426C20.5791 433.938 13.0676 415.665 13 396.59V139.21C13.0546 120.127 20.5603 101.84 33.8789 88.3419C47.1975 74.8433 65.2474 67.2287 84.0891 67.1602" stroke="#4C70B4" stroke-width="24.74" stroke-miterlimit="10" stroke-linecap="round"/>
<path fill-rule="evenodd" clip-rule="evenodd" d="M153.28 261.761L175.256 308.028H130.403L153.28 261.761ZM187.004 334.049H213.873L163.685 226.942H156.318C155.122 226.948 153.95 227.278 152.926 227.896C151.911 228.527 151.096 229.434 150.577 230.511L100 334.049H117.931L126.993 316.56H178.595L187.004 334.049Z" fill="#373530"/>
<path fill-rule="evenodd" clip-rule="evenodd" d="M248.427 334.05H224.119V231.589C224.119 230.982 224.241 230.382 224.478 229.823C224.715 229.265 225.061 228.76 225.497 228.338C226.383 227.466 227.576 226.978 228.818 226.978H248.427V334.05Z" fill="#373530"/>
<path fill-rule="evenodd" clip-rule="evenodd" d="M269.803 259.642C269.801 259.039 269.92 258.443 270.154 257.887C270.388 257.332 270.731 256.829 271.163 256.409C272.052 255.546 273.244 255.064 274.484 255.067H294.27V334.05H269.803V259.642Z" fill="#35322C"/>
<path fill-rule="evenodd" clip-rule="evenodd" d="M339.335 312.038C339.324 313.896 339.697 315.737 340.43 317.444C341.135 319.119 342.189 320.625 343.521 321.86C344.917 323.155 346.556 324.158 348.344 324.811C350.334 325.544 352.442 325.909 354.563 325.888C356.715 325.859 358.8 325.127 360.498 323.804C362.5 322.27 364.155 320.332 365.356 318.115C366.857 315.374 367.969 312.436 368.66 309.388C369.521 305.777 369.954 302.077 369.949 298.365C370.003 293.866 369.643 289.372 368.872 284.939C368.306 281.586 367.277 278.328 365.816 275.258C364.748 272.951 363.135 270.938 361.117 269.393C359.394 268.117 357.307 267.43 355.163 267.432C353.624 267.438 352.097 267.694 350.641 268.192C349.178 268.724 347.784 269.43 346.489 270.294C345.112 271.215 343.828 272.268 342.656 273.439C341.47 274.629 340.366 275.898 339.352 277.237L339.335 312.038ZM314.726 259.695C314.727 259.084 314.851 258.48 315.091 257.919C315.331 257.357 315.682 256.85 316.122 256.427C317.019 255.562 318.215 255.075 319.461 255.066H339.335V261.267C342.277 258.946 345.537 257.06 349.016 255.667C353.09 254.114 357.429 253.37 361.788 253.477C366.662 253.394 371.492 254.408 375.92 256.444C380.048 258.36 383.735 261.109 386.749 264.518C389.807 267.974 392.17 271.986 393.71 276.336C395.361 280.918 396.187 285.757 396.148 290.627C396.214 296.725 395.241 302.788 393.268 308.558C391.469 313.779 388.64 318.585 384.948 322.691C381.297 326.725 376.828 329.935 371.84 332.107C366.398 334.403 360.539 335.546 354.633 335.463C351.4 335.463 348.609 335.339 346.26 335.11C343.906 334.83 341.601 334.236 339.405 333.343V365H314.726V259.695Z" fill="#332D28"/>
<path fill-rule="evenodd" clip-rule="evenodd" d="M424.572 307.905C424.572 298.736 432.203 291.723 441.549 291.052C447.484 290.61 451.053 291.652 453.137 292.959V320.023C449.98 322.932 445.841 324.541 441.549 324.528C439.342 324.551 437.153 324.14 435.106 323.317C433.059 322.494 431.194 321.276 429.617 319.733C428.041 318.189 426.784 316.35 425.918 314.32C425.052 312.291 424.595 310.111 424.572 307.905V307.905ZM459.55 255.968C447.802 252.682 432.945 252.063 412.647 257.239C413.319 259.236 414.202 262.751 414.838 264.8C446.954 259.2 453.137 263.546 453.137 277.166V281.424C447.29 281.017 440.365 280.028 434.712 279.958C412.753 279.604 404.769 296.722 404.769 307.534C404.769 326.436 423.141 343.978 453.137 331.029V334.05H478.24V276.371C478.24 265.171 468.365 258.405 459.55 255.968" fill="#332D28"/>
<path fill-rule="evenodd" clip-rule="evenodd" d="M484.776 253.6H510.745L536.343 302.34L557.4 256.745C557.829 255.792 558.529 254.986 559.414 254.43C560.301 253.886 561.323 253.598 562.364 253.6H576.232L535.548 341.469C525.743 365.495 501.965 361.961 497.602 361.961V348.677C500.87 348.677 511.734 348.801 516.592 343.536C517.756 342.031 518.729 340.387 519.49 338.643C520.214 337.159 520.85 335.834 521.415 334.65L524.259 328.326L484.776 253.6Z" fill="#332D28"/>
<path fill-rule="evenodd" clip-rule="evenodd" d="M295.153 231.677C295.153 238.125 289.253 243.354 281.957 243.354C274.661 243.354 268.743 238.054 268.743 231.677C268.743 225.3 274.661 220 281.957 220C289.253 220 295.153 225.3 295.153 231.677Z" fill="#009FE3"/>
<path fill-rule="evenodd" clip-rule="evenodd" d="M749.497 334.88H731.513C731.224 334.884 730.939 334.811 730.687 334.668C730.436 334.525 730.227 334.318 730.082 334.067L709.131 298.029L698.372 310.554V334.88H683.763C683.33 334.88 682.915 334.709 682.607 334.405C682.3 334.101 682.125 333.687 682.12 333.255V255.525C682.12 255.09 682.293 254.672 682.601 254.364C682.909 254.056 683.327 253.883 683.763 253.883H698.372V286.882C698.377 287.099 698.466 287.306 698.622 287.458C698.777 287.61 698.985 287.695 699.203 287.695C699.321 287.693 699.438 287.665 699.545 287.613C699.652 287.561 699.746 287.487 699.821 287.394L727.22 254.483C727.374 254.294 727.568 254.142 727.788 254.038C728.008 253.934 728.249 253.881 728.492 253.883H747.483L719.889 286.069L749.497 334.88ZM662.582 334.88H647.76C647.327 334.88 646.912 334.709 646.605 334.405C646.297 334.101 646.122 333.687 646.117 333.255V302.64C646.117 302.204 645.944 301.786 645.636 301.478C645.328 301.17 644.91 300.997 644.474 300.997H617.569V334.88H602.73C602.517 334.88 602.305 334.838 602.108 334.756C601.911 334.674 601.732 334.555 601.581 334.404C601.43 334.253 601.31 334.074 601.229 333.877C601.147 333.679 601.105 333.468 601.105 333.255V255.525C601.105 255.093 601.276 254.678 601.58 254.37C601.884 254.062 602.298 253.887 602.73 253.883H617.569V286.988H644.474C644.91 286.988 645.328 286.815 645.636 286.507C645.944 286.199 646.117 285.781 646.117 285.345V255.543C646.117 255.107 646.29 254.69 646.598 254.381C646.907 254.073 647.324 253.9 647.76 253.9H662.582V334.88Z" fill="#009FE3"/>
</svg>
