<svg width="2432" height="481" viewBox="0 0 2432 481" fill="none" xmlns="http://www.w3.org/2000/svg">
<path d="M778.04 67.16H2346.62C2365.83 67.2286 2384.23 74.8432 2397.81 88.3417C2411.38 101.84 2419.03 120.127 2419.09 139.21V396.59C2419.02 415.664 2411.36 433.938 2397.79 447.426C2384.21 460.914 2365.82 468.521 2346.62 468.59H85.466C66.268 468.521 47.8761 460.914 34.301 447.426C20.7259 433.938 13.069 415.664 13 396.59V139.21C13.0557 120.127 20.7068 101.84 34.2833 88.3417C47.8598 74.8432 66.2593 67.2286 85.466 67.16" stroke="#4C70B4" stroke-width="24.74" stroke-miterlimit="10" stroke-linecap="round"/>
<path d="M2169.66 275.13C2167.52 275.127 2165.42 274.505 2163.63 273.34L2139.79 256.53C2139.24 256.121 2138.59 255.873 2137.91 255.812C2137.22 255.751 2136.54 255.881 2135.92 256.186C2135.31 256.491 2134.8 256.96 2134.44 257.54C2134.07 258.12 2133.88 258.788 2133.88 259.47C2133.89 260.006 2134.01 260.534 2134.24 261.02L2154.43 305.02L2154.91 306.08C2155.83 307.738 2157.37 308.977 2159.19 309.536C2161.01 310.095 2162.98 309.932 2164.68 309.08L2165.49 308.61L2293.17 235.37L2285.48 224.99L2173.46 274.52C2172.24 274.942 2170.96 275.148 2169.66 275.13Z" fill="white"/>
<path d="M2293.17 235.3L2165.49 308.53L2164.68 309C2162.98 309.852 2161.01 310.015 2159.19 309.456C2157.37 308.897 2155.83 307.658 2154.91 306L2154.43 304.94L2134.24 260.94C2134.01 260.454 2133.89 259.926 2133.88 259.39C2133.88 258.708 2134.07 258.04 2134.44 257.46C2134.8 256.88 2135.31 256.411 2135.92 256.106C2136.54 255.801 2137.22 255.671 2137.91 255.732C2138.59 255.793 2139.24 256.041 2139.79 256.45L2163.62 273.3C2165.05 274.238 2166.69 274.828 2168.4 275.021C2170.11 275.213 2171.85 275.004 2173.46 274.41L2285.48 224.88C2265.35 201.36 2232.34 186 2194.9 186C2133.66 186 2084.02 227.1 2084.02 277.81C2084.02 305.47 2098.95 330.37 2122.33 347.2C2123.29 347.879 2124.08 348.779 2124.62 349.824C2125.16 350.868 2125.44 352.026 2125.43 353.2C2125.41 353.993 2125.28 354.781 2125.05 355.54C2123.18 362.46 2120.19 373.54 2120.02 374.06C2119.7 374.925 2119.5 375.825 2119.42 376.74C2119.42 377.714 2119.81 378.649 2120.5 379.339C2121.2 380.028 2122.13 380.417 2123.12 380.42C2123.88 380.39 2124.62 380.151 2125.25 379.73L2149.53 365.81C2151.3 364.73 2153.33 364.143 2155.41 364.11C2156.52 364.108 2157.62 364.273 2158.67 364.6C2170.46 367.937 2182.65 369.62 2194.91 369.6C2256.15 369.6 2305.79 328.5 2305.79 277.8C2305.72 262.732 2301.34 247.993 2293.17 235.3Z" fill="#2AA63C"/>
<path d="M1913.79 184H1777.21C1773 183.984 1768.82 184.794 1764.92 186.384C1761.02 187.973 1757.47 190.311 1754.48 193.263C1751.49 196.216 1749.11 199.725 1747.48 203.59C1745.86 207.455 1745.02 211.601 1745 215.79V350.63C1745.02 354.818 1745.86 358.963 1747.49 362.827C1749.11 366.691 1751.49 370.199 1754.48 373.151C1757.47 376.102 1761.02 378.439 1764.92 380.028C1768.82 381.616 1773 382.426 1777.21 382.41H1913.79C1918.01 382.427 1922.18 381.619 1926.08 380.03C1929.98 378.442 1933.53 376.105 1936.52 373.154C1939.51 370.202 1941.89 366.694 1943.52 362.829C1945.14 358.964 1945.98 354.819 1946 350.63V215.79C1945.98 211.601 1945.14 207.455 1943.52 203.59C1941.89 199.725 1939.52 196.216 1936.52 193.263C1933.53 190.311 1929.99 187.973 1926.08 186.384C1922.18 184.794 1918.01 183.984 1913.79 184Z" fill="#28AAE1"/>
<path d="M1910.42 308.58C1902.37 305.93 1891.6 301.86 1879.58 297.58C1887.13 284.493 1892.77 270.41 1896.35 255.75H1856.78V241.65H1905.3V233.79H1856.78V210.3H1836.95C1836.49 210.285 1836.04 210.362 1835.61 210.527C1835.19 210.691 1834.8 210.939 1834.48 211.256C1834.15 211.573 1833.9 211.952 1833.72 212.371C1833.55 212.789 1833.47 213.238 1833.47 213.69V233.79H1784.43V241.65H1833.5V255.74H1792.98V263.6H1871.57C1868.79 273.08 1864.99 282.235 1860.25 290.91C1834.75 282.6 1807.55 275.91 1790.45 280.02C1779.52 282.68 1772.48 287.42 1768.3 292.39C1749.31 315.2 1762.93 349.84 1803.02 349.84C1826.73 349.84 1849.57 336.84 1867.26 315.28C1893.66 327.82 1945.93 349.33 1945.93 349.33V318.67C1945.93 318.67 1939.39 318.15 1910.42 308.58ZM1799.28 336.58C1768.02 336.58 1758.77 312.27 1774.22 298.96C1779.38 294.47 1788.81 292.27 1793.82 291.78C1812.4 289.97 1829.58 296.97 1849.87 306.78C1835.65 325.11 1817.49 336.58 1799.32 336.58H1799.28Z" fill="white"/>
<path d="M1447.44 379.8L1446.12 379.61C1445.2 379.48 1444.22 379.35 1443.29 379.16C1430.21 376.54 1420.53 369.16 1414.52 357.22C1412.47 353.072 1411.24 348.576 1410.88 343.97C1410.86 343.813 1410.81 343.66 1410.73 343.52V263.24L1412.03 262.69L1412.26 262.55C1412.33 262.505 1412.4 262.464 1412.47 262.43L1415.65 260.98C1418.18 259.83 1420.8 258.63 1423.41 257.54C1425.5 256.66 1427.67 255.86 1429.78 255.09C1430.73 254.75 1431.68 254.4 1432.63 254.04L1432.83 253.95C1432.87 253.919 1432.92 253.896 1432.97 253.88L1436.92 252.59C1440.44 251.44 1444.07 250.26 1447.65 249.14C1449 248.71 1450.42 248.37 1451.79 248.04L1453.71 247.56L1455.22 247.18C1456.33 246.91 1457.47 246.62 1458.58 246.38C1461.23 245.84 1463.88 245.32 1466.52 244.8L1469.69 244.17L1470.25 244.06C1470.64 243.97 1471.03 243.89 1471.43 243.83L1472.59 243.65C1474.49 243.36 1476.39 243.07 1478.3 242.82C1479.84 242.61 1481.39 242.44 1482.95 242.27L1484.49 242.09L1484.62 242.02H1484.93L1487.15 241.81L1492.33 241.34C1493.34 241.25 1494.43 241.19 1495.52 241.15C1497.67 241.07 1499.82 241 1501.97 240.94L1504.56 240.85H1505.08C1505.38 240.819 1505.68 240.802 1505.98 240.8H1507.81C1512.51 240.91 1517.22 241.02 1521.9 241.17C1522.97 241.17 1524.06 241.3 1525.12 241.39L1526.63 241.52H1527.27L1530.66 241.88C1533.26 242.14 1535.96 242.42 1538.59 242.8C1544.23 243.63 1548.95 244.38 1553.68 245.34C1571.73 249.046 1589.25 254.986 1605.81 263.02C1606.16 263.19 1606.21 263.27 1606.21 263.7C1606.21 279.267 1606.21 294.84 1606.21 310.42V319.3C1606.21 319.49 1606.21 319.68 1606.21 319.88V320.39C1606.22 320.437 1606.22 320.484 1606.21 320.53V326.32C1606.21 331.56 1606.21 336.97 1606.21 342.32C1606.17 343.585 1606.03 344.845 1605.81 346.09C1605.72 346.69 1605.63 347.28 1605.56 347.88L1605.12 349.7V349.97C1605.12 350.12 1605.12 350.26 1605.04 350.41C1604.18 353.726 1602.87 356.909 1601.14 359.87C1599.55 362.722 1597.55 365.335 1595.22 367.63C1594.66 368.11 1594.07 368.63 1593.49 369.14C1592.18 370.3 1590.82 371.5 1589.4 372.53C1588.19 373.358 1586.93 374.106 1585.62 374.77C1585.03 375.09 1584.43 375.41 1583.86 375.77C1581.56 376.966 1579.13 377.889 1576.62 378.52L1575.51 378.76C1574.64 378.96 1573.76 379.16 1572.88 379.34C1572.23 379.47 1571.58 379.57 1570.92 379.68L1570.09 379.82L1447.44 379.8Z" fill="white"/>
<path d="M1506.03 241.48H1506.14H1507.96C1512.55 241.59 1517.29 241.7 1521.95 241.85C1523.01 241.85 1524.04 241.97 1525.14 242.07C1525.64 242.07 1526.15 242.16 1526.66 242.19H1527.27L1530.68 242.54C1533.27 242.81 1535.95 243.08 1538.57 243.47C1544.19 244.29 1548.9 245.04 1553.59 246C1571.59 249.705 1589.05 255.642 1605.56 263.67V263.73C1605.56 278.73 1605.56 293.73 1605.56 308.73V319.33C1605.56 319.52 1605.56 319.7 1605.56 319.89V320.19H1606.56V320.24L1605.56 320.32V320.46C1605.55 320.483 1605.55 320.507 1605.56 320.53V326.35C1605.56 331.57 1605.56 336.98 1605.56 342.29C1605.51 343.518 1605.37 344.741 1605.16 345.95C1605.06 346.54 1604.97 347.12 1604.9 347.7L1604.7 348.59L1604.45 349.57C1604.45 349.657 1604.45 349.744 1604.45 349.83C1604.45 349.95 1604.45 350.07 1604.38 350.19C1603.54 353.449 1602.25 356.578 1600.56 359.49C1598.99 362.272 1597.05 364.824 1594.78 367.07L1593.04 368.59C1591.68 369.79 1590.39 370.92 1589.01 371.93C1587.83 372.745 1586.59 373.48 1585.31 374.13C1584.71 374.45 1584.12 374.77 1583.54 375.13C1581.3 376.3 1578.94 377.203 1576.49 377.82L1575.38 378.06C1574.51 378.26 1573.64 378.45 1572.77 378.63C1572.13 378.76 1571.5 378.86 1570.82 378.97L1570.05 379.1H1447.52L1446.26 378.92C1445.26 378.79 1444.37 378.66 1443.47 378.48C1430.59 375.9 1421.08 368.64 1415.17 356.91C1413.17 352.839 1411.96 348.429 1411.6 343.91C1411.58 343.728 1411.53 343.549 1411.46 343.38V263.7L1412.31 263.33H1412.41H1412.49L1412.66 263.23L1412.76 263.16L1415.97 261.7C1418.49 260.55 1421.1 259.35 1423.69 258.27C1425.76 257.4 1427.93 256.61 1430.03 255.84L1432.89 254.79H1432.94H1433L1433.16 254.71L1437.11 253.42C1440.62 252.28 1444.25 251.09 1447.83 249.97C1449.16 249.56 1450.56 249.22 1451.92 248.89L1453.83 248.41L1455.37 248.03C1456.47 247.75 1457.6 247.47 1458.69 247.24C1461.32 246.7 1464 246.17 1466.58 245.66L1469.79 245.03L1470.37 244.91C1470.76 244.83 1471.13 244.75 1471.5 244.69L1472.71 244.51C1474.57 244.22 1476.48 243.93 1478.36 243.68C1479.89 243.48 1481.46 243.3 1482.97 243.13L1484.98 242.9L1487.1 242.71L1492.37 242.23C1493.38 242.14 1494.44 242.08 1495.53 242.04L1502 241.82L1504.59 241.74H1505.12C1505.41 241.74 1505.7 241.74 1505.95 241.74L1506.03 241.48ZM1505.95 240.36C1505.47 240.36 1504.94 240.42 1504.51 240.44L1495.45 240.74C1494.37 240.74 1493.3 240.84 1492.22 240.93L1484.81 241.61C1484.9 241.76 1484.97 241.93 1485.05 242.09C1484.97 241.93 1484.9 241.76 1484.81 241.61C1482.58 241.87 1480.35 242.1 1478.13 242.39C1475.9 242.68 1473.53 243.06 1471.23 243.39C1470.65 243.48 1470.07 243.62 1469.47 243.74C1465.77 244.47 1462.06 245.18 1458.4 245.95C1456.75 246.29 1455.13 246.74 1453.49 247.13C1451.48 247.66 1449.4 248.13 1447.4 248.72C1442.49 250.25 1437.61 251.87 1432.72 253.46C1432.59 253.51 1432.46 253.57 1432.34 253.64C1429.25 254.8 1426.13 255.87 1423.09 257.14C1419.41 258.68 1415.79 260.4 1412.13 262.04C1411.99 262.11 1411.85 262.21 1411.71 262.29L1410 263.03V343.67C1410.06 343.783 1410.11 343.904 1410.14 344.03C1410.51 348.724 1411.78 353.304 1413.86 357.53C1419.9 369.65 1429.69 377.14 1443.11 379.84C1444.51 380.12 1445.93 380.27 1447.34 380.49H1570.03C1571.04 380.32 1571.95 380.18 1572.91 379.99C1574.18 379.74 1575.43 379.44 1576.7 379.16C1579.27 378.518 1581.75 377.571 1584.09 376.34C1586.02 375.356 1587.89 374.268 1589.7 373.08C1591.77 371.58 1593.64 369.79 1595.59 368.13C1597.97 365.785 1600 363.123 1601.63 360.22C1603.39 357.202 1604.73 353.959 1605.6 350.58C1605.66 350.34 1605.69 350.1 1605.74 349.86C1605.88 349.23 1606.03 348.6 1606.17 347.97C1606.5 346.104 1606.72 344.221 1606.84 342.33C1606.92 335.08 1606.84 327.82 1606.84 320.56C1606.84 320.45 1606.84 320.34 1606.84 320.23L1606.53 320.05L1606.84 320.23C1606.84 319.93 1606.84 319.63 1606.84 319.33C1606.84 300.804 1606.84 282.27 1606.84 263.73C1606.87 263.456 1606.81 263.177 1606.67 262.941C1606.52 262.704 1606.3 262.524 1606.04 262.43C1589.42 254.351 1571.83 248.394 1553.7 244.7C1548.67 243.7 1543.64 242.89 1538.61 242.15C1534.84 241.6 1531.05 241.28 1527.26 240.86H1526.6C1525.01 240.74 1523.43 240.56 1521.84 240.51C1516.56 240.34 1511.28 240.23 1506.01 240.1L1505.95 240.36Z" fill="#E52A29"/>
<path d="M1503.47 335.11H1491.14C1490.01 335.057 1488.89 335.407 1488 336.095C1487.1 336.784 1486.48 337.768 1486.24 338.87C1485.23 342.95 1484.3 347.04 1483.33 351.13C1482.06 356.584 1480.78 362.037 1479.49 367.49C1479.02 369.49 1480.12 371.14 1482.05 371.17C1486.58 371.22 1491.11 371.17 1495.63 371.17C1497.35 371.17 1499.07 371.17 1500.78 371.17H1511.59C1516.63 371.17 1521.59 371.17 1526.58 371.17C1527.58 371.091 1528.53 370.692 1529.29 370.032C1530.05 369.373 1530.57 368.488 1530.78 367.51C1533.05 357.964 1535.31 348.407 1537.54 338.84C1538.06 336.63 1536.8 335.12 1534.52 335.12H1522.25C1521.42 335.12 1520.59 335.12 1519.77 335.17H1506.03L1503.47 335.11Z" fill="white"/>
<path d="M1519.77 335.17C1520.59 335.17 1521.42 335.12 1522.25 335.12H1534.49C1536.8 335.12 1538.06 336.63 1537.51 338.84C1535.28 348.4 1533.02 357.957 1530.75 367.51C1530.54 368.488 1530.02 369.373 1529.26 370.032C1528.5 370.692 1527.55 371.091 1526.55 371.17C1521.52 371.23 1516.57 371.17 1511.56 371.17C1509.7 370.17 1509.25 369.17 1509.74 367.17C1510.23 365.17 1510.65 363.22 1511.11 361.26C1512.81 354.014 1514.53 346.77 1516.25 339.53C1516.42 338.648 1516.79 337.814 1517.32 337.09C1518.07 336.369 1518.89 335.725 1519.77 335.17Z" fill="#006A67"/>
<path d="M1519.77 335.17C1518.9 335.721 1518.09 336.357 1517.35 337.07C1516.82 337.794 1516.45 338.628 1516.28 339.51C1514.54 346.75 1512.82 353.994 1511.14 361.24C1510.68 363.24 1510.23 365.18 1509.77 367.15C1509.31 369.12 1509.77 370.21 1511.59 371.15H1500.78C1499.07 371.15 1497.35 371.15 1495.63 371.15C1493.74 370.26 1493.24 369.24 1493.72 367.15C1495.64 358.95 1497.57 350.75 1499.5 342.55C1499.88 340.9 1500.25 339.23 1500.78 337.62C1500.94 337.001 1501.28 336.44 1501.75 336.002C1502.21 335.565 1502.8 335.269 1503.43 335.15L1506.03 335.1L1519.77 335.17Z" fill="#213262"/>
<path d="M1503.43 335.2C1502.8 335.319 1502.21 335.615 1501.75 336.052C1501.28 336.49 1500.94 337.051 1500.78 337.67C1500.25 339.28 1499.88 340.95 1499.5 342.6C1497.56 350.8 1495.64 359 1493.72 367.2C1493.24 369.27 1493.72 370.29 1495.63 371.2C1491.11 371.2 1486.57 371.25 1482.05 371.2C1480.12 371.2 1479.03 369.52 1479.49 367.52C1480.76 362.06 1482.04 356.607 1483.33 351.16C1484.34 347.07 1485.25 342.98 1486.24 338.9C1486.48 337.798 1487.1 336.814 1488 336.125C1488.89 335.437 1490.01 335.087 1491.14 335.14H1503.47C1503.45 335.155 1503.44 335.176 1503.43 335.2Z" fill="#E42328"/>
<path d="M1503.43 335.2C1503.42 335.186 1503.42 335.171 1503.42 335.155C1503.42 335.14 1503.42 335.125 1503.43 335.11H1505.99L1503.43 335.2Z" fill="#006A67"/>
<path d="M1606.91 223.64C1606.79 221.753 1606.57 219.873 1606.24 218.01C1606.1 217.38 1605.95 216.75 1605.81 216.12C1605.76 215.88 1605.73 215.63 1605.67 215.39C1604.8 212.012 1603.46 208.769 1601.7 205.75C1600.07 202.848 1598.04 200.186 1595.66 197.84C1593.71 196.18 1591.84 194.39 1589.77 192.84C1587.96 191.653 1586.09 190.565 1584.16 189.58C1581.82 188.35 1579.34 187.403 1576.77 186.76C1575.5 186.48 1444.58 185.76 1443.18 186.08C1429.76 188.78 1420.03 196.28 1413.94 208.39C1411.85 212.617 1410.58 217.197 1410.21 221.89C1410.18 222.017 1410.14 222.139 1410.07 222.25V303.13L1411.78 303.87C1411.92 303.95 1412.06 304.05 1412.2 304.12C1415.86 305.76 1419.48 307.48 1423.16 309.02C1426.18 310.29 1429.32 311.36 1432.41 312.52C1432.53 312.59 1432.66 312.651 1432.79 312.7C1437.68 314.29 1442.56 315.91 1447.47 317.44C1449.48 318.07 1451.5 318.51 1453.56 319.03C1455.2 319.43 1456.82 319.87 1458.47 320.21C1462.18 320.98 1465.88 321.69 1469.54 322.43C1470.14 322.54 1470.72 322.68 1471.3 322.77C1473.6 323.12 1475.89 323.49 1478.2 323.77C1480.5 324.05 1482.65 324.29 1484.88 324.55C1484.97 324.4 1485.04 324.23 1485.12 324.08C1485.04 324.23 1484.97 324.4 1484.88 324.55C1487.35 324.78 1489.82 325.02 1492.29 325.23C1493.37 325.32 1494.44 325.38 1495.52 325.42L1504.58 325.72C1505.1 325.72 1505.64 325.81 1506.16 325.8C1511.43 325.68 1516.71 325.56 1521.99 325.4C1523.58 325.4 1525.16 325.16 1526.75 325.04C1526.97 325.04 1527.19 325.04 1527.42 325.04C1531.2 324.62 1534.99 324.3 1538.76 323.75C1543.79 323.01 1548.82 322.23 1553.86 321.21C1571.98 317.508 1589.56 311.551 1606.19 303.48C1606.45 303.385 1606.68 303.203 1606.82 302.965C1606.97 302.726 1607.02 302.446 1606.99 302.17C1606.94 283.71 1606.99 230.9 1606.91 223.64ZM1429.88 222.74C1430.46 222.566 1431.07 222.485 1431.68 222.5C1436.23 222.5 1440.74 222.5 1445.34 222.5C1445.64 222.5 1445.94 222.5 1446.25 222.5C1446.57 222.5 1446.92 222.5 1447.26 222.5C1454.92 222.5 1462.59 222.5 1470.26 222.5C1470.87 222.49 1471.47 222.571 1472.06 222.74C1472.77 222.992 1473.36 223.49 1473.73 224.142C1474.1 224.794 1474.22 225.557 1474.07 226.29C1473.95 226.986 1473.59 227.62 1473.06 228.091C1472.53 228.562 1471.85 228.844 1471.14 228.89C1470.86 228.89 1470.59 228.89 1470.31 228.89H1440.11C1439.77 228.89 1439.44 228.89 1439.11 228.89H1431.06C1430.27 228.897 1429.51 228.616 1428.92 228.102C1428.32 227.587 1427.94 226.875 1427.84 226.1C1427.75 225.394 1427.9 224.676 1428.27 224.065C1428.64 223.454 1429.2 222.987 1429.88 222.74ZM1447.58 268.22H1436.68C1435.55 268.239 1434.43 267.985 1433.42 267.478C1432.41 266.971 1431.53 266.227 1430.88 265.311C1430.22 264.395 1429.8 263.334 1429.64 262.218C1429.49 261.103 1429.61 259.968 1430 258.91C1431.51 254.68 1433.09 250.46 1434.65 246.24C1434.73 246.01 1434.81 245.78 1434.93 245.47H1432.08H1428.06C1427.62 245.5 1427.18 245.441 1426.77 245.297C1426.36 245.154 1425.98 244.928 1425.66 244.635C1425.34 244.341 1425.08 243.985 1424.91 243.59C1424.73 243.194 1424.63 242.766 1424.63 242.333C1424.62 241.899 1424.7 241.469 1424.87 241.069C1425.04 240.668 1425.28 240.306 1425.6 240.003C1425.91 239.701 1426.28 239.465 1426.69 239.309C1427.09 239.154 1427.53 239.083 1427.97 239.1H1429.63C1429.88 239.1 1430.12 239.1 1430.37 239.1H1466.9C1467.14 239.1 1467.39 239.1 1467.63 239.1C1469.79 239.1 1471.96 239.1 1474.12 239.1C1474.83 239.093 1475.52 239.318 1476.09 239.741C1476.65 240.164 1477.06 240.762 1477.25 241.44C1477.46 242.122 1477.41 242.853 1477.13 243.508C1476.86 244.162 1476.36 244.701 1475.72 245.03C1475.13 245.306 1474.48 245.446 1473.82 245.44C1463.59 245.44 1453.38 245.44 1443.16 245.44C1442.88 245.394 1442.58 245.461 1442.34 245.627C1442.1 245.793 1441.94 246.046 1441.89 246.33C1440.42 250.44 1438.87 254.53 1437.39 258.63C1436.67 260.58 1437.61 261.87 1439.72 261.87H1464.54C1466.65 261.87 1467.48 260.63 1466.55 258.75L1465.18 255.84C1464.26 253.84 1464.71 252.01 1466.35 251.1C1467.99 250.19 1469.95 250.69 1471.17 252.58C1471.96 254.27 1472.75 255.95 1473.53 257.65C1474.04 258.691 1474.3 259.837 1474.28 260.996C1474.27 262.154 1473.97 263.293 1473.43 264.318C1472.89 265.343 1472.11 266.226 1471.16 266.896C1470.2 267.565 1469.11 268.002 1467.95 268.17C1467.54 268.224 1467.13 268.247 1466.71 268.24L1447.58 268.22ZM1468.78 293.22C1468.52 294.784 1467.71 296.208 1466.51 297.243C1465.3 298.277 1463.76 298.857 1462.17 298.88C1461.36 298.917 1460.56 298.864 1459.77 298.72C1459.18 298.65 1458.61 298.457 1458.1 298.154C1457.6 297.851 1457.16 297.444 1456.82 296.961C1456.48 296.477 1456.25 295.928 1456.14 295.349C1456.03 294.77 1456.04 294.174 1456.18 293.6C1456.43 291.78 1456.78 289.97 1457.08 288.16C1457.53 285.79 1457.98 283.42 1458.39 281.04C1458.47 280.55 1458.64 280.4 1459.13 280.42C1460.13 280.42 1461.06 280.42 1462.15 280.42C1462.05 281.01 1461.97 281.51 1461.89 282.02C1461.19 285.84 1460.45 289.66 1459.88 293.49C1459.86 293.821 1459.91 294.153 1460.02 294.465C1460.13 294.777 1460.31 295.061 1460.55 295.3C1460.89 295.593 1461.31 295.78 1461.75 295.839C1462.2 295.897 1462.66 295.825 1463.06 295.63C1464.64 295.07 1465.07 293.82 1465.38 292.36C1465.69 290.55 1466.03 288.75 1466.38 286.94C1466.75 284.81 1467.12 282.67 1467.49 280.48H1471.13C1471.03 281.23 1470.92 281.96 1470.82 282.69C1470.1 286.21 1469.42 289.72 1468.78 293.22ZM1482.87 296.22C1482.74 297.02 1482.59 297.83 1482.46 298.64H1478.93C1479.37 296.25 1479.78 293.9 1480.19 291.56C1480.31 290.91 1480.44 290.27 1480.54 289.62C1480.61 289.388 1480.62 289.145 1480.57 288.909C1480.53 288.672 1480.43 288.449 1480.29 288.256C1480.14 288.063 1479.95 287.906 1479.74 287.795C1479.52 287.685 1479.29 287.625 1479.04 287.62H1478.63C1476.62 287.56 1476.47 287.71 1476.14 289.62C1475.67 292.27 1475.13 294.91 1474.76 297.56C1474.64 298.41 1474.34 298.85 1473.44 298.74H1471.03C1471.29 297.24 1471.54 295.9 1471.77 294.55C1472.26 291.83 1472.77 289.11 1473.22 286.38C1473.23 286.179 1473.31 285.989 1473.45 285.841C1473.59 285.692 1473.77 285.593 1473.97 285.56C1476.32 284.838 1478.81 284.673 1481.24 285.08C1482.03 285.143 1482.76 285.499 1483.3 286.077C1483.84 286.656 1484.14 287.414 1484.14 288.2L1482.87 296.22ZM1484.15 264.57C1484.21 263.31 1484.15 262.04 1484.15 260.78C1484.15 260.48 1484.15 260.18 1484.15 259.88V241.19C1484.15 240.89 1484.15 240.59 1484.15 240.29C1484.15 238.37 1484.15 236.45 1484.22 234.54C1484.21 233.792 1484.39 233.054 1484.74 232.39C1485.13 231.793 1485.71 231.342 1486.39 231.108C1487.07 230.874 1487.81 230.872 1488.48 231.1C1489.16 231.298 1489.76 231.706 1490.18 232.263C1490.61 232.821 1490.85 233.5 1490.86 234.2C1490.86 234.36 1490.86 234.52 1490.92 234.69C1490.98 234.86 1490.92 235.07 1490.92 235.26V260.35C1490.92 260.54 1490.92 260.73 1490.92 260.92C1490.92 262.35 1490.92 263.78 1490.86 265.21C1490.85 265.775 1490.7 266.328 1490.42 266.819C1490.14 267.31 1489.74 267.724 1489.26 268.022C1488.77 268.321 1488.22 268.494 1487.66 268.527C1487.09 268.56 1486.52 268.451 1486.01 268.21C1485.38 267.849 1484.86 267.312 1484.53 266.666C1484.2 266.02 1484.07 265.291 1484.15 264.57ZM1489.03 298.57H1485.54C1485.69 297.57 1485.81 296.62 1485.97 295.66C1486.39 293.16 1486.83 290.66 1487.27 288.17C1487.44 287.17 1487.61 286.17 1487.77 285.17L1487.95 285.07H1491.4C1490.61 289.64 1489.82 294.1 1489.03 298.57ZM1489.43 283C1488.78 282.58 1488.11 282.1 1488.28 281.25C1488.35 280.76 1488.57 280.303 1488.91 279.943C1489.25 279.584 1489.7 279.341 1490.19 279.25C1490.61 279.144 1491.06 279.185 1491.46 279.367C1491.86 279.549 1492.19 279.86 1492.39 280.25C1492.44 280.641 1492.39 281.038 1492.26 281.409C1492.13 281.78 1491.91 282.114 1491.62 282.385C1491.33 282.655 1490.98 282.855 1490.6 282.967C1490.22 283.079 1489.82 283.101 1489.43 283.03V283ZM1502.99 296.61C1501.94 297.836 1500.48 298.64 1498.88 298.868C1497.28 299.097 1495.65 298.735 1494.3 297.85C1493.64 297.154 1493.16 296.313 1492.88 295.396C1492.61 294.479 1492.56 293.511 1492.73 292.57C1493.06 289.87 1493.99 287.44 1496.38 285.86C1498.33 284.57 1502.83 283.99 1504.69 287.05C1505.34 288.646 1505.53 290.392 1505.23 292.088C1504.92 293.784 1504.15 295.362 1502.99 296.64V296.61ZM1498.55 252.2C1497.97 252.73 1497.22 253.036 1496.44 253.062C1495.65 253.088 1494.88 252.831 1494.27 252.34C1493.89 252.031 1493.58 251.643 1493.37 251.202C1493.15 250.761 1493.04 250.279 1493.03 249.789C1493.03 249.3 1493.13 248.815 1493.33 248.37C1493.54 247.924 1493.84 247.528 1494.21 247.21C1498.32 243.124 1502.45 239.04 1506.58 234.96C1508.41 233.15 1510.22 233.16 1512.08 234.96C1515.28 238.13 1518.49 241.29 1521.67 244.48C1521.86 244.743 1522.01 245.033 1522.12 245.34C1523.33 244.12 1524.27 243.22 1525.14 242.27C1525.4 241.97 1525.55 241.594 1525.56 241.2C1525.56 237.93 1525.56 234.65 1525.56 231.38C1525.56 229.52 1524.75 228.7 1522.89 228.7H1497.67C1497.36 228.7 1497.06 228.7 1496.76 228.7C1496.01 228.7 1495.26 228.61 1494.51 228.7C1493.53 228.725 1492.55 228.534 1491.65 228.142C1490.75 227.75 1489.94 227.165 1489.29 226.43C1488.52 225.707 1487.89 224.85 1487.44 223.9C1487.16 223.245 1487.13 222.508 1487.37 221.834C1487.6 221.161 1488.08 220.6 1488.72 220.26C1489.33 219.882 1490.06 219.73 1490.78 219.831C1491.5 219.931 1492.15 220.278 1492.64 220.81C1493.16 221.41 1493.81 221.875 1494.55 222.164C1495.28 222.453 1496.08 222.559 1496.87 222.47C1502.13 222.38 1507.41 222.47 1512.68 222.47C1512.98 222.47 1513.28 222.47 1513.6 222.47H1524.74C1526.06 222.378 1527.38 222.664 1528.54 223.295C1529.71 223.926 1530.66 224.875 1531.3 226.03C1531.76 227.073 1532.08 228.173 1532.25 229.3C1532.3 229.819 1532.3 230.342 1532.25 230.86V235.23C1532.53 234.97 1532.74 234.78 1532.93 234.58C1537.6 229.96 1542.31 225.37 1546.92 220.69C1547.26 220.351 1547.67 220.088 1548.12 219.917C1548.57 219.746 1549.05 219.672 1549.53 219.699C1550.01 219.726 1550.48 219.855 1550.91 220.076C1551.34 220.296 1551.71 220.605 1552.01 220.98C1552.07 221.038 1552.13 221.088 1552.19 221.13C1553.14 222.99 1552.57 224.47 1551.19 225.87C1542.51 234.437 1533.85 243.004 1525.2 251.57C1524.63 252.126 1523.98 252.588 1523.27 252.94C1522.77 253.138 1522.22 253.197 1521.69 253.108C1521.16 253.02 1520.66 252.789 1520.25 252.44L1510.28 242.57L1505.2 237.57L1505.03 237.75C1505.68 239.56 1506.34 241.36 1506.96 243.18C1507.01 243.323 1507.02 243.474 1507 243.622C1506.98 243.771 1506.93 243.913 1506.85 244.04C1504.11 246.76 1501.35 249.51 1498.55 252.23V252.2ZM1519.69 289.42C1519.16 292.33 1518.68 295.24 1518.1 298.15C1518.1 298.33 1517.81 298.59 1517.66 298.6C1516.66 298.6 1515.65 298.6 1514.53 298.6L1515.14 294.71C1515.47 292.94 1515.84 291.17 1516.14 289.38C1516.19 289.162 1516.19 288.936 1516.13 288.72C1516.08 288.503 1515.98 288.301 1515.84 288.128C1515.7 287.955 1515.52 287.816 1515.31 287.721C1515.11 287.627 1514.89 287.578 1514.66 287.58H1514.33C1512.32 287.48 1512.11 287.65 1511.76 289.58C1511.26 292.33 1510.76 295.09 1510.28 297.84C1510.28 298.11 1510.16 298.37 1510.09 298.63H1506.67C1506.86 297.37 1507.02 296.15 1507.24 294.93C1507.54 293.2 1507.86 291.48 1508.17 289.75C1508.4 288.49 1508.61 287.24 1508.87 285.98C1508.9 285.908 1508.95 285.843 1509.02 285.79C1509.08 285.736 1509.15 285.696 1509.23 285.67C1511.71 284.78 1514.38 284.572 1516.97 285.07C1519.16 285.49 1519.97 286.92 1519.67 289.45L1519.69 289.42ZM1517.58 266.37C1517.42 265.807 1517.4 265.212 1517.53 264.639C1517.66 264.067 1517.93 263.538 1518.33 263.1C1518.61 262.791 1518.96 262.551 1519.36 262.397C1519.75 262.243 1520.17 262.179 1520.59 262.21H1522.84C1524.85 262.21 1525.5 261.21 1525.6 259.5C1525.67 258.13 1525.6 256.75 1525.6 255.38C1525.63 254.967 1525.79 254.574 1526.07 254.26C1527.92 252.36 1529.82 250.51 1531.7 248.65C1531.81 248.53 1531.94 248.43 1532.28 248.14V259.77C1532.3 260.675 1532.27 261.58 1532.18 262.48C1531.93 264.183 1531.06 265.736 1529.73 266.843C1528.41 267.949 1526.72 268.532 1524.99 268.48H1523.42C1522.41 268.48 1521.48 268.48 1520.51 268.48C1519.86 268.496 1519.22 268.302 1518.69 267.928C1518.16 267.553 1517.76 267.017 1517.56 266.4L1517.58 266.37ZM1528.77 291.61C1527.87 291.61 1526.96 291.74 1525.97 291.82C1525.56 294.02 1525.16 296.27 1524.75 298.51H1521.22C1521.52 296.68 1521.81 294.87 1522.13 293.06C1522.45 291.25 1522.84 289.38 1523.14 287.54C1523.14 287.25 1523.21 286.94 1523.24 286.65C1523.55 285.01 1523.9 283.39 1524.16 281.75C1524.17 281.52 1524.25 281.298 1524.41 281.13C1524.57 280.961 1524.79 280.858 1525.02 280.84L1529.9 280.07C1530.88 280.162 1531.86 280.333 1532.81 280.58C1535.42 281.46 1536.22 283.38 1535.83 285.78C1535.27 289.77 1531.81 291.57 1528.75 291.64L1528.77 291.61ZM1547.9 289.47C1547.46 292.12 1546.97 294.76 1546.46 297.39C1546.41 297.56 1546.33 297.717 1546.22 297.852C1546.1 297.987 1545.96 298.095 1545.8 298.17C1543.54 298.961 1541.11 299.144 1538.76 298.7C1536.53 298.27 1535.74 297.28 1535.59 295.06C1535.86 292.39 1537.6 291.06 1540.03 290.49C1541.15 290.21 1542.32 290.13 1543.47 289.94C1543.91 289.87 1544.47 290.15 1544.61 289.35C1544.74 288.35 1544.61 287.7 1543.78 287.53C1542.97 287.357 1542.14 287.313 1541.32 287.4C1540.35 287.548 1539.39 287.751 1538.45 288.01L1537.98 285.74C1540.46 284.794 1543.16 284.559 1545.76 285.06C1548.09 286.03 1548.14 287.82 1547.87 289.5L1547.9 289.47ZM1545.65 265.18V264.53C1545.65 260.99 1545.65 257.46 1545.65 253.93C1545.65 251.68 1545.65 249.44 1545.65 247.19C1545.65 243.4 1545.65 239.61 1545.65 235.81C1545.64 235.504 1545.7 235.198 1545.82 234.916C1545.94 234.634 1546.12 234.382 1546.36 234.18C1548.12 232.49 1549.83 230.77 1551.55 229.06C1551.74 228.87 1551.94 228.69 1552.3 228.36C1552.3 228.83 1552.3 229.11 1552.3 229.36V248.58C1552.3 248.88 1552.3 249.18 1552.3 249.48C1552.3 253.847 1552.3 258.21 1552.3 262.57V265.04C1552.32 265.518 1552.23 265.995 1552.05 266.437C1551.87 266.879 1551.59 267.275 1551.23 267.598C1550.88 267.92 1550.45 268.161 1549.99 268.303C1549.53 268.445 1549.05 268.485 1548.57 268.42C1546.76 268.39 1545.74 267.1 1545.62 265.21L1545.65 265.18ZM1561.36 290.08C1558.95 294.42 1556.5 298.75 1554.13 303.08C1553.97 303.419 1553.71 303.698 1553.38 303.878C1553.05 304.058 1552.68 304.129 1552.31 304.08C1551.54 304.08 1550.78 304.08 1549.78 304.08L1551.92 300.29C1552.32 299.804 1552.59 299.229 1552.71 298.616C1552.83 298.002 1552.8 297.369 1552.62 296.77C1551.77 293.11 1551.08 289.41 1550.33 285.72C1550.33 285.53 1550.28 285.34 1550.24 285.08H1554.13C1554.53 288.39 1554.93 291.74 1555.34 295.18C1555.58 294.63 1555.79 294.11 1556.02 293.61C1557.03 291.55 1558.03 289.5 1558.97 287.44C1559.25 286.83 1559.55 286.23 1559.79 285.6C1559.84 285.403 1559.97 285.232 1560.14 285.121C1560.31 285.009 1560.52 284.967 1560.72 285C1561.73 285 1562.82 285 1564.05 285L1561.36 290.08ZM1568.22 254.19C1564.96 250.957 1561.71 247.734 1558.44 244.52C1558.35 244.425 1558.25 244.335 1558.14 244.25C1556.92 241.98 1557.56 239.84 1559.68 239.07C1560.22 238.886 1560.8 238.833 1561.36 238.915C1561.92 238.996 1562.46 239.211 1562.92 239.54C1566.28 242.874 1569.63 246.207 1572.99 249.54C1573.46 249.967 1573.8 250.524 1573.96 251.142C1574.12 251.76 1574.09 252.41 1573.87 253.01C1573.7 253.611 1573.35 254.146 1572.86 254.546C1572.38 254.945 1571.78 255.191 1571.16 255.25C1570.62 255.331 1570.06 255.277 1569.55 255.092C1569.04 254.907 1568.58 254.597 1568.22 254.19ZM1591.79 234.04C1591.22 234.223 1590.63 234.324 1590.03 234.34C1589.73 234.356 1589.42 234.356 1589.12 234.34H1587.34V236.13C1587.34 237.13 1587.34 238.05 1587.34 239.01C1587.34 246.23 1587.34 253.45 1587.34 260.67C1587.44 262.573 1586.88 264.452 1585.73 265.98L1584.93 266.77C1583.29 268.017 1581.24 268.619 1579.18 268.46C1578.07 268.46 1576.96 268.46 1575.86 268.46C1575.42 268.484 1574.97 268.417 1574.56 268.263C1574.15 268.11 1573.77 267.873 1573.45 267.568C1573.14 267.263 1572.88 266.896 1572.72 266.49C1572.55 266.085 1572.47 265.649 1572.47 265.21C1572.46 264.821 1572.53 264.434 1572.67 264.071C1572.82 263.708 1573.03 263.377 1573.3 263.097C1573.58 262.818 1573.9 262.595 1574.26 262.443C1574.62 262.291 1575.01 262.212 1575.4 262.21C1576.34 262.21 1577.29 262.21 1578.23 262.21C1578.54 262.22 1578.84 262.169 1579.13 262.061C1579.42 261.953 1579.68 261.79 1579.9 261.581C1580.13 261.372 1580.31 261.121 1580.43 260.843C1580.56 260.565 1580.63 260.265 1580.64 259.96C1580.64 256.81 1580.64 253.65 1580.64 250.5V238.4C1580.64 237.08 1580.64 235.76 1580.64 234.35H1567.76C1564.94 234.35 1562.11 234.35 1559.28 234.35C1558.64 234.368 1558.01 234.183 1557.49 233.824C1556.96 233.465 1556.56 232.949 1556.35 232.35C1556.16 231.86 1556.1 231.33 1556.18 230.809C1556.25 230.289 1556.45 229.796 1556.77 229.375C1557.09 228.955 1557.5 228.62 1557.99 228.402C1558.47 228.185 1558.99 228.091 1559.52 228.13H1565.27H1580.63C1580.63 226.56 1580.63 224.97 1580.63 223.39C1580.64 222.803 1580.74 222.22 1580.92 221.66C1581.18 220.978 1581.67 220.412 1582.32 220.068C1582.97 219.724 1583.72 219.625 1584.43 219.79C1585.2 219.866 1585.91 220.218 1586.43 220.78C1586.96 221.342 1587.25 222.075 1587.27 222.84C1587.27 224.56 1587.27 226.29 1587.27 228.08C1589.12 228.4 1591.18 227.6 1592.75 229.13L1593.4 230.13C1593.79 232.06 1593.27 233.42 1591.77 234.04H1591.79Z" fill="#E52A29"/>
<path d="M1505.09 237.23L1504.9 237.38L1505.03 237.71L1505.2 237.53L1505.09 237.23Z" fill="#E52A29"/>
<path d="M1498.34 288.01C1497.73 288.48 1497.26 289.096 1496.96 289.8C1496.58 290.913 1496.27 292.049 1496.03 293.2H1496.16C1496.16 293.53 1496.16 293.86 1496.24 294.2C1496.25 294.508 1496.32 294.81 1496.46 295.083C1496.6 295.356 1496.81 295.591 1497.06 295.769C1497.31 295.947 1497.6 296.063 1497.91 296.106C1498.22 296.15 1498.53 296.121 1498.82 296.02C1499.45 295.86 1500.02 295.511 1500.44 295.02C1501.05 294.215 1501.48 293.295 1501.72 292.316C1501.95 291.337 1501.98 290.321 1501.8 289.33C1501.79 288.937 1501.66 288.557 1501.43 288.237C1501.2 287.917 1500.88 287.671 1500.51 287.53C1500.14 287.389 1499.74 287.36 1499.35 287.445C1498.96 287.53 1498.61 287.727 1498.34 288.01Z" fill="#E52A29"/>
<path d="M1530.56 283.05C1529.68 282.956 1528.79 282.956 1527.92 283.05C1527.81 283.081 1527.71 283.137 1527.63 283.213C1527.55 283.29 1527.49 283.385 1527.46 283.49C1527.11 285.24 1526.82 286.99 1526.45 289C1527.43 288.992 1528.41 288.922 1529.39 288.79C1530.18 288.682 1530.91 288.304 1531.45 287.72C1531.99 287.136 1532.31 286.383 1532.36 285.59C1532.43 285.304 1532.44 285.007 1532.38 284.717C1532.33 284.428 1532.21 284.154 1532.04 283.913C1531.87 283.672 1531.65 283.471 1531.39 283.322C1531.14 283.173 1530.85 283.08 1530.56 283.05Z" fill="#E52A29"/>
<path d="M1538.95 295.13C1538.99 295.452 1539.14 295.75 1539.38 295.971C1539.61 296.193 1539.92 296.324 1540.25 296.34C1541.15 296.415 1542.06 296.415 1542.97 296.34C1543.14 296.34 1543.38 296.01 1543.42 295.8C1543.66 294.65 1543.85 293.48 1544.09 292.17C1542.61 292.3 1541.18 292.26 1539.94 293.05C1539.58 293.262 1539.3 293.573 1539.13 293.943C1538.95 294.313 1538.89 294.726 1538.95 295.13Z" fill="#E52A29"/>
<path d="M1471.17 252.57C1471.96 254.26 1472.75 255.94 1473.53 257.64C1474.04 258.681 1474.3 259.827 1474.28 260.986C1474.27 262.144 1473.97 263.283 1473.43 264.308C1472.89 265.333 1472.11 266.216 1471.16 266.886C1470.2 267.555 1469.11 267.992 1467.95 268.16C1467.54 268.214 1467.13 268.237 1466.71 268.23H1447.59H1436.69C1435.56 268.249 1434.44 267.995 1433.43 267.488C1432.42 266.981 1431.54 266.237 1430.89 265.321C1430.23 264.405 1429.81 263.343 1429.65 262.228C1429.5 261.113 1429.62 259.978 1430.01 258.92C1431.52 254.69 1433.1 250.47 1434.66 246.25C1434.74 246.02 1434.82 245.79 1434.94 245.48H1432.09H1428.07C1427.63 245.51 1427.19 245.451 1426.78 245.307C1426.37 245.164 1425.99 244.938 1425.67 244.645C1425.35 244.351 1425.09 243.995 1424.92 243.6C1424.74 243.204 1424.64 242.776 1424.64 242.343C1424.63 241.909 1424.71 241.479 1424.88 241.079C1425.05 240.678 1425.29 240.316 1425.61 240.013C1425.92 239.711 1426.29 239.474 1426.7 239.319C1427.1 239.164 1427.54 239.093 1427.98 239.11H1429.64C1429.89 239.11 1430.13 239.11 1430.38 239.11H1466.91C1467.15 239.11 1467.4 239.11 1467.64 239.11C1469.8 239.11 1471.97 239.11 1474.13 239.11C1474.84 239.103 1475.53 239.328 1476.1 239.751C1476.66 240.174 1477.07 240.772 1477.26 241.45C1477.47 242.132 1477.42 242.863 1477.14 243.518C1476.87 244.172 1476.37 244.711 1475.73 245.04C1475.14 245.316 1474.49 245.456 1473.83 245.45C1463.6 245.45 1453.39 245.45 1443.17 245.45C1442.89 245.404 1442.59 245.47 1442.35 245.637C1442.11 245.803 1441.95 246.056 1441.9 246.34C1440.43 250.45 1438.88 254.54 1437.4 258.64C1436.68 260.59 1437.62 261.88 1439.73 261.88H1464.55C1466.66 261.88 1467.49 260.64 1466.56 258.76L1465.19 255.85C1464.27 253.85 1464.72 252.02 1466.36 251.11C1468 250.2 1469.95 250.64 1471.17 252.57Z" fill="white"/>
<path d="M1446.25 222.45C1446.59 222.45 1446.92 222.45 1447.26 222.45C1454.92 222.45 1462.59 222.45 1470.26 222.45C1470.87 222.44 1471.47 222.52 1472.06 222.69C1472.77 222.942 1473.36 223.44 1473.73 224.092C1474.1 224.744 1474.22 225.507 1474.07 226.24C1473.95 226.936 1473.59 227.57 1473.06 228.041C1472.53 228.512 1471.85 228.794 1471.14 228.84C1470.86 228.84 1470.59 228.84 1470.31 228.84H1440.11C1439.77 228.84 1439.44 228.84 1439.11 228.84H1431.06C1430.27 228.847 1429.51 228.566 1428.92 228.052C1428.32 227.537 1427.94 226.825 1427.84 226.05C1427.75 225.336 1427.9 224.611 1428.28 223.997C1428.66 223.383 1429.24 222.918 1429.93 222.68C1430.51 222.506 1431.12 222.425 1431.73 222.44C1436.28 222.44 1440.79 222.44 1445.39 222.44C1445.64 222.49 1445.94 222.46 1446.25 222.45Z" fill="white"/>
<path d="M1532.29 230.88V235.25C1532.57 234.99 1532.78 234.8 1532.97 234.6C1537.64 229.98 1542.35 225.39 1546.96 220.71C1547.3 220.371 1547.71 220.107 1548.16 219.937C1548.61 219.766 1549.09 219.692 1549.57 219.719C1550.05 219.746 1550.52 219.875 1550.95 220.096C1551.38 220.316 1551.75 220.625 1552.05 221C1552.11 221.058 1552.17 221.108 1552.23 221.15C1553.18 223.01 1552.61 224.49 1551.23 225.89C1542.53 234.444 1533.85 243.004 1525.2 251.57C1524.63 252.126 1523.98 252.588 1523.27 252.94C1522.77 253.138 1522.22 253.197 1521.69 253.108C1521.16 253.02 1520.66 252.789 1520.25 252.44L1510.28 242.57L1505.2 237.57L1505.09 237.27L1504.9 237.42L1505.03 237.75C1505.68 239.56 1506.34 241.36 1506.96 243.18C1507.01 243.323 1507.02 243.474 1507 243.622C1506.98 243.771 1506.93 243.913 1506.85 244.04C1504.11 246.8 1501.35 249.55 1498.55 252.27C1497.97 252.8 1497.22 253.106 1496.44 253.132C1495.65 253.158 1494.88 252.901 1494.27 252.41C1493.89 252.101 1493.58 251.713 1493.37 251.272C1493.15 250.831 1493.04 250.349 1493.03 249.859C1493.03 249.37 1493.13 248.885 1493.33 248.44C1493.54 247.994 1493.84 247.598 1494.21 247.28C1498.32 243.194 1502.45 239.11 1506.58 235.03C1508.41 233.22 1510.22 233.23 1512.08 235.03C1515.28 238.2 1518.49 241.36 1521.67 244.55C1521.86 244.813 1522.01 245.103 1522.12 245.41C1523.33 244.19 1524.27 243.29 1525.14 242.34C1525.4 242.04 1525.55 241.664 1525.56 241.27C1525.56 238 1525.56 234.72 1525.56 231.45C1525.56 229.59 1524.75 228.77 1522.89 228.77H1497.67C1497.36 228.77 1497.06 228.77 1496.76 228.77C1496.01 228.77 1495.26 228.68 1494.51 228.77C1493.53 228.795 1492.55 228.604 1491.65 228.212C1490.75 227.82 1489.94 227.235 1489.29 226.5C1488.52 225.777 1487.89 224.92 1487.44 223.97C1487.16 223.315 1487.13 222.578 1487.37 221.904C1487.6 221.231 1488.08 220.669 1488.72 220.33C1489.33 219.952 1490.06 219.8 1490.78 219.901C1491.5 220.001 1492.15 220.348 1492.64 220.88C1493.16 221.48 1493.81 221.944 1494.55 222.234C1495.28 222.523 1496.08 222.629 1496.87 222.54C1502.13 222.45 1507.41 222.54 1512.68 222.54C1512.98 222.54 1513.28 222.54 1513.6 222.54H1524.74C1526.06 222.448 1527.38 222.734 1528.54 223.365C1529.71 223.996 1530.66 224.945 1531.3 226.1C1531.76 227.143 1532.08 228.243 1532.25 229.37C1532.31 229.871 1532.33 230.377 1532.29 230.88Z" fill="white"/>
<path d="M1490.89 234.69C1490.89 234.88 1490.89 235.07 1490.89 235.26V260.35C1490.89 260.54 1490.89 260.73 1490.89 260.92C1490.89 262.35 1490.89 263.78 1490.83 265.21C1490.82 265.775 1490.67 266.328 1490.39 266.819C1490.11 267.31 1489.71 267.724 1489.23 268.022C1488.74 268.321 1488.19 268.494 1487.63 268.527C1487.06 268.56 1486.49 268.451 1485.98 268.21C1485.35 267.846 1484.85 267.311 1484.52 266.669C1484.2 266.027 1484.07 265.305 1484.15 264.59C1484.21 263.33 1484.15 262.06 1484.15 260.8C1484.15 260.5 1484.15 260.2 1484.15 259.9V241.19C1484.15 240.89 1484.15 240.59 1484.15 240.29C1484.15 238.37 1484.15 236.45 1484.22 234.54C1484.21 233.792 1484.39 233.054 1484.74 232.39C1485.13 231.793 1485.71 231.342 1486.39 231.108C1487.07 230.874 1487.81 230.872 1488.48 231.1C1489.16 231.298 1489.76 231.706 1490.18 232.263C1490.61 232.821 1490.85 233.5 1490.86 234.2C1490.84 234.36 1490.87 234.57 1490.89 234.69Z" fill="white"/>
<path d="M1592.78 229.07L1593.43 230.07C1593.79 232.07 1593.27 233.43 1591.77 234.07C1591.2 234.253 1590.61 234.354 1590.01 234.37C1589.71 234.386 1589.4 234.386 1589.1 234.37H1587.34V236.16C1587.34 237.16 1587.34 238.08 1587.34 239.04C1587.34 246.26 1587.34 253.48 1587.34 260.7C1587.44 262.603 1586.88 264.482 1585.73 266.01L1584.93 266.8C1583.29 268.047 1581.24 268.649 1579.18 268.49C1578.07 268.49 1576.96 268.49 1575.86 268.49C1575.42 268.514 1574.97 268.447 1574.56 268.293C1574.15 268.14 1573.77 267.903 1573.45 267.598C1573.14 267.293 1572.88 266.926 1572.72 266.52C1572.55 266.115 1572.47 265.679 1572.47 265.24C1572.46 264.851 1572.53 264.464 1572.67 264.101C1572.82 263.738 1573.03 263.407 1573.3 263.127C1573.58 262.848 1573.9 262.625 1574.26 262.473C1574.62 262.321 1575.01 262.242 1575.4 262.24C1576.34 262.24 1577.29 262.24 1578.23 262.24C1578.54 262.25 1578.84 262.199 1579.13 262.091C1579.42 261.983 1579.68 261.82 1579.9 261.611C1580.13 261.402 1580.31 261.151 1580.43 260.873C1580.56 260.595 1580.63 260.295 1580.64 259.99C1580.64 256.84 1580.64 253.68 1580.64 250.53V238.43C1580.64 237.11 1580.64 235.79 1580.64 234.38H1567.76C1564.94 234.38 1562.11 234.38 1559.28 234.38C1558.64 234.398 1558.01 234.213 1557.49 233.854C1556.96 233.494 1556.56 232.979 1556.35 232.38C1556.16 231.89 1556.1 231.36 1556.18 230.839C1556.25 230.319 1556.45 229.826 1556.77 229.405C1557.09 228.984 1557.5 228.65 1557.99 228.432C1558.47 228.215 1558.99 228.121 1559.52 228.16H1565.27H1580.63C1580.63 226.59 1580.63 225 1580.63 223.42C1580.64 222.833 1580.74 222.25 1580.92 221.69C1581.18 221.008 1581.67 220.442 1582.32 220.098C1582.97 219.754 1583.72 219.655 1584.43 219.82C1585.2 219.896 1585.91 220.248 1586.43 220.81C1586.96 221.372 1587.25 222.105 1587.27 222.87C1587.27 224.59 1587.27 226.32 1587.27 228.11C1589.15 228.34 1591.21 227.57 1592.78 229.07Z" fill="white"/>
<path d="M1551.89 300.38C1552.29 299.894 1552.56 299.319 1552.68 298.706C1552.8 298.092 1552.77 297.459 1552.59 296.86C1551.74 293.2 1551.05 289.5 1550.3 285.81C1550.3 285.62 1550.25 285.43 1550.21 285.17H1554.13C1554.53 288.48 1554.93 291.83 1555.34 295.27C1555.58 294.72 1555.79 294.2 1556.02 293.7C1557.03 291.64 1558.03 289.59 1558.97 287.53C1559.25 286.92 1559.55 286.32 1559.79 285.69C1559.84 285.493 1559.97 285.322 1560.14 285.211C1560.31 285.099 1560.52 285.056 1560.72 285.09C1561.73 285.09 1562.82 285.09 1564.05 285.09L1561.32 290.09C1558.91 294.43 1556.46 298.76 1554.09 303.09C1553.93 303.429 1553.67 303.708 1553.34 303.888C1553.01 304.068 1552.64 304.139 1552.26 304.09C1551.5 304.09 1550.73 304.09 1549.74 304.09L1551.89 300.38Z" fill="white"/>
<path d="M1545.59 264.57C1545.59 261.03 1545.59 257.5 1545.59 253.97C1545.59 251.72 1545.59 249.48 1545.59 247.23C1545.59 243.44 1545.59 239.65 1545.59 235.85C1545.58 235.544 1545.64 235.238 1545.76 234.956C1545.88 234.674 1546.06 234.422 1546.3 234.22C1548.06 232.53 1549.77 230.81 1551.49 229.1C1551.68 228.91 1551.88 228.73 1552.23 228.4C1552.23 228.87 1552.23 229.15 1552.23 229.4V248.62C1552.23 248.92 1552.23 249.22 1552.23 249.52C1552.23 253.887 1552.23 258.25 1552.23 262.61V265.08C1552.26 265.558 1552.17 266.035 1551.99 266.477C1551.81 266.919 1551.53 267.315 1551.17 267.638C1550.81 267.96 1550.39 268.201 1549.93 268.343C1549.47 268.485 1548.99 268.525 1548.51 268.46C1546.7 268.38 1545.68 267.09 1545.56 265.2L1545.59 264.57Z" fill="white"/>
<path d="M1532.29 259.77C1532.31 260.675 1532.28 261.58 1532.19 262.48C1531.94 264.183 1531.07 265.736 1529.74 266.843C1528.42 267.949 1526.73 268.532 1525 268.48H1523.43C1522.42 268.48 1521.49 268.48 1520.52 268.48C1519.87 268.498 1519.22 268.304 1518.69 267.927C1518.16 267.55 1517.76 267.01 1517.56 266.39C1517.4 265.827 1517.38 265.232 1517.51 264.659C1517.64 264.087 1517.91 263.558 1518.31 263.12C1518.59 262.811 1518.94 262.571 1519.34 262.417C1519.73 262.263 1520.15 262.199 1520.57 262.23H1522.82C1524.83 262.23 1525.48 261.23 1525.58 259.52C1525.65 258.15 1525.58 256.77 1525.58 255.4C1525.61 254.987 1525.77 254.594 1526.05 254.28C1527.9 252.38 1529.8 250.53 1531.68 248.67C1531.79 248.55 1531.92 248.45 1532.26 248.16L1532.29 259.77Z" fill="white"/>
<path d="M1562.9 239.57C1566.26 242.904 1569.61 246.237 1572.97 249.57C1573.44 249.997 1573.78 250.554 1573.94 251.172C1574.1 251.79 1574.07 252.44 1573.85 253.04C1573.68 253.641 1573.33 254.176 1572.84 254.576C1572.36 254.975 1571.76 255.221 1571.14 255.28C1570.6 255.367 1570.06 255.321 1569.55 255.147C1569.03 254.972 1568.57 254.674 1568.21 254.28C1564.95 251.047 1561.7 247.824 1558.43 244.61C1558.34 244.515 1558.24 244.425 1558.13 244.34C1556.91 242.07 1557.55 239.93 1559.67 239.16C1560.21 238.969 1560.78 238.907 1561.34 238.978C1561.9 239.05 1562.44 239.253 1562.9 239.57Z" fill="white"/>
<path d="M1473.42 298.7H1471.01C1471.27 297.2 1471.52 295.86 1471.75 294.51C1472.24 291.79 1472.75 289.07 1473.2 286.34C1473.21 286.139 1473.29 285.949 1473.43 285.801C1473.57 285.652 1473.75 285.553 1473.95 285.52C1476.3 284.798 1478.79 284.633 1481.22 285.04C1482.01 285.103 1482.74 285.459 1483.28 286.037C1483.82 286.616 1484.12 287.374 1484.12 288.16C1483.69 290.84 1483.27 293.51 1482.84 296.16C1482.72 296.96 1482.57 297.77 1482.44 298.58H1478.91C1479.35 296.19 1479.76 293.84 1480.17 291.5C1480.29 290.85 1480.42 290.21 1480.52 289.56C1480.59 289.328 1480.6 289.085 1480.55 288.849C1480.51 288.612 1480.41 288.389 1480.27 288.196C1480.12 288.003 1479.93 287.846 1479.72 287.735C1479.5 287.625 1479.27 287.565 1479.02 287.56H1478.61C1476.6 287.5 1476.45 287.65 1476.12 289.56C1475.65 292.21 1475.11 294.85 1474.74 297.5C1474.62 298.37 1474.32 298.81 1473.42 298.7Z" fill="white"/>
<path d="M1504.7 287.03C1505.35 288.63 1505.54 290.38 1505.24 292.08C1504.93 293.78 1504.15 295.361 1502.99 296.64C1501.94 297.866 1500.48 298.67 1498.88 298.898C1497.28 299.127 1495.65 298.765 1494.3 297.88C1493.64 297.18 1493.15 296.335 1492.88 295.412C1492.6 294.489 1492.55 293.516 1492.73 292.57C1493.06 289.87 1493.99 287.44 1496.38 285.86C1498.34 284.57 1502.8 283.97 1504.7 287.03ZM1496.03 293.2H1496.16C1496.16 293.53 1496.16 293.86 1496.24 294.2C1496.25 294.508 1496.32 294.81 1496.46 295.083C1496.6 295.356 1496.81 295.591 1497.06 295.769C1497.31 295.947 1497.6 296.063 1497.91 296.106C1498.22 296.15 1498.53 296.121 1498.82 296.02C1499.45 295.86 1500.02 295.511 1500.44 295.02C1501.05 294.215 1501.48 293.295 1501.72 292.316C1501.95 291.337 1501.98 290.321 1501.8 289.33C1501.79 288.938 1501.65 288.559 1501.42 288.241C1501.19 287.922 1500.87 287.677 1500.51 287.538C1500.14 287.398 1499.73 287.369 1499.35 287.455C1498.96 287.541 1498.61 287.738 1498.34 288.02C1497.73 288.49 1497.26 289.106 1496.96 289.81C1496.58 290.92 1496.27 292.052 1496.03 293.2Z" fill="white"/>
<path d="M1487.77 285.2L1487.95 285.1H1491.4C1490.61 289.64 1489.82 294.1 1489.03 298.6H1485.54C1485.69 297.6 1485.81 296.65 1485.97 295.69C1486.39 293.19 1486.83 290.69 1487.27 288.2C1487.44 287.2 1487.61 286.2 1487.77 285.2Z" fill="white"/>
<path d="M1489.43 283.03C1488.78 282.61 1488.11 282.13 1488.28 281.28C1488.35 280.79 1488.57 280.332 1488.91 279.973C1489.25 279.614 1489.7 279.371 1490.19 279.28C1490.61 279.174 1491.06 279.215 1491.46 279.397C1491.86 279.579 1492.19 279.89 1492.39 280.28C1492.43 280.669 1492.39 281.062 1492.25 281.429C1492.11 281.796 1491.89 282.126 1491.61 282.393C1491.32 282.66 1490.97 282.857 1490.59 282.968C1490.22 283.078 1489.82 283.1 1489.43 283.03Z" fill="white"/>
<path d="M1523.27 286.68C1523.58 285.04 1523.93 283.42 1524.19 281.78C1524.2 281.55 1524.29 281.328 1524.44 281.16C1524.6 280.991 1524.82 280.888 1525.05 280.87L1529.93 280.1C1530.91 280.192 1531.89 280.363 1532.84 280.61C1535.45 281.49 1536.25 283.41 1535.86 285.81C1535.25 289.81 1531.83 291.54 1528.73 291.64C1527.83 291.64 1526.92 291.77 1525.93 291.85C1525.52 294.05 1525.12 296.3 1524.71 298.54H1521.17C1521.48 296.71 1521.77 294.9 1522.09 293.09C1522.41 291.28 1522.8 289.41 1523.1 287.57C1523.22 287.28 1523.24 286.97 1523.27 286.68ZM1526.47 289.03C1527.45 289.022 1528.43 288.952 1529.41 288.82C1530.2 288.712 1530.93 288.334 1531.47 287.75C1532.01 287.166 1532.33 286.413 1532.38 285.62C1532.45 285.331 1532.46 285.028 1532.41 284.734C1532.36 284.44 1532.24 284.161 1532.07 283.916C1531.89 283.671 1531.67 283.467 1531.41 283.318C1531.15 283.168 1530.86 283.077 1530.56 283.05C1529.68 282.956 1528.79 282.956 1527.92 283.05C1527.81 283.081 1527.71 283.137 1527.63 283.213C1527.55 283.29 1527.49 283.385 1527.46 283.49C1527.11 285.27 1526.82 287.02 1526.47 289.03Z" fill="white"/>
<path d="M1515.12 294.76C1515.45 292.99 1515.82 291.22 1516.12 289.43C1516.17 289.212 1516.17 288.986 1516.11 288.77C1516.06 288.553 1515.96 288.351 1515.82 288.178C1515.68 288.005 1515.5 287.866 1515.29 287.771C1515.09 287.677 1514.87 287.628 1514.64 287.63H1514.31C1512.3 287.53 1512.09 287.7 1511.74 289.63C1511.24 292.38 1510.74 295.14 1510.26 297.89C1510.26 298.16 1510.14 298.42 1510.07 298.68H1506.65C1506.84 297.42 1507 296.2 1507.22 294.98C1507.52 293.25 1507.84 291.53 1508.15 289.8C1508.38 288.54 1508.59 287.29 1508.85 286.03C1508.88 285.958 1508.93 285.893 1509 285.84C1509.06 285.786 1509.13 285.746 1509.21 285.72C1511.69 284.83 1514.36 284.622 1516.95 285.12C1519.19 285.55 1519.97 286.98 1519.7 289.51C1519.17 292.42 1518.69 295.33 1518.11 298.24C1518.11 298.42 1517.82 298.68 1517.67 298.69C1516.67 298.69 1515.66 298.69 1514.54 298.69L1515.12 294.76Z" fill="white"/>
<path d="M1545.74 285.09C1548.07 286.03 1548.14 287.82 1547.87 289.5C1547.43 292.15 1546.94 294.79 1546.43 297.42C1546.38 297.59 1546.3 297.747 1546.19 297.882C1546.07 298.016 1545.93 298.125 1545.77 298.2C1543.51 298.991 1541.08 299.174 1538.73 298.73C1536.5 298.3 1535.71 297.31 1535.56 295.09C1535.83 292.42 1537.57 291.09 1540 290.52C1541.12 290.24 1542.29 290.16 1543.44 289.97C1543.88 289.9 1544.44 290.18 1544.58 289.38C1544.71 288.38 1544.58 287.73 1543.75 287.56C1542.94 287.387 1542.11 287.343 1541.29 287.43C1540.32 287.578 1539.36 287.781 1538.42 288.04L1537.95 285.77C1540.43 284.822 1543.13 284.587 1545.74 285.09ZM1544.09 292.09C1542.61 292.22 1541.18 292.18 1539.94 292.97C1539.57 293.183 1539.28 293.5 1539.1 293.88C1538.92 294.261 1538.86 294.686 1538.93 295.1C1538.97 295.422 1539.12 295.72 1539.36 295.941C1539.59 296.163 1539.9 296.294 1540.23 296.31C1541.13 296.385 1542.04 296.385 1542.94 296.31C1543.12 296.31 1543.36 295.98 1543.4 295.77C1543.66 294.57 1543.85 293.43 1544.06 292.12L1544.09 292.09Z" fill="white"/>
<path d="M1461.85 282.03C1461.15 285.85 1460.41 289.67 1459.84 293.5C1459.82 293.831 1459.87 294.163 1459.98 294.475C1460.09 294.787 1460.27 295.071 1460.5 295.31C1460.85 295.603 1461.27 295.79 1461.71 295.849C1462.16 295.907 1462.61 295.835 1463.02 295.64C1464.6 295.08 1465.03 293.83 1465.34 292.37C1465.65 290.56 1465.99 288.76 1466.34 286.95C1466.71 284.82 1467.08 282.68 1467.45 280.49H1471.09C1470.99 281.24 1470.88 281.97 1470.78 282.7C1470.11 286.207 1469.47 289.714 1468.86 293.22C1468.6 294.784 1467.79 296.208 1466.59 297.243C1465.38 298.277 1463.84 298.857 1462.25 298.88C1461.44 298.917 1460.64 298.864 1459.85 298.72C1459.26 298.65 1458.69 298.457 1458.19 298.154C1457.68 297.851 1457.24 297.444 1456.9 296.961C1456.56 296.477 1456.33 295.928 1456.22 295.349C1456.11 294.77 1456.12 294.174 1456.26 293.6C1456.51 291.78 1456.86 289.97 1457.16 288.16C1457.61 285.79 1458.06 283.42 1458.47 281.04C1458.55 280.55 1458.72 280.4 1459.21 280.42C1460.21 280.42 1461.14 280.42 1462.23 280.42L1461.85 282.03Z" fill="white"/>
<path d="M1037.27 193H1109.98C1120.13 193 1126.44 201.19 1124.07 211.28L1090.22 355.2C1087.83 365.25 1077.67 373.45 1067.51 373.45H994.805C984.67 373.45 978.349 365.25 980.715 355.2L1014.58 211.28C1016.95 201.19 1027.1 193 1037.27 193Z" fill="#DF2037"/>
<path d="M1103.93 193H1187.54C1197.69 193 1193.11 201.19 1190.73 211.28L1156.88 355.2C1154.5 365.25 1155.25 373.45 1145.07 373.45H1061.48C1051.31 373.45 1045.02 365.25 1047.39 355.2L1081.24 211.28C1083.65 201.19 1093.78 193 1103.94 193" fill="#16467B"/>
<path d="M1184.27 193H1256.98C1267.15 193 1273.47 201.19 1271.07 211.28L1237.17 355.2C1234.79 365.25 1224.62 373.45 1214.46 373.45H1141.78C1131.62 373.45 1125.3 365.25 1127.69 355.2L1161.54 211.28C1163.9 201.19 1174.06 193 1184.22 193" fill="#007B82"/>
<path d="M1056.25 239.13C1048.78 239.2 1046.57 239.13 1045.86 238.96C1045.59 240.24 1040.55 263.28 1040.53 263.3C1039.44 267.97 1038.66 271.3 1035.97 273.44C1034.46 274.678 1032.56 275.335 1030.61 275.29C1027.29 275.29 1025.36 273.66 1025.03 270.56L1024.97 269.5C1024.97 269.5 1025.98 263.26 1025.98 263.22C1025.98 263.18 1031.27 242.22 1032.22 239.44C1032.25 239.339 1032.27 239.235 1032.29 239.13C1021.98 239.21 1020.16 239.13 1020.03 238.96C1019.96 239.19 1019.71 240.49 1019.71 240.49L1014.3 264.16L1013.84 266.16L1012.93 272.73C1012.88 274.43 1013.28 276.113 1014.09 277.61C1016.56 281.87 1023.58 282.51 1027.56 282.51C1032.68 282.51 1037.48 281.43 1040.73 279.51C1046.37 276.21 1047.84 271.05 1049.15 266.51L1049.77 264.16C1049.77 264.16 1055.22 242.35 1056.15 239.51C1056.16 239.378 1056.19 239.249 1056.25 239.13ZM1074.82 256.72C1072.79 256.759 1070.78 257.226 1068.94 258.09C1068.16 258.49 1067.41 258.95 1066.64 259.4L1067.34 256.88L1066.95 256.46C1062.37 257.37 1061.35 257.46 1057.13 258.09L1056.76 258.32C1056.16 263.372 1055.25 268.382 1054.02 273.32C1053.33 276.24 1052.61 279.19 1051.88 282.1L1052.08 282.47C1056.41 282.24 1057.73 282.24 1061.49 282.3L1061.8 281.98C1062.28 279.55 1062.34 278.98 1063.4 274.06C1063.9 271.73 1064.94 266.61 1065.41 264.79C1066.26 264.317 1067.2 264.024 1068.17 263.93C1070.27 263.93 1070.02 265.76 1069.94 266.48C1069.85 267.7 1069.07 271.69 1068.29 275.11L1067.76 277.31C1067.39 278.94 1066.99 280.53 1066.63 282.15L1066.79 282.47C1071.06 282.24 1072.36 282.24 1076.01 282.3L1076.44 281.98C1077.09 278.18 1077.29 277.17 1078.45 271.65L1079.05 269.11C1080.19 264.11 1080.77 261.64 1079.9 259.59C1079.03 257.28 1076.83 256.72 1074.82 256.72ZM1095.55 261.92C1093.28 262.35 1091.83 262.64 1090.39 262.83C1088.95 263.02 1087.57 263.26 1085.36 263.56L1085.19 263.72L1085.03 263.84C1084.79 265.46 1084.64 266.84 1084.33 268.5C1084.02 270.16 1083.69 272.13 1083.04 274.91C1082.8 276.136 1082.46 277.343 1082.04 278.52C1081.58 279.686 1081.2 280.878 1080.89 282.09L1081.02 282.28L1081.13 282.46C1083.14 282.36 1084.52 282.29 1085.9 282.28C1087.28 282.27 1088.71 282.28 1090.93 282.28L1091.12 282.13L1091.34 281.96C1091.66 280.07 1091.7 279.56 1091.9 278.64C1092.1 277.72 1092.42 276.29 1093.24 272.64C1093.63 270.92 1094.05 269.21 1094.46 267.47C1094.86 265.73 1095.31 264.01 1095.72 262.3L1095.66 262.09L1095.55 261.92ZM1095.55 254.92C1093.54 253.72 1089.88 254.1 1087.44 255.77C1085.01 257.44 1084.73 259.71 1086.79 260.94C1088.84 262.17 1092.45 261.76 1094.84 260.08C1097.22 258.4 1097.64 256.11 1095.59 254.91L1095.55 254.92ZM1108.03 282.85C1112.21 282.85 1116.49 281.71 1119.71 278.33C1122.18 275.59 1123.32 271.51 1123.73 269.83C1125.01 264.26 1124.02 261.66 1122.73 260.08C1120.82 257.67 1117.45 256.89 1113.97 256.89C1111.87 256.89 1106.87 257.1 1102.97 260.66C1100.16 263.23 1098.86 266.72 1098.09 270.07C1097.31 273.42 1096.39 279.61 1102.12 281.89C1104.03 282.563 1106.05 282.885 1108.07 282.84L1108.03 282.85ZM1107.78 270.31C1108.74 266.1 1109.88 262.56 1112.81 262.56C1115.09 262.56 1115.25 265.19 1114.24 269.42C1114.06 270.36 1113.24 273.85 1112.11 275.34C1111.83 275.83 1111.43 276.245 1110.96 276.552C1110.48 276.858 1109.94 277.046 1109.37 277.1C1109.07 277.1 1107.26 277.1 1107.23 274.43C1107.26 273.04 1107.44 271.658 1107.78 270.31ZM1134.21 282.31L1134.54 281.99C1135.01 279.56 1135.08 278.99 1136.1 274.07C1136.62 271.74 1137.67 266.62 1138.18 264.8C1139.03 264.326 1139.97 264.033 1140.95 263.94C1143.04 263.94 1142.79 265.76 1142.71 266.49C1142.31 269.393 1141.76 272.274 1141.06 275.12L1140.56 277.32C1140.18 278.96 1139.76 280.54 1139.4 282.16L1139.56 282.48C1143.84 282.25 1145.09 282.25 1148.77 282.31L1149.21 281.99C1149.85 278.19 1150.02 277.18 1151.22 271.66L1151.79 269.12C1152.94 264.12 1153.52 261.65 1152.67 259.6C1151.72 257.3 1149.52 256.74 1147.54 256.74C1145.5 256.778 1143.5 257.245 1141.66 258.11C1140.88 258.51 1140.12 258.96 1139.36 259.42L1140.02 256.9L1139.67 256.48C1135.1 257.39 1134.05 257.48 1129.82 258.11L1129.5 258.34C1128.89 263.39 1127.97 268.399 1126.75 273.34C1126.06 276.26 1125.33 279.21 1124.62 282.12L1124.81 282.49C1129.13 282.23 1130.43 282.23 1134.18 282.29L1134.21 282.31ZM1165.7 282.48C1165.98 281.18 1167.58 273.48 1167.59 273.48C1167.6 273.48 1168.95 267.81 1169.04 267.61C1169.27 267.287 1169.56 267.009 1169.89 266.79H1170.53C1176.47 266.79 1183.2 266.79 1188.46 262.95C1192.13 260.182 1194.67 256.185 1195.6 251.7C1195.91 250.42 1196.08 249.108 1196.09 247.79C1196.17 246.014 1195.67 244.26 1194.66 242.79C1191.97 239.07 1186.61 239 1180.45 238.97H1177.43C1169.53 239.07 1166.36 239.04 1165.05 238.88L1164.74 240.47L1161.9 253.47C1161.9 253.47 1155.13 281.11 1154.85 282.41C1161.65 282.33 1164.48 282.33 1165.67 282.46L1165.7 282.48ZM1170.95 259.39L1173.97 246.47L1174.07 245.8V245.3L1175.27 245.42L1181.63 245.96C1184.07 246.9 1185.09 249.32 1184.38 252.48C1184.09 253.86 1183.5 255.158 1182.64 256.279C1181.78 257.4 1180.67 258.316 1179.41 258.96C1177.4 259.96 1174.96 260.04 1172.44 260.04H1170.81L1170.95 259.39ZM1189.67 270.52C1188.87 273.88 1187.96 280.02 1193.62 282.2C1195.21 282.886 1196.93 283.197 1198.66 283.11C1200.47 282.919 1202.17 282.147 1203.5 280.91C1203.37 281.42 1203.24 281.91 1203.09 282.44L1203.36 282.77C1207.43 282.6 1208.7 282.6 1213.12 282.63L1213.52 282.33C1214.17 278.58 1214.77 274.93 1216.45 267.74C1217.27 264.3 1218.08 260.9 1218.92 257.47L1218.79 257.09C1214.23 257.93 1213.01 258.09 1208.62 258.72L1208.29 258.99C1208.29 259.34 1208.2 259.68 1208.15 259.99C1207.41 258.789 1206.29 257.872 1204.96 257.39C1203 256.63 1198.41 257.61 1194.48 261.16C1191.75 263.74 1190.42 267.22 1189.67 270.52ZM1199.25 270.73C1200.26 266.59 1201.34 263.08 1204.28 263.08C1206.12 263.08 1207.09 264.76 1206.89 267.63C1206.74 268.34 1206.57 269.09 1206.37 269.95C1206.07 271.18 1205.76 272.4 1205.45 273.62C1205.19 274.379 1204.83 275.102 1204.38 275.77C1203.94 276.276 1203.39 276.688 1202.78 276.98C1202.17 277.272 1201.51 277.439 1200.83 277.47C1200.54 277.47 1198.75 277.47 1198.69 274.85C1198.71 273.469 1198.9 272.096 1199.25 270.76V270.73ZM1249.28 257.06L1248.93 256.66C1244.41 257.56 1243.6 257.71 1239.45 258.26L1239.15 258.56C1239.15 258.61 1239.15 258.69 1239.15 258.76V258.69C1236.06 265.74 1236.13 264.22 1233.63 269.77C1233.63 269.52 1233.63 269.36 1233.63 269.09L1233.01 257.09L1232.61 256.69C1227.88 257.59 1227.77 257.74 1223.41 258.29L1223.06 258.59C1223.02 258.748 1223 258.908 1222.98 259.07V259.13C1223.43 261.281 1223.77 263.454 1223.99 265.64C1224.24 267.77 1224.58 269.93 1224.83 272.04C1225.27 275.58 1225.51 277.32 1226.03 282.71C1223.08 287.53 1222.39 289.36 1219.55 293.59L1217.54 296.72C1217.38 297.012 1217.12 297.241 1216.81 297.37C1216.4 297.529 1215.95 297.594 1215.5 297.56H1214.4L1212.75 302.98L1218.39 303.08C1219.71 303.154 1221.03 302.853 1222.18 302.212C1223.34 301.571 1224.29 300.617 1224.92 299.46L1228.47 293.46L1228.84 293.04C1231.1 287.96 1249.28 257.09 1249.28 257.09V257.06ZM1189.67 328.28H1187.29L1196.16 299.23H1199.1L1200.04 296.23L1200.13 299.56C1200.01 301.61 1201.65 303.44 1205.94 303.14H1210.9L1212.62 297.54H1210.74C1209.68 297.54 1209.17 297.27 1209.23 296.7L1209.14 293.31H1199.95C1196.99 293.37 1188.11 293.59 1186.31 294.07C1184.71 294.562 1183.2 295.298 1181.84 296.25L1182.74 293.25H1174.15L1172.36 299.19L1163.37 328.68H1161.62L1159.91 334.24H1177.02L1176.44 336.09H1184.89L1185.44 334.24H1187.81L1189.67 328.28ZM1182.62 305.13C1181.28 305.568 1179.96 306.079 1178.68 306.66L1180.96 299.23H1187.79L1186.15 304.64C1184.97 304.72 1183.79 304.894 1182.64 305.16L1182.62 305.13ZM1182.75 315.74C1182.75 315.74 1180.6 316.01 1179.19 316.32C1177.81 316.816 1176.47 317.397 1175.17 318.06L1177.52 310.33H1184.38L1182.75 315.74ZM1178.92 328.35H1172.07L1174.08 321.83H1180.91L1178.92 328.35ZM1195.43 310.35H1205.31L1203.89 314.9H1193.88L1192.38 319.9H1201.13L1194.5 329.15C1194.19 329.657 1193.72 330.047 1193.16 330.26C1192.61 330.565 1192.01 330.74 1191.38 330.77H1188.94L1187.29 336.21H1193.64C1194.96 336.251 1196.27 335.956 1197.44 335.354C1198.61 334.752 1199.61 333.862 1200.34 332.77L1204.89 326.6L1205.89 332.86C1205.98 333.316 1206.17 333.746 1206.46 334.116C1206.74 334.485 1207.1 334.785 1207.52 334.99C1208.19 335.446 1208.95 335.762 1209.75 335.92C1210.75 335.97 1211.47 336 1211.94 336H1215.07L1216.94 329.9H1215.71C1214.98 329.938 1214.26 329.822 1213.58 329.56C1213.38 329.154 1213.27 328.711 1213.26 328.26L1212.25 321.99H1208.23L1210.01 319.89H1220L1221.53 314.89H1212.28L1213.73 310.34H1222.95L1224.66 304.73H1197.13L1195.43 310.35ZM1111.99 329.64L1114.29 322.04H1123.77L1125.51 316.39H1116.02L1117.46 311.71H1126.73L1128.45 306.24H1105.31L1103.63 311.71H1108.89L1107.48 316.39H1102.21L1100.45 322.14H1105.72L1102.65 332.19C1102.5 332.611 1102.48 333.063 1102.58 333.496C1102.68 333.929 1102.91 334.326 1103.22 334.64C1103.4 334.952 1103.65 335.223 1103.94 335.435C1104.23 335.647 1104.57 335.795 1104.92 335.87C1105.72 336.074 1106.53 336.185 1107.35 336.2H1118.04L1119.94 329.94L1115.2 330.58C1114.26 330.59 1111.74 330.52 1112.01 329.65L1111.99 329.64ZM1113.08 293.27L1110.68 297.57C1110.36 298.267 1109.88 298.88 1109.28 299.36C1108.6 299.637 1107.87 299.747 1107.14 299.68H1105.89L1104.21 305.18H1108.38C1109.86 305.153 1111.33 304.78 1112.64 304.09C1113.43 303.67 1113.65 303.91 1114.25 303.33L1115.65 302.12H1128.65L1130.38 296.4H1120.87L1122.53 293.27H1113.08ZM1132.26 329.75C1132.04 329.43 1132.2 328.87 1132.54 327.75L1136.09 316.1H1148.75C1150.59 316.1 1151.92 316.1 1152.77 316C1153.83 315.862 1154.86 315.523 1155.79 315C1156.69 314.544 1157.46 313.852 1157.99 313C1158.98 311.496 1159.72 309.846 1160.18 308.11L1164.65 293.38L1151.56 293.45C1149.6 293.726 1147.65 294.14 1145.75 294.69C1144.2 295.452 1142.74 296.377 1141.39 297.45L1142.58 293.45H1134.47L1123.14 330.69C1122.82 331.715 1122.58 332.761 1122.41 333.82C1122.41 334.5 1123.27 335.17 1123.85 335.68C1124.67 336.074 1125.58 336.246 1126.49 336.18C1127.5 336.26 1128.94 336.31 1130.92 336.31H1137.15L1139.06 329.92L1133.49 330.44C1133.25 330.432 1133.01 330.366 1132.8 330.247C1132.59 330.129 1132.41 329.962 1132.28 329.76L1132.26 329.75ZM1138.38 308.21H1151.65L1150.81 310.83C1150.23 310.775 1149.64 310.775 1149.06 310.83H1137.58L1138.38 308.21ZM1141.05 299.43H1154.42L1153.47 302.58C1153.47 302.58 1147.15 302.52 1146.14 302.71C1143.56 303.117 1141.13 304.189 1139.09 305.82L1141.05 299.43ZM1151.11 319.6C1151.03 319.923 1150.84 320.21 1150.58 320.41C1150.16 320.604 1149.69 320.683 1149.23 320.64H1147.34L1147.45 317.45H1139.58L1139.26 333.04C1139.26 334.17 1139.35 334.82 1140.19 335.34C1141.03 335.86 1143.58 336.07 1147.02 336.07H1151.96L1153.74 330.24L1149.45 330.47L1148.04 330.52C1147.82 330.445 1147.62 330.322 1147.45 330.16C1147.27 329.98 1146.96 330.09 1147.01 328.97V324.97L1151.52 324.79C1152.31 324.841 1153.11 324.731 1153.85 324.468C1154.6 324.205 1155.29 323.794 1155.87 323.26C1156.63 322.555 1157.13 321.625 1157.31 320.61L1158.07 317.07H1151.89L1151.11 319.6Z" fill="white"/>
<path d="M413 362.788C413 368.697 408.273 373.424 402.364 373.424H137.636C131.727 373.424 127 368.697 127 362.788V203.636C127 197.727 131.727 193 137.636 193H402.364C408.273 193 413 197.727 413 203.636V362.788V362.788Z" fill="#1A1F71"/>
<path d="M235.727 245.394L203.818 321.424H182.939L167.182 260.758C166.394 257.212 165.212 255.636 162.455 254.061C157.727 251.697 149.848 248.939 143.151 247.758L143.545 245.394H177.03C181.364 245.394 185.303 248.152 186.091 253.273L194.364 297.394L214.848 245.788H235.727V245.394ZM317.273 296.606C317.273 276.515 289.697 275.333 289.697 266.667C289.697 263.909 292.455 261.152 297.97 260.364C300.727 259.97 308.606 259.576 317.273 263.909L320.818 247.758C316.091 246.182 310.182 244.212 302.303 244.212C283 244.212 269.212 254.455 269.212 269.424C269.212 280.455 279.061 286.364 286.545 289.909C294.03 293.455 296.788 295.818 296.788 299.364C296.788 304.485 290.879 306.849 284.97 306.849C275.121 306.849 269.212 304.091 264.879 302.121L261.333 318.667C266.061 320.636 274.333 322.606 283 322.606C303.485 322.606 316.879 312.364 317.273 296.606ZM368.485 321.424H386.606L370.848 245.394H353.909C349.97 245.394 346.818 247.758 345.636 250.909L316.091 321.424H336.576L340.515 310H365.727L368.485 321.424ZM346.424 294.636L356.667 266.273L362.576 294.636H346.424ZM263.697 245.394L247.545 321.424H227.848L244 245.394H263.697Z" fill="white"/>
<path d="M735.985 212.243H657.239V353.759H735.985V212.243Z" fill="#FF5F00"/>
<path d="M662.238 283C662.225 269.371 665.314 255.918 671.269 243.659C677.224 231.4 685.89 220.657 696.611 212.242C683.335 201.806 667.39 195.316 650.6 193.514C633.81 191.712 616.852 194.67 601.663 202.051C586.475 209.431 573.669 220.937 564.71 235.251C555.751 249.566 551 266.113 551 283C551 299.887 555.751 316.434 564.71 330.749C573.669 345.063 586.475 356.569 601.663 363.949C616.852 371.33 633.81 374.288 650.6 372.486C667.39 370.684 683.335 364.194 696.611 353.758C685.89 345.343 677.224 334.6 671.269 322.341C665.314 310.082 662.225 296.629 662.238 283V283Z" fill="#EB001B"/>
<path d="M842.219 283C842.219 299.887 837.469 316.434 828.51 330.748C819.552 345.063 806.746 356.568 791.558 363.949C776.37 371.33 759.412 374.288 742.622 372.486C725.832 370.684 709.888 364.194 696.612 353.758C707.323 345.335 715.983 334.59 721.937 322.333C727.891 310.076 730.985 296.627 730.985 283C730.985 269.373 727.891 255.924 721.937 243.667C715.983 231.41 707.323 220.665 696.612 212.242C709.888 201.806 725.832 195.316 742.622 193.514C759.412 191.712 776.37 194.67 791.558 202.051C806.746 209.432 819.552 220.937 828.51 235.252C837.469 249.566 842.219 266.113 842.219 283V283Z" fill="#F79E1B"/>
<path d="M833.63 338.769V335.872H834.798V335.282H831.823V335.872H832.992V338.769H833.63ZM839.406 338.769V335.276H838.494L837.445 337.679L836.396 335.276H835.484V338.769H836.128V336.134L837.111 338.406H837.779L838.763 336.128V338.769H839.406Z" fill="#F79E1B"/>
<path fill-rule="evenodd" clip-rule="evenodd" d="M344.824 111.68V74.53L315.868 30.27H341.774L352.916 51.27L353.258 51.91C354.344 53.8869 355.16 55.9989 355.684 58.19C356.185 56.06 357.006 54.017 358.119 52.13C358.341 51.72 358.502 51.45 358.572 51.29L369.643 30.29H395.6L366.594 74.55V111.7H344.824" fill="#181F37"/>
<path fill-rule="evenodd" clip-rule="evenodd" d="M424.345 76.78C424.097 73.8562 422.779 71.124 420.641 69.1C418.546 67.1737 415.776 66.1367 412.922 66.21C410.071 66.0652 407.273 67.0098 405.101 68.85C403.149 70.61 401.871 73.26 401.237 76.78H424.345ZM444.193 88H400.763C400.763 92.33 401.931 95.67 404.155 98C406.38 100.33 409.53 101.53 413.596 101.53C416.271 101.621 418.927 101.04 421.316 99.84C423.4 98.7161 425.073 96.966 426.096 94.84L441.254 100.84C439.383 105.225 435.965 108.781 431.642 110.84C427.039 113.173 421.403 114.34 414.733 114.34C404.789 114.34 396.808 111.627 390.789 106.2C384.771 100.773 381.768 93.6067 381.781 84.7C381.781 75.9533 384.784 68.69 390.789 62.91C396.795 57.13 404.4 54.2367 413.606 54.23C423.067 54.23 430.532 57.1567 436 63.01C441.469 68.8633 444.199 76.86 444.193 87V88Z" fill="#181F37"/>
<path fill-rule="evenodd" clip-rule="evenodd" d="M497.435 85.06C497.435 80.68 496.254 77.2333 493.892 74.72C491.53 72.2067 488.313 70.9433 484.24 70.93C480.174 70.93 476.97 72.1934 474.628 74.72C472.287 77.2467 471.123 80.6933 471.136 85.06C471.136 89.4667 472.293 92.9233 474.608 95.43C476.933 97.94 480.144 99.19 484.27 99.19C488.397 99.19 491.557 97.93 493.923 95.41C496.288 92.89 497.455 89.44 497.435 85.06ZM515.31 113.06H496.761V103.91C494.549 107.343 491.591 110.241 488.105 112.39C484.864 114.27 481.169 115.238 477.416 115.19C469.365 115.19 462.973 112.467 458.243 107.02C453.513 101.573 451.137 94.24 451.117 85.02C451.117 76.0733 453.466 68.8533 458.163 63.36C462.859 57.8667 469.032 55.1133 476.682 55.1C481.513 55.1 485.445 55.95 488.478 57.65C491.891 59.7509 494.688 62.7063 496.59 66.22C496.368 64.88 496.197 63.38 496.076 61.69C495.956 60 495.915 58.17 495.915 56.21V26.86H515.23V113.05L515.31 113.06Z" fill="#181F37"/>
<path fill-rule="evenodd" clip-rule="evenodd" d="M545.273 84.17C545.273 88.5433 546.434 91.99 548.755 94.51C551.077 97.03 554.271 98.29 558.337 98.29C562.403 98.29 565.62 97.03 567.989 94.51C570.357 91.99 571.535 88.5433 571.522 84.17C571.522 79.7967 570.351 76.35 568.009 73.83C565.667 71.31 562.45 70.05 558.357 70.05C554.284 70.05 551.09 71.31 548.775 73.83C546.46 76.35 545.293 79.7967 545.273 84.17ZM527.438 136.86V55.86H546.007V65.32C548.206 61.8944 551.155 59.006 554.633 56.87C557.874 55.0006 561.564 54.0398 565.312 54.09C573.363 54.09 579.754 56.7867 584.485 62.18C589.215 67.5733 591.591 74.8867 591.611 84.12C591.611 93.0667 589.262 100.313 584.565 105.86C579.869 111.407 573.695 114.18 566.046 114.18C561.215 114.18 557.287 113.31 554.261 111.57C550.85 109.441 548.052 106.472 546.138 102.95C546.351 104.275 546.496 105.61 546.571 106.95C546.662 108.55 546.712 110.51 546.712 112.85V136.77H527.438V136.86Z" fill="#181F37"/>
<path fill-rule="evenodd" clip-rule="evenodd" d="M650.137 84C650.137 79.62 648.946 76.1534 646.564 73.6C644.182 71.0467 640.945 69.7667 636.852 69.76C632.739 69.76 629.504 71.04 627.149 73.6C624.794 76.16 623.613 79.6267 623.606 84C623.606 88.38 624.794 91.8267 627.169 94.34C628.416 95.6152 629.921 96.6119 631.585 97.2637C633.25 97.9155 635.035 98.2074 636.821 98.12C640.928 98.12 644.169 96.86 646.544 94.34C648.919 91.79 650.107 88.34 650.137 84ZM667.831 56V112.17H649.332V103C647.092 106.514 644.042 109.448 640.435 111.56C636.859 113.442 632.856 114.379 628.81 114.28C621.194 114.28 615.105 111.547 610.542 106.08C605.98 100.613 603.698 93.28 603.698 84.08C603.698 74.92 606.084 67.6434 610.854 62.25C615.625 56.8567 622.043 54.16 630.108 54.16C633.975 54.0602 637.798 54.9926 641.179 56.86C644.522 58.8992 647.278 61.7617 649.181 65.17V55.91L667.831 56Z" fill="#181F37"/>
<path fill-rule="evenodd" clip-rule="evenodd" d="M680.019 138.52L696.062 105.15L673.065 57.56H695.418L703.39 77.86C704.06 79.56 704.624 81.1467 705.08 82.62C705.496 83.9592 705.832 85.3216 706.087 86.7C706.332 85.2998 706.668 83.9169 707.093 82.56C707.516 81.13 708.1 79.56 708.754 77.86L716.806 57.56H738.344L702.464 138.56H680.019" fill="#181F37"/>
<path fill-rule="evenodd" clip-rule="evenodd" d="M723.67 31.78H726.307C727.225 31.7156 728.137 31.974 728.883 32.51C729.161 32.7055 729.384 32.9676 729.532 33.2719C729.68 33.5761 729.747 33.9126 729.729 34.25C729.738 34.5137 729.679 34.7754 729.558 35.01L729.467 35.19C729.318 35.573 729.08 35.9156 728.773 36.19C728.46 36.4771 728.089 36.6952 727.686 36.83C727.243 36.9826 726.776 37.0571 726.307 37.05H723.69V31.78H723.67ZM731.098 41.16C730.846 40.78 730.635 40.44 730.454 40.16C730.256 39.8804 730.04 39.6132 729.809 39.36L729.135 38.72L728.813 38.5C729.215 38.3694 729.603 38.1986 729.97 37.99C730.472 37.7113 730.921 37.3494 731.299 36.92C731.671 36.4929 731.961 36.0014 732.155 35.47V35.34C732.338 34.9387 732.424 34.5004 732.406 34.06C732.432 33.3923 732.28 32.7297 731.963 32.14C731.678 31.557 731.265 31.0446 730.755 30.64C730.217 30.2149 729.597 29.902 728.934 29.72C728.186 29.5186 727.414 29.421 726.639 29.43H721.033V45H723.67V39.36H725.16C725.499 39.358 725.838 39.4017 726.166 39.49L726.961 39.89L727.726 40.64C728.008 40.9999 728.267 41.3773 728.501 41.77L730.433 44.88L730.514 45H733.604L733.352 44.61L731.098 41.16Z" fill="#181F37"/>
<path fill-rule="evenodd" clip-rule="evenodd" d="M727.172 48C724.998 47.9882 722.875 47.3367 721.073 46.1279C719.27 44.919 717.868 43.2069 717.044 41.2075C716.219 39.208 716.009 37.0108 716.44 34.8929C716.871 32.7749 717.924 30.8312 719.465 29.3068C721.006 27.7824 722.967 26.7457 725.101 26.3272C727.234 25.9088 729.445 26.1275 731.453 26.9558C733.462 27.784 735.179 29.1846 736.387 30.9811C737.596 32.7775 738.242 34.8893 738.244 37.05C738.245 38.4926 737.959 39.9212 737.403 41.2535C736.846 42.5859 736.03 43.7958 735.001 44.8135C733.972 45.8312 732.75 46.6367 731.407 47.1836C730.063 47.7305 728.624 48.0079 727.172 48ZM727.172 24.2C724.615 24.2257 722.123 25.0028 720.01 26.4333C717.897 27.8639 716.257 29.8839 715.297 32.2389C714.337 34.5939 714.101 37.1785 714.617 39.6669C715.133 42.1554 716.379 44.4364 718.197 46.2225C720.016 48.0086 722.326 49.2199 724.836 49.7038C727.347 50.1877 729.945 49.9225 732.304 48.9416C734.663 47.9608 736.677 46.3081 738.092 44.1919C739.507 42.0758 740.26 39.5907 740.257 37.05C740.249 35.354 739.903 33.6762 739.241 32.1131C738.578 30.5501 737.611 29.1326 736.395 27.9421C735.179 26.7517 733.738 25.8118 732.156 25.1764C730.573 24.5411 728.879 24.2229 727.172 24.24V24.2Z" fill="#181F37"/>
<path fill-rule="evenodd" clip-rule="evenodd" d="M146.438 5.34C138.99 5.34 132.921 10.95 132.921 17.84V129.06C132.921 135.95 138.96 141.55 146.438 141.55H266.671C274.119 141.55 280.188 135.95 280.188 129.06V17.84C280.188 10.95 274.149 5.34 266.671 5.34H146.438ZM266.641 146.9H146.438C135.81 146.9 127.134 138.9 127.134 129.06V17.84C127.144 8 135.79 0 146.438 0H266.671C277.279 0 285.975 8 285.975 17.84V129.06C285.915 138.9 277.279 146.9 266.641 146.9Z" fill="#4C70B4"/>
<path fill-rule="evenodd" clip-rule="evenodd" d="M268.221 108.41C253.295 108.41 238.349 108.47 223.423 108.41C219.994 108.361 216.576 107.989 213.217 107.3C211.23 106.999 209.395 106.062 207.993 104.631C206.59 103.2 205.696 101.352 205.447 99.37C204.737 96.0623 205.064 92.6177 206.384 89.5C207.065 87.8851 208.173 86.4833 209.59 85.4429C211.007 84.4025 212.682 83.7623 214.435 83.59C217.344 83.1921 220.276 82.9784 223.212 82.95C234.766 82.88 246.31 82.95 257.854 82.95H259.787V64H221.289C219.235 63.9883 217.182 63.8715 215.14 63.65C209.876 63.1 207.088 60.81 205.79 55.8C204.491 50.79 205.478 46 209.644 42.21C211.604 40.551 214.117 39.6806 216.69 39.77C221.722 39.65 226.755 39.62 231.837 39.61H270.234V20.84C269.66 20.84 269.177 20.77 268.684 20.77L209.071 20.91C202.839 20.7445 196.718 22.5707 191.609 26.12C185.991 30.0797 181.988 35.9089 180.326 42.55C179.226 46.4532 178.986 50.5462 179.621 54.55H161.897C159.642 54.55 157.479 55.4403 155.884 57.0249C154.289 58.6096 153.393 60.7589 153.393 63C153.393 65.2411 154.289 67.3904 155.884 68.975C157.479 70.5597 159.642 71.45 161.897 71.45H188.79C189.933 71.411 191.071 71.6008 192.138 72.0081C193.204 72.4154 194.178 73.0319 195 73.8209C195.821 74.6099 196.475 75.5552 196.921 76.6004C197.368 77.6457 197.598 78.7695 197.598 79.905C197.598 81.0405 197.368 82.1643 196.921 83.2096C196.475 84.2548 195.821 85.2001 195 85.9891C194.178 86.778 193.204 87.3945 192.138 87.8019C191.071 88.2092 189.933 88.399 188.79 88.36H149.719C147.513 88.4354 145.422 89.3592 143.888 90.9366C142.354 92.514 141.497 94.6216 141.497 96.815C141.497 99.0084 142.354 101.116 143.888 102.693C145.422 104.271 147.513 105.195 149.719 105.27H179.752C180.518 109.284 182.286 113.042 184.895 116.2C189.726 122.03 196.228 125.2 203.767 126.2C208.437 126.833 213.144 127.167 217.857 127.2C234.847 127.31 251.826 127.2 268.815 127.2C269.258 127.2 269.691 127.2 270.224 127.13V108.41H268.161" fill="#4C70B4"/>
<path fill-rule="evenodd" clip-rule="evenodd" d="M162.059 48.07C163.201 48.109 164.339 47.9192 165.406 47.5119C166.472 47.1046 167.446 46.488 168.268 45.6991C169.09 44.9101 169.743 43.9648 170.19 42.9196C170.636 41.8743 170.866 40.7505 170.866 39.615C170.866 38.4795 170.636 37.3557 170.19 36.3104C169.743 35.2652 169.09 34.3199 168.268 33.5309C167.446 32.742 166.472 32.1254 165.406 31.7181C164.339 31.3108 163.201 31.121 162.059 31.16H146.217C144.01 31.2354 141.92 32.1592 140.386 33.7366C138.852 35.314 137.995 37.4216 137.995 39.615C137.995 41.8084 138.852 43.916 140.386 45.4934C141.92 47.0708 144.01 47.9946 146.217 48.07H162.059Z" fill="#4C70B4"/>
</svg>
