<svg xmlns="http://www.w3.org/2000/svg" viewBox="0 0 1545.09 481"><defs><style>.cls-1{fill:#181f37;}.cls-1,.cls-2,.cls-3{fill-rule:evenodd;}.cls-2{fill:#4c70b4;}.cls-3{fill:none;stroke:#4c70b4;stroke-linecap:round;stroke-miterlimit:10;stroke-width:24.74px;}.cls-4{fill:#fff;}.cls-5{fill:#2aa63c;}.cls-6{fill:#28aae1;}.cls-7{fill:#e52a29;}.cls-8{fill:#006a67;}.cls-9{fill:#213262;}.cls-10{fill:#e42328;}.cls-11{fill:#df2037;}.cls-12{fill:#16467b;}.cls-13{fill:#007b82;}</style></defs><g id="Layer_2" data-name="Layer 2"><g id="Layer_1-2" data-name="Layer 1"><g id="Layer_2-2" data-name="Layer 2"><g id="Layer_1-2-2" data-name="Layer 1-2"><g id="Group"><path id="Fill-4" class="cls-1" d="M342.11,111.68V74.53L313.34,30.27h25.74l11.07,21,.34.64a25.33,25.33,0,0,1,2.41,6.28,21.78,21.78,0,0,1,2.42-6.06c.22-.41.38-.68.45-.84l11-21h25.79L363.74,74.55V111.7H342.11"/><path id="Fill-5" class="cls-1" d="M421.12,76.78a12,12,0,0,0-3.68-7.68,10.88,10.88,0,0,0-7.67-2.89A11.1,11.1,0,0,0,402,68.85c-1.94,1.76-3.21,4.41-3.84,7.93ZM440.84,88H397.69c0,4.33,1.16,7.67,3.37,10s5.34,3.53,9.38,3.53a15.8,15.8,0,0,0,7.67-1.69,11.17,11.17,0,0,0,4.75-5l15.06,6a19.55,19.55,0,0,1-9.55,10q-6.86,3.5-16.8,3.5-14.82,0-23.79-8.14t-8.95-21.5q0-13.12,8.95-21.79t22.67-8.68q14.1,0,22.25,8.78T440.84,87v1Z"/><path id="Fill-6" class="cls-1" d="M493.74,85.06q0-6.57-3.52-10.34t-9.59-3.79q-6.06,0-9.55,3.79t-3.47,10.34q0,6.61,3.45,10.37c2.31,2.51,5.5,3.76,9.6,3.76s7.24-1.26,9.59-3.78S493.76,89.44,493.74,85.06Zm17.76,28H493.07v-9.15a27.3,27.3,0,0,1-8.6,8.48,20.54,20.54,0,0,1-10.62,2.8q-12,0-19.05-8.17t-7.08-22q0-13.42,7-21.66t18.4-8.26q7.2,0,11.72,2.55a22.76,22.76,0,0,1,8.06,8.57c-.22-1.34-.39-2.84-.51-4.53s-.16-3.52-.16-5.48V26.86h19.19v86.19Z"/><path id="Fill-7" class="cls-1" d="M541.27,84.17q0,6.56,3.46,10.34t9.52,3.78q6.06,0,9.59-3.78t3.51-10.34q0-6.56-3.49-10.34t-9.59-3.78q-6.07,0-9.52,3.78T541.27,84.17Zm-17.72,52.69v-81H542v9.46a27,27,0,0,1,8.57-8.45,20.58,20.58,0,0,1,10.61-2.78q12,0,19.05,8.09t7.08,21.94q0,13.42-7,21.74t-18.4,8.32q-7.2,0-11.71-2.61a23.19,23.19,0,0,1-8.07-8.62,39.15,39.15,0,0,1,.43,4c.09,1.6.14,3.56.14,5.9v23.92H523.55Z"/><path id="Fill-8" class="cls-1" d="M645.46,84q0-6.57-3.55-10.4t-9.65-3.84q-6.13,0-9.64,3.84T619.1,84q0,6.57,3.54,10.34a12.51,12.51,0,0,0,9.59,3.78q6.12,0,9.66-3.78C644.25,91.79,645.43,88.34,645.46,84Zm17.58-28v56.17H644.66V103a26.22,26.22,0,0,1-8.84,8.56,23.44,23.44,0,0,1-11.55,2.72q-11.35,0-18.15-8.2t-6.8-22q0-13.74,7.11-21.83t19.13-8.09a21.49,21.49,0,0,1,11,2.7,22.63,22.63,0,0,1,7.95,8.31V55.91Z"/><path id="Fill-9" class="cls-1" d="M675.15,138.52l15.94-33.37L668.24,57.56h22.21l7.92,20.3q1,2.55,1.68,4.76a35.74,35.74,0,0,1,1,4.08,32.79,32.79,0,0,1,1-4.14c.42-1.43,1-3,1.65-4.7l8-20.3h21.4l-35.65,81H675.15"/><g id="Group-4"><path id="Fill-10" class="cls-1" d="M718.52,31.78h2.62a3.9,3.9,0,0,1,2.56.73,2,2,0,0,1,.84,1.74,1.54,1.54,0,0,1-.17.76l-.09.18a2.61,2.61,0,0,1-.69,1,3,3,0,0,1-1.08.64,4,4,0,0,1-1.37.22h-2.6V31.78Zm7.38,9.38c-.25-.38-.46-.72-.64-1a8.3,8.3,0,0,0-.64-.8l-.67-.64-.32-.22a6.2,6.2,0,0,0,1.15-.51,5,5,0,0,0,1.32-1.07,4.61,4.61,0,0,0,.85-1.45l0-.13a2.82,2.82,0,0,0,.25-1.28,3.77,3.77,0,0,0-.44-1.92,4.36,4.36,0,0,0-1.2-1.5,5.09,5.09,0,0,0-1.81-.92,8.34,8.34,0,0,0-2.28-.29H715.9V45h2.62V39.36H720a3.74,3.74,0,0,1,1,.13l.79.4.76.75a10.72,10.72,0,0,1,.77,1.13l1.92,3.11.08.12h3.07l-.25-.39Z"/><path id="Fill-11" class="cls-1" d="M722,48a10.94,10.94,0,1,1,11-10.95A10.94,10.94,0,0,1,722,48Zm0-23.8a12.87,12.87,0,1,0,13,12.85A12.87,12.87,0,0,0,722,24.24Z"/></g></g><g id="Group-2"><path id="Fill-12" class="cls-2" d="M145,5.34c-7.4,0-13.43,5.61-13.43,12.5V129.06c0,6.89,6,12.49,13.43,12.49H264.46c7.4,0,13.43-5.6,13.43-12.49V17.84c0-6.89-6-12.5-13.43-12.5ZM264.43,146.9H145c-10.56,0-19.18-8-19.18-17.84V17.84C125.83,8,134.42,0,145,0H264.46C275,0,283.64,8,283.64,17.84V129.06C283.58,138.9,275,146.9,264.43,146.9Z"/><path id="Fill-13" class="cls-2" d="M266,108.41c-14.83,0-29.68.06-44.51,0a54,54,0,0,1-10.14-1.11,9.17,9.17,0,0,1-7.72-7.93,16.55,16.55,0,0,1,.93-9.87,9.71,9.71,0,0,1,8-5.91,68.85,68.85,0,0,1,8.72-.64c11.48-.07,22.95,0,34.42,0h1.92V64H219.37a59.43,59.43,0,0,1-6.11-.35c-5.23-.55-8-2.84-9.29-7.85s-.31-9.8,3.83-13.59a10.24,10.24,0,0,1,7-2.44c5-.12,10-.15,15.05-.16H268V20.84c-.57,0-1.05-.07-1.54-.07l-59.23.14a28.93,28.93,0,0,0-17.35,5.21,28.61,28.61,0,0,0-11.21,16.43,28.21,28.21,0,0,0-.7,12H160.36a8.45,8.45,0,1,0,0,16.9h26.72a8.46,8.46,0,1,1,0,16.91H148.26a8.46,8.46,0,0,0,0,16.91H178.1a24.38,24.38,0,0,0,5.11,10.93c4.8,5.83,11.26,9,18.75,10a109.27,109.27,0,0,0,14,1c16.88.11,33.75,0,50.63,0,.44,0,.87,0,1.4-.07V108.41h-2.05"/><path id="Fill-14" class="cls-2" d="M160.52,48.07a8.46,8.46,0,1,0,0-16.91H144.78a8.46,8.46,0,0,0,0,16.91h15.74"/></g></g></g><path class="cls-3" d="M772.54,67.16h688.13a72.26,72.26,0,0,1,72,72.05V396.59a72.26,72.26,0,0,1-72,72H84.42a72.26,72.26,0,0,1-72-72V139.21A72.26,72.26,0,0,1,84.42,67.16"/><path class="cls-4" d="M1295.58,275.6a11,11,0,0,1-6-1.79L1265.9,257a3.67,3.67,0,0,0-5.87,2.94,3.77,3.77,0,0,0,.35,1.55l20.06,44,.48,1.06a7.33,7.33,0,0,0,9.71,3l.8-.47,126.86-73.24-7.64-10.38-111.3,49.53A11,11,0,0,1,1295.58,275.6Z"/><path class="cls-5" d="M1418.29,235.77,1291.43,309l-.8.47a7.33,7.33,0,0,1-9.71-3l-.48-1.06-20.06-44a3.77,3.77,0,0,1-.35-1.55,3.67,3.67,0,0,1,5.87-2.94l23.67,16.85a10.91,10.91,0,0,0,9.78,1.11l111.3-49.53c-20-23.52-52.8-38.88-90-38.88-60.84,0-110.16,41.1-110.16,91.81,0,27.66,14.83,52.56,38.06,69.39a7.31,7.31,0,0,1,3.08,6,8.87,8.87,0,0,1-.38,2.34c-1.86,6.92-4.83,18-5,18.52a10.81,10.81,0,0,0-.59,2.68,3.68,3.68,0,0,0,3.67,3.68,4.11,4.11,0,0,0,2.12-.69l24.12-13.92a11.56,11.56,0,0,1,5.85-1.7,10.81,10.81,0,0,1,3.24.49,130.55,130.55,0,0,0,36,5c60.85,0,110.17-41.1,110.17-91.8A79.56,79.56,0,0,0,1418.29,235.77Z"/><path class="cls-6" d="M1041.35,184.5H905.65a31.88,31.88,0,0,0-32,31.79V351.13a31.88,31.88,0,0,0,32,31.78h135.7a31.87,31.87,0,0,0,32-31.78V216.29A31.88,31.88,0,0,0,1041.35,184.5Z"/><path class="cls-4" d="M1038,309.08c-8-2.65-18.7-6.72-30.64-11a159.84,159.84,0,0,0,16.66-41.83H984.71V242.15h48.2v-7.86h-48.2V210.8H965a3.34,3.34,0,0,0-3.45,3.39v20.1H912.82v7.86h48.76v14.09H921.32v7.86H999.4a138.1,138.1,0,0,1-11.25,27.31c-25.33-8.31-52.36-15-69.35-10.89-10.86,2.66-17.85,7.4-22,12.37-18.87,22.81-5.34,57.45,34.49,57.45,23.56,0,46.25-13,63.83-34.56,26.23,12.54,78.16,34.05,78.16,34.05V319.17S1066.79,318.65,1038,309.08Zm-110.42,28c-31.06,0-40.25-24.31-24.9-37.62,5.12-4.49,14.49-6.69,19.47-7.18,18.46-1.81,35.53,5.19,55.69,15C963.71,325.61,945.67,337.08,927.62,337.08Z"/><path class="cls-4" d="M578,380.23l-1.31-.19c-.92-.13-1.89-.26-2.81-.45-13-2.62-22.62-10-28.59-21.94a36.57,36.57,0,0,1-3.62-13.25,1.19,1.19,0,0,0-.14-.45V263.67l1.29-.55.23-.14a1.32,1.32,0,0,1,.2-.12l3.16-1.45c2.52-1.15,5.12-2.35,7.71-3.44,2.08-.88,4.24-1.68,6.33-2.45.95-.34,1.89-.69,2.83-1.05l.2-.09a.46.46,0,0,1,.14-.07l3.93-1.29c3.49-1.15,7.1-2.33,10.66-3.45,1.34-.43,2.75-.77,4.11-1.1l1.91-.48,1.5-.38c1.1-.27,2.23-.56,3.34-.8,2.63-.54,5.26-1.06,7.89-1.58l3.15-.63.55-.11c.39-.09.78-.17,1.17-.23l1.16-.18c1.89-.29,3.77-.58,5.67-.83,1.53-.21,3.07-.38,4.62-.55l1.53-.18,0,0,.13-.07.31,0,2.2-.21,5.15-.47c1-.09,2.09-.15,3.17-.19,2.14-.08,4.27-.15,6.41-.21l2.57-.09.52,0a8.85,8.85,0,0,1,.89-.05l1.82,0c4.67.11,9.35.22,14,.37,1.06,0,2.15.13,3.2.22l1.5.13h.64l3.36.36c2.59.26,5.27.54,7.88.92,5.61.83,10.3,1.58,15,2.54a219.12,219.12,0,0,1,51.79,17.68c.35.17.4.25.4.68q0,23.35,0,46.72v8.88c0,.19,0,.38,0,.58v.51a.68.68,0,0,1,0,.14v5.79c0,5.24,0,10.65,0,16a26.26,26.26,0,0,1-.4,3.77c-.09.6-.18,1.19-.25,1.79l-.43,1.82,0,.27c0,.15,0,.29-.08.44a37.54,37.54,0,0,1-3.88,9.46,34.49,34.49,0,0,1-5.88,7.76c-.56.48-1.14,1-1.72,1.51-1.3,1.16-2.65,2.36-4.06,3.39a33.59,33.59,0,0,1-3.76,2.24c-.59.32-1.18.64-1.75,1a32.8,32.8,0,0,1-7.19,2.75l-1.1.24c-.87.2-1.74.4-2.62.58-.64.13-1.29.23-1.94.34l-.83.14Z"/><path class="cls-7" d="M636.21,241.91h.11l1.81,0c4.56.11,9.27.22,13.9.37,1.05,0,2.08.12,3.17.22.5,0,1,.09,1.51.12h.61l3.38.35c2.58.27,5.24.54,7.84.93,5.59.82,10.27,1.57,14.93,2.53A218.06,218.06,0,0,1,735.1,264.1h0v.06q0,22.5,0,45v10.6c0,.19,0,.37,0,.56v.3l1,0,0,.05-1,.08,0,.14a.15.15,0,0,0,0,.07v5.82c0,5.22,0,10.63,0,15.94a26.56,26.56,0,0,1-.4,3.66c-.09.59-.18,1.17-.25,1.75l-.2.89L734,350V350a2.34,2.34,0,0,0,0,.26c0,.12,0,.24-.07.36a37,37,0,0,1-3.8,9.3,34.16,34.16,0,0,1-5.74,7.58l-1.73,1.52c-1.35,1.2-2.63,2.33-4,3.34a32,32,0,0,1-3.68,2.2c-.59.32-1.18.64-1.76,1a31.75,31.75,0,0,1-7,2.69l-1.1.24c-.87.2-1.73.39-2.6.57-.63.13-1.26.23-1.93.34l-.77.13H578.08l-1.25-.18c-1-.13-1.88-.26-2.78-.44-12.79-2.58-22.24-9.84-28.11-21.57a36,36,0,0,1-3.55-13,1.77,1.77,0,0,0-.14-.53V264.13h0l.85-.37.09,0,.08,0,.17-.1.1-.07,3.19-1.46c2.51-1.15,5.1-2.35,7.67-3.43,2.06-.87,4.21-1.66,6.3-2.43l2.84-1.05.05,0,.06,0,.16-.08,0,0,3.93-1.29c3.48-1.14,7.09-2.33,10.65-3.45,1.32-.41,2.71-.75,4.06-1.08l1.9-.48,1.53-.38c1.09-.28,2.21-.56,3.3-.79,2.61-.54,5.27-1.07,7.84-1.58l3.19-.63.57-.12c.39-.08.76-.16,1.12-.22l1.21-.18c1.84-.29,3.74-.58,5.61-.83,1.52-.2,3.08-.38,4.58-.55l2-.23,2.1-.19,5.24-.48c1-.09,2.06-.15,3.14-.19l6.43-.22,2.57-.08.53,0c.29,0,.57,0,.82,0m0-1.38c-.47,0-1,.06-1.43.08l-9,.3c-1.07,0-2.14.1-3.21.19l-7.36.68c.09.15.16.32.24.48-.08-.16-.15-.33-.24-.48-2.22.26-4.43.49-6.64.78s-4.57.67-6.85,1c-.58.09-1.16.23-1.75.35-3.68.73-7.36,1.44-11,2.21-1.64.34-3.25.79-4.88,1.18-2,.53-4.06,1-6.05,1.59-4.88,1.53-9.73,3.15-14.59,4.74a2.53,2.53,0,0,0-.37.18c-3.07,1.16-6.17,2.23-9.19,3.5-3.66,1.54-7.26,3.26-10.89,4.9-.14.07-.28.17-.42.25l-1.7.74V344.1a1.34,1.34,0,0,1,.14.36,37.31,37.31,0,0,0,3.7,13.5c6,12.12,15.72,19.61,29.06,22.31,1.39.28,2.8.43,4.2.65h121.9c1-.17,1.91-.31,2.86-.5,1.26-.25,2.51-.55,3.77-.83a32.85,32.85,0,0,0,7.34-2.82,59.2,59.2,0,0,0,5.57-3.26c2.06-1.5,3.92-3.29,5.86-4.95a35.81,35.81,0,0,0,6-7.91,38.2,38.2,0,0,0,3.94-9.64c.06-.24.09-.48.14-.72.14-.63.29-1.26.43-1.89a51.57,51.57,0,0,0,.66-5.64c.08-7.25,0-14.51,0-21.77,0-.11,0-.22,0-.33l-.3-.18.3.18c0-.3,0-.6,0-.9q0-27.79,0-55.6a1.21,1.21,0,0,0-.79-1.3,218,218,0,0,0-52-17.73c-5-1-10-1.81-15-2.55-3.74-.55-7.51-.87-11.27-1.29h-.66c-1.58-.12-3.15-.3-4.73-.35-5.25-.17-10.49-.28-15.73-.41Z"/><path class="cls-4" d="M633.67,335.54H621.42a4.75,4.75,0,0,0-4.87,3.76c-1,4.08-1.93,8.17-2.89,12.26q-1.9,8.18-3.82,16.36c-.46,2,.63,3.65,2.55,3.68,4.5.05,9,0,13.49,0,1.71,0,3.42,0,5.12,0l10.74,0c5,0,9.93,0,14.89,0a4.64,4.64,0,0,0,4.17-3.66q3.39-14.32,6.72-28.67c.52-2.21-.74-3.72-3-3.72H652.33c-.83,0-1.65,0-2.47.05l-13.65,0Z"/><path class="cls-8" d="M649.86,335.6c.82,0,1.64-.05,2.47-.05h12.16c2.29,0,3.55,1.51,3,3.72q-3.33,14.34-6.72,28.67a4.64,4.64,0,0,1-4.17,3.66c-5,.06-9.92,0-14.89,0-1.85-1-2.3-2-1.81-4s.9-3.95,1.36-5.91q2.54-10.87,5.11-21.73a6,6,0,0,1,1.06-2.44A15.09,15.09,0,0,1,649.86,335.6Z"/><path class="cls-9" d="M649.86,335.6a15.09,15.09,0,0,0-2.4,1.9,6,6,0,0,0-1.06,2.44q-2.6,10.86-5.11,21.73c-.46,2-.9,3.94-1.36,5.91s0,3.06,1.81,4l-10.74,0c-1.7,0-3.41,0-5.12,0-1.88-.89-2.38-1.91-1.9-4q2.87-12.3,5.74-24.6c.38-1.65.75-3.32,1.28-4.93a3.36,3.36,0,0,1,2.63-2.47l2.58-.05Z"/><path class="cls-10" d="M633.63,335.63A3.36,3.36,0,0,0,631,338.1c-.53,1.61-.9,3.28-1.28,4.93q-2.88,12.3-5.74,24.6c-.48,2.07,0,3.09,1.9,4-4.49,0-9,.05-13.49,0-1.92,0-3-1.68-2.55-3.68q1.9-8.19,3.82-16.36c1-4.09,1.91-8.18,2.89-12.26a4.75,4.75,0,0,1,4.87-3.76h12.25A.11.11,0,0,0,633.63,335.63Z"/><path class="cls-8" d="M633.63,335.63a.11.11,0,0,1,0-.09l2.54,0Z"/><path class="cls-7" d="M736.44,224.07a51.11,51.11,0,0,0-.66-5.63c-.14-.63-.29-1.26-.43-1.89-.05-.24-.08-.49-.14-.73a38.2,38.2,0,0,0-3.94-9.64,35.81,35.81,0,0,0-6-7.91c-1.94-1.66-3.8-3.45-5.86-5a59.2,59.2,0,0,0-5.57-3.26,32.85,32.85,0,0,0-7.34-2.82c-1.26-.28-131.34-1-132.73-.68-13.34,2.7-23,10.2-29.06,22.31a37.31,37.31,0,0,0-3.7,13.5,1.22,1.22,0,0,1-.14.36v80.88l1.7.74c.14.08.28.18.42.25,3.63,1.64,7.23,3.36,10.89,4.9,3,1.27,6.12,2.34,9.19,3.5a2.53,2.53,0,0,0,.37.18c4.86,1.59,9.71,3.21,14.59,4.74,2,.63,4,1.07,6.05,1.59,1.63.4,3.24.84,4.88,1.18,3.68.77,7.36,1.48,11,2.22.59.11,1.17.25,1.75.34,2.28.35,4.56.72,6.85,1s4.42.52,6.64.78c.09-.15.16-.32.24-.47-.08.15-.15.32-.24.47,2.45.23,4.91.47,7.36.68,1.07.09,2.14.15,3.21.19l9,.3c.52,0,1.05.09,1.57.08,5.24-.12,10.48-.24,15.73-.4,1.58,0,3.15-.24,4.73-.36.22,0,.44,0,.66,0,3.76-.42,7.53-.74,11.27-1.29,5-.74,10-1.52,15-2.54a218.85,218.85,0,0,0,52-17.73,1.22,1.22,0,0,0,.79-1.31C736.47,284.14,736.52,231.33,736.44,224.07Zm-175.89-.9a5.69,5.69,0,0,1,1.79-.24c4.52,0,9,0,13.57,0,.3,0,.6,0,.91,0s.66,0,1,0c7.61,0,15.23,0,22.85,0a6,6,0,0,1,1.79.24,3.11,3.11,0,0,1,2,3.55,3.17,3.17,0,0,1-2.91,2.6c-.28,0-.55,0-.83,0h-30c-.34,0-.67,0-1,0l-8,0a3.19,3.19,0,0,1-3.19-2.79A3.13,3.13,0,0,1,560.55,223.17Zm17.59,45.48-10.83,0a6.94,6.94,0,0,1-6.64-9.31c1.5-4.23,3.07-8.45,4.62-12.67.08-.23.16-.46.28-.77h-2.83l-4,0a3.19,3.19,0,1,1-.09-6.37l1.65,0c.25,0,.49,0,.74,0h36.29c.24,0,.49,0,.73,0,2.15,0,4.3,0,6.45,0a3.19,3.19,0,0,1,3.11,2.34,3.07,3.07,0,0,1-1.52,3.59,4.38,4.38,0,0,1-1.89.41q-15.24,0-30.46,0a1.11,1.11,0,0,0-1.27.89c-1.46,4.11-3,8.2-4.47,12.3-.71,1.95.22,3.24,2.32,3.24h24.66c2.1,0,2.92-1.24,2-3.12l-1.36-2.91c-.92-2-.47-3.83,1.16-4.74s3.57-.41,4.79,1.48c.78,1.69,1.57,3.37,2.34,5.07a7.36,7.36,0,0,1-5.54,10.52,8.38,8.38,0,0,1-1.23.07Zm21.06,25a6.76,6.76,0,0,1-6.57,5.66,10.52,10.52,0,0,1-2.38-.16,4.18,4.18,0,0,1-3.57-5.12c.25-1.82.6-3.63.9-5.44.44-2.37.89-4.74,1.3-7.12.08-.49.25-.64.73-.62,1,0,1.92,0,3,0-.09.59-.17,1.09-.25,1.6-.7,3.82-1.43,7.64-2,11.47a2.38,2.38,0,0,0,.66,1.81,2.3,2.3,0,0,0,2.5.33c1.57-.56,2-1.81,2.3-3.27.31-1.81.65-3.61,1-5.42.37-2.13.73-4.27,1.1-6.46h3.62c-.1.75-.21,1.48-.31,2.21Q600.15,288.4,599.2,293.65Zm14,3c-.13.8-.28,1.61-.41,2.42h-3.5c.43-2.39.84-4.74,1.25-7.08.12-.65.25-1.29.35-1.94a1.58,1.58,0,0,0-1.49-2l-.41,0c-2-.06-2.15.09-2.48,2-.46,2.65-1,5.29-1.37,7.94-.12.85-.41,1.29-1.31,1.18h-2.39c.26-1.5.5-2.84.73-4.19.49-2.72,1-5.44,1.44-8.17a.9.9,0,0,1,.75-.82,15.63,15.63,0,0,1,7.22-.48,3.13,3.13,0,0,1,2.88,3.12ZM614.47,265c.06-1.26,0-2.53,0-3.79h0c0-.3,0-.6,0-.9V241.62c0-.3,0-.6,0-.9,0-1.92,0-3.84.07-5.75a4.58,4.58,0,0,1,.52-2.15,3.21,3.21,0,0,1,3.72-1.29,3.29,3.29,0,0,1,2.36,3.1c0,.16,0,.32.06.49s0,.38,0,.57v25.09c0,.19,0,.38,0,.57,0,1.43,0,2.86-.06,4.29a3.38,3.38,0,0,1-4.82,3A3.73,3.73,0,0,1,614.47,265Zm4.85,34h-3.47c.15-1,.27-1.95.43-2.91.42-2.5.86-5,1.29-7.49.17-1,.34-2,.5-3l.18-.1h3.43C620.89,290.07,620.11,294.53,619.32,299Zm.4-15.57c-.65-.42-1.31-.9-1.14-1.75a2.34,2.34,0,0,1,1.89-2,1.93,1.93,0,0,1,2.19,1A2.51,2.51,0,0,1,619.72,283.46Zm13.47,13.61a6.57,6.57,0,0,1-8.63,1.24A6.11,6.11,0,0,1,623,293c.33-2.7,1.25-5.13,3.62-6.71,1.94-1.29,6.41-1.87,8.26,1.19A9.17,9.17,0,0,1,633.19,297.07Zm-4.41-44.41a3.25,3.25,0,0,1-4.25.14,3.34,3.34,0,0,1-.06-5.13q6.13-6.13,12.29-12.25c1.82-1.81,3.62-1.8,5.46,0,3.18,3.17,6.37,6.33,9.53,9.52a3.28,3.28,0,0,1,.45.86c1.2-1.22,2.14-2.12,3-3.07a1.77,1.77,0,0,0,.42-1.07c0-3.27,0-6.55,0-9.82,0-1.86-.81-2.68-2.66-2.68H627.91c-.31,0-.61,0-.91,0-.74,0-1.49-.09-2.23,0a6.69,6.69,0,0,1-5.19-2.27,8.56,8.56,0,0,1-1.84-2.53,2.86,2.86,0,0,1,1.27-3.64,3.08,3.08,0,0,1,3.9.55,4.81,4.81,0,0,0,4.2,1.66c5.23-.09,10.47,0,15.71,0,.3,0,.6,0,.91,0l11.07,0a6.88,6.88,0,0,1,6.52,3.56,12.59,12.59,0,0,1,.94,3.27,7.37,7.37,0,0,1,0,1.56h0v4.37c.28-.26.49-.45.68-.65,4.64-4.62,9.32-9.21,13.9-13.89a3.39,3.39,0,0,1,5.06.29.9.9,0,0,0,.18.15c.94,1.86.37,3.34-1,4.74Q668.15,239.15,655.26,252a7.47,7.47,0,0,1-1.92,1.37,2.94,2.94,0,0,1-3-.5L640.44,243,635.39,238l-.17.18c.64,1.81,1.3,3.61,1.92,5.43a1.05,1.05,0,0,1-.11.86C634.3,247.19,631.56,249.94,628.78,252.66Zm21,37.22c-.52,2.91-1,5.82-1.58,8.73,0,.18-.28.44-.43.45-1,0-2,0-3.11,0l.6-3.89c.33-1.77.7-3.54,1-5.33a1.49,1.49,0,0,0-1.47-1.8l-.33,0c-2-.1-2.21.07-2.55,2-.5,2.75-1,5.51-1.47,8.26,0,.27-.12.53-.19.79h-3.4c.19-1.26.35-2.48.56-3.7.3-1.73.62-3.45.93-5.18.23-1.26.44-2.51.69-3.77a.62.62,0,0,1,.36-.31,14.5,14.5,0,0,1,7.69-.6C649.26,285.92,650.06,287.35,649.76,289.88Zm-2.09-23.05a3.45,3.45,0,0,1,.74-3.27,2.77,2.77,0,0,1,2.25-.89h2.23c2,0,2.65-1,2.75-2.71.07-1.37,0-2.75,0-4.12a1.9,1.9,0,0,1,.46-1.12c1.84-1.9,3.73-3.75,5.6-5.61.11-.12.24-.22.57-.51V260.2a20.4,20.4,0,0,1-.1,2.71,7,7,0,0,1-7.14,6l-1.56,0c-1,0-1.93,0-2.89,0A3,3,0,0,1,647.67,266.83Zm11.12,25.24c-.9,0-1.8.13-2.79.21-.4,2.2-.8,4.45-1.21,6.69h-3.51c.3-1.83.59-3.64.91-5.45s.7-3.68,1-5.52c0-.29.07-.6.1-.89.31-1.64.66-3.26.92-4.9a.92.92,0,0,1,.85-.91l4.85-.77a18.18,18.18,0,0,1,2.89.51c2.59.88,3.39,2.8,3,5.2C665.26,290.2,661.83,292,658.79,292.07Zm19-2.14c-.43,2.65-.92,5.29-1.43,7.92a1.21,1.21,0,0,1-.65.78,13.51,13.51,0,0,1-7,.53c-2.21-.43-3-1.42-3.15-3.64.27-2.67,2-4,4.41-4.57,1.12-.28,2.28-.36,3.42-.55.44-.07,1,.21,1.13-.59.13-1,0-1.65-.82-1.82a7.68,7.68,0,0,0-2.44-.13,25,25,0,0,0-2.86.61l-.46-2.27a14.08,14.08,0,0,1,7.73-.68C678,286.46,678.05,288.25,677.78,289.93Zm-2.23-24.29,0-.65c0-3.54,0-7.07,0-10.6,0-2.25,0-4.49,0-6.74,0-3.79,0-7.58,0-11.38a2.05,2.05,0,0,1,.7-1.63c1.75-1.69,3.45-3.41,5.16-5.12.19-.19.39-.37.74-.7,0,.47,0,.75,0,1v19.22c0,.3,0,.6,0,.9q0,6.55,0,13.09v2.47a3.26,3.26,0,0,1-3.7,3.38C676.68,268.82,675.67,267.53,675.55,265.64Zm15.61,24.9c-2.4,4.34-4.83,8.67-7.19,13a1.74,1.74,0,0,1-1.81,1c-.76,0-1.52,0-2.51,0l2.13-3.79a3.84,3.84,0,0,0,.69-3.52c-.84-3.66-1.53-7.36-2.27-11.05,0-.19-.05-.38-.09-.64H684c.4,3.31.8,6.66,1.21,10.1.23-.55.44-1.07.67-1.57,1-2.06,2-4.11,2.93-6.17.28-.61.58-1.21.82-1.84a.81.81,0,0,1,.92-.6c1,0,2.09,0,3.31,0ZM698,254.62q-4.85-4.85-9.71-9.67a3.85,3.85,0,0,0-.3-.27c-1.21-2.27-.58-4.41,1.53-5.18a3.55,3.55,0,0,1,3.22.47q5,5,10,10a3.22,3.22,0,0,1,.88,3.47,3.12,3.12,0,0,1-2.7,2.24A3.25,3.25,0,0,1,698,254.62Zm23.42-20.15a6.29,6.29,0,0,1-1.75.3,8.77,8.77,0,0,1-.9,0H717v1.79c0,1,0,1.92,0,2.88,0,7.22,0,14.44,0,21.66a8.15,8.15,0,0,1-1.6,5.31l-.79.79a8.37,8.37,0,0,1-5.72,1.69c-1.1,0-2.2,0-3.3,0a3.19,3.19,0,0,1-3.36-3.25,2.92,2.92,0,0,1,2.91-3c.93,0,1.87,0,2.81,0a2.32,2.32,0,0,0,2.39-2.25c0-3.15,0-6.31,0-9.46l0-12.1c0-1.32,0-2.64,0-4.05H697.55c-2.81,0-5.62,0-8.43,0a3,3,0,0,1-2.91-2,3.12,3.12,0,0,1,3.15-4.22l5.71,0h15.26c0-1.57,0-3.16,0-4.74a6,6,0,0,1,.29-1.73,3,3,0,0,1,3.49-1.87,3.13,3.13,0,0,1,2.82,3.05c0,1.72,0,3.45,0,5.24,1.84.32,3.88-.48,5.44,1.05l.65,1C723.41,232.49,722.89,233.85,721.4,234.47Z"/><path class="cls-7" d="M635.28,237.66l-.19.15.13.33.17-.18Z"/><path class="cls-7" d="M628.57,288.44a4.46,4.46,0,0,0-1.37,1.79,27.93,27.93,0,0,0-.92,3.4l.13,0c0,.33,0,.66.08,1a1.93,1.93,0,0,0,2.56,1.82,3.15,3.15,0,0,0,1.61-1,7.33,7.33,0,0,0,1.35-5.69A2,2,0,0,0,628.57,288.44Z"/><path class="cls-7" d="M660.58,283.48a12.1,12.1,0,0,0-2.62,0,.68.68,0,0,0-.46.44c-.34,1.75-.63,3.5-1,5.51a23.27,23.27,0,0,0,2.92-.21,3.42,3.42,0,0,0,2.95-3.2A2.06,2.06,0,0,0,660.58,283.48Z"/><path class="cls-7" d="M668.92,295.56a1.37,1.37,0,0,0,1.29,1.21,16.26,16.26,0,0,0,2.7,0c.17,0,.41-.33.45-.54.24-1.15.43-2.32.67-3.63-1.47.13-2.89.09-4.13.88A2.08,2.08,0,0,0,668.92,295.56Z"/><path class="cls-4" d="M601.58,253c.78,1.69,1.57,3.37,2.34,5.07a7.36,7.36,0,0,1-5.54,10.52,8.38,8.38,0,0,1-1.23.07l-19,0-10.83,0a6.94,6.94,0,0,1-6.64-9.31c1.5-4.23,3.07-8.45,4.62-12.67.08-.23.16-.46.28-.77h-2.83l-4,0a3.19,3.19,0,1,1-.09-6.37l1.65,0c.25,0,.49,0,.74,0h36.29c.24,0,.49,0,.73,0,2.15,0,4.3,0,6.45,0a3.19,3.19,0,0,1,3.11,2.34,3.07,3.07,0,0,1-1.52,3.59,4.38,4.38,0,0,1-1.89.41q-15.24,0-30.46,0a1.11,1.11,0,0,0-1.27.89c-1.46,4.11-3,8.2-4.47,12.3-.71,1.95.22,3.24,2.32,3.24h24.66c2.1,0,2.92-1.24,2-3.12l-1.36-2.91c-.92-2-.47-3.83,1.16-4.74S600.36,251.07,601.58,253Z"/><path class="cls-4" d="M576.82,222.88c.33,0,.66,0,1,0,7.61,0,15.23,0,22.85,0a6,6,0,0,1,1.79.24,3.11,3.11,0,0,1,2,3.55,3.17,3.17,0,0,1-2.91,2.6c-.28,0-.55,0-.83,0h-30c-.34,0-.67,0-1,0l-8,0a3.19,3.19,0,0,1-3.19-2.79,3.13,3.13,0,0,1,2.07-3.37,5.69,5.69,0,0,1,1.79-.24c4.52,0,9,0,13.57,0C576.21,222.92,576.51,222.89,576.82,222.88Z"/><path class="cls-4" d="M662.3,231.31v4.37c.28-.26.49-.45.68-.65,4.64-4.62,9.32-9.21,13.9-13.89a3.39,3.39,0,0,1,5.06.29.9.9,0,0,0,.18.15c.94,1.86.37,3.34-1,4.74Q668.15,239.15,655.26,252a7.47,7.47,0,0,1-1.92,1.37,2.94,2.94,0,0,1-3-.5L640.44,243,635.39,238l-.11-.3-.19.15.13.33c.64,1.81,1.3,3.61,1.92,5.43a1.05,1.05,0,0,1-.11.86c-2.73,2.76-5.47,5.51-8.25,8.23a3.25,3.25,0,0,1-4.25.14,3.34,3.34,0,0,1-.06-5.13q6.13-6.13,12.29-12.25c1.82-1.81,3.62-1.8,5.46,0,3.18,3.17,6.37,6.33,9.53,9.52a3.28,3.28,0,0,1,.45.86c1.2-1.22,2.14-2.12,3-3.07a1.77,1.77,0,0,0,.42-1.07c0-3.27,0-6.55,0-9.82,0-1.86-.81-2.68-2.66-2.68H627.91c-.31,0-.61,0-.91,0-.74,0-1.49-.09-2.23,0a6.69,6.69,0,0,1-5.19-2.27,8.56,8.56,0,0,1-1.84-2.53,2.86,2.86,0,0,1,1.27-3.64,3.08,3.08,0,0,1,3.9.55,4.81,4.81,0,0,0,4.2,1.66c5.23-.09,10.47,0,15.71,0,.3,0,.6,0,.91,0l11.07,0a6.88,6.88,0,0,1,6.52,3.56,12.59,12.59,0,0,1,.94,3.27A7.37,7.37,0,0,1,662.3,231.31Z"/><path class="cls-4" d="M621.17,235.12c0,.19,0,.38,0,.57v25.09c0,.19,0,.38,0,.57,0,1.43,0,2.86-.06,4.29a3.38,3.38,0,0,1-4.82,3,3.73,3.73,0,0,1-1.82-3.62c.06-1.26,0-2.53,0-3.79,0-.3,0-.6,0-.9V241.62c0-.3,0-.6,0-.9,0-1.92,0-3.84.07-5.75a4.58,4.58,0,0,1,.52-2.15,3.21,3.21,0,0,1,3.72-1.29,3.29,3.29,0,0,1,2.36,3.1C621.12,234.79,621.15,235,621.17,235.12Z"/><path class="cls-4" d="M722.4,229.5l.65,1c.36,2-.16,3.36-1.65,4a6.29,6.29,0,0,1-1.75.3,8.77,8.77,0,0,1-.9,0H717v1.79c0,1,0,1.92,0,2.88,0,7.22,0,14.44,0,21.66a8.15,8.15,0,0,1-1.6,5.31l-.79.79a8.37,8.37,0,0,1-5.72,1.69c-1.1,0-2.2,0-3.3,0a3.19,3.19,0,0,1-3.36-3.25,2.92,2.92,0,0,1,2.91-3c.93,0,1.87,0,2.81,0a2.32,2.32,0,0,0,2.39-2.25c0-3.15,0-6.31,0-9.46l0-12.1c0-1.32,0-2.64,0-4.05H697.55c-2.81,0-5.62,0-8.43,0a3,3,0,0,1-2.91-2,3.12,3.12,0,0,1,3.15-4.22l5.71,0h15.26c0-1.57,0-3.16,0-4.74a6,6,0,0,1,.29-1.73,3,3,0,0,1,3.49-1.87,3.13,3.13,0,0,1,2.82,3.05c0,1.72,0,3.45,0,5.24C718.8,228.77,720.84,228,722.4,229.5Z"/><path class="cls-4" d="M681.78,300.81a3.84,3.84,0,0,0,.69-3.52c-.84-3.66-1.53-7.36-2.27-11.05,0-.19-.05-.38-.09-.64H684c.4,3.31.8,6.66,1.21,10.1.23-.55.44-1.07.67-1.57,1-2.06,2-4.11,2.93-6.17.28-.61.58-1.21.82-1.84a.81.81,0,0,1,.92-.6c1,0,2.09,0,3.31,0l-2.71,5c-2.4,4.34-4.83,8.67-7.19,13a1.74,1.74,0,0,1-1.81,1c-.76,0-1.52,0-2.51,0Z"/><path class="cls-4" d="M675.52,265c0-3.54,0-7.07,0-10.6,0-2.25,0-4.49,0-6.74,0-3.79,0-7.58,0-11.38a2.05,2.05,0,0,1,.7-1.63c1.75-1.69,3.45-3.41,5.16-5.12.19-.19.39-.37.74-.7,0,.47,0,.75,0,1v19.22c0,.3,0,.6,0,.9q0,6.55,0,13.09v2.47a3.26,3.26,0,0,1-3.7,3.38c-1.8-.08-2.81-1.37-2.93-3.26Z"/><path class="cls-4" d="M662.3,260.2a20.4,20.4,0,0,1-.1,2.71,7,7,0,0,1-7.14,6l-1.56,0c-1,0-1.93,0-2.89,0a3,3,0,0,1-2.94-2.09,3.45,3.45,0,0,1,.74-3.27,2.77,2.77,0,0,1,2.25-.89h2.23c2,0,2.65-1,2.75-2.71.07-1.37,0-2.75,0-4.12a1.9,1.9,0,0,1,.46-1.12c1.84-1.9,3.73-3.75,5.6-5.61.11-.12.24-.22.57-.51Z"/><path class="cls-4" d="M692.72,240q5,5,10,10a3.22,3.22,0,0,1,.88,3.47,3.12,3.12,0,0,1-2.7,2.24,3.25,3.25,0,0,1-2.91-1q-4.85-4.85-9.71-9.67a3.85,3.85,0,0,0-.3-.27c-1.21-2.27-.58-4.41,1.53-5.18A3.55,3.55,0,0,1,692.72,240Z"/><path class="cls-4" d="M603.81,299.13h-2.39c.26-1.5.5-2.84.73-4.19.49-2.72,1-5.44,1.44-8.17a.9.9,0,0,1,.75-.82,15.63,15.63,0,0,1,7.22-.48,3.13,3.13,0,0,1,2.88,3.12c-.42,2.68-.84,5.35-1.27,8-.12.8-.27,1.61-.4,2.42h-3.5c.43-2.39.84-4.74,1.25-7.08.12-.65.25-1.29.35-1.94a1.58,1.58,0,0,0-1.49-2l-.41,0c-2-.06-2.15.09-2.48,2-.46,2.65-1,5.29-1.37,7.94C605,298.8,604.71,299.24,603.81,299.13Z"/><path class="cls-4" d="M634.89,287.46a9.17,9.17,0,0,1-1.7,9.61,6.57,6.57,0,0,1-8.63,1.24A6.11,6.11,0,0,1,623,293c.33-2.7,1.25-5.13,3.62-6.71C628.57,285,633,284.4,634.89,287.46Zm-8.61,6.17.13,0c0,.33,0,.66.08,1a1.93,1.93,0,0,0,2.56,1.82,3.15,3.15,0,0,0,1.61-1,7.33,7.33,0,0,0,1.35-5.69,2,2,0,0,0-3.44-1.31,4.46,4.46,0,0,0-1.37,1.79A27.93,27.93,0,0,0,626.28,293.63Z"/><path class="cls-4" d="M618.07,285.63l.18-.1h3.43c-.79,4.54-1.57,9-2.36,13.5h-3.47c.15-1,.27-1.95.43-2.91.42-2.5.86-5,1.29-7.49C617.74,287.63,617.91,286.63,618.07,285.63Z"/><path class="cls-4" d="M619.72,283.46c-.65-.42-1.31-.9-1.14-1.75a2.34,2.34,0,0,1,1.89-2,1.93,1.93,0,0,1,2.19,1A2.51,2.51,0,0,1,619.72,283.46Z"/><path class="cls-4" d="M653.34,287.11c.31-1.64.66-3.26.92-4.9a.92.92,0,0,1,.85-.91l4.85-.77a18.18,18.18,0,0,1,2.89.51c2.59.88,3.39,2.8,3,5.2-.61,4-4,5.73-7.08,5.83-.9,0-1.8.13-2.79.21-.4,2.2-.8,4.45-1.21,6.69h-3.51c.3-1.83.59-3.64.91-5.45s.7-3.68,1-5.52C653.29,287.71,653.31,287.4,653.34,287.11Zm3.18,2.35a23.27,23.27,0,0,0,2.92-.21,3.42,3.42,0,0,0,2.95-3.2,2.06,2.06,0,0,0-1.81-2.57,12.1,12.1,0,0,0-2.62,0,.68.68,0,0,0-.46.44C657.16,285.7,656.87,287.45,656.52,289.46Z"/><path class="cls-4" d="M645.24,295.19c.33-1.77.7-3.54,1-5.33a1.49,1.49,0,0,0-1.47-1.8l-.33,0c-2-.1-2.21.07-2.55,2-.5,2.75-1,5.51-1.47,8.26,0,.27-.12.53-.19.79h-3.4c.19-1.26.35-2.48.56-3.7.3-1.73.62-3.45.93-5.18.23-1.26.44-2.51.69-3.77a.62.62,0,0,1,.36-.31,14.5,14.5,0,0,1,7.69-.6c2.23.43,3,1.86,2.73,4.39-.52,2.91-1,5.82-1.58,8.73,0,.18-.28.44-.43.45-1,0-2,0-3.11,0Z"/><path class="cls-4" d="M675.67,285.52c2.31.94,2.38,2.73,2.11,4.41-.43,2.65-.92,5.29-1.43,7.92a1.21,1.21,0,0,1-.65.78,13.51,13.51,0,0,1-7,.53c-2.21-.43-3-1.42-3.15-3.64.27-2.67,2-4,4.41-4.57,1.12-.28,2.28-.36,3.42-.55.44-.07,1,.21,1.13-.59.13-1,0-1.65-.82-1.82a7.68,7.68,0,0,0-2.44-.13,25,25,0,0,0-2.86.61l-.46-2.27A14.08,14.08,0,0,1,675.67,285.52Zm-1.64,7c-1.47.13-2.89.09-4.13.88a2.08,2.08,0,0,0-1,2.13,1.37,1.37,0,0,0,1.29,1.21,16.26,16.26,0,0,0,2.7,0c.17,0,.41-.33.45-.54C673.6,295,673.79,293.86,674,292.55Z"/><path class="cls-4" d="M592.32,282.46c-.7,3.82-1.43,7.64-2,11.47a2.38,2.38,0,0,0,.66,1.81,2.3,2.3,0,0,0,2.5.33c1.57-.56,2-1.81,2.3-3.27.31-1.81.65-3.61,1-5.42.37-2.13.73-4.27,1.1-6.46h3.62c-.1.75-.21,1.48-.31,2.21q-1,5.26-1.91,10.52a6.76,6.76,0,0,1-6.57,5.66,10.52,10.52,0,0,1-2.38-.16,4.18,4.18,0,0,1-3.57-5.12c.25-1.82.6-3.63.9-5.44.44-2.37.89-4.74,1.3-7.12.08-.49.25-.64.73-.62,1,0,1.92,0,3,0Z"/><path class="cls-11" d="M170.94,193.48h72.24c10.09,0,16.36,8.19,14,18.28L223.55,355.68c-2.37,10.05-12.47,18.25-22.56,18.25H128.75c-10.07,0-16.35-8.2-14-18.25L148.4,211.76c2.35-10.09,12.44-18.28,22.54-18.28"/><path class="cls-12" d="M237.17,193.48h83.08c10.08,0,5.53,8.19,3.16,18.28L289.78,355.68c-2.36,10.05-1.62,18.25-11.73,18.25H195c-10.11,0-16.36-8.2-14-18.25l33.63-143.92c2.39-10.09,12.46-18.28,22.55-18.28"/><path class="cls-13" d="M317,193.48h72.24c10.1,0,16.38,8.19,14,18.28L369.56,355.68c-2.37,10.05-12.47,18.25-22.57,18.25H274.78c-10.1,0-16.37-8.2-14-18.25l33.63-143.92c2.35-10.09,12.44-18.28,22.54-18.28"/><path class="cls-4" d="M189.8,239.61c-7.42.07-9.62,0-10.32-.17-.27,1.28-5.28,24.32-5.3,24.34-1.08,4.67-1.86,8-4.53,10.14a8.07,8.07,0,0,1-5.33,1.85c-3.29,0-5.21-1.63-5.54-4.73l-.06-1.06s1-6.24,1-6.28,5.26-21,6.2-23.78a1.67,1.67,0,0,0,.07-.31c-10.24.08-12.05,0-12.18-.17-.07.23-.32,1.53-.32,1.53l-5.37,23.67-.46,2-.9,6.57a9.65,9.65,0,0,0,1.15,4.88c2.45,4.26,9.43,4.9,13.38,4.9,5.09,0,9.86-1.08,13.09-3,5.6-3.3,7.06-8.46,8.37-13l.61-2.35s5.42-21.81,6.34-24.65A1,1,0,0,1,189.8,239.61Zm18.45,17.59a14.32,14.32,0,0,0-5.84,1.37c-.78.4-1.52.86-2.29,1.31l.7-2.52-.39-.42c-4.55.91-5.56,1-9.76,1.63l-.36.23a121.94,121.94,0,0,1-2.73,15c-.68,2.92-1.4,5.87-2.12,8.78l.2.37c4.3-.23,5.61-.23,9.35-.17l.3-.32c.48-2.43.54-3,1.59-7.92.5-2.33,1.53-7.45,2-9.27a7,7,0,0,1,2.74-.86c2.09,0,1.84,1.83,1.76,2.55-.09,1.22-.86,5.21-1.64,8.63l-.52,2.2c-.37,1.63-.77,3.22-1.13,4.84l.16.32c4.24-.23,5.54-.23,9.16-.17l.43-.32c.65-3.8.84-4.81,2-10.33l.59-2.54c1.14-5,1.71-7.47.85-9.52C212.43,257.76,210.25,257.2,208.25,257.2Zm20.6,5.2c-2.26.43-3.7.72-5.13.91s-2.8.43-5,.73l-.17.16-.16.12c-.23,1.62-.38,3-.69,4.66s-.64,3.63-1.28,6.41a25.55,25.55,0,0,1-1,3.61,30.79,30.79,0,0,0-1.14,3.57l.13.19.11.18c2-.1,3.37-.17,4.74-.18s2.79,0,5,0l.19-.15.21-.17c.32-1.89.36-2.4.56-3.32s.52-2.35,1.33-6c.39-1.72.81-3.43,1.21-5.17s.85-3.46,1.26-5.17l-.06-.21Zm0-7c-2-1.2-5.64-.82-8.06.85s-2.69,3.94-.65,5.17,5.63.82,8-.86S230.92,256.59,228.89,255.39Zm12.4,27.93c4.15,0,8.4-1.14,11.6-4.52,2.46-2.74,3.59-6.82,4-8.5,1.27-5.57.28-8.17-1-9.75-1.9-2.41-5.24-3.19-8.7-3.19-2.09,0-7.06.21-10.93,3.77-2.79,2.57-4.08,6.06-4.85,9.41s-1.69,9.54,4,11.82A16.62,16.62,0,0,0,241.29,283.32ZM241,270.79c.95-4.21,2.08-7.75,5-7.75,2.26,0,2.42,2.63,1.42,6.86-.18.94-1,4.43-2.12,5.92a3.52,3.52,0,0,1-2.72,1.76c-.3,0-2.1,0-2.13-2.67A18.35,18.35,0,0,1,241,270.79Zm26.26,12,.33-.32c.46-2.43.53-3,1.55-7.92.51-2.33,1.56-7.45,2.06-9.27a7,7,0,0,1,2.75-.86c2.08,0,1.83,1.82,1.75,2.55a84,84,0,0,1-1.64,8.63l-.49,2.2c-.38,1.64-.8,3.22-1.16,4.84l.16.32c4.26-.23,5.5-.23,9.15-.17l.44-.32c.64-3.8.81-4.81,2-10.33l.57-2.54c1.14-5,1.71-7.47.87-9.52-.94-2.3-3.13-2.86-5.1-2.86a14.28,14.28,0,0,0-5.84,1.37c-.77.4-1.53.85-2.28,1.31l.65-2.52-.35-.42c-4.54.91-5.58,1-9.78,1.63l-.32.23a128.14,128.14,0,0,1-2.73,15c-.69,2.92-1.41,5.87-2.12,8.78l.19.37C262.21,282.71,263.5,282.71,267.23,282.77Zm31.29.17c.27-1.3,1.86-9,1.87-9s1.35-5.67,1.44-5.87a3.22,3.22,0,0,1,.85-.82h.63c5.91,0,12.59,0,17.82-3.84a18.91,18.91,0,0,0,7.09-11.25,17,17,0,0,0,.49-3.91,8.23,8.23,0,0,0-1.42-5c-2.67-3.72-8-3.79-14.12-3.82l-3,0c-7.85.1-11,.07-12.3-.09l-.31,1.59s-2.82,13-2.82,13-6.73,27.64-7,28.94C294.52,282.81,297.33,282.81,298.52,282.94Zm5.21-23.09,3-12.92.1-.67,0-.5,1.19.12,6.32.54c2.43.94,3.44,3.36,2.74,6.52a9.46,9.46,0,0,1-4.94,6.48c-2,1-4.42,1.08-6.93,1.08h-1.62ZM322.36,271c-.79,3.36-1.7,9.5,3.93,11.68a11.1,11.1,0,0,0,5,.91,8.32,8.32,0,0,0,4.81-2.2c-.13.51-.26,1-.4,1.53l.26.33c4.05-.17,5.31-.17,9.7-.14l.4-.3c.64-3.75,1.24-7.4,2.91-14.59.81-3.44,1.62-6.84,2.45-10.27l-.13-.38c-4.53.84-5.74,1-10.1,1.63l-.33.27c0,.35-.09.69-.14,1a6.2,6.2,0,0,0-3.17-2.6c-1.94-.76-6.5.22-10.41,3.77C324.43,264.22,323.11,267.7,322.36,271Zm9.52.21c1-4.14,2.08-7.65,5-7.65,1.83,0,2.79,1.68,2.59,4.55-.15.71-.32,1.46-.52,2.32-.29,1.23-.6,2.45-.91,3.67a9.36,9.36,0,0,1-1.06,2.15,5,5,0,0,1-3.53,1.7c-.29,0-2.07,0-2.13-2.62A17.34,17.34,0,0,1,331.88,271.24Zm49.71-13.67-.35-.4c-4.49.9-5.3,1.05-9.42,1.6l-.3.3c0,.05,0,.13,0,.2v-.07c-3.07,7.05-3,5.53-5.48,11.08,0-.25,0-.41,0-.68l-.62-12-.39-.4c-4.7.9-4.81,1.05-9.15,1.6l-.34.3a3.43,3.43,0,0,0-.08.48l0,.06a62.51,62.51,0,0,1,1,6.51c.25,2.13.59,4.29.84,6.4.43,3.54.67,5.28,1.19,10.67-2.93,4.82-3.62,6.65-6.44,10.88l0,0-2,3.13a1.47,1.47,0,0,1-.72.65,3,3,0,0,1-1.3.19h-1.1l-1.64,5.42,5.61.1a6.92,6.92,0,0,0,6.48-3.62l3.53-6h0l.37-.42C363.53,288.44,381.59,257.57,381.59,257.57Zm-59.23,71.22H320l8.81-29.05h2.92l.93-3,.09,3.33c-.11,2.05,1.51,3.88,5.78,3.58h4.93l1.7-5.6h-1.86c-1.06,0-1.56-.27-1.5-.84l-.09-3.39h-9.13v0c-2.95.06-11.77.28-13.56.76a16,16,0,0,0-4.44,2.18l.9-3h-8.54l-1.78,5.94-8.93,29.49h-1.74l-1.7,5.56h17l-.57,1.85h8.39l.55-1.85h2.35Zm-7-23.15a38.38,38.38,0,0,0-3.92,1.53l2.27-7.43h6.78l-1.63,5.41A22,22,0,0,0,315.38,305.64Zm.13,10.61s-2.14.27-3.54.58a34.76,34.76,0,0,0-4,1.74l2.34-7.73h6.82Zm-3.81,12.61h-6.81l2-6.52h6.79Zm16.4-18h9.82l-1.41,4.55h-9.95l-1.49,5h8.7l-6.59,9.25a2.68,2.68,0,0,1-1.33,1.11,4,4,0,0,1-1.77.51h-2.42L320,336.69h6.31a7.69,7.69,0,0,0,6.65-3.44l4.52-6.17,1,6.26a3,3,0,0,0,1.62,2.13,6,6,0,0,0,2.21.93c1,.05,1.71.08,2.18.08h3.11l1.86-6.1h-1.23a5.06,5.06,0,0,1-2.11-.34,3.19,3.19,0,0,1-.32-1.3l-1-6.27h-4l1.77-2.1h9.93l1.52-5h-9.19l1.44-4.55h9.16l1.7-5.61H329.77Zm-82.9,19.29,2.29-7.6h9.42l1.72-5.65h-9.42l1.43-4.68h9.21l1.71-5.47h-23l-1.67,5.47h5.23l-1.4,4.68h-5.24l-1.74,5.75h5.23l-3.05,10.05a2.38,2.38,0,0,0,.57,2.45,2.56,2.56,0,0,0,1.69,1.23,10.41,10.41,0,0,0,2.41.33h10.62l1.89-6.26-4.71.64C247.44,331.07,244.93,331,245.2,330.13Zm1.08-36.37-2.38,4.3a4.92,4.92,0,0,1-1.39,1.79,4.52,4.52,0,0,1-2.13.32h-1.24l-1.67,5.5h4.14a9.46,9.46,0,0,0,4.24-1.09c.78-.42,1-.18,1.6-.76l1.39-1.21h12.91l1.72-5.72H254l1.65-3.13Zm19.06,36.48c-.22-.32-.06-.88.28-2l3.53-11.65H281.7c1.83,0,3.15,0,4-.1a8.3,8.3,0,0,0,3-1,5.57,5.57,0,0,0,2.19-2,16.79,16.79,0,0,0,2.17-4.89l4.44-14.73-13,.07a41.66,41.66,0,0,0-5.78,1.24,23.86,23.86,0,0,0-4.33,2.76l1.18-4h-8.05l-11.26,37.24a22.81,22.81,0,0,0-.73,3.13c0,.68.86,1.35,1.43,1.86a5.19,5.19,0,0,0,2.63.5c1,.08,2.43.13,4.4.13h6.19l1.9-6.39-5.54.52A1.49,1.49,0,0,1,265.34,330.24Zm6.08-21.54h13.19l-.84,2.62a9.27,9.27,0,0,0-1.74,0H270.61Zm2.65-8.78h13.29l-.95,3.15s-6.27-.06-7.28.13a14.85,14.85,0,0,0-7,3.11Zm10,20.17a1.43,1.43,0,0,1-.53.81,2.61,2.61,0,0,1-1.34.23h-1.88l.11-3.19h-7.82l-.31,15.59c0,1.13.09,1.78.92,2.3s3.37.73,6.79.73h4.9l1.77-5.83-4.26.23L281,331a1.59,1.59,0,0,1-.59-.36c-.18-.18-.48-.07-.43-1.19l0-4,4.48-.18a5.82,5.82,0,0,0,4.32-1.53,4.76,4.76,0,0,0,1.43-2.65l.75-3.54h-6.14Z"/></g></g></svg>