<svg width="892" height="481" viewBox="0 0 892 481" fill="none" xmlns="http://www.w3.org/2000/svg">
<path fill-rule="evenodd" clip-rule="evenodd" d="M350.324 111.68V74.53L321.368 30.27H347.275L358.416 51.27L358.758 51.91C359.844 53.8869 360.66 55.9989 361.184 58.19C361.685 56.06 362.506 54.017 363.62 52.13C363.841 51.72 364.002 51.45 364.073 51.29L375.144 30.29H401.101L372.094 74.55V111.7H350.324" fill="#181F37"/>
<path fill-rule="evenodd" clip-rule="evenodd" d="M429.846 76.78C429.597 73.8562 428.28 71.124 426.142 69.1C424.046 67.1736 421.276 66.1366 418.422 66.21C415.572 66.0651 412.773 67.0097 410.602 68.85C408.649 70.61 407.371 73.26 406.737 76.78H429.846ZM449.693 88H406.264C406.264 92.33 407.431 95.67 409.656 98C411.88 100.33 415.03 101.53 419.096 101.53C421.772 101.621 424.427 101.04 426.816 99.84C428.901 98.7161 430.574 96.9659 431.597 94.84L446.754 100.84C444.883 105.225 441.465 108.781 437.142 110.84C432.54 113.173 426.903 114.34 420.234 114.34C410.29 114.34 402.308 111.627 396.29 106.2C390.271 100.773 387.268 93.6066 387.282 84.7C387.282 75.9533 390.284 68.69 396.29 62.91C402.295 57.13 409.901 54.2366 419.106 54.23C428.567 54.23 436.032 57.1566 441.5 63.01C446.969 68.8633 449.7 76.86 449.693 87V88Z" fill="#181F37"/>
<path fill-rule="evenodd" clip-rule="evenodd" d="M502.936 85.0599C502.936 80.6799 501.755 77.2332 499.393 74.7199C497.031 72.2065 493.814 70.9432 489.741 70.9299C485.675 70.9299 482.471 72.1932 480.129 74.7199C477.787 77.2465 476.623 80.6932 476.636 85.0599C476.636 89.4665 477.794 92.9232 480.109 95.4299C482.434 97.9399 485.644 99.1899 489.771 99.1899C493.897 99.1899 497.058 97.9299 499.423 95.4099C501.788 92.8899 502.956 89.4399 502.936 85.0599ZM520.81 113.06H502.261V103.91C500.049 107.343 497.092 110.241 493.606 112.39C490.364 114.27 486.669 115.238 482.917 115.19C474.865 115.19 468.474 112.467 463.743 107.02C459.013 101.573 456.638 94.2399 456.618 85.0199C456.618 76.0732 458.966 68.8532 463.663 63.3599C468.36 57.8665 474.533 55.1132 482.182 55.0999C487.013 55.0999 490.945 55.9499 493.978 57.6499C497.391 59.7508 500.189 62.7062 502.09 66.2199C501.869 64.8799 501.698 63.3799 501.577 61.6899C501.456 59.9999 501.416 58.1699 501.416 56.2099V26.8599H520.73V113.05L520.81 113.06Z" fill="#181F37"/>
<path fill-rule="evenodd" clip-rule="evenodd" d="M550.773 84.17C550.773 88.5433 551.934 91.99 554.256 94.51C556.577 97.03 559.771 98.29 563.837 98.29C567.903 98.29 571.121 97.03 573.489 94.51C575.858 91.99 577.035 88.5433 577.022 84.17C577.022 79.7967 575.851 76.35 573.509 73.83C571.168 71.31 567.95 70.05 563.857 70.05C559.784 70.05 556.591 71.31 554.276 73.83C551.961 76.35 550.793 79.7967 550.773 84.17ZM532.938 136.86V55.86H551.508V65.32C553.707 61.8944 556.655 59.006 560.133 56.87C563.374 55.0006 567.065 54.0398 570.812 54.09C578.864 54.09 585.255 56.7867 589.985 62.18C594.716 67.5733 597.091 74.8867 597.111 84.12C597.111 93.0667 594.763 100.313 590.066 105.86C585.369 111.407 579.196 114.18 571.547 114.18C566.716 114.18 562.787 113.31 559.761 111.57C556.35 109.441 553.552 106.472 551.639 102.95C551.852 104.275 551.996 105.61 552.072 106.95C552.162 108.55 552.212 110.51 552.212 112.85V136.77H532.938V136.86Z" fill="#181F37"/>
<path fill-rule="evenodd" clip-rule="evenodd" d="M655.638 83.9998C655.638 79.6198 654.446 76.1532 652.064 73.5998C649.682 71.0465 646.445 69.7665 642.352 69.7598C638.239 69.7598 635.005 71.0398 632.65 73.5998C630.295 76.1598 629.114 79.6265 629.107 83.9998C629.107 88.3798 630.295 91.8265 632.67 94.3398C633.916 95.615 635.421 96.6117 637.086 97.2635C638.75 97.9153 640.535 98.2072 642.322 98.1198C646.428 98.1198 649.669 96.8598 652.044 94.3398C654.42 91.7898 655.607 88.3398 655.638 83.9998ZM673.331 55.9998V112.17H654.832V103C652.592 106.514 649.542 109.448 645.935 111.56C642.359 113.442 638.356 114.379 634.31 114.28C626.695 114.28 620.606 111.547 616.043 106.08C611.48 100.613 609.199 93.2798 609.199 84.0798C609.199 74.9198 611.584 67.6432 616.355 62.2498C621.126 56.8565 627.543 54.1598 635.609 54.1598C639.476 54.06 643.299 54.9924 646.68 56.8598C650.023 58.899 652.779 61.7615 654.681 65.1698V55.9098L673.331 55.9998Z" fill="#181F37"/>
<path fill-rule="evenodd" clip-rule="evenodd" d="M685.52 138.52L701.563 105.15L678.565 57.5601H700.919L708.89 77.8601C709.561 79.5601 710.125 81.1467 710.581 82.6201C710.997 83.9593 711.333 85.3216 711.587 86.7001C711.832 85.2998 712.168 83.9169 712.594 82.5601C713.016 81.1301 713.6 79.5601 714.254 77.8601L722.306 57.5601H743.845L707.964 138.56H685.52" fill="#181F37"/>
<path fill-rule="evenodd" clip-rule="evenodd" d="M729.17 31.78H731.807C732.726 31.7156 733.638 31.974 734.384 32.51C734.661 32.7055 734.884 32.9676 735.032 33.2719C735.18 33.5761 735.248 33.9126 735.229 34.25C735.239 34.5137 735.18 34.7754 735.058 35.01L734.968 35.19C734.819 35.573 734.581 35.9156 734.273 36.19C733.96 36.4771 733.59 36.6952 733.186 36.83C732.743 36.9826 732.276 37.0571 731.807 37.05H729.19V31.78H729.17ZM736.598 41.16C736.347 40.78 736.135 40.44 735.954 40.16C735.756 39.8804 735.541 39.6132 735.31 39.36L734.636 38.72L734.313 38.5C734.716 38.3694 735.103 38.1986 735.471 37.99C735.972 37.7113 736.421 37.3494 736.799 36.92C737.172 36.4929 737.462 36.0014 737.655 35.47V35.34C737.838 34.9387 737.924 34.5004 737.907 34.06C737.933 33.3923 737.78 32.7297 737.464 32.14C737.178 31.557 736.766 31.0446 736.256 30.64C735.717 30.2149 735.097 29.902 734.434 29.72C733.686 29.5186 732.914 29.421 732.139 29.43H726.533V45H729.17V39.36H730.66C731 39.358 731.338 39.4017 731.666 39.49L732.462 39.89L733.226 40.64C733.509 40.9999 733.768 41.3773 734.001 41.77L735.934 44.88L736.014 45H739.104L738.853 44.61L736.598 41.16Z" fill="#181F37"/>
<path fill-rule="evenodd" clip-rule="evenodd" d="M732.673 47.9999C730.498 47.9881 728.376 47.3367 726.573 46.1278C724.771 44.919 723.369 43.2069 722.544 41.2074C721.72 39.208 721.51 37.0107 721.941 34.8928C722.372 32.7749 723.424 30.8312 724.965 29.3068C726.506 27.7824 728.468 26.7456 730.601 26.3272C732.735 25.9088 734.945 26.1275 736.954 26.9557C738.962 27.7839 740.679 29.1846 741.888 30.981C743.096 32.7775 743.742 34.8892 743.744 37.0499C743.745 38.4925 743.46 39.9211 742.903 41.2535C742.347 42.5859 741.53 43.7957 740.501 44.8135C739.472 45.8312 738.251 46.6367 736.907 47.1835C735.564 47.7304 734.125 48.0079 732.673 47.9999V47.9999ZM732.673 24.2C730.116 24.2256 727.624 25.0027 725.51 26.4333C723.397 27.8638 721.757 29.8839 720.797 32.2389C719.838 34.5939 719.601 37.1784 720.117 39.6669C720.633 42.1553 721.879 44.4363 723.698 46.2224C725.516 48.0085 727.826 49.2198 730.337 49.7037C732.847 50.1876 735.445 49.9224 737.804 48.9416C740.163 47.9607 742.177 46.308 743.592 44.1919C745.008 42.0757 745.761 39.5907 745.757 37.0499C745.749 35.3539 745.404 33.6761 744.741 32.1131C744.079 30.55 743.111 29.1325 741.896 27.9421C740.68 26.7516 739.239 25.8117 737.656 25.1764C736.073 24.541 734.38 24.2228 732.673 24.24V24.2Z" fill="#181F37"/>
<path fill-rule="evenodd" clip-rule="evenodd" d="M151.938 5.34C144.491 5.34 138.422 10.95 138.422 17.84V129.06C138.422 135.95 144.46 141.55 151.938 141.55H272.172C279.62 141.55 285.689 135.95 285.689 129.06V17.84C285.689 10.95 279.65 5.34 272.172 5.34H151.938ZM272.141 146.9H151.938C141.31 146.9 132.634 138.9 132.634 129.06V17.84C132.644 8 141.29 0 151.938 0H272.172C282.78 0 291.476 8 291.476 17.84V129.06C291.415 138.9 282.78 146.9 272.141 146.9Z" fill="#4C70B4"/>
<path fill-rule="evenodd" clip-rule="evenodd" d="M273.722 108.41C258.796 108.41 243.85 108.47 228.924 108.41C225.494 108.361 222.077 107.989 218.718 107.3C216.73 107 214.896 106.062 213.493 104.631C212.091 103.2 211.197 101.352 210.948 99.37C210.238 96.0623 210.564 92.6177 211.884 89.5C212.565 87.8851 213.673 86.4833 215.09 85.4429C216.508 84.4025 218.182 83.7623 219.936 83.59C222.845 83.1921 225.776 82.9784 228.712 82.95C240.266 82.88 251.811 82.95 263.355 82.95H265.287V64H226.79C224.735 63.9884 222.683 63.8715 220.64 63.65C215.376 63.1 212.588 60.81 211.29 55.8C209.992 50.79 210.978 46 215.145 42.21C217.104 40.551 219.617 39.6806 222.19 39.77C227.223 39.65 232.255 39.62 237.338 39.61H275.735V20.84C275.161 20.84 274.678 20.77 274.185 20.77L214.571 20.91C208.339 20.7445 202.218 22.5707 197.109 26.12C191.491 30.0797 187.488 35.9089 185.826 42.55C184.727 46.4533 184.486 50.5462 185.122 54.55H167.398C165.142 54.55 162.979 55.4403 161.384 57.025C159.789 58.6096 158.893 60.7589 158.893 63C158.893 65.2411 159.789 67.3904 161.384 68.9751C162.979 70.5598 165.142 71.45 167.398 71.45H194.291C195.433 71.411 196.571 71.6008 197.638 72.0081C198.705 72.4155 199.678 73.032 200.5 73.8209C201.322 74.6099 201.975 75.5552 202.422 76.6005C202.868 77.6457 203.098 78.7696 203.098 79.905C203.098 81.0405 202.868 82.1643 202.422 83.2096C201.975 84.2548 201.322 85.2001 200.5 85.9891C199.678 86.7781 198.705 87.3946 197.638 87.8019C196.571 88.2092 195.433 88.399 194.291 88.36H155.22C153.013 88.4354 150.923 89.3592 149.389 90.9366C147.855 92.514 146.997 94.6216 146.997 96.815C146.997 99.0084 147.855 101.116 149.389 102.693C150.923 104.271 153.013 105.195 155.22 105.27H185.253C186.018 109.284 187.787 113.042 190.396 116.2C195.227 122.03 201.729 125.2 209.267 126.2C213.938 126.833 218.644 127.167 223.358 127.2C240.347 127.31 257.326 127.2 274.315 127.2C274.758 127.2 275.191 127.2 275.724 127.13V108.41H273.661" fill="#4C70B4"/>
<path fill-rule="evenodd" clip-rule="evenodd" d="M167.559 48.07C168.701 48.1091 169.839 47.9193 170.906 47.5119C171.973 47.1046 172.946 46.4881 173.768 45.6991C174.59 44.9101 175.244 43.9648 175.69 42.9196C176.136 41.8743 176.366 40.7505 176.366 39.615C176.366 38.4796 176.136 37.3557 175.69 36.3105C175.244 35.2652 174.59 34.3199 173.768 33.531C172.946 32.742 171.973 32.1255 170.906 31.7181C169.839 31.3108 168.701 31.121 167.559 31.16H151.717C149.511 31.2354 147.42 32.1592 145.886 33.7366C144.352 35.314 143.495 37.4217 143.495 39.615C143.495 41.8084 144.352 43.916 145.886 45.4934C147.42 47.0708 149.511 47.9946 151.717 48.07H167.559Z" fill="#4C70B4"/>
<path d="M784.04 67.1599H800.623C819.83 67.2285 838.229 74.8431 851.806 88.3416C865.382 101.84 873.034 120.127 873.089 139.21V396.59C873.02 415.664 865.363 433.938 851.788 447.426C838.213 460.914 819.821 468.521 800.623 468.59H91.466C72.268 468.521 53.8761 460.914 40.301 447.426C26.7259 433.938 19.069 415.664 19 396.59V139.21C19.0557 120.127 26.7068 101.84 40.2833 88.3416C53.8598 74.8431 72.2593 67.2285 91.466 67.1599" stroke="#4C70B4" stroke-width="24.74" stroke-miterlimit="10" stroke-linecap="round"/>
<path d="M658.331 241.91H658.442H660.263C664.853 242.02 669.594 242.13 674.253 242.28C675.31 242.28 676.347 242.4 677.444 242.5C677.947 242.5 678.45 242.59 678.964 242.62H679.578L682.98 242.97C685.576 243.24 688.253 243.51 690.87 243.9C696.496 244.72 701.207 245.47 705.897 246.43C723.895 250.135 741.353 256.071 757.861 264.1V264.1V264.16C757.861 279.16 757.861 294.16 757.861 309.16V319.76C757.861 319.95 757.861 320.13 757.861 320.32V320.62H758.868V320.67L757.861 320.75V320.89C757.856 320.913 757.856 320.937 757.861 320.96V326.78C757.861 332 757.861 337.41 757.861 342.72C757.812 343.948 757.678 345.171 757.459 346.38C757.368 346.97 757.277 347.55 757.207 348.13L757.006 349.02L756.754 350C756.749 350.087 756.749 350.173 756.754 350.26C756.754 350.38 756.754 350.5 756.684 350.62C755.84 353.878 754.553 357.007 752.859 359.92C751.298 362.702 749.354 365.253 747.082 367.5L745.341 369.02C743.982 370.22 742.694 371.35 741.315 372.36C740.131 373.175 738.894 373.91 737.611 374.56C737.017 374.88 736.423 375.2 735.839 375.56C733.606 376.73 731.241 377.633 728.794 378.25L727.687 378.49C726.811 378.69 725.946 378.88 725.07 379.06C724.436 379.19 723.802 379.29 723.128 379.4L722.353 379.53H599.825L598.567 379.35C597.56 379.22 596.675 379.09 595.769 378.91C582.896 376.33 573.385 369.07 567.477 357.34C565.473 353.269 564.261 348.858 563.904 344.34C563.885 344.157 563.837 343.978 563.763 343.81V264.13L564.618 263.76H564.709H564.79L564.961 263.66L565.061 263.59L568.272 262.13C570.798 260.98 573.405 259.78 575.992 258.7C578.065 257.83 580.229 257.04 582.332 256.27L585.191 255.22H585.241H585.301L585.462 255.14L589.418 253.85C592.92 252.71 596.554 251.52 600.137 250.4C601.465 249.99 602.864 249.65 604.223 249.32L606.135 248.84L607.675 248.46C608.772 248.18 609.9 247.9 610.997 247.67C613.624 247.13 616.301 246.6 618.887 246.09L622.098 245.46L622.672 245.34C623.064 245.26 623.437 245.18 623.799 245.12L625.017 244.94C626.869 244.65 628.781 244.36 630.663 244.11C632.193 243.91 633.763 243.73 635.273 243.56L637.286 243.33L639.399 243.14L644.673 242.66C645.68 242.57 646.747 242.51 647.834 242.47L654.305 242.25L656.892 242.17H657.425C657.717 242.17 657.999 242.17 658.251 242.17L658.331 241.91ZM658.251 240.79C657.778 240.79 657.244 240.85 656.811 240.87L647.753 241.17C646.676 241.17 645.599 241.27 644.522 241.36L637.115 242.04C637.205 242.19 637.276 242.36 637.356 242.52C637.276 242.36 637.205 242.19 637.115 242.04C634.88 242.3 632.656 242.53 630.432 242.82C628.207 243.11 625.832 243.49 623.537 243.82C622.954 243.91 622.37 244.05 621.776 244.17C618.072 244.9 614.368 245.61 610.705 246.38C609.054 246.72 607.434 247.17 605.793 247.56C603.78 248.09 601.707 248.56 599.704 249.15C594.792 250.68 589.911 252.3 585.02 253.89C584.891 253.94 584.766 254 584.647 254.07C581.557 255.23 578.437 256.3 575.398 257.57C571.714 259.11 568.091 260.83 564.437 262.47C564.296 262.54 564.155 262.64 564.015 262.72L562.304 263.46V344.1C562.368 344.213 562.415 344.334 562.444 344.46C562.817 349.153 564.081 353.734 566.168 357.96C572.207 370.08 581.99 377.57 595.416 380.27C596.815 380.55 598.235 380.7 599.644 380.92H722.333C723.339 380.75 724.255 380.61 725.211 380.42C726.479 380.17 727.737 379.87 729.006 379.59C731.573 378.947 734.053 378.001 736.393 376.77C738.32 375.785 740.192 374.697 741.999 373.51C744.072 372.01 745.944 370.22 747.897 368.56C750.27 366.215 752.302 363.552 753.936 360.65C755.694 357.632 757.029 354.388 757.901 351.01C757.962 350.77 757.992 350.53 758.042 350.29C758.183 349.66 758.334 349.03 758.475 348.4C758.801 346.534 759.022 344.651 759.139 342.76C759.22 335.51 759.139 328.25 759.139 320.99C759.139 320.88 759.139 320.77 759.139 320.66L758.837 320.48L759.139 320.66C759.139 320.36 759.139 320.06 759.139 319.76C759.139 301.233 759.139 282.7 759.139 264.16C759.176 263.886 759.118 263.607 758.973 263.37C758.828 263.134 758.606 262.954 758.344 262.86C741.721 254.781 724.136 248.824 706.008 245.13C700.975 244.13 695.943 243.32 690.911 242.58C687.146 242.03 683.352 241.71 679.568 241.29H678.903C677.313 241.17 675.733 240.99 674.143 240.94C668.859 240.77 663.585 240.66 658.311 240.53L658.251 240.79Z" fill="#E52A29"/>
<path d="M655.775 335.54H643.445C642.312 335.487 641.197 335.836 640.299 336.525C639.401 337.214 638.779 338.197 638.544 339.3C637.537 343.38 636.601 347.47 635.635 351.56C634.36 357.013 633.079 362.467 631.79 367.92C631.327 369.92 632.424 371.57 634.357 371.6C638.886 371.65 643.415 371.6 647.934 371.6C649.655 371.6 651.376 371.6 653.087 371.6H663.897C668.929 371.6 673.891 371.6 678.883 371.6C679.886 371.521 680.837 371.121 681.593 370.462C682.349 369.802 682.871 368.918 683.08 367.94C685.355 358.393 687.609 348.837 689.844 339.27C690.367 337.06 689.099 335.55 686.824 335.55H674.555C673.72 335.55 672.895 335.55 672.069 335.6H658.331L655.775 335.54Z" fill="white"/>
<path d="M655.734 335.63C655.728 335.616 655.725 335.601 655.725 335.585C655.725 335.57 655.728 335.554 655.734 335.54H658.291L655.734 335.63Z" fill="#006A67"/>
<path d="M599.744 380.23L598.426 380.04C597.5 379.91 596.524 379.78 595.598 379.59C582.513 376.97 572.831 369.59 566.823 357.65C564.777 353.502 563.54 349.006 563.179 344.4C563.163 344.242 563.115 344.089 563.038 343.95V263.67L564.337 263.12L564.568 262.98C564.631 262.934 564.699 262.894 564.769 262.86L567.95 261.41C570.486 260.26 573.103 259.06 575.71 257.97C577.803 257.09 579.977 256.29 582.081 255.52C583.037 255.18 583.983 254.83 584.929 254.47L585.13 254.38C585.173 254.349 585.221 254.325 585.271 254.31L589.227 253.02C592.739 251.87 596.373 250.69 599.956 249.57C601.304 249.14 602.723 248.8 604.092 248.47L606.015 247.99L607.524 247.61C608.631 247.34 609.769 247.05 610.886 246.81C613.533 246.27 616.18 245.75 618.827 245.23L621.997 244.6L622.551 244.49C622.943 244.4 623.336 244.32 623.729 244.26L624.896 244.08C626.798 243.79 628.69 243.5 630.603 243.25C632.143 243.04 633.693 242.87 635.253 242.7L636.793 242.52L636.923 242.45H637.235L639.45 242.24L644.633 241.77C645.639 241.68 646.737 241.62 647.824 241.58C649.977 241.5 652.121 241.43 654.275 241.37L656.862 241.28H657.385C657.683 241.248 657.981 241.232 658.281 241.23H660.113C664.813 241.34 669.523 241.45 674.203 241.6C675.27 241.6 676.367 241.73 677.424 241.82L678.934 241.95H679.578L682.959 242.31C685.566 242.57 688.264 242.85 690.89 243.23C696.537 244.06 701.257 244.81 705.988 245.77C724.038 249.476 741.55 255.416 758.113 263.45C758.465 263.62 758.515 263.7 758.515 264.13C758.515 279.697 758.515 295.27 758.515 310.85V319.73C758.515 319.92 758.515 320.11 758.515 320.31V320.82C758.52 320.867 758.52 320.913 758.515 320.96V326.75C758.515 331.99 758.515 337.4 758.515 342.75C758.473 344.015 758.338 345.275 758.113 346.52C758.022 347.12 757.932 347.71 757.861 348.31L757.428 350.13V350.4C757.428 350.55 757.428 350.69 757.348 350.84C756.486 354.156 755.173 357.338 753.443 360.3C751.849 363.152 749.857 365.764 747.525 368.06C746.961 368.54 746.377 369.06 745.794 369.57C744.485 370.73 743.126 371.93 741.707 372.96C740.496 373.788 739.232 374.536 737.923 375.2C737.329 375.52 736.735 375.84 736.162 376.2C733.866 377.396 731.437 378.319 728.925 378.95L727.818 379.19C726.942 379.39 726.067 379.59 725.181 379.77C724.537 379.9 723.883 380 723.228 380.11L722.393 380.25L599.744 380.23Z" fill="white"/>
<path d="M672.069 335.6C672.895 335.6 673.72 335.55 674.555 335.55H686.794C689.099 335.55 690.367 337.06 689.814 339.27C687.579 348.83 685.325 358.387 683.05 367.94C682.841 368.918 682.319 369.803 681.563 370.462C680.806 371.122 679.856 371.521 678.853 371.6C673.821 371.66 668.869 371.6 663.867 371.6C662.005 370.6 661.552 369.6 662.045 367.6C662.538 365.6 662.951 363.65 663.414 361.69C665.118 354.443 666.832 347.2 668.557 339.96C668.724 339.078 669.089 338.244 669.624 337.52C670.37 336.798 671.19 336.155 672.069 335.6V335.6Z" fill="#006A67"/>
<path d="M672.069 335.6C671.201 336.15 670.392 336.787 669.654 337.5C669.119 338.224 668.754 339.058 668.587 339.94C666.842 347.18 665.128 354.423 663.444 361.67C662.981 363.67 662.538 365.61 662.075 367.58C661.612 369.55 662.075 370.64 663.897 371.58H653.087C651.376 371.58 649.655 371.58 647.934 371.58C646.042 370.69 645.539 369.67 646.022 367.58C647.948 359.38 649.873 351.18 651.799 342.98C652.181 341.33 652.554 339.66 653.087 338.05C653.246 337.431 653.58 336.87 654.049 336.432C654.518 335.995 655.102 335.699 655.734 335.58L658.331 335.53L672.069 335.6Z" fill="#213262"/>
<path d="M655.734 335.63C655.102 335.749 654.518 336.045 654.049 336.482C653.58 336.919 653.247 337.481 653.087 338.1C652.554 339.71 652.182 341.38 651.799 343.03C649.867 351.23 647.941 359.43 646.022 367.63C645.539 369.7 646.022 370.72 647.934 371.63C643.415 371.63 638.876 371.68 634.357 371.63C632.424 371.63 631.337 369.95 631.79 367.95C633.065 362.49 634.347 357.037 635.635 351.59C636.642 347.5 637.557 343.41 638.544 339.33C638.779 338.227 639.401 337.244 640.299 336.555C641.197 335.866 642.312 335.517 643.445 335.57H655.775C655.755 335.585 655.741 335.606 655.734 335.63V335.63Z" fill="#E42328"/>
<path d="M759.21 224.07C759.093 222.183 758.872 220.303 758.546 218.44C758.405 217.81 758.254 217.18 758.113 216.55C758.062 216.31 758.032 216.06 757.972 215.82C757.099 212.442 755.765 209.198 754.006 206.18C752.373 203.278 750.34 200.615 747.968 198.27C746.015 196.61 744.143 194.82 742.07 193.27C740.262 192.083 738.391 190.995 736.464 190.01C734.124 188.78 731.643 187.833 729.076 187.19C727.808 186.91 596.886 186.19 595.487 186.51C582.061 189.21 572.338 196.71 566.239 208.82C564.151 213.046 562.888 217.627 562.515 222.32C562.487 222.447 562.44 222.568 562.374 222.68V303.56L564.085 304.3C564.226 304.38 564.367 304.48 564.508 304.55C568.161 306.19 571.784 307.91 575.468 309.45C578.488 310.72 581.628 311.79 584.718 312.95C584.837 313.02 584.961 313.08 585.09 313.13C589.982 314.72 594.863 316.34 599.775 317.87C601.787 318.5 603.8 318.94 605.864 319.46C607.504 319.86 609.125 320.3 610.775 320.64C614.479 321.41 618.183 322.12 621.846 322.86C622.44 322.97 623.024 323.11 623.608 323.2C625.903 323.55 628.197 323.92 630.502 324.2C632.807 324.48 634.951 324.72 637.185 324.98C639.651 325.21 642.127 325.45 644.593 325.66C645.67 325.75 646.747 325.81 647.824 325.85L656.882 326.15C657.405 326.15 657.939 326.24 658.462 326.23C663.736 326.11 669.01 325.99 674.294 325.83C675.884 325.83 677.464 325.59 679.054 325.47C679.276 325.47 679.497 325.47 679.719 325.47C683.503 325.05 687.297 324.73 691.062 324.18C696.094 323.44 701.126 322.66 706.159 321.64C724.284 317.938 741.869 311.981 758.495 303.91C758.758 303.815 758.98 303.633 759.125 303.394C759.27 303.156 759.328 302.876 759.29 302.6C759.24 284.14 759.29 231.33 759.21 224.07ZM582.181 223.17C582.765 222.995 583.373 222.914 583.983 222.93C588.532 222.93 593.041 222.93 597.641 222.93C597.943 222.93 598.245 222.93 598.557 222.93C598.869 222.93 599.221 222.93 599.563 222.93C607.222 222.93 614.892 222.93 622.561 222.93C623.17 222.919 623.778 223 624.363 223.17C625.072 223.422 625.666 223.92 626.036 224.572C626.405 225.224 626.526 225.987 626.376 226.72C626.249 227.416 625.892 228.05 625.362 228.521C624.831 228.992 624.157 229.273 623.447 229.32C623.165 229.32 622.893 229.32 622.611 229.32H592.417C592.075 229.32 591.743 229.32 591.411 229.32H583.359C582.573 229.326 581.812 229.046 581.22 228.531C580.628 228.017 580.247 227.305 580.148 226.53C580.051 225.824 580.2 225.106 580.57 224.495C580.939 223.884 581.508 223.416 582.181 223.17ZM599.885 268.65H588.985C587.853 268.669 586.732 268.414 585.721 267.907C584.71 267.401 583.838 266.657 583.18 265.741C582.522 264.825 582.099 263.763 581.946 262.648C581.793 261.533 581.915 260.398 582.302 259.34C583.812 255.11 585.392 250.89 586.952 246.67C587.033 246.44 587.113 246.21 587.234 245.9H584.386H580.36C579.924 245.93 579.488 245.871 579.076 245.727C578.664 245.583 578.287 245.358 577.966 245.064C577.645 244.771 577.387 244.415 577.209 244.019C577.031 243.624 576.936 243.196 576.93 242.763C576.924 242.329 577.007 241.899 577.173 241.498C577.34 241.098 577.587 240.735 577.9 240.433C578.212 240.13 578.584 239.894 578.991 239.739C579.398 239.584 579.833 239.513 580.269 239.53H581.93C582.181 239.53 582.423 239.53 582.674 239.53H619.199C619.441 239.53 619.693 239.53 619.934 239.53C622.098 239.53 624.262 239.53 626.426 239.53C627.134 239.522 627.826 239.748 628.392 240.171C628.958 240.594 629.367 241.192 629.556 241.87C629.759 242.552 629.717 243.283 629.438 243.937C629.159 244.592 628.66 245.13 628.026 245.46C627.431 245.736 626.781 245.876 626.124 245.87C615.898 245.87 605.679 245.87 595.467 245.87C595.179 245.823 594.884 245.89 594.645 246.056C594.406 246.223 594.243 246.475 594.189 246.76C592.719 250.87 591.169 254.96 589.69 259.06C588.975 261.01 589.911 262.3 592.025 262.3H616.844C618.958 262.3 619.783 261.06 618.857 259.18L617.488 256.27C616.562 254.27 617.015 252.44 618.656 251.53C620.296 250.62 622.249 251.12 623.477 253.01C624.262 254.7 625.057 256.38 625.832 258.08C626.345 259.121 626.604 260.267 626.587 261.425C626.57 262.584 626.278 263.722 625.734 264.748C625.191 265.773 624.411 266.656 623.46 267.326C622.508 267.995 621.41 268.432 620.256 268.6C619.846 268.654 619.432 268.677 619.018 268.67L599.885 268.65ZM621.082 293.65C620.822 295.214 620.018 296.638 618.809 297.672C617.6 298.707 616.064 299.287 614.469 299.31C613.667 299.347 612.863 299.293 612.074 299.15C611.485 299.08 610.917 298.887 610.408 298.584C609.9 298.281 609.461 297.874 609.122 297.39C608.782 296.907 608.55 296.358 608.439 295.778C608.329 295.199 608.343 294.603 608.48 294.03C608.732 292.21 609.084 290.4 609.386 288.59C609.829 286.22 610.282 283.85 610.695 281.47C610.775 280.98 610.946 280.83 611.429 280.85C612.436 280.85 613.362 280.85 614.449 280.85C614.358 281.44 614.278 281.94 614.197 282.45C613.493 286.27 612.758 290.09 612.184 293.92C612.162 294.251 612.209 294.583 612.324 294.895C612.438 295.207 612.617 295.491 612.849 295.73C613.19 296.023 613.61 296.21 614.057 296.268C614.504 296.327 614.959 296.254 615.365 296.06C616.945 295.5 617.378 294.25 617.68 292.79C617.992 290.98 618.334 289.18 618.686 287.37C619.059 285.24 619.421 283.1 619.793 280.91H623.437C623.336 281.66 623.225 282.39 623.125 283.12C622.4 286.64 621.719 290.15 621.082 293.65ZM635.172 296.65C635.041 297.45 634.89 298.26 634.759 299.07H631.237C631.67 296.68 632.082 294.33 632.495 291.99C632.616 291.34 632.747 290.7 632.847 290.05C632.912 289.818 632.922 289.575 632.877 289.338C632.833 289.102 632.734 288.879 632.589 288.686C632.445 288.493 632.258 288.335 632.043 288.225C631.827 288.115 631.59 288.055 631.348 288.05H630.935C628.922 287.99 628.771 288.14 628.439 290.05C627.976 292.7 627.432 295.34 627.06 297.99C626.939 298.84 626.647 299.28 625.741 299.17H623.336C623.598 297.67 623.839 296.33 624.071 294.98C624.564 292.26 625.077 289.54 625.52 286.81C625.535 286.609 625.618 286.419 625.755 286.27C625.892 286.122 626.075 286.023 626.275 285.99C628.626 285.267 631.115 285.103 633.542 285.51C634.331 285.573 635.068 285.929 635.605 286.507C636.142 287.085 636.44 287.843 636.44 288.63L635.172 296.65ZM636.45 265C636.511 263.74 636.45 262.47 636.45 261.21C636.45 260.91 636.45 260.61 636.45 260.31V241.62C636.45 241.32 636.45 241.02 636.45 240.72C636.45 238.8 636.45 236.88 636.521 234.97C636.516 234.222 636.696 233.483 637.044 232.82C637.435 232.222 638.016 231.771 638.694 231.538C639.372 231.304 640.109 231.301 640.788 231.53C641.465 231.728 642.06 232.136 642.487 232.693C642.915 233.251 643.152 233.929 643.164 234.63C643.164 234.79 643.164 234.95 643.224 235.12C643.284 235.29 643.224 235.5 643.224 235.69V260.78C643.224 260.97 643.224 261.16 643.224 261.35C643.224 262.78 643.224 264.21 643.164 265.64C643.154 266.205 643.002 266.758 642.722 267.249C642.442 267.74 642.042 268.154 641.56 268.452C641.077 268.75 640.527 268.924 639.96 268.957C639.393 268.99 638.826 268.881 638.312 268.64C637.679 268.279 637.166 267.742 636.836 267.096C636.505 266.449 636.371 265.721 636.45 265ZM641.332 299H637.839C637.99 298 638.111 297.05 638.272 296.09C638.695 293.59 639.138 291.09 639.57 288.6C639.742 287.6 639.913 286.6 640.074 285.6L640.255 285.5H643.707C642.912 290.07 642.127 294.53 641.332 299ZM641.734 283.43C641.08 283.01 640.416 282.53 640.587 281.68C640.651 281.19 640.869 280.732 641.211 280.373C641.553 280.014 642 279.771 642.489 279.68C642.916 279.574 643.367 279.615 643.767 279.797C644.168 279.978 644.494 280.29 644.693 280.68C644.742 281.071 644.698 281.468 644.564 281.839C644.43 282.209 644.21 282.544 643.922 282.814C643.634 283.085 643.286 283.285 642.906 283.397C642.526 283.509 642.124 283.531 641.734 283.46V283.43ZM655.292 297.04C654.247 298.266 652.786 299.069 651.185 299.298C649.585 299.526 647.956 299.164 646.606 298.28C645.946 297.583 645.461 296.743 645.188 295.826C644.915 294.909 644.863 293.941 645.036 293C645.368 290.3 646.294 287.87 648.679 286.29C650.632 285 655.13 284.42 656.992 287.48C657.644 289.076 657.83 290.822 657.529 292.518C657.228 294.214 656.453 295.792 655.292 297.07V297.04ZM650.853 252.63C650.276 253.16 649.526 253.466 648.74 253.492C647.955 253.517 647.186 253.261 646.575 252.77C646.193 252.461 645.884 252.072 645.67 251.632C645.456 251.191 645.342 250.709 645.337 250.219C645.331 249.73 645.433 249.245 645.637 248.799C645.841 248.354 646.14 247.958 646.515 247.64C650.628 243.553 654.751 239.47 658.885 235.39C660.716 233.58 662.528 233.59 664.38 235.39C667.581 238.56 670.791 241.72 673.972 244.91C674.165 245.173 674.317 245.463 674.425 245.77C675.632 244.55 676.578 243.65 677.444 242.7C677.701 242.4 677.85 242.024 677.867 241.63C677.867 238.36 677.867 235.08 677.867 231.81C677.867 229.95 677.051 229.13 675.189 229.13H649.977C649.665 229.13 649.363 229.13 649.061 229.13C648.317 229.13 647.562 229.04 646.817 229.13C645.832 229.154 644.854 228.964 643.951 228.571C643.049 228.179 642.244 227.595 641.593 226.86C640.825 226.137 640.197 225.279 639.742 224.33C639.459 223.674 639.434 222.937 639.671 222.264C639.907 221.591 640.388 221.029 641.02 220.69C641.636 220.312 642.365 220.16 643.082 220.26C643.799 220.361 644.458 220.707 644.945 221.24C645.459 221.839 646.113 222.304 646.85 222.594C647.587 222.883 648.385 222.988 649.172 222.9C654.436 222.81 659.71 222.9 664.984 222.9C665.286 222.9 665.588 222.9 665.9 222.9H677.041C678.363 222.807 679.684 223.093 680.848 223.724C682.011 224.356 682.967 225.305 683.604 226.46C684.066 227.503 684.385 228.603 684.55 229.73C684.605 230.249 684.605 230.772 684.55 231.29V235.66C684.831 235.4 685.043 235.21 685.234 235.01C689.904 230.39 694.614 225.8 699.224 221.12C699.564 220.781 699.973 220.517 700.423 220.346C700.873 220.175 701.355 220.101 701.836 220.129C702.317 220.156 702.787 220.284 703.215 220.505C703.642 220.726 704.018 221.035 704.317 221.41C704.37 221.468 704.431 221.518 704.498 221.56C705.444 223.42 704.87 224.9 703.492 226.3C694.816 234.867 686.153 243.433 677.504 252C676.937 252.556 676.285 253.018 675.572 253.37C675.071 253.568 674.524 253.626 673.992 253.538C673.46 253.45 672.962 253.219 672.553 252.87L662.588 243L657.506 238L657.335 238.18C657.979 239.99 658.643 241.79 659.267 243.61C659.311 243.753 659.324 243.904 659.305 244.052C659.286 244.2 659.235 244.343 659.156 244.47C656.409 247.19 653.651 249.94 650.853 252.66V252.63ZM671.989 289.85C671.466 292.76 670.982 295.67 670.399 298.58C670.399 298.76 670.117 299.02 669.966 299.03C668.959 299.03 667.953 299.03 666.836 299.03L667.44 295.14C667.772 293.37 668.144 291.6 668.446 289.81C668.493 289.592 668.49 289.366 668.437 289.149C668.384 288.933 668.283 288.73 668.141 288.558C667.999 288.385 667.82 288.246 667.616 288.151C667.413 288.056 667.191 288.008 666.967 288.01H666.634C664.622 287.91 664.41 288.08 664.068 290.01C663.565 292.76 663.061 295.52 662.588 298.27C662.588 298.54 662.468 298.8 662.397 299.06H658.975C659.166 297.8 659.327 296.58 659.539 295.36C659.841 293.63 660.163 291.91 660.475 290.18C660.706 288.92 660.918 287.67 661.169 286.41C661.206 286.337 661.257 286.272 661.319 286.219C661.382 286.166 661.454 286.126 661.532 286.1C664.01 285.209 666.684 285.002 669.271 285.5C671.466 285.92 672.271 287.35 671.969 289.88L671.989 289.85ZM669.885 266.8C669.719 266.237 669.701 265.641 669.831 265.069C669.961 264.497 670.236 263.967 670.63 263.53C670.915 263.221 671.267 262.981 671.659 262.826C672.052 262.672 672.474 262.609 672.895 262.64H675.139C677.152 262.64 677.806 261.64 677.907 259.93C677.977 258.56 677.907 257.18 677.907 255.81C677.934 255.397 678.097 255.003 678.37 254.69C680.222 252.79 682.124 250.94 684.006 249.08C684.117 248.96 684.248 248.86 684.58 248.57V260.2C684.607 261.105 684.573 262.01 684.479 262.91C684.233 264.613 683.364 266.166 682.038 267.272C680.713 268.379 679.024 268.962 677.293 268.91H675.723C674.716 268.91 673.78 268.91 672.814 268.91C672.163 268.926 671.523 268.732 670.992 268.357C670.46 267.982 670.065 267.447 669.865 266.83L669.885 266.8ZM681.077 292.04C680.172 292.04 679.266 292.17 678.269 292.25C677.867 294.45 677.464 296.7 677.051 298.94H673.519C673.821 297.11 674.113 295.3 674.435 293.49C674.757 291.68 675.139 289.81 675.441 287.97C675.441 287.68 675.512 287.37 675.542 287.08C675.854 285.44 676.206 283.82 676.468 282.18C676.47 281.949 676.559 281.728 676.717 281.559C676.875 281.391 677.092 281.288 677.323 281.27L682.205 280.5C683.186 280.592 684.159 280.762 685.113 281.01C687.72 281.89 688.525 283.81 688.133 286.21C687.569 290.2 684.117 292 681.057 292.07L681.077 292.04ZM700.2 289.9C699.768 292.55 699.274 295.19 698.761 297.82C698.715 297.989 698.633 298.147 698.52 298.282C698.407 298.416 698.266 298.525 698.107 298.6C695.846 299.39 693.416 299.573 691.062 299.13C688.837 298.7 688.042 297.71 687.891 295.49C688.163 292.82 689.904 291.49 692.33 290.92C693.457 290.64 694.624 290.56 695.772 290.37C696.215 290.3 696.778 290.58 696.909 289.78C697.04 288.78 696.909 288.13 696.084 287.96C695.277 287.787 694.448 287.743 693.628 287.83C692.657 287.977 691.696 288.181 690.75 288.44L690.287 286.17C692.765 285.224 695.46 284.988 698.067 285.49C700.392 286.46 700.442 288.25 700.17 289.93L700.2 289.9ZM697.956 265.61V264.96C697.956 261.42 697.956 257.89 697.956 254.36C697.956 252.11 697.956 249.87 697.956 247.62C697.956 243.83 697.956 240.04 697.956 236.24C697.943 235.933 698 235.628 698.122 235.345C698.243 235.063 698.428 234.812 698.66 234.61C700.422 232.92 702.133 231.2 703.854 229.49C704.045 229.3 704.246 229.12 704.599 228.79C704.599 229.26 704.599 229.54 704.599 229.79V249.01C704.599 249.31 704.599 249.61 704.599 249.91C704.599 254.277 704.599 258.64 704.599 263V265.47C704.621 265.948 704.537 266.425 704.353 266.866C704.169 267.308 703.889 267.705 703.534 268.027C703.179 268.35 702.756 268.591 702.297 268.733C701.837 268.875 701.352 268.915 700.875 268.85C699.063 268.82 698.046 267.53 697.926 265.64L697.956 265.61ZM713.667 290.51C711.251 294.85 708.806 299.18 706.43 303.51C706.274 303.848 706.013 304.128 705.685 304.308C705.357 304.488 704.98 304.559 704.609 304.51C703.844 304.51 703.079 304.51 702.082 304.51L704.226 300.72C704.622 300.234 704.891 299.659 705.013 299.046C705.134 298.432 705.102 297.799 704.921 297.2C704.075 293.54 703.381 289.84 702.636 286.15C702.636 285.96 702.586 285.77 702.545 285.51H706.43C706.833 288.82 707.236 292.17 707.648 295.61C707.88 295.06 708.091 294.54 708.323 294.04C709.329 291.98 710.335 289.93 711.272 287.87C711.553 287.26 711.855 286.66 712.097 286.03C712.147 285.833 712.27 285.661 712.442 285.55C712.613 285.439 712.821 285.396 713.023 285.43C714.029 285.43 715.126 285.43 716.354 285.43L713.667 290.51ZM720.521 254.62C717.267 251.387 714.009 248.163 710.748 244.95C710.652 244.855 710.552 244.765 710.446 244.68C709.228 242.41 709.862 240.27 711.986 239.5C712.525 239.316 713.1 239.263 713.664 239.344C714.228 239.426 714.764 239.641 715.227 239.97C718.582 243.303 721.937 246.637 725.292 249.97C725.768 250.396 726.107 250.954 726.265 251.572C726.422 252.189 726.392 252.84 726.177 253.44C726.003 254.041 725.65 254.576 725.165 254.976C724.681 255.375 724.087 255.62 723.46 255.68C722.92 255.761 722.368 255.707 721.855 255.522C721.341 255.336 720.883 255.026 720.521 254.62ZM744.093 234.47C743.523 234.652 742.93 234.753 742.331 234.77C742.03 234.785 741.727 234.785 741.425 234.77H739.644V236.56C739.644 237.56 739.644 238.48 739.644 239.44C739.644 246.66 739.644 253.88 739.644 261.1C739.748 263.003 739.179 264.882 738.034 266.41L737.238 267.2C735.593 268.447 733.544 269.048 731.482 268.89C730.374 268.89 729.267 268.89 728.16 268.89C727.719 268.914 727.278 268.846 726.865 268.693C726.451 268.539 726.074 268.303 725.756 267.998C725.439 267.693 725.188 267.326 725.02 266.92C724.852 266.514 724.769 266.079 724.778 265.64C724.768 265.251 724.835 264.863 724.978 264.5C725.12 264.137 725.334 263.807 725.607 263.527C725.88 263.247 726.206 263.025 726.567 262.873C726.927 262.72 727.315 262.641 727.707 262.64C728.643 262.64 729.589 262.64 730.535 262.64C730.842 262.649 731.148 262.599 731.435 262.491C731.721 262.383 731.984 262.219 732.207 262.01C732.431 261.801 732.611 261.551 732.736 261.273C732.862 260.995 732.932 260.695 732.941 260.39C732.941 257.24 732.941 254.08 732.941 250.93V238.83C732.941 237.51 732.941 236.19 732.941 234.78H720.068C717.24 234.78 714.412 234.78 711.584 234.78C710.945 234.797 710.318 234.613 709.792 234.254C709.265 233.894 708.867 233.378 708.655 232.78C708.467 232.289 708.407 231.759 708.48 231.239C708.553 230.719 708.757 230.226 709.073 229.805C709.39 229.384 709.808 229.049 710.289 228.832C710.77 228.614 711.298 228.521 711.825 228.56H717.572H732.931C732.931 226.99 732.931 225.4 732.931 223.82C732.942 223.232 733.041 222.649 733.223 222.09C733.48 221.408 733.978 220.842 734.624 220.498C735.271 220.153 736.021 220.055 736.735 220.22C737.502 220.296 738.214 220.648 738.737 221.21C739.26 221.772 739.558 222.505 739.574 223.27C739.574 224.99 739.574 226.72 739.574 228.51C741.425 228.83 743.479 228.03 745.049 229.56L745.703 230.56C746.095 232.49 745.572 233.85 744.072 234.47H744.093Z" fill="#E52A29"/>
<path d="M657.395 237.66L657.204 237.81L657.335 238.14L657.506 237.96L657.395 237.66Z" fill="#E52A29"/>
<path d="M650.642 288.44C650.035 288.909 649.561 289.526 649.263 290.23C648.882 291.343 648.573 292.478 648.337 293.63H648.468C648.468 293.96 648.468 294.29 648.548 294.63C648.549 294.937 648.623 295.24 648.765 295.513C648.907 295.785 649.113 296.021 649.365 296.199C649.617 296.377 649.908 296.492 650.214 296.536C650.52 296.58 650.832 296.55 651.125 296.45C651.755 296.29 652.321 295.941 652.745 295.45C653.352 294.645 653.787 293.724 654.02 292.745C654.254 291.766 654.283 290.75 654.104 289.76C654.091 289.367 653.961 288.987 653.732 288.666C653.502 288.346 653.183 288.1 652.813 287.959C652.444 287.819 652.041 287.789 651.655 287.874C651.268 287.96 650.916 288.157 650.642 288.44V288.44Z" fill="#E52A29"/>
<path d="M682.859 283.48C681.982 283.385 681.098 283.385 680.222 283.48C680.114 283.51 680.016 283.566 679.935 283.643C679.855 283.72 679.794 283.815 679.759 283.92C679.417 285.67 679.125 287.42 678.752 289.43C679.735 289.421 680.717 289.351 681.691 289.22C682.483 289.112 683.213 288.734 683.754 288.15C684.296 287.566 684.616 286.813 684.66 286.02C684.731 285.734 684.739 285.436 684.684 285.147C684.629 284.858 684.512 284.583 684.342 284.343C684.171 284.102 683.95 283.9 683.694 283.752C683.439 283.603 683.154 283.51 682.859 283.48V283.48Z" fill="#E52A29"/>
<path d="M691.253 295.56C691.29 295.882 691.441 296.18 691.679 296.401C691.917 296.623 692.226 296.753 692.551 296.77C693.455 296.845 694.364 296.845 695.269 296.77C695.44 296.77 695.681 296.44 695.722 296.23C695.963 295.08 696.154 293.91 696.396 292.6C694.916 292.73 693.487 292.69 692.239 293.48C691.887 293.692 691.606 294.002 691.43 294.372C691.255 294.742 691.193 295.155 691.253 295.56V295.56Z" fill="#E52A29"/>
<path d="M623.477 253C624.262 254.69 625.057 256.37 625.832 258.07C626.345 259.11 626.604 260.257 626.587 261.415C626.57 262.574 626.278 263.712 625.734 264.737C625.191 265.763 624.411 266.646 623.46 267.315C622.508 267.985 621.41 268.422 620.256 268.59C619.846 268.643 619.432 268.667 619.018 268.66H599.895H588.995C587.863 268.679 586.742 268.424 585.731 267.917C584.72 267.41 583.848 266.667 583.19 265.751C582.532 264.834 582.109 263.773 581.956 262.658C581.803 261.543 581.925 260.408 582.312 259.35C583.822 255.12 585.402 250.9 586.962 246.68C587.043 246.45 587.123 246.22 587.244 245.91H584.396H580.37C579.934 245.94 579.498 245.881 579.086 245.737C578.675 245.593 578.297 245.368 577.976 245.074C577.655 244.78 577.398 244.425 577.219 244.029C577.041 243.633 576.946 243.206 576.94 242.772C576.934 242.339 577.017 241.909 577.184 241.508C577.35 241.108 577.597 240.745 577.91 240.443C578.222 240.14 578.594 239.904 579.001 239.749C579.408 239.594 579.843 239.523 580.279 239.54H581.94C582.191 239.54 582.433 239.54 582.685 239.54H619.21C619.451 239.54 619.703 239.54 619.944 239.54C622.108 239.54 624.272 239.54 626.436 239.54C627.144 239.532 627.836 239.757 628.402 240.181C628.968 240.604 629.377 241.201 629.566 241.88C629.769 242.562 629.727 243.292 629.448 243.947C629.169 244.602 628.67 245.14 628.036 245.47C627.441 245.746 626.791 245.886 626.134 245.88C615.908 245.88 605.689 245.88 595.477 245.88C595.189 245.833 594.894 245.9 594.655 246.066C594.417 246.233 594.253 246.485 594.199 246.77C592.729 250.88 591.179 254.97 589.7 259.07C588.985 261.02 589.921 262.31 592.035 262.31H616.854C618.968 262.31 619.793 261.07 618.867 259.19L617.499 256.28C616.573 254.28 617.025 252.45 618.666 251.54C620.307 250.63 622.249 251.07 623.477 253Z" fill="white"/>
<path d="M598.557 222.88C598.889 222.88 599.221 222.88 599.563 222.88C607.222 222.88 614.892 222.88 622.561 222.88C623.17 222.869 623.778 222.95 624.363 223.12C625.072 223.372 625.666 223.87 626.036 224.522C626.405 225.174 626.526 225.937 626.376 226.67C626.249 227.366 625.892 228 625.362 228.471C624.831 228.942 624.157 229.223 623.447 229.27C623.165 229.27 622.893 229.27 622.611 229.27H592.417C592.075 229.27 591.743 229.27 591.411 229.27H583.359C582.573 229.276 581.812 228.996 581.22 228.481C580.628 227.967 580.247 227.255 580.148 226.48C580.052 225.766 580.207 225.041 580.586 224.427C580.966 223.813 581.547 223.348 582.232 223.11C582.816 222.935 583.424 222.854 584.033 222.87C588.583 222.87 593.092 222.87 597.691 222.87C597.943 222.92 598.245 222.89 598.557 222.88Z" fill="white"/>
<path d="M684.59 231.31V235.68C684.872 235.42 685.083 235.23 685.274 235.03C689.944 230.41 694.655 225.82 699.264 221.14C699.605 220.801 700.013 220.537 700.463 220.366C700.914 220.195 701.395 220.121 701.876 220.149C702.357 220.176 702.827 220.304 703.255 220.525C703.682 220.746 704.058 221.054 704.357 221.43C704.411 221.488 704.472 221.538 704.538 221.58C705.484 223.44 704.911 224.92 703.532 226.32C694.829 234.873 686.153 243.433 677.504 252C676.937 252.556 676.285 253.018 675.572 253.37C675.071 253.568 674.524 253.626 673.992 253.538C673.46 253.45 672.962 253.219 672.553 252.87L662.588 243L657.506 238L657.395 237.7L657.204 237.85L657.335 238.18C657.979 239.99 658.643 241.79 659.267 243.61C659.311 243.753 659.324 243.904 659.305 244.052C659.286 244.2 659.235 244.343 659.156 244.47C656.409 247.23 653.651 249.98 650.853 252.7C650.276 253.23 649.526 253.536 648.741 253.562C647.955 253.587 647.187 253.331 646.576 252.84C646.194 252.531 645.885 252.142 645.67 251.702C645.456 251.261 645.342 250.779 645.337 250.289C645.331 249.8 645.434 249.315 645.637 248.869C645.841 248.424 646.14 248.028 646.515 247.71C650.628 243.623 654.751 239.54 658.885 235.46C660.716 233.65 662.528 233.66 664.38 235.46C667.581 238.63 670.791 241.79 673.972 244.98C674.165 245.243 674.317 245.533 674.425 245.84C675.632 244.62 676.578 243.72 677.444 242.77C677.701 242.47 677.85 242.093 677.867 241.7C677.867 238.43 677.867 235.15 677.867 231.88C677.867 230.02 677.052 229.2 675.19 229.2H649.977C649.665 229.2 649.363 229.2 649.062 229.2C648.317 229.2 647.562 229.11 646.817 229.2C645.832 229.224 644.854 229.034 643.952 228.641C643.049 228.249 642.244 227.665 641.594 226.93C640.825 226.207 640.197 225.349 639.742 224.4C639.459 223.744 639.434 223.007 639.671 222.334C639.907 221.66 640.388 221.099 641.02 220.76C641.636 220.382 642.365 220.23 643.082 220.33C643.799 220.431 644.458 220.777 644.945 221.31C645.459 221.909 646.113 222.374 646.85 222.664C647.587 222.953 648.385 223.058 649.172 222.97C654.436 222.88 659.71 222.97 664.984 222.97C665.286 222.97 665.588 222.97 665.9 222.97H677.041C678.363 222.877 679.684 223.163 680.848 223.794C682.011 224.425 682.967 225.375 683.604 226.53C684.066 227.572 684.385 228.673 684.55 229.8C684.615 230.301 684.629 230.807 684.59 231.31Z" fill="white"/>
<path d="M643.194 235.12C643.194 235.31 643.194 235.5 643.194 235.69V260.78C643.194 260.97 643.194 261.16 643.194 261.35C643.194 262.78 643.194 264.21 643.133 265.64C643.124 266.205 642.972 266.758 642.692 267.249C642.411 267.74 642.012 268.154 641.53 268.452C641.047 268.75 640.497 268.924 639.93 268.957C639.363 268.99 638.796 268.881 638.282 268.64C637.658 268.276 637.153 267.741 636.828 267.099C636.503 266.457 636.372 265.735 636.45 265.02C636.511 263.76 636.45 262.49 636.45 261.23C636.45 260.93 636.45 260.63 636.45 260.33V241.62C636.45 241.32 636.45 241.02 636.45 240.72C636.45 238.8 636.45 236.88 636.521 234.97C636.516 234.222 636.696 233.484 637.044 232.82C637.435 232.223 638.016 231.771 638.694 231.538C639.372 231.304 640.109 231.301 640.788 231.53C641.465 231.728 642.06 232.136 642.487 232.693C642.915 233.251 643.152 233.929 643.164 234.63C643.143 234.79 643.174 235 643.194 235.12Z" fill="white"/>
<path d="M745.079 229.5L745.733 230.5C746.095 232.5 745.572 233.86 744.072 234.5C743.503 234.682 742.91 234.783 742.311 234.8C742.009 234.815 741.707 234.815 741.405 234.8H739.644V236.59C739.644 237.59 739.644 238.51 739.644 239.47C739.644 246.69 739.644 253.91 739.644 261.13C739.748 263.033 739.179 264.912 738.034 266.44L737.238 267.23C735.593 268.477 733.544 269.078 731.481 268.92C730.374 268.92 729.267 268.92 728.16 268.92C727.719 268.944 727.278 268.876 726.864 268.723C726.451 268.569 726.074 268.333 725.756 268.028C725.439 267.723 725.188 267.356 725.02 266.95C724.852 266.544 724.769 266.109 724.778 265.67C724.768 265.281 724.835 264.893 724.978 264.53C725.12 264.167 725.334 263.837 725.607 263.557C725.88 263.277 726.206 263.055 726.567 262.903C726.927 262.75 727.315 262.671 727.707 262.67C728.643 262.67 729.589 262.67 730.535 262.67C730.842 262.679 731.148 262.629 731.434 262.521C731.721 262.413 731.984 262.249 732.207 262.04C732.431 261.831 732.611 261.581 732.736 261.303C732.862 261.025 732.932 260.725 732.941 260.42C732.941 257.27 732.941 254.11 732.941 250.96V238.86C732.941 237.54 732.941 236.22 732.941 234.81H720.068C717.24 234.81 714.412 234.81 711.583 234.81C710.945 234.827 710.318 234.643 709.792 234.284C709.265 233.924 708.867 233.408 708.655 232.81C708.467 232.319 708.407 231.789 708.48 231.269C708.553 230.749 708.757 230.256 709.073 229.835C709.39 229.414 709.808 229.079 710.289 228.862C710.77 228.644 711.298 228.551 711.825 228.59H717.572H732.931C732.931 227.02 732.931 225.43 732.931 223.85C732.942 223.262 733.041 222.679 733.223 222.12C733.48 221.438 733.978 220.872 734.624 220.528C735.271 220.183 736.021 220.085 736.735 220.25C737.502 220.326 738.214 220.678 738.737 221.24C739.26 221.802 739.558 222.535 739.573 223.3C739.573 225.02 739.573 226.75 739.573 228.54C741.456 228.77 743.509 228 745.079 229.5Z" fill="white"/>
<path d="M704.196 300.81C704.591 300.324 704.861 299.749 704.982 299.136C705.103 298.522 705.072 297.889 704.89 297.29C704.045 293.63 703.351 289.93 702.606 286.24C702.606 286.05 702.555 285.86 702.515 285.6H706.43C706.833 288.91 707.236 292.26 707.648 295.7C707.88 295.15 708.091 294.63 708.323 294.13C709.329 292.07 710.335 290.02 711.271 287.96C711.553 287.35 711.855 286.75 712.097 286.12C712.147 285.923 712.27 285.752 712.442 285.64C712.613 285.529 712.821 285.486 713.023 285.52C714.029 285.52 715.126 285.52 716.354 285.52L713.627 290.52C711.211 294.86 708.765 299.19 706.39 303.52C706.234 303.858 705.973 304.138 705.645 304.318C705.317 304.498 704.94 304.569 704.568 304.52C703.803 304.52 703.039 304.52 702.042 304.52L704.196 300.81Z" fill="white"/>
<path d="M697.896 265C697.896 261.46 697.896 257.93 697.896 254.4C697.896 252.15 697.896 249.91 697.896 247.66C697.896 243.87 697.896 240.08 697.896 236.28C697.883 235.973 697.939 235.668 698.061 235.385C698.183 235.103 698.367 234.852 698.6 234.65C700.361 232.96 702.072 231.24 703.793 229.53C703.985 229.34 704.186 229.16 704.538 228.83C704.538 229.3 704.538 229.58 704.538 229.83V249.05C704.538 249.35 704.538 249.65 704.538 249.95C704.538 254.317 704.538 258.68 704.538 263.04V265.51C704.56 265.988 704.477 266.465 704.293 266.906C704.109 267.348 703.829 267.745 703.474 268.067C703.118 268.39 702.696 268.631 702.236 268.773C701.777 268.915 701.291 268.955 700.814 268.89C699.003 268.81 697.986 267.52 697.865 265.63L697.896 265Z" fill="white"/>
<path d="M684.59 260.2C684.617 261.105 684.583 262.01 684.489 262.91C684.243 264.613 683.374 266.166 682.048 267.272C680.723 268.379 679.034 268.962 677.303 268.91H675.733C674.727 268.91 673.79 268.91 672.824 268.91C672.17 268.928 671.527 268.733 670.993 268.356C670.46 267.979 670.064 267.44 669.865 266.82C669.699 266.257 669.681 265.661 669.811 265.089C669.941 264.517 670.216 263.987 670.61 263.55C670.895 263.241 671.247 263.001 671.639 262.846C672.032 262.692 672.454 262.629 672.875 262.66H675.119C677.132 262.66 677.786 261.66 677.887 259.95C677.957 258.58 677.887 257.2 677.887 255.83C677.914 255.417 678.077 255.023 678.35 254.71C680.202 252.81 682.104 250.96 683.986 249.1C684.097 248.98 684.228 248.88 684.56 248.59L684.59 260.2Z" fill="white"/>
<path d="M715.207 240C718.562 243.333 721.917 246.667 725.271 250C725.748 250.426 726.087 250.984 726.244 251.601C726.402 252.219 726.372 252.869 726.157 253.47C725.982 254.071 725.63 254.606 725.145 255.005C724.661 255.405 724.067 255.65 723.44 255.71C722.906 255.797 722.36 255.751 721.849 255.576C721.338 255.402 720.878 255.104 720.511 254.71C717.257 251.477 713.999 248.253 710.738 245.04C710.642 244.945 710.541 244.855 710.436 244.77C709.218 242.5 709.852 240.36 711.976 239.59C712.509 239.399 713.079 239.337 713.641 239.408C714.203 239.479 714.739 239.682 715.207 240V240Z" fill="white"/>
<path d="M625.721 299.13H623.316C623.578 297.63 623.819 296.29 624.051 294.94C624.544 292.22 625.057 289.5 625.5 286.77C625.515 286.569 625.598 286.379 625.735 286.23C625.872 286.082 626.055 285.983 626.255 285.95C628.606 285.227 631.095 285.063 633.521 285.47C634.311 285.533 635.047 285.889 635.585 286.467C636.122 287.045 636.42 287.803 636.42 288.59C635.997 291.27 635.575 293.94 635.142 296.59C635.021 297.39 634.87 298.2 634.739 299.01H631.217C631.649 296.62 632.062 294.27 632.475 291.93C632.596 291.28 632.726 290.64 632.827 289.99C632.891 289.758 632.902 289.515 632.857 289.278C632.812 289.042 632.714 288.819 632.569 288.626C632.425 288.433 632.238 288.275 632.022 288.165C631.807 288.055 631.569 287.995 631.327 287.99H630.915C628.902 287.93 628.751 288.08 628.419 289.99C627.956 292.64 627.412 295.28 627.04 297.93C626.919 298.8 626.627 299.24 625.721 299.13Z" fill="white"/>
<path d="M657.003 287.46C657.657 289.059 657.843 290.81 657.541 292.51C657.238 294.21 656.458 295.791 655.292 297.07C654.247 298.296 652.786 299.099 651.185 299.328C649.585 299.556 647.956 299.194 646.606 298.31C645.942 297.61 645.454 296.764 645.181 295.842C644.908 294.919 644.858 293.945 645.036 293C645.368 290.3 646.294 287.87 648.679 286.29C650.642 285 655.1 284.4 657.003 287.46ZM648.337 293.63H648.468C648.468 293.96 648.468 294.29 648.548 294.63C648.549 294.937 648.623 295.24 648.765 295.513C648.908 295.785 649.113 296.021 649.365 296.199C649.617 296.377 649.908 296.492 650.214 296.536C650.52 296.58 650.832 296.55 651.125 296.45C651.755 296.29 652.321 295.941 652.745 295.45C653.352 294.645 653.787 293.724 654.02 292.745C654.254 291.766 654.283 290.75 654.104 289.76C654.089 289.368 653.958 288.989 653.728 288.67C653.497 288.351 653.178 288.107 652.809 287.967C652.44 287.828 652.037 287.799 651.652 287.885C651.267 287.971 650.915 288.167 650.642 288.45C650.035 288.919 649.561 289.536 649.263 290.24C648.883 291.35 648.574 292.482 648.337 293.63Z" fill="white"/>
<path d="M640.074 285.63L640.255 285.53H643.707C642.912 290.07 642.127 294.53 641.332 299.03H637.839C637.99 298.03 638.111 297.08 638.272 296.12C638.695 293.62 639.138 291.12 639.57 288.63C639.741 287.63 639.913 286.63 640.074 285.63Z" fill="white"/>
<path d="M641.734 283.46C641.08 283.04 640.416 282.56 640.587 281.71C640.651 281.22 640.869 280.762 641.211 280.403C641.553 280.044 642 279.801 642.489 279.71C642.916 279.604 643.367 279.645 643.767 279.827C644.168 280.008 644.494 280.32 644.693 280.71C644.737 281.099 644.689 281.492 644.553 281.859C644.417 282.226 644.196 282.556 643.909 282.823C643.621 283.09 643.275 283.287 642.897 283.397C642.52 283.508 642.122 283.529 641.734 283.46V283.46Z" fill="white"/>
<path d="M675.572 287.11C675.884 285.47 676.236 283.85 676.498 282.21C676.5 281.979 676.589 281.758 676.747 281.589C676.906 281.421 677.122 281.318 677.353 281.3L682.235 280.53C683.217 280.622 684.189 280.792 685.143 281.04C687.75 281.92 688.555 283.84 688.163 286.24C687.549 290.24 684.137 291.97 681.037 292.07C680.131 292.07 679.225 292.2 678.229 292.28C677.826 294.48 677.424 296.73 677.011 298.97H673.478C673.78 297.14 674.072 295.33 674.394 293.52C674.716 291.71 675.099 289.84 675.401 288C675.522 287.71 675.542 287.4 675.572 287.11ZM678.773 289.46C679.756 289.451 680.737 289.381 681.711 289.25C682.503 289.142 683.233 288.764 683.774 288.18C684.316 287.596 684.637 286.843 684.681 286.05C684.756 285.76 684.768 285.458 684.714 285.164C684.66 284.869 684.542 284.59 684.369 284.346C684.196 284.101 683.971 283.897 683.71 283.747C683.449 283.598 683.159 283.507 682.859 283.48C681.982 283.385 681.098 283.385 680.222 283.48C680.114 283.51 680.016 283.566 679.935 283.643C679.855 283.72 679.794 283.815 679.759 283.92C679.417 285.7 679.125 287.45 678.773 289.46V289.46Z" fill="white"/>
<path d="M667.419 295.19C667.752 293.42 668.124 291.65 668.426 289.86C668.473 289.642 668.47 289.416 668.417 289.199C668.364 288.983 668.263 288.78 668.121 288.608C667.979 288.435 667.799 288.296 667.596 288.201C667.393 288.106 667.171 288.058 666.946 288.06H666.614C664.601 287.96 664.39 288.13 664.048 290.06C663.545 292.81 663.041 295.57 662.568 298.32C662.568 298.59 662.448 298.85 662.377 299.11H658.955C659.146 297.85 659.307 296.63 659.519 295.41C659.821 293.68 660.143 291.96 660.455 290.23C660.686 288.97 660.898 287.72 661.149 286.46C661.186 286.387 661.237 286.322 661.299 286.269C661.361 286.216 661.434 286.176 661.512 286.15C663.99 285.259 666.664 285.052 669.251 285.55C671.496 285.98 672.271 287.41 671.999 289.94C671.476 292.85 670.993 295.76 670.409 298.67C670.409 298.85 670.127 299.11 669.976 299.12C668.97 299.12 667.963 299.12 666.846 299.12L667.419 295.19Z" fill="white"/>
<path d="M698.046 285.52C700.371 286.46 700.442 288.25 700.17 289.93C699.737 292.58 699.244 295.22 698.731 297.85C698.685 298.019 698.603 298.177 698.49 298.311C698.377 298.446 698.236 298.555 698.077 298.63C695.816 299.42 693.386 299.603 691.031 299.16C688.807 298.73 688.012 297.74 687.861 295.52C688.133 292.85 689.874 291.52 692.3 290.95C693.427 290.67 694.594 290.59 695.742 290.4C696.184 290.33 696.748 290.61 696.879 289.81C697.01 288.81 696.879 288.16 696.054 287.99C695.247 287.817 694.418 287.773 693.598 287.86C692.627 288.007 691.666 288.211 690.719 288.47L690.256 286.2C692.737 285.252 695.437 285.016 698.046 285.52V285.52ZM696.396 292.52C694.916 292.65 693.487 292.61 692.239 293.4C691.875 293.613 691.583 293.93 691.404 294.31C691.224 294.69 691.164 295.115 691.233 295.53C691.27 295.852 691.421 296.15 691.659 296.371C691.897 296.593 692.206 296.723 692.531 296.74C693.435 296.815 694.344 296.815 695.248 296.74C695.42 296.74 695.661 296.41 695.701 296.2C695.963 295 696.154 293.86 696.366 292.55L696.396 292.52Z" fill="white"/>
<path d="M614.157 282.46C613.452 286.28 612.718 290.1 612.144 293.93C612.122 294.261 612.169 294.593 612.284 294.905C612.398 295.216 612.577 295.501 612.808 295.74C613.15 296.032 613.57 296.219 614.017 296.278C614.464 296.337 614.918 296.264 615.324 296.07C616.905 295.51 617.337 294.26 617.639 292.8C617.951 290.99 618.294 289.19 618.646 287.38C619.018 285.25 619.381 283.11 619.753 280.92H623.396C623.296 281.67 623.185 282.4 623.084 283.13C622.413 286.637 621.773 290.143 621.162 293.65C620.903 295.214 620.098 296.638 618.89 297.672C617.681 298.707 616.145 299.286 614.55 299.31C613.748 299.347 612.944 299.293 612.154 299.15C611.565 299.08 610.998 298.887 610.489 298.584C609.98 298.28 609.542 297.874 609.202 297.39C608.863 296.907 608.63 296.357 608.52 295.778C608.409 295.199 608.423 294.603 608.561 294.03C608.813 292.21 609.165 290.4 609.467 288.59C609.91 286.22 610.363 283.85 610.775 281.47C610.856 280.98 611.027 280.83 611.51 280.85C612.516 280.85 613.442 280.85 614.529 280.85L614.157 282.46Z" fill="white"/>
<path d="M190.05 193.48H262.757C272.913 193.48 279.223 201.67 276.848 211.76L243 355.68C240.615 365.73 230.45 373.93 220.294 373.93H147.587C137.452 373.93 131.131 365.73 133.496 355.68L167.364 211.76C169.729 201.67 179.884 193.48 190.05 193.48Z" fill="#DF2037"/>
<path d="M256.708 193.48H340.326C350.471 193.48 345.892 201.67 343.507 211.76L309.659 355.68C307.284 365.73 308.028 373.93 297.853 373.93H214.265C204.09 373.93 197.8 365.73 200.175 355.68L234.023 211.76C236.428 201.67 246.563 193.48 256.718 193.48" fill="#16467B"/>
<path d="M337.055 193.48H409.763C419.928 193.48 426.249 201.67 423.853 211.76L389.955 355.68C387.57 365.73 377.405 373.93 367.239 373.93H294.562C284.396 373.93 278.086 365.73 280.471 355.68L314.319 211.76C316.684 201.67 326.839 193.48 337.005 193.48" fill="#007B82"/>
<path d="M209.032 239.61C201.564 239.68 199.35 239.61 198.645 239.44C198.373 240.72 193.331 263.76 193.311 263.78C192.224 268.45 191.439 271.78 188.751 273.92C187.246 275.158 185.341 275.815 183.387 275.77C180.076 275.77 178.143 274.14 177.811 271.04L177.751 269.98C177.751 269.98 178.757 263.74 178.757 263.7C178.757 263.66 184.051 242.7 184.997 239.92C185.031 239.819 185.054 239.715 185.068 239.61C174.761 239.69 172.94 239.61 172.809 239.44C172.738 239.67 172.487 240.97 172.487 240.97L167.082 264.64L166.619 266.64L165.713 273.21C165.66 274.91 166.059 276.593 166.871 278.09C169.337 282.35 176.362 282.99 180.337 282.99C185.46 282.99 190.261 281.91 193.512 279.99C199.148 276.69 200.618 271.53 201.936 266.99L202.55 264.64C202.55 264.64 208.005 242.83 208.931 239.99C208.939 239.858 208.973 239.729 209.032 239.61V239.61ZM227.601 257.2C225.567 257.239 223.563 257.706 221.723 258.57C220.938 258.97 220.194 259.43 219.419 259.88L220.123 257.36L219.731 256.94C215.151 257.85 214.135 257.94 209.907 258.57L209.545 258.8C208.945 263.852 208.027 268.862 206.797 273.8C206.113 276.72 205.388 279.67 204.664 282.58L204.865 282.95C209.193 282.72 210.511 282.72 214.276 282.78L214.577 282.46C215.061 280.03 215.121 279.46 216.178 274.54C216.681 272.21 217.718 267.09 218.191 265.27C219.04 264.797 219.979 264.504 220.948 264.41C223.052 264.41 222.8 266.24 222.72 266.96C222.629 268.18 221.854 272.17 221.069 275.59L220.546 277.79C220.173 279.42 219.771 281.01 219.409 282.63L219.57 282.95C223.837 282.72 225.145 282.72 228.789 282.78L229.222 282.46C229.876 278.66 230.067 277.65 231.235 272.13L231.828 269.59C232.976 264.59 233.55 262.12 232.684 260.07C231.808 257.76 229.614 257.2 227.601 257.2ZM248.335 262.4C246.06 262.83 244.611 263.12 243.171 263.31C241.732 263.5 240.353 263.74 238.139 264.04L237.968 264.2L237.807 264.32C237.575 265.94 237.424 267.32 237.112 268.98C236.8 270.64 236.468 272.61 235.824 275.39C235.578 276.616 235.242 277.823 234.818 279C234.363 280.166 233.979 281.358 233.67 282.57L233.801 282.76L233.912 282.94C235.925 282.84 237.304 282.77 238.683 282.76C240.061 282.75 241.491 282.76 243.715 282.76L243.906 282.61L244.117 282.44C244.44 280.55 244.48 280.04 244.681 279.12C244.882 278.2 245.204 276.77 246.02 273.12C246.412 271.4 246.835 269.69 247.238 267.95C247.64 266.21 248.093 264.49 248.506 262.78L248.445 262.57L248.335 262.4ZM248.335 255.4C246.322 254.2 242.658 254.58 240.222 256.25C237.787 257.92 237.515 260.19 239.568 261.42C241.621 262.65 245.235 262.24 247.62 260.56C250.005 258.88 250.418 256.59 248.375 255.39L248.335 255.4ZM260.815 283.33C264.992 283.33 269.269 282.19 272.49 278.81C274.966 276.07 276.103 271.99 276.516 270.31C277.794 264.74 276.798 262.14 275.509 260.56C273.597 258.15 270.235 257.37 266.753 257.37C264.649 257.37 259.647 257.58 255.752 261.14C252.944 263.71 251.646 267.2 250.871 270.55C250.096 273.9 249.17 280.09 254.897 282.37C256.808 283.043 258.827 283.365 260.855 283.32L260.815 283.33ZM260.563 270.79C261.519 266.58 262.657 263.04 265.596 263.04C267.87 263.04 268.031 265.67 267.025 269.9C266.844 270.84 266.018 274.33 264.891 275.82C264.61 276.31 264.215 276.725 263.738 277.032C263.262 277.338 262.718 277.526 262.153 277.58C261.851 277.58 260.04 277.58 260.01 274.91C260.037 273.52 260.222 272.138 260.563 270.79V270.79ZM286.993 282.79L287.325 282.47C287.788 280.04 287.859 279.47 288.885 274.55C289.399 272.22 290.455 267.1 290.959 265.28C291.811 264.806 292.754 264.513 293.726 264.42C295.82 264.42 295.568 266.24 295.488 266.97C295.089 269.873 294.538 272.754 293.837 275.6L293.344 277.8C292.962 279.44 292.539 281.02 292.177 282.64L292.338 282.96C296.625 282.73 297.873 282.73 301.547 282.79L301.99 282.47C302.634 278.67 302.805 277.66 304.003 272.14L304.576 269.6C305.724 264.6 306.297 262.13 305.452 260.08C304.506 257.78 302.302 257.22 300.319 257.22C298.284 257.258 296.281 257.725 294.441 258.59C293.666 258.99 292.901 259.44 292.146 259.9L292.801 257.38L292.448 256.96C287.879 257.87 286.832 257.96 282.605 258.59L282.283 258.82C281.667 263.87 280.75 268.879 279.535 273.82C278.841 276.74 278.116 279.69 277.401 282.6L277.593 282.97C281.91 282.71 283.209 282.71 286.963 282.77L286.993 282.79ZM318.486 282.96C318.757 281.66 320.358 273.96 320.368 273.96C320.378 273.96 321.727 268.29 321.817 268.09C322.049 267.767 322.339 267.489 322.673 267.27H323.307C329.255 267.27 335.978 267.27 341.242 263.43C344.913 260.662 347.449 256.665 348.378 252.18C348.694 250.9 348.86 249.588 348.871 248.27C348.951 246.494 348.449 244.74 347.442 243.27C344.755 239.55 339.39 239.48 333.231 239.45H330.211C322.31 239.55 319.14 239.52 317.831 239.36L317.519 240.95L314.681 253.95C314.681 253.95 307.908 281.59 307.636 282.89C314.43 282.81 317.258 282.81 318.455 282.94L318.486 282.96ZM323.729 259.87L326.749 246.95L326.849 246.28V245.78L328.047 245.9L334.408 246.44C336.854 247.38 337.87 249.8 337.166 252.96C336.875 254.34 336.278 255.638 335.418 256.759C334.558 257.88 333.456 258.796 332.194 259.44C330.181 260.44 327.745 260.52 325.219 260.52H323.588L323.729 259.87ZM342.45 271C341.655 274.36 340.739 280.5 346.405 282.68C347.989 283.366 349.712 283.678 351.438 283.59C353.249 283.4 354.949 282.627 356.279 281.39C356.148 281.9 356.017 282.39 355.876 282.92L356.138 283.25C360.214 283.08 361.482 283.08 365.901 283.11L366.303 282.81C366.947 279.06 367.551 275.41 369.232 268.22C370.047 264.78 370.863 261.38 371.698 257.95L371.567 257.57C367.008 258.41 365.79 258.57 361.402 259.2L361.069 259.47C361.069 259.82 360.979 260.16 360.929 260.47C360.193 259.269 359.068 258.352 357.738 257.87C355.786 257.11 351.196 258.09 347.261 261.64C344.533 264.22 343.205 267.7 342.45 271ZM352.031 271.21C353.038 267.07 354.125 263.56 357.064 263.56C358.906 263.56 359.872 265.24 359.671 268.11C359.52 268.82 359.348 269.57 359.147 270.43C358.855 271.66 358.543 272.88 358.231 274.1C357.97 274.859 357.611 275.582 357.164 276.25C356.718 276.757 356.173 277.168 355.563 277.46C354.952 277.752 354.288 277.919 353.612 277.95C353.32 277.95 351.528 277.95 351.468 275.33C351.491 273.949 351.68 272.576 352.031 271.24V271.21ZM402.063 257.54L401.711 257.14C397.192 258.04 396.377 258.19 392.23 258.74L391.928 259.04C391.928 259.09 391.928 259.17 391.928 259.24V259.17C388.838 266.22 388.909 264.7 386.412 270.25C386.412 270 386.412 269.84 386.412 269.57L385.788 257.57L385.396 257.17C380.666 258.07 380.555 258.22 376.187 258.77L375.845 259.07C375.806 259.228 375.779 259.388 375.764 259.55V259.61C376.214 261.761 376.55 263.934 376.77 266.12C377.022 268.25 377.364 270.41 377.616 272.52C378.049 276.06 378.29 277.8 378.814 283.19C375.865 288.01 375.17 289.84 372.332 294.07L370.319 297.2C370.158 297.492 369.903 297.721 369.594 297.85C369.178 298.009 368.731 298.074 368.286 298.04H367.179L365.528 303.46L371.174 303.56C372.495 303.634 373.81 303.334 374.965 302.692C376.12 302.051 377.068 301.097 377.696 299.94L381.249 293.94L381.622 293.52C383.886 288.44 402.063 257.57 402.063 257.57V257.54ZM342.45 328.76H340.075L348.942 299.71H351.88L352.816 296.71L352.907 300.04C352.796 302.09 354.427 303.92 358.724 303.62H363.686L365.397 298.02H363.525C362.458 298.02 361.955 297.75 362.016 297.18L361.925 293.79H352.736C349.767 293.85 340.89 294.07 339.088 294.55C337.494 295.042 335.986 295.778 334.619 296.73L335.525 293.73H326.93L325.138 299.67L316.151 329.16H314.399L312.688 334.72H329.798L329.225 336.57H337.669L338.223 334.72H340.588L342.45 328.76ZM335.404 305.61C334.062 306.048 332.745 306.559 331.459 307.14L333.744 299.71H340.568L338.927 305.12C337.748 305.2 336.576 305.374 335.425 305.64L335.404 305.61ZM335.535 316.22C335.535 316.22 333.381 316.49 331.972 316.8C330.595 317.296 329.251 317.877 327.947 318.54L330.302 310.81H337.166L335.535 316.22ZM331.701 328.83H324.847L326.86 322.31H333.693L331.701 328.83ZM348.207 310.83H358.09L356.671 315.38H346.657L345.157 320.38H353.913L347.281 329.63C346.971 330.137 346.5 330.528 345.942 330.74C345.396 331.045 344.786 331.22 344.161 331.25H341.725L340.075 336.69H346.425C347.744 336.731 349.05 336.436 350.222 335.834C351.393 335.232 352.39 334.343 353.118 333.25L357.668 327.08L358.674 333.34C358.761 333.796 358.954 334.226 359.237 334.596C359.52 334.965 359.885 335.265 360.305 335.47C360.976 335.926 361.732 336.242 362.529 336.4C363.535 336.45 364.25 336.48 364.723 336.48H367.853L369.725 330.38H368.487C367.763 330.418 367.039 330.302 366.364 330.04C366.165 329.634 366.055 329.191 366.041 328.74L365.035 322.47H361.009L362.791 320.37H372.785L374.315 315.37H365.065L366.515 310.82H375.734L377.445 305.21H349.908L348.207 310.83ZM264.77 330.12L267.075 322.52H276.556L278.287 316.87H268.806L270.245 312.19H279.515L281.236 306.72H258.087L256.406 312.19H261.67L260.261 316.87H254.987L253.236 322.62H258.5L255.43 332.67C255.286 333.091 255.263 333.544 255.365 333.977C255.466 334.41 255.688 334.806 256.004 335.12C256.184 335.432 256.429 335.704 256.722 335.915C257.015 336.127 257.35 336.276 257.705 336.35C258.498 336.554 259.312 336.665 260.13 336.68H270.819L272.721 330.42L267.981 331.06C267.045 331.07 264.519 331 264.79 330.13L264.77 330.12ZM265.857 293.75L263.462 298.05C263.142 298.747 262.663 299.36 262.063 299.84C261.385 300.117 260.649 300.227 259.919 300.16H258.671L256.99 305.66H261.157C262.646 305.633 264.107 305.26 265.424 304.57C266.21 304.15 266.431 304.39 267.035 303.81L268.434 302.6H281.427L283.159 296.88H273.647L275.308 293.75H265.857ZM285.041 330.23C284.819 329.91 284.98 329.35 285.322 328.23L288.875 316.58H301.527C303.368 316.58 304.697 316.58 305.553 316.48C306.614 316.342 307.639 316.003 308.572 315.48C309.475 315.024 310.237 314.332 310.776 313.48C311.763 311.977 312.5 310.326 312.96 308.59L317.429 293.86L304.345 293.93C302.379 294.206 300.434 294.62 298.527 295.17C296.979 295.932 295.518 296.857 294.169 297.93L295.357 293.93H287.255L275.922 331.17C275.603 332.195 275.358 333.241 275.187 334.3C275.187 334.98 276.053 335.65 276.626 336.16C277.45 336.554 278.362 336.726 279.274 336.66C280.28 336.74 281.719 336.79 283.702 336.79H289.932L291.844 330.4L286.269 330.92C286.027 330.912 285.791 330.846 285.581 330.727C285.37 330.609 285.192 330.442 285.061 330.24L285.041 330.23ZM291.16 308.69H304.435L303.59 311.31C303.007 311.256 302.421 311.256 301.839 311.31H290.365L291.16 308.69ZM293.827 299.91H307.203L306.247 303.06C306.247 303.06 299.936 303 298.92 303.19C296.338 303.597 293.909 304.669 291.875 306.3L293.827 299.91ZM303.892 320.08C303.814 320.403 303.626 320.69 303.358 320.89C302.937 321.084 302.472 321.163 302.01 321.12H300.118L300.228 317.93H292.358L292.046 333.52C292.046 334.65 292.136 335.3 292.972 335.82C293.807 336.34 296.363 336.55 299.806 336.55H304.737L306.519 330.72L302.231 330.95L300.822 331C300.6 330.925 300.397 330.802 300.228 330.64C300.047 330.46 299.745 330.57 299.796 329.45V325.45L304.304 325.27C305.096 325.321 305.889 325.211 306.636 324.948C307.384 324.685 308.07 324.274 308.652 323.74C309.408 323.035 309.913 322.105 310.092 321.09L310.847 317.55H304.667L303.892 320.08Z" fill="white"/>
</svg>
