<svg xmlns="http://www.w3.org/2000/svg" viewBox="0 0 1544.99 480.96"><defs><style>.cls-1{fill:#181f37;}.cls-1,.cls-2{fill-rule:evenodd;}.cls-2{fill:#4c70b4;}.cls-3,.cls-6{fill:none;stroke-miterlimit:10;}.cls-3{stroke:#4c70b4;stroke-linecap:round;stroke-width:24.74px;}.cls-4{fill:#09bb07;}.cls-5{fill:#494949;}.cls-6{stroke:#494949;stroke-width:2.38px;}</style></defs><g id="Layer_2" data-name="Layer 2"><g id="Layer_1-2" data-name="Layer 1"><g id="Layer_2-2" data-name="Layer 2-2"><g id="Layer_1-2-2" data-name="Layer 1-2-2"><g id="Group"><path id="Fill-4" class="cls-1" d="M342.06,111.68V74.53L313.29,30.27H339l11.07,21,.34.64a25.33,25.33,0,0,1,2.41,6.28,21.78,21.78,0,0,1,2.42-6.06c.22-.41.38-.68.45-.84l11-21h25.79L363.69,74.55V111.7H342.06"/><path id="Fill-5" class="cls-1" d="M421.07,76.78a12,12,0,0,0-3.68-7.68,10.87,10.87,0,0,0-7.67-2.89A11.13,11.13,0,0,0,402,68.85c-1.94,1.76-3.21,4.41-3.84,7.93ZM440.79,88H397.64c0,4.33,1.16,7.67,3.37,10s5.34,3.53,9.38,3.53a15.8,15.8,0,0,0,7.67-1.69,11.16,11.16,0,0,0,4.75-5l15.06,6a19.52,19.52,0,0,1-9.55,10q-6.85,3.5-16.8,3.5-14.82,0-23.79-8.14t-9-21.5q0-13.12,9-21.79t22.67-8.68q14.1,0,22.25,8.78t8.14,24Z"/><path id="Fill-6" class="cls-1" d="M493.69,85.06q0-6.57-3.52-10.34t-9.59-3.79q-6.06,0-9.55,3.79t-3.47,10.34q0,6.61,3.45,10.37c2.31,2.51,5.5,3.76,9.6,3.76s7.24-1.26,9.59-3.78S493.71,89.44,493.69,85.06Zm17.76,28H493v-9.15a27.41,27.41,0,0,1-8.6,8.48,20.52,20.52,0,0,1-10.62,2.8q-12,0-19.05-8.17t-7.08-22q0-13.42,7-21.66t18.4-8.26q7.2,0,11.72,2.55a22.8,22.8,0,0,1,8.06,8.57c-.22-1.34-.39-2.84-.51-4.53s-.16-3.52-.16-5.48V26.86h19.19v86.19Z"/><path id="Fill-7" class="cls-1" d="M541.22,84.17q0,6.56,3.46,10.34t9.52,3.78q6.06,0,9.59-3.78t3.51-10.34q0-6.56-3.49-10.34t-9.59-3.78q-6.08,0-9.52,3.78T541.22,84.17ZM523.5,136.86v-81H542v9.46a26.91,26.91,0,0,1,8.57-8.45,20.58,20.58,0,0,1,10.61-2.78q12,0,19,8.09t7.08,21.94q0,13.42-7,21.74t-18.4,8.32q-7.2,0-11.71-2.61a23.19,23.19,0,0,1-8.07-8.62,38.49,38.49,0,0,1,.43,4c.09,1.6.14,3.56.14,5.9v23.92H523.5Z"/><path id="Fill-8" class="cls-1" d="M645.41,84q0-6.57-3.55-10.4t-9.65-3.84q-6.13,0-9.64,3.84T619.05,84q0,6.57,3.54,10.34a12.49,12.49,0,0,0,9.59,3.78q6.12,0,9.66-3.78C644.2,91.79,645.38,88.34,645.41,84ZM663,56v56.17H644.61V103a26.32,26.32,0,0,1-8.84,8.56,23.44,23.44,0,0,1-11.55,2.72q-11.36,0-18.15-8.2t-6.8-22q0-13.74,7.11-21.83t19.13-8.09a21.47,21.47,0,0,1,11,2.7,22.63,22.63,0,0,1,8,8.31V55.91Z"/><path id="Fill-9" class="cls-1" d="M675.1,138.52,691,105.15,668.19,57.56H690.4l7.92,20.3q1,2.55,1.68,4.76a35.7,35.7,0,0,1,1,4.08,32.83,32.83,0,0,1,1-4.14c.42-1.43,1-3,1.65-4.7l8-20.3h21.4l-35.65,81H675.1"/><g id="Group-4"><path id="Fill-10" class="cls-1" d="M718.47,31.78h2.62a3.9,3.9,0,0,1,2.56.73,2,2,0,0,1,.84,1.74,1.54,1.54,0,0,1-.17.76l-.09.18a2.57,2.57,0,0,1-.69,1,2.9,2.9,0,0,1-1.08.64,4,4,0,0,1-1.37.22h-2.6V31.78Zm7.38,9.38c-.25-.38-.46-.72-.64-1a8.3,8.3,0,0,0-.64-.8l-.67-.64-.32-.22a6.2,6.2,0,0,0,1.15-.51,5,5,0,0,0,1.32-1.07,4.61,4.61,0,0,0,.85-1.45v-.13a2.82,2.82,0,0,0,.25-1.28,3.77,3.77,0,0,0-.44-1.92,4.27,4.27,0,0,0-1.2-1.5,5,5,0,0,0-1.81-.92,8.34,8.34,0,0,0-2.28-.29h-5.57V45h2.62V39.36H720a3.76,3.76,0,0,1,1,.13l.79.4.76.75a10.72,10.72,0,0,1,.77,1.13l1.92,3.11.08.12h3.07l-.25-.39Z"/><path id="Fill-11" class="cls-1" d="M722,48a11,11,0,1,1,.07,0Zm0-23.8a35.34,35.34,0,1,0,.07,0H722Z"/></g></g><g id="Group-2"><path id="Fill-12" class="cls-2" d="M145,5.34c-7.4,0-13.43,5.61-13.43,12.5V129.06c0,6.89,6,12.49,13.43,12.49H264.41c7.4,0,13.43-5.6,13.43-12.49V17.84c0-6.89-6-12.5-13.43-12.5ZM264.38,146.9H145c-10.56,0-19.18-8-19.18-17.84V17.84C125.78,8,134.37,0,145,0H264.41C275,0,283.59,8,283.59,17.84V129.06C283.53,138.9,275,146.9,264.38,146.9Z"/><path id="Fill-13" class="cls-2" d="M266,108.41c-14.83,0-29.68.06-44.51,0a54,54,0,0,1-10.14-1.11,9.18,9.18,0,0,1-7.72-7.93,16.53,16.53,0,0,1,.93-9.87,9.71,9.71,0,0,1,8-5.91,68.72,68.72,0,0,1,8.72-.64c11.48-.07,23,0,34.42,0h1.92V64H219.32a59.43,59.43,0,0,1-6.11-.35c-5.23-.55-8-2.84-9.29-7.85s-.31-9.8,3.83-13.59a10.23,10.23,0,0,1,7-2.44c5-.12,10-.15,15.05-.16H268V20.84c-.57,0-1.05-.07-1.54-.07l-59.23.14a28.91,28.91,0,0,0-17.35,5.21,28.61,28.61,0,0,0-11.21,16.43,28.28,28.28,0,0,0-.7,12H160.31a8.45,8.45,0,0,0,0,16.9H187a8.46,8.46,0,1,1,.58,16.91,5.61,5.61,0,0,1-.58,0H148.21a8.46,8.46,0,0,0,0,16.91h29.84a24.43,24.43,0,0,0,5.11,10.93c4.8,5.83,11.26,9,18.75,10a109.32,109.32,0,0,0,14,1c16.88.11,33.75,0,50.63,0a10,10,0,0,0,1.4-.07V108.41h-2.05"/><path id="Fill-14" class="cls-2" d="M160.47,48.07a8.46,8.46,0,1,0,.58-16.91,5.61,5.61,0,0,0-.58,0H144.73a8.46,8.46,0,0,0,0,16.91h15.74"/></g></g></g><path class="cls-3" d="M772.49,67.16h688.13a72.27,72.27,0,0,1,72,72.05V396.59a72.25,72.25,0,0,1-72,72H84.37a72.25,72.25,0,0,1-72-72V139.21a72.27,72.27,0,0,1,72-72.05"/><g id="Layer_2-2-2" data-name="Layer 2"><g id="Layer_1-2-2-2" data-name="Layer 1-2"><path class="cls-4" d="M163.29,283.65a4.33,4.33,0,0,1-2,.49,4.48,4.48,0,0,1-3.92-2.3l-.31-.65-12.27-26.95a2.24,2.24,0,0,1,1.07-3,2.27,2.27,0,0,1,1-.21,2.14,2.14,0,0,1,1.33.45l14.51,10.3a6.67,6.67,0,0,0,6,.68l68.16-30.34c-12.27-14.35-32.39-23.79-55.16-23.79-37.28,0-67.48,25.17-67.48,56.22,0,16.95,9.09,32.2,23.31,42.5a4.48,4.48,0,0,1,1.89,3.66,5.28,5.28,0,0,1-.23,1.43c-1.14,4.25-3,11-3,11.35a6.19,6.19,0,0,0-.37,1.64A2.25,2.25,0,0,0,138,327.4a2.47,2.47,0,0,0,1.29-.42l14.77-8.52a7.1,7.1,0,0,1,3.59-1,7,7,0,0,1,2,.29,79.69,79.69,0,0,0,22,3.1c37.26,0,67.48-25.18,67.48-56.23a48.87,48.87,0,0,0-7.73-26.06l-77.66,44.85Z"/><path class="cls-5" d="M350.07,270.58l-1.45,5.15c-1.84,6.51-3.44,12.2-4.71,17.93-1.23-6.87-3.34-14.93-5.57-23.28L327.6,229.89H322l-11.78,40.78c-2.7,8.8-5.05,16.67-6.31,23-1.21-5.54-2.91-12.26-4.7-19.34l-11.46-44.48h-6.11l19.19,72.67h5.46l12.35-41.64a231.53,231.53,0,0,0,6-22.44,217.72,217.72,0,0,0,5.26,22.42l10.84,41.66h5.56l21.79-72.67H362Z"/><path class="cls-5" d="M406.38,295.79c-3,1.38-6.75,2.58-13.48,2.58-12,0-18.89-8-19.06-21.93h37.64l.06-.34a13.12,13.12,0,0,0,.23-3.19A30.25,30.25,0,0,0,408,258.38c-3.47-5.85-9.15-9-16.61-9-14,0-23.45,11.3-23.45,28.13,0,15.61,9.76,26.11,24.3,26.11,9.26,0,14.48-2.35,16.31-3.36l.3-.16Zm-15.61-41.27c4.23,0,7.65,1.29,10.16,3.83,4.09,4.15,4.63,10.31,4.64,13.19H374.12C375.23,263.57,380.22,254.52,390.77,254.52Z"/><path class="cls-5" d="M456.07,298.39c-18.74,0-29.93-11.83-29.93-31.63,0-20.54,11.51-32.8,30.78-32.8a34.15,34.15,0,0,1,14.24,2.82l2.71-4.69-.22-.13c-1.39-.76-6.71-3.24-16.83-3.24-22.06,0-36.88,15.24-36.88,37.93,0,27.29,18.55,37,34.43,37,9,0,16-1.89,19.58-3.66l.28-.14-2.58-4.5A39.12,39.12,0,0,1,456.07,298.39Z"/><path class="cls-5" d="M506.79,249.38a19.51,19.51,0,0,0-10.55,3,18.67,18.67,0,0,0-6.48,6.44V228.72h-6v73.83h6V270.91a14.42,14.42,0,0,1,.61-5c2.35-6.6,8.51-11.23,15-11.23,11.86,0,13.63,10.74,13.63,17.17v30.69h6V271.33C525,250.41,509.83,249.38,506.79,249.38Z"/><path class="cls-5" d="M602,298.09a22.19,22.19,0,0,1-4.53.4c-4.79,0-7-3.21-7-10.11V255.56h14.59v-5H590.47V239.07h-6v11.48h-8.61v5h8.62v31.86c0,5.91,1.09,10,3.29,12.52,1.94,2.48,5.09,3.79,9.09,3.79a18.12,18.12,0,0,0,7.31-1.32l.28-.12Z"/><path class="cls-5" d="M645.33,229.35a88.78,88.78,0,0,0-15.52,1.4l-.36.06v71.75h6V272a34.06,34.06,0,0,0,8.3.72c9.21,0,16.82-2.89,21.42-8.13,3.43-3.78,5.15-8.58,5.15-14.68,0-5.91-2-10.88-5.67-14.37C660.44,231.53,653.78,229.35,645.33,229.35Zm18.95,21.11c0,10.89-7.33,17.17-20.12,17.17a31.17,31.17,0,0,1-8.76-1v-31.4a51.58,51.58,0,0,1,9.69-.77C657.3,234.49,664.28,240.31,664.28,250.46Z"/><path class="cls-5" d="M753,250.55,740.44,284c-1.17,3-2.15,6-3,8.59-.21.62-.42,1.22-.61,1.79-1-3.32-2.29-7-3.43-10L720,250.83l-.11-.28h-6.4l19.21,48a3.82,3.82,0,0,1,0,4.14,39.71,39.71,0,0,1-8.43,12.74,26.25,26.25,0,0,1-8.8,5.56l-.35.13,2.76,4.76a30.45,30.45,0,0,0,8.58-5.23c6.65-5.79,10.91-14.74,17.38-31.37l15.59-38.74Z"/><path class="cls-5" d="M571.58,302.05a76.13,76.13,0,0,1-.74-12.07V270c0-13.45-6.27-20.6-18.12-20.6a28.66,28.66,0,0,0-15.26,4.5h0l2.43,4.22a22,22,0,0,1,12.32-3.54h.18c3.78,0,6.75,1,8.82,3.08,2.46,2.44,3.66,6.2,3.66,11.5v.95c-12.53-.11-21.46,2.46-26.54,7.52a15.77,15.77,0,0,0-4.68,11.66c0,7,4.84,14.5,15.46,14.5a20.06,20.06,0,0,0,16.31-8l.69,6.87h5.6Zm-6.73-16.31a8,8,0,0,1-.5,2.95c-1.64,4.8-6.36,9.94-14.72,9.94-4.52,0-9.79-2.68-9.79-10.22a10.61,10.61,0,0,1,3.16-8c3.63-3.53,10.31-5.31,19.91-5.31h1.94Z"/><path class="cls-5" d="M709,302.05a76.13,76.13,0,0,1-.74-12.07V270c0-13.45-6.27-20.6-18.13-20.6a28.85,28.85,0,0,0-14.65,4.08l2.43,4.2a22.28,22.28,0,0,1,11.7-3.15h.18c3.79,0,6.76,1,8.82,3.08,2.46,2.45,3.66,6.21,3.66,11.51V270c-12.49-.1-21.46,2.47-26.55,7.52A15.83,15.83,0,0,0,671,289.2c0,7,4.85,14.5,15.46,14.5a20.05,20.05,0,0,0,16.31-8l.7,6.82h5.6Zm-6.73-16.31a8,8,0,0,1-.5,2.95c-1.64,4.8-6.37,9.94-14.72,9.94-4.52,0-9.8-2.68-9.8-10.22a10.58,10.58,0,0,1,3.17-8c3.63-3.53,10.31-5.31,19.9-5.31h2"/><ellipse class="cls-6" cx="797.15" cy="271.8" rx="20.13" ry="20.2"/><path class="cls-5" d="M784.55,264.41h1.67v6.26h7.1v-6.26H795v14.78h-1.67v-7.07h-7.1v7.07h-1.67Z"/><path class="cls-5" d="M799.08,264.41h1.67V272h0l6.38-7.61H809L804.41,270l5.32,9.19h-1.86l-4.52-7.9-2.6,3.16v4.77h-1.67Z"/></g></g><g id="Layer_2-3" data-name="Layer 2"><g id="Layer_1-2-3" data-name="Layer 1-2"><path class="cls-4" d="M979.17,283.66a4.48,4.48,0,0,1-6-1.82l-.3-.64-12.26-27a2.34,2.34,0,0,1-.21-.94,2.25,2.25,0,0,1,3.6-1.8l14.5,10.31a6.68,6.68,0,0,0,6,.69l68.18-30.34c-12.23-14.43-32.34-23.81-55.12-23.81-37.26,0-67.47,25.17-67.47,56.22,0,16.95,9.09,32.2,23.32,42.5a4.48,4.48,0,0,1,1.88,3.65,5,5,0,0,1-.24,1.43l-3,11.36a5.87,5.87,0,0,0-.36,1.65,2.24,2.24,0,0,0,2.24,2.24h0a2.54,2.54,0,0,0,1.3-.42L970,318.45a7.1,7.1,0,0,1,3.59-1,6.65,6.65,0,0,1,2,.3,79.6,79.6,0,0,0,22,3.08c37.26,0,67.47-25.17,67.47-56.22a48.55,48.55,0,0,0-7.68-26.06l-77.69,44.91Z"/><rect class="cls-5" x="1227.47" y="248.33" width="50.61" height="4.54"/><rect class="cls-5" x="1227.47" y="262.51" width="50.61" height="4.9"/><path class="cls-5" d="M1276.81,304.43V277h-48.06v27.39Zm-43.16-22.85h38.26v18.31h-38.26Z"/><path class="cls-5" d="M1213.58,307.3V244.25a157.57,157.57,0,0,0,7.49-19.62l-4.53-2.61a143.79,143.79,0,0,1-19.24,42l2.71,4.65c2.84-4.21,5.85-9.17,8.68-14.36v53Z"/><path class="cls-5" d="M1397.48,307.3V244.25a157.57,157.57,0,0,0,7.49-19.62l-4.53-2.61a144.05,144.05,0,0,1-19.24,42l2.73,4.66c2.85-4.2,5.85-9.16,8.68-14.35v53Z"/><path class="cls-5" d="M1283.4,233.79h-29.74l3.16-1.81.11-.06,0-.12c-.37-.85-1.31-2.83-2.31-4.93s-1.9-4-2.36-5l-.06-.14-4.52,2.56.07.12c1.61,3,3,5.82,4.27,8.53a3.63,3.63,0,0,1,.32.85h-29.78v4.9h60.89Z"/><polygon class="cls-5" points="1152.8 230.07 1148.26 230.07 1148.26 246.03 1139.68 246.03 1139.68 223.34 1135.15 223.34 1135.15 246.03 1126.21 246.03 1126.21 230.07 1121.68 230.07 1121.68 250.57 1152.8 250.57 1152.8 230.07"/><rect class="cls-5" x="1123.09" y="259.5" width="27.58" height="4.54"/><path class="cls-5" d="M1129.06,281.62v-4.11h13.88v10.12c-.17,3.53-.35,4.62-1.56,6.31l-.05.06,2.78,4.83.1-.06c2.44-1.95,6.62-5.52,12.39-10.61l.09-.08-2.15-3.81-.09-.17-7,6V273h-23.33v6.88c.66,9.44-1.71,16.21-7,20.05l-.1.08,2.56,4.38.09.15.12-.11C1126.41,299,1129.52,291.28,1129.06,281.62Z"/><path class="cls-5" d="M1099.26,244.79l2.74,4.75a92.79,92.79,0,0,0,17.52-24.68l-4.27-2.45A77.43,77.43,0,0,1,1099.26,244.79Z"/><path class="cls-5" d="M1098,273.31l2.52,4.36.1.17.14-.15c2.68-3.14,5.29-6.43,7.79-9.81V307.3h4.54V260.39a124.74,124.74,0,0,0,5.91-12.14l0-.11-4.39-2.56-.06.15a95.2,95.2,0,0,1-16.52,27.47Z"/><path class="cls-5" d="M1186.09,243.48v-4.54H1166c1.71-5.26,3.75-11.4,4.42-16.64h-4.74c-2.94,13.81-7.44,25.79-13.23,35.24l2.9,4.95,2.11-4.2c.79-1.39,1.43-2.56,1.91-3.48,1.42,12.23,3.9,22.07,7.37,29.27-3.33,5.76-8.46,11.75-15.24,17.8l-.09.08,2.58,4.49.08.15.14-.11c7.18-6.74,12.15-12.63,14.78-17.53a90.83,90.83,0,0,0,14,17.78l.13.14,2.69-4.66.06-.09-.09-.08c-6.31-6-11.32-12.29-14.11-17.63,5.12-9.39,8.36-23.19,9.54-41Zm-16.79,35.28c-3-7.68-5.2-18.19-6.6-31.16a33.72,33.72,0,0,1,1.71-4.12h12.16C1175.64,258.27,1173.22,270.14,1169.3,278.76Z"/><path class="cls-5" d="M1375.4,238.67v-4.84h-38.66V221.55h-5v12.28h-38.34v4.84h38.34v16.12h-24.87v4.43a87.15,87.15,0,0,0,11.53,17.91,83.88,83.88,0,0,0,11.48,11.52,101.27,101.27,0,0,1-34.72,13.42l2.86,4.95a119.47,119.47,0,0,0,35.77-15.35c2.41,1.52,13.42,10.33,34,15.24h.14l2-3.81a141,141,0,0,1-13.38-4.51,96.82,96.82,0,0,1-19.32-10,72,72,0,0,0,24.26-31.5l-4-2.33h-20.81V238.67ZM1355.78,259s-5,14.27-22.07,26.44a75,75,0,0,1-21.9-26.44Z"/><path class="cls-5" d="M1437.55,301h-2.83v4.9H1439c4.79,0,7.42-1,9.46-3.08s3-5,2.84-9.05V248.26h13.14v-4.88h-13.11v-21h-4.91v21H1406v4.88h40.37v45.48C1446.38,298.68,1443.32,301,1437.55,301Z"/><path class="cls-5" d="M1426.58,284.81l4.86-2.83c-2.6-5.3-6.08-12.33-10.39-21l-4.43,2.56C1419.61,269.44,1423,276.53,1426.58,284.81Z"/></g></g></g></g></svg>