<svg width="931" height="481" viewBox="0 0 931 481" fill="none" xmlns="http://www.w3.org/2000/svg">
<path fill-rule="evenodd" clip-rule="evenodd" d="M340.234 111.68V74.5299L311.828 30.2699H337.243L348.173 51.2699L348.508 51.9099C349.574 53.8868 350.374 55.9987 350.888 58.1899C351.379 56.0598 352.185 54.0169 353.277 52.1299C353.494 51.7199 353.652 51.4499 353.721 51.2899L364.582 30.2899H390.046L361.591 74.5499V111.7H340.234" fill="#181F37"/>
<path fill-rule="evenodd" clip-rule="evenodd" d="M418.245 76.78C418.001 73.8562 416.709 71.124 414.611 69.1C412.555 67.1736 409.838 66.1366 407.038 66.21C404.242 66.0651 401.497 67.0097 399.367 68.85C397.451 70.61 396.197 73.26 395.575 76.78H418.245ZM437.715 88H395.111C395.111 92.33 396.256 95.67 398.438 98C400.621 100.33 403.711 101.53 407.7 101.53C410.324 101.621 412.929 101.04 415.273 99.84C417.318 98.7161 418.959 96.9659 419.963 94.84L434.832 100.84C432.997 105.225 429.644 108.781 425.403 110.84C420.888 113.173 415.358 114.34 408.816 114.34C399.061 114.34 391.231 111.627 385.326 106.2C379.422 100.773 376.477 93.6066 376.49 84.7C376.49 75.9533 379.435 68.69 385.326 62.91C391.218 57.13 398.679 54.2366 407.71 54.23C416.991 54.23 424.314 57.1566 429.678 63.01C435.043 68.8633 437.722 76.86 437.715 87V88Z" fill="#181F37"/>
<path fill-rule="evenodd" clip-rule="evenodd" d="M489.946 85.06C489.946 80.68 488.788 77.2333 486.471 74.72C484.154 72.2067 480.997 70.9433 477.002 70.93C473.013 70.93 469.87 72.1933 467.573 74.72C465.275 77.2467 464.133 80.6933 464.147 85.06C464.147 89.4666 465.282 92.9233 467.553 95.43C469.834 97.94 472.983 99.19 477.031 99.19C481.08 99.19 484.18 97.93 486.5 95.41C488.82 92.89 489.966 89.44 489.946 85.06ZM507.481 113.06H489.284V103.91C487.115 107.343 484.213 110.241 480.793 112.39C477.614 114.27 473.989 115.238 470.308 115.19C462.409 115.19 456.139 112.467 451.499 107.02C446.858 101.573 444.528 94.24 444.508 85.02C444.508 76.0733 446.812 68.8533 451.42 63.36C456.027 57.8667 462.083 55.1133 469.587 55.1C474.326 55.1 478.183 55.95 481.159 57.65C484.507 59.7509 487.251 62.7063 489.117 66.22C488.899 64.88 488.732 63.38 488.613 61.69C488.495 60 488.455 58.17 488.455 56.21V26.86H507.402V113.05L507.481 113.06Z" fill="#181F37"/>
<path fill-rule="evenodd" clip-rule="evenodd" d="M536.875 84.17C536.875 88.5433 538.013 91.99 540.291 94.51C542.568 97.03 545.702 98.29 549.69 98.29C553.679 98.29 556.836 97.03 559.159 94.51C561.483 91.99 562.638 88.5433 562.625 84.17C562.625 79.7967 561.476 76.35 559.179 73.83C556.882 71.31 553.725 70.05 549.71 70.05C545.715 70.05 542.582 71.31 540.311 73.83C538.04 76.35 536.894 79.7967 536.875 84.17ZM519.379 136.86V55.86H537.595V65.32C539.752 61.8944 542.645 59.006 546.057 56.87C549.236 55.0006 552.857 54.0398 556.533 54.09C564.432 54.09 570.701 56.7867 575.342 62.18C579.982 67.5733 582.312 74.8867 582.332 84.12C582.332 93.0667 580.028 100.313 575.421 105.86C570.813 111.407 564.757 114.18 557.254 114.18C552.514 114.18 548.66 113.31 545.692 111.57C542.346 109.441 539.601 106.472 537.724 102.95C537.933 104.275 538.075 105.61 538.148 106.95C538.237 108.55 538.287 110.51 538.287 112.85V136.77H519.379V136.86Z" fill="#181F37"/>
<path fill-rule="evenodd" clip-rule="evenodd" d="M639.747 84C639.747 79.62 638.578 76.1533 636.241 73.6C633.905 71.0466 630.729 69.7666 626.714 69.76C622.679 69.76 619.506 71.04 617.195 73.6C614.885 76.16 613.727 79.6266 613.72 84C613.72 88.38 614.885 91.8266 617.215 94.34C618.438 95.6151 619.915 96.6118 621.547 97.2636C623.18 97.9154 624.931 98.2073 626.684 98.12C630.712 98.12 633.892 96.86 636.222 94.34C638.552 91.79 639.717 88.34 639.747 84ZM657.104 56V112.17H638.957V103C636.759 106.514 633.767 109.448 630.229 111.56C626.72 113.442 622.793 114.379 618.825 114.28C611.354 114.28 605.38 111.547 600.904 106.08C596.428 100.613 594.19 93.28 594.19 84.08C594.19 74.92 596.53 67.6433 601.21 62.25C605.89 56.8566 612.186 54.16 620.098 54.16C623.892 54.0601 627.642 54.9925 630.959 56.86C634.238 58.8992 636.942 61.7616 638.809 65.17V55.91L657.104 56Z" fill="#181F37"/>
<path fill-rule="evenodd" clip-rule="evenodd" d="M669.061 138.52L684.799 105.15L662.238 57.5599H684.167L691.987 77.8599C692.645 79.5599 693.198 81.1466 693.646 82.6199C694.054 83.9592 694.383 85.3215 694.633 86.6999C694.874 85.2997 695.203 83.9168 695.621 82.5599C696.035 81.1299 696.608 79.5599 697.25 77.8599L705.149 57.5599H726.278L691.079 138.56H669.061" fill="#181F37"/>
<path fill-rule="evenodd" clip-rule="evenodd" d="M711.882 31.7799H714.469C715.37 31.7155 716.265 31.9738 716.997 32.5099C717.269 32.7054 717.488 32.9675 717.633 33.2717C717.778 33.576 717.844 33.9125 717.826 34.2499C717.835 34.5136 717.778 34.7753 717.658 35.0099L717.569 35.1899C717.423 35.5729 717.19 35.9155 716.888 36.1899C716.581 36.477 716.218 36.6951 715.822 36.8299C715.387 36.9825 714.929 37.0569 714.469 37.0499H711.902V31.7799H711.882ZM719.169 41.1599C718.922 40.7799 718.715 40.4399 718.537 40.1599C718.343 39.8803 718.132 39.6131 717.905 39.3599L717.244 38.7199L716.928 38.4999C717.322 38.3693 717.703 38.1984 718.063 37.9899C718.555 37.7112 718.995 37.3493 719.366 36.9199C719.731 36.4927 720.016 36.0012 720.206 35.4699V35.3399C720.386 34.9386 720.47 34.5002 720.452 34.0599C720.478 33.3922 720.328 32.7296 720.018 32.1399C719.738 31.5569 719.333 31.0445 718.833 30.6399C718.305 30.2148 717.697 29.9019 717.046 29.7199C716.313 29.5185 715.555 29.4209 714.795 29.4299H709.296V44.9999H711.882V39.3599H713.344C713.677 39.3579 714.009 39.4016 714.331 39.4899L715.111 39.8899L715.861 40.6399C716.138 40.9998 716.392 41.3772 716.622 41.7699L718.517 44.8799L718.596 44.9999H721.627L721.381 44.6099L719.169 41.1599Z" fill="#181F37"/>
<path fill-rule="evenodd" clip-rule="evenodd" d="M715.318 47.9999C713.185 47.9881 711.103 47.3367 709.334 46.1278C707.566 44.919 706.191 43.2069 705.382 41.2074C704.573 39.208 704.367 37.0107 704.79 34.8928C705.213 32.7749 706.245 30.8312 707.757 29.3068C709.269 27.7824 711.193 26.7456 713.286 26.3272C715.379 25.9088 717.547 26.1275 719.518 26.9557C721.488 27.7839 723.172 29.1846 724.358 30.981C725.543 32.7775 726.177 34.8892 726.179 37.0499C726.18 38.4925 725.9 39.9211 725.354 41.2535C724.808 42.5859 724.007 43.7957 722.998 44.8135C721.989 45.8312 720.79 46.6367 719.472 47.1835C718.154 47.7304 716.743 48.0079 715.318 47.9999V47.9999ZM715.318 24.2C712.81 24.2256 710.365 25.0027 708.292 26.4333C706.219 27.8638 704.61 29.8839 703.668 32.2389C702.727 34.5939 702.495 37.1784 703.001 39.6669C703.507 42.1553 704.73 44.4363 706.514 46.2224C708.298 48.0085 710.564 49.2198 713.027 49.7037C715.489 50.1876 718.038 49.9224 720.352 48.9416C722.666 47.9607 724.642 46.308 726.03 44.1919C727.419 42.0757 728.158 39.5907 728.154 37.0499C728.146 35.3539 727.807 33.6761 727.157 32.1131C726.507 30.55 725.558 29.1325 724.366 27.9421C723.173 26.7516 721.76 25.8117 720.207 25.1764C718.654 24.541 716.993 24.2228 715.318 24.24V24.2Z" fill="#181F37"/>
<path fill-rule="evenodd" clip-rule="evenodd" d="M145.618 5.34C138.311 5.34 132.358 10.95 132.358 17.84V129.06C132.358 135.95 138.282 141.55 145.618 141.55H263.567C270.873 141.55 276.827 135.95 276.827 129.06V17.84C276.827 10.95 270.903 5.34 263.567 5.34H145.618ZM263.537 146.9H145.618C135.191 146.9 126.68 138.9 126.68 129.06V17.84C126.69 8 135.172 0 145.618 0H263.567C273.973 0 282.504 8 282.504 17.84V129.06C282.445 138.9 273.973 146.9 263.537 146.9Z" fill="#4C70B4"/>
<path fill-rule="evenodd" clip-rule="evenodd" d="M265.087 108.41C250.445 108.41 235.783 108.47 221.14 108.41C217.776 108.361 214.424 107.989 211.128 107.3C209.179 107 207.379 106.062 206.003 104.631C204.627 103.2 203.75 101.352 203.506 99.37C202.809 96.0623 203.13 92.6177 204.424 89.5C205.093 87.8851 206.179 86.4833 207.57 85.4429C208.96 84.4025 210.603 83.7623 212.323 83.59C215.177 83.1921 218.052 82.9784 220.933 82.95C232.268 82.88 243.592 82.95 254.917 82.95H256.813V64H219.047C217.031 63.9884 215.018 63.8715 213.014 63.65C207.85 63.1 205.115 60.81 203.842 55.8C202.568 50.79 203.536 46 207.623 42.21C209.545 40.551 212.011 39.6806 214.535 39.77C219.472 39.65 224.408 39.62 229.394 39.61H267.062V20.84C266.499 20.84 266.025 20.77 265.541 20.77L207.061 20.91C200.947 20.7445 194.942 22.5707 189.93 26.12C184.419 30.0797 180.492 35.9089 178.862 42.55C177.783 46.4533 177.547 50.5462 178.171 54.55H160.784C158.571 54.55 156.449 55.4403 154.884 57.025C153.319 58.6096 152.44 60.7589 152.44 63C152.44 65.2411 153.319 67.3904 154.884 68.9751C156.449 70.5598 158.571 71.45 160.784 71.45H187.165C188.286 71.411 189.403 71.6008 190.449 72.0081C191.496 72.4155 192.45 73.032 193.257 73.8209C194.063 74.6099 194.704 75.5552 195.142 76.6005C195.58 77.6457 195.806 78.7696 195.806 79.905C195.806 81.0405 195.58 82.1643 195.142 83.2096C194.704 84.2548 194.063 85.2001 193.257 85.9891C192.45 86.7781 191.496 87.3946 190.449 87.8019C189.403 88.2092 188.286 88.399 187.165 88.36H148.837C146.672 88.4354 144.621 89.3592 143.117 90.9366C141.612 92.514 140.771 94.6216 140.771 96.815C140.771 99.0084 141.612 101.116 143.117 102.693C144.621 104.271 146.672 105.195 148.837 105.27H178.299C179.05 109.284 180.785 113.042 183.344 116.2C188.084 122.03 194.462 125.2 201.857 126.2C206.439 126.833 211.056 127.167 215.68 127.2C232.347 127.31 249.003 127.2 265.67 127.2C266.104 127.2 266.529 127.2 267.052 127.13V108.41H265.028" fill="#4C70B4"/>
<path fill-rule="evenodd" clip-rule="evenodd" d="M160.941 48.07C162.062 48.1091 163.179 47.9193 164.225 47.5119C165.272 47.1046 166.226 46.4881 167.033 45.6991C167.839 44.9101 168.48 43.9648 168.918 42.9196C169.356 41.8743 169.582 40.7505 169.582 39.615C169.582 38.4796 169.356 37.3557 168.918 36.3105C168.48 35.2652 167.839 34.3199 167.033 33.531C166.226 32.742 165.272 32.1255 164.225 31.7181C163.179 31.3108 162.062 31.121 160.941 31.16H145.401C143.236 31.2354 141.185 32.1592 139.681 33.7366C138.176 35.314 137.335 37.4217 137.335 39.615C137.335 41.8084 138.176 43.916 139.681 45.4934C141.185 47.0708 143.236 47.9946 145.401 48.07H160.941Z" fill="#4C70B4"/>
<path d="M765.219 67.16H847.214C866.056 67.2286 884.106 74.8432 897.425 88.3418C910.743 101.84 918.249 120.127 918.304 139.21V396.59C918.236 415.665 910.724 433.938 897.407 447.426C884.09 460.914 866.048 468.522 847.214 468.59H85.8042C66.971 468.522 48.9284 460.914 35.6113 447.426C22.2941 433.938 14.7827 415.665 14.715 396.59V139.21C14.7697 120.127 22.2754 101.84 35.5939 88.3418C48.9125 74.8432 66.9624 67.2286 85.8042 67.16" stroke="#4C70B4" stroke-width="24.74" stroke-miterlimit="10" stroke-linecap="round"/>
<path d="M395.833 363.788C395.833 369.697 391.196 374.424 385.399 374.424H125.701C119.905 374.424 115.267 369.697 115.267 363.788V204.636C115.267 198.727 119.905 194 125.701 194H385.399C391.196 194 395.833 198.727 395.833 204.636V363.788V363.788Z" fill="#1A1F71"/>
<path d="M221.929 246.394L190.626 322.424H170.144L154.685 261.758C153.913 258.212 152.753 256.636 150.048 255.061C145.411 252.697 137.681 249.939 131.112 248.758L131.498 246.394H164.347C168.598 246.394 172.462 249.152 173.235 254.273L181.351 298.394L201.446 246.788H221.929V246.394ZM301.925 297.606C301.925 277.515 274.873 276.333 274.873 267.667C274.873 264.909 277.578 262.152 282.988 261.364C285.694 260.97 293.423 260.576 301.925 264.909L305.403 248.758C300.765 247.182 294.969 245.212 287.239 245.212C268.303 245.212 254.777 255.455 254.777 270.424C254.777 281.455 264.439 287.364 271.781 290.909C279.124 294.455 281.829 296.818 281.829 300.364C281.829 305.485 276.032 307.849 270.235 307.849C260.574 307.849 254.777 305.091 250.526 303.121L247.048 319.667C251.686 321.636 259.801 323.606 268.303 323.606C288.399 323.606 301.538 313.364 301.925 297.606ZM352.164 322.424H369.941L354.482 246.394H337.865C334 246.394 330.909 248.758 329.749 251.909L300.765 322.424H320.861L324.726 311H349.459L352.164 322.424ZM330.522 295.636L340.57 267.273L346.367 295.636H330.522ZM249.367 246.394L233.522 322.424H214.199L230.044 246.394H249.367Z" fill="white"/>
<path d="M712.682 213.243H635.431V354.759H712.682V213.243Z" fill="#FF5F00"/>
<path d="M640.335 284C640.323 270.371 643.353 256.918 649.195 244.659C655.037 232.4 663.538 221.657 674.056 213.242C661.032 202.806 645.39 196.316 628.919 194.514C612.448 192.712 595.811 195.67 580.912 203.051C566.012 210.431 553.449 221.937 544.661 236.251C535.872 250.566 531.211 267.113 531.211 284C531.211 300.887 535.872 317.434 544.661 331.749C553.449 346.063 566.012 357.569 580.912 364.949C595.811 372.33 612.448 375.288 628.919 373.486C645.39 371.684 661.032 365.194 674.056 354.758C663.538 346.343 655.037 335.6 649.195 323.341C643.353 311.082 640.323 297.629 640.335 284V284Z" fill="#EB001B"/>
<path d="M816.897 284C816.897 300.887 812.237 317.434 803.449 331.748C794.66 346.063 782.098 357.568 767.199 364.949C752.299 372.33 735.663 375.288 719.192 373.486C702.721 371.684 687.08 365.194 674.057 354.758C684.564 346.335 693.059 335.59 698.9 323.333C704.741 311.076 707.776 297.627 707.776 284C707.776 270.373 704.741 256.924 698.9 244.667C693.059 232.41 684.564 221.665 674.057 213.242C687.08 202.806 702.721 196.316 719.192 194.514C735.663 192.712 752.299 195.67 767.199 203.051C782.098 210.432 794.66 221.937 803.449 236.252C812.237 250.566 816.897 267.113 816.897 284V284Z" fill="#F79E1B"/>
<path d="M808.471 339.769V336.872H809.617V336.282H806.699V336.872H807.845V339.769H808.471ZM814.138 339.769V336.276H813.243L812.214 338.679L811.185 336.276H810.29V339.769H810.921V337.134L811.886 339.406H812.541L813.506 337.128V339.769H814.138Z" fill="#F79E1B"/>
</svg>
