<svg xmlns="http://www.w3.org/2000/svg" viewBox="0 0 1967.89 441.35"><defs><style>.cls-1{fill:#181f37;}.cls-1,.cls-14{fill-rule:evenodd;}.cls-2{fill:#4d7bf3;}.cls-14,.cls-3{fill:#fff;}.cls-4{fill:#2aa63c;}.cls-5{fill:#28aae1;}.cls-6{fill:#f7b600;}.cls-7{fill:#1a1f71;}.cls-8{fill:#ff5f00;}.cls-9{fill:#eb001b;}.cls-10{fill:#f79e1b;}.cls-11{fill:#ed171f;}.cls-12{fill:#082f67;}.cls-13{fill:#006a65;}.cls-15{fill:#ff321e;}</style></defs><g id="Layer_2" data-name="Layer 2"><g id="Layer_1-2" data-name="Layer 1"><g id="Layer_2-2" data-name="Layer 2-2"><g id="Layer_1-2-2" data-name="Layer 1-2-2"><g id="Group"><path id="Fill-4" class="cls-1" d="M170.09,122.06V68.6L128.69,4.91h37l15.93,30.22.49.92a36.52,36.52,0,0,1,3.47,9,31.32,31.32,0,0,1,3.48-8.72c.32-.59.55-1,.65-1.2L205.58,4.94h37.11L201.22,68.63v53.46H170.09"/><path id="Fill-5" class="cls-1" d="M283.79,71.84a17.32,17.32,0,0,0-5.3-11.06,15.61,15.61,0,0,0-11-4.15,16,16,0,0,0-11.19,3.79c-2.79,2.54-4.61,6.35-5.52,11.42ZM312.17,88h-62.1c0,6.23,1.67,11,4.85,14.39s7.69,5.08,13.5,5.08a22.72,22.72,0,0,0,11-2.43,16.1,16.1,0,0,0,6.83-7.19L308,106.46a28.1,28.1,0,0,1-13.74,14.39q-9.87,5-24.17,5-21.33,0-34.24-11.72T222.93,83.23q0-18.87,12.88-31.35t32.62-12.49q20.29,0,32,12.63t11.72,34.52Z"/><path id="Fill-6" class="cls-1" d="M388.29,83.75q0-9.45-5.06-14.88t-13.8-5.45q-8.73,0-13.75,5.45t-5,14.88q0,9.51,5,14.92c3.33,3.62,7.92,5.42,13.82,5.42s10.42-1.82,13.8-5.44S388.32,90.05,388.29,83.75ZM413.85,124H387.33V110.88A39.19,39.19,0,0,1,375,123.08a29.5,29.5,0,0,1-15.28,4q-17.26,0-27.41-11.76T322.07,83.69q0-19.31,10.07-31.17t26.48-11.88q10.36,0,16.86,3.67a32.71,32.71,0,0,1,11.6,12.33c-.31-1.93-.56-4.09-.73-6.52s-.23-5.06-.23-7.88V0h27.61V124Z"/><path id="Fill-7" class="cls-1" d="M456.69,82.47q0,9.44,5,14.88t13.7,5.44q8.72,0,13.8-5.44t5.05-14.88q0-9.43-5-14.88t-13.8-5.44q-8.75,0-13.7,5.44T456.69,82.47Zm-25.5,75.82V41.73h26.55V55.35a38.8,38.8,0,0,1,12.33-12.16,29.66,29.66,0,0,1,15.27-4q17.27,0,27.41,11.65T522.94,82.4q0,19.3-10.07,31.28t-26.48,12q-10.36,0-16.85-3.76a33.31,33.31,0,0,1-11.61-12.4q.45,2.85.62,5.75c.12,2.3.2,5.12.2,8.49v34.42H431.19Z"/><path id="Fill-8" class="cls-1" d="M606.62,82.23q0-9.47-5.11-15t-13.88-5.53q-8.82,0-13.88,5.53t-5.06,15q0,9.45,5.09,14.88a18,18,0,0,0,13.8,5.44q8.8,0,13.9-5.44C604.88,93.44,606.58,88.47,606.62,82.23Zm25.3-40.3v80.83H605.47V109.57a37.76,37.76,0,0,1-12.72,12.32,33.85,33.85,0,0,1-16.62,3.91Q559.8,125.8,550,114t-9.79-31.66q0-19.77,10.24-31.41T578,39.29a30.82,30.82,0,0,1,15.83,3.88,32.57,32.57,0,0,1,11.44,12V41.8Z"/><path id="Fill-9" class="cls-1" d="M649.35,160.68l22.93-48L639.4,44.18h32l11.4,29.21q1.44,3.67,2.42,6.85a54,54,0,0,1,1.44,5.87,47.43,47.43,0,0,1,1.44-6c.6-2.05,1.44-4.31,2.37-6.76l11.51-29.21h30.8l-51.3,116.56H649.35"/></g></g></g><path class="cls-2" d="M1889.23,441.35H78.7A79.19,79.19,0,0,1,0,362.68V174.38A79.17,79.17,0,0,1,78.68,95.63a6.7,6.7,0,0,1,0,13.4A65.73,65.73,0,0,0,13.4,174.4V362.65A65.71,65.71,0,0,0,78.72,428H1889.19a65.71,65.71,0,0,0,65.3-65.32V174.38A65.71,65.71,0,0,0,1889.17,109H799a6.7,6.7,0,1,1,0-13.4H1889.19a79.17,79.17,0,0,1,78.7,78.73V362.65a79.19,79.19,0,0,1-78.68,78.7Z"/><path class="cls-3" d="M1712.15,274.08a11.28,11.28,0,0,1-6.12-1.83l-24.17-17.16a3.75,3.75,0,0,0-6,3,4,4,0,0,0,.36,1.59l20.47,44.9.49,1.08a7.49,7.49,0,0,0,9.91,3.07l.82-.48,129.47-74.75-7.8-10.6L1716,273.45A11.23,11.23,0,0,1,1712.15,274.08Z"/><path class="cls-4" d="M1837.39,233.43l-129.47,74.74-.82.48a7.49,7.49,0,0,1-9.91-3.07l-.49-1.08-20.47-44.91a3.88,3.88,0,0,1-.36-1.58,3.75,3.75,0,0,1,3.74-3.75,3.8,3.8,0,0,1,2.25.75l24.16,17.2a11.14,11.14,0,0,0,10,1.13l113.59-50.55c-20.41-24-53.88-39.68-91.85-39.68-62.09,0-112.43,41.95-112.43,93.7,0,28.23,15.14,53.65,38.84,70.82a7.46,7.46,0,0,1,3.15,6.13,9.11,9.11,0,0,1-.39,2.38c-1.9,7.07-4.93,18.37-5.1,18.91a11.13,11.13,0,0,0-.61,2.73,3.77,3.77,0,0,0,3.75,3.76,4.18,4.18,0,0,0,2.16-.71l24.62-14.2a11.68,11.68,0,0,1,6-1.74,11.25,11.25,0,0,1,3.31.5,133.07,133.07,0,0,0,36.74,5.1c62.1,0,112.44-41.94,112.44-93.69A81.12,81.12,0,0,0,1837.39,233.43Z"/><path class="cls-5" d="M1523.07,183.11H1387.36a31.88,31.88,0,0,0-32,31.76V349.75a31.88,31.88,0,0,0,32,31.79h135.73a31.87,31.87,0,0,0,32-31.75V214.9a31.88,31.88,0,0,0-32-31.79Z"/><path class="cls-3" d="M1519.72,307.7c-8-2.65-18.7-6.72-30.64-11a160.13,160.13,0,0,0,16.66-41.83h-39.32v-14.1h48.21v-7.86h-48.21v-23.5h-19.71a3.35,3.35,0,0,0-3.45,3.23v20.27h-48.73v7.86h48.76v14.09H1403v7.86h78.08A137.76,137.76,0,0,1,1469.86,290c-25.33-8.31-52.36-15-69.35-10.89-10.86,2.66-17.85,7.4-22,12.37C1359.64,314.32,1373.17,349,1413,349c23.56,0,46.25-13,63.83-34.56,26.24,12.54,78.17,34.05,78.17,34.05V317.79S1548.51,317.27,1519.72,307.7Zm-110.43,28c-31.06,0-40.25-24.31-24.9-37.62,5.12-4.49,14.49-6.69,19.47-7.18,18.46-1.81,35.53,5.19,55.69,15-14.13,18.33-32.17,29.8-50.22,29.8Z"/><rect class="cls-3" x="117.7" y="197.28" width="267.74" height="170.08"/><rect class="cls-6" x="122.16" y="339.73" width="258.82" height="23.2"/><rect class="cls-7" x="122.16" y="201.74" width="258.82" height="23.2"/><path class="cls-7" d="M225.76,250.51,199,314.3H181.59l-13.16-50.91c-.8-3.13-1.49-4.28-3.92-5.6-4-2.15-10.52-4.17-16.28-5.42l.39-1.86H176.7a7.69,7.69,0,0,1,7.61,6.5l6.95,36.91,17.17-43.41Zm68.34,43c.07-16.83-23.27-17.76-23.11-25.28.05-2.29,2.23-4.72,7-5.35a31.19,31.19,0,0,1,16.28,2.86l2.89-13.53a44.38,44.38,0,0,0-15.43-2.82c-16.32,0-27.79,8.66-27.88,21.08-.11,9.18,8.19,14.3,14.43,17.36,6.44,3.13,8.6,5.13,8.56,7.93,0,4.28-5.13,6.17-9.86,6.24-8.31.13-13.12-2.24-17-4l-3,14c3.87,1.77,11,3.31,18.35,3.39,17.34,0,28.68-8.57,28.73-21.83m43.08,20.83h15.26l-13.33-63.79H325a7.52,7.52,0,0,0-7,4.68L293.24,314.3h17.33l3.44-9.53h21.17Zm-18.42-22.6,8.69-23.95,5,23.95Zm-69.42-41.19L235.7,314.3H219.2l13.64-63.79Z"/><path d="M495.45,366.4V355.14c0-4.24-2.7-7.1-7.05-7.13a6.94,6.94,0,0,0-6.31,3.19,6.59,6.59,0,0,0-5.93-3.19,5.93,5.93,0,0,0-5.25,2.66v-2.21H467V366.4H471v-9.95c0-3.11,1.72-4.77,4.39-4.77s3.9,1.69,3.9,4.73v10h3.94v-9.95c0-3.11,1.8-4.77,4.39-4.77s3.94,1.69,3.94,4.73v10Zm58.33-17.94H547.4V343h-3.94v5.45h-3.64V352h3.64v8.18c0,4.17,1.61,6.65,6.23,6.65a9.2,9.2,0,0,0,4.88-1.39l-1.13-3.34a7.25,7.25,0,0,1-3.45,1c-2,0-2.59-1.2-2.59-3V352h6.38Zm33.29-.45a5.31,5.31,0,0,0-4.73,2.62v-2.17h-3.86V366.4h3.9V356.34c0-3,1.28-4.62,3.83-4.62a6.33,6.33,0,0,1,2.44.45l1.2-3.68a8.52,8.52,0,0,0-2.78-.48Zm-50.33,1.87a13.42,13.42,0,0,0-7.32-1.87c-4.54,0-7.47,2.17-7.47,5.74,0,2.93,2.18,4.73,6.2,5.29l1.83.26c2.14.3,3.16.87,3.16,1.88,0,1.39-1.43,2.18-4.09,2.18a9.56,9.56,0,0,1-6-1.88l-1.84,3a12.92,12.92,0,0,0,7.77,2.33c5.18,0,8.18-2.44,8.18-5.86,0-3.15-2.36-4.8-6.27-5.37l-1.84-.26c-1.69-.22-3-.56-3-1.76s1.28-2.1,3.42-2.1a11.63,11.63,0,0,1,5.59,1.53ZM641.31,348a5.29,5.29,0,0,0-4.73,2.62v-2.17h-3.87V366.4h3.9V356.34c0-3,1.28-4.62,3.83-4.62a6.3,6.3,0,0,1,2.44.45l1.2-3.68a8.5,8.5,0,0,0-2.77-.48ZM591,357.43c0,5.44,3.79,9.42,9.57,9.42a9.39,9.39,0,0,0,6.46-2.14l-1.88-3.16a7.82,7.82,0,0,1-4.69,1.62,5.36,5.36,0,0,1-5.4-5.74c0-3.46,2.29-5.71,5.4-5.75a7.89,7.89,0,0,1,4.69,1.62l1.88-3.16a9.43,9.43,0,0,0-6.46-2.13c-5.78,0-9.57,4-9.57,9.42Zm36.56,0v-9h-3.9v2.17A6.82,6.82,0,0,0,618,348c-5,0-9,3.94-9,9.42s3.94,9.42,9,9.42a6.83,6.83,0,0,0,5.67-2.63v2.18h3.9Zm-14.53,0c0-3.16,2.07-5.75,5.45-5.75,3.22,0,5.4,2.48,5.4,5.75s-2.18,5.74-5.4,5.74c-3.38,0-5.45-2.59-5.45-5.74ZM565.94,348c-5.25,0-8.93,3.82-8.93,9.42s3.83,9.42,9.19,9.42a10.91,10.91,0,0,0,7.36-2.52l-1.91-2.89a8.59,8.59,0,0,1-5.22,1.88c-2.52,0-4.81-1.16-5.37-4.39h13.33c0-.49.07-1,.07-1.5,0-5.6-3.49-9.42-8.52-9.42Zm-.07,3.49c2.51,0,4.12,1.57,4.54,4.35H561.1c.41-2.59,2-4.35,4.77-4.35Zm97.92,5.93V341.25h-3.91v9.38a6.79,6.79,0,0,0-5.66-2.62c-5,0-9,3.94-9,9.42s3.94,9.42,9,9.42a6.8,6.8,0,0,0,5.66-2.63v2.18h3.91Zm-14.53,0c0-3.16,2.07-5.75,5.45-5.75,3.22,0,5.4,2.48,5.4,5.75s-2.18,5.74-5.4,5.74c-3.38,0-5.45-2.59-5.45-5.74Zm-131.81,0v-9h-3.9v2.17a6.82,6.82,0,0,0-5.67-2.62c-5,0-9,3.94-9,9.42s3.94,9.42,9,9.42a6.83,6.83,0,0,0,5.67-2.63v2.18h3.9Zm-14.53,0c0-3.16,2.07-5.75,5.45-5.75,3.22,0,5.4,2.48,5.4,5.75s-2.18,5.74-5.4,5.74C505,363.17,502.92,360.58,502.92,357.43ZM670.3,363.8a1.65,1.65,0,0,1,.7.14,1.88,1.88,0,0,1,.58.38,1.92,1.92,0,0,1,.39.57,1.77,1.77,0,0,1,.14.69,1.81,1.81,0,0,1-.14.69,2.06,2.06,0,0,1-.39.57,1.88,1.88,0,0,1-.58.38,1.65,1.65,0,0,1-.7.14,1.71,1.71,0,0,1-.72-.14,1.67,1.67,0,0,1-.58-.38,1.7,1.7,0,0,1-.39-.57,1.81,1.81,0,0,1-.14-.69,1.77,1.77,0,0,1,.14-.69,1.61,1.61,0,0,1,.39-.57,1.67,1.67,0,0,1,.58-.38A1.71,1.71,0,0,1,670.3,363.8Zm0,3.17a1.37,1.37,0,0,0,1-.41,1.21,1.21,0,0,0,.29-.44,1.38,1.38,0,0,0,0-1.08,1.21,1.21,0,0,0-.29-.44,1.37,1.37,0,0,0-1-.41,1.42,1.42,0,0,0-.55.11,1.37,1.37,0,0,0-.45.3,1.35,1.35,0,0,0-.29.44,1.38,1.38,0,0,0,0,1.08,1.35,1.35,0,0,0,.29.44,1.37,1.37,0,0,0,.45.3A1.42,1.42,0,0,0,670.3,367Zm.1-2.23a.72.72,0,0,1,.49.15.44.44,0,0,1,.17.38.45.45,0,0,1-.13.34.67.67,0,0,1-.39.17l.54.62h-.43l-.5-.62H670v.62h-.35v-1.66Zm-.41.32v.44h.41a.38.38,0,0,0,.22-.06.19.19,0,0,0,.08-.17.19.19,0,0,0-.08-.16.38.38,0,0,0-.22-.05Z"/><rect class="cls-8" x="535.44" y="211.73" width="59.12" height="106.24"/><path class="cls-9" d="M539.2,264.85A67.46,67.46,0,0,1,565,211.73,67.57,67.57,0,1,0,565,318,67.44,67.44,0,0,1,539.2,264.85Z"/><path class="cls-10" d="M674.32,264.85A67.56,67.56,0,0,1,565,318a67.57,67.57,0,0,0,0-106.24,67.56,67.56,0,0,1,109.32,53.12Zm-6.44,41.87v-2.17h.87v-.45h-2.23v.45h.88v2.17Zm4.33,0V304.1h-.68l-.79,1.8-.79-1.8h-.68v2.62h.48v-2l.74,1.71h.5l.74-1.71v2Z"/><g id="Layer_2-2-2" data-name="Layer 2"><g id="Layer_1-2-2-2" data-name="Layer 1-2"><path class="cls-11" d="M797.79,197.28h67.88c9.47,0,15.36,7.73,13.16,17.24l-31.6,135.64c-2.23,9.48-11.71,17.2-21.19,17.2H758.18c-9.47,0-15.36-7.72-13.16-17.2l31.62-135.64c2.21-9.51,11.68-17.24,21.15-17.24"/><path class="cls-12" d="M860,197.28h78.05c9.47,0,5.2,7.73,3,17.24L909.45,350.16c-2.21,9.48-1.54,17.2-11,17.2h-78c-9.49,0-15.36-7.72-13.14-17.2l31.59-135.64c2.23-9.51,11.7-17.24,21.17-17.24"/><path class="cls-13" d="M935,197.28h67.87c9.48,0,15.36,7.73,13.15,17.24L984.39,350.16c-2.22,9.48-11.69,17.2-21.2,17.2H895.36c-9.5,0-15.38-7.72-13.16-17.2l31.59-135.64C916,205,925.48,197.28,935,197.28"/><path class="cls-14" d="M923.64,324.89H930l1.85-6.15h-6.4Zm5.12-17-2.2,7.28a31.86,31.86,0,0,1,3.74-1.64c1.31-.3,3.3-.55,3.3-.55l1.54-5.09Zm3.18-10.47-2.13,7a35.06,35.06,0,0,1,3.68-1.44,24.5,24.5,0,0,1,3.3-.47l1.53-5.09Zm14.15,0-8.27,27.37H940l-1.72,5.63H936.1l-.51,1.75h-7.88l.51-1.75h-16l1.6-5.2h1.62l8.39-27.78,1.68-5.63h8l-.84,2.84a14.8,14.8,0,0,1,4.16-2.05c2.05-.54,13.67-.73,13.67-.73l-1.72,5.57Z"/><path class="cls-3" d="M949.63,291.87h8.57l.1,3.2c0,.51.41.78,1.4.78h1.74l-1.59,5.28h-4.61c-4,.29-5.53-1.43-5.44-3.37Z"/><path class="cls-3" d="M950.76,316.89h-8.19l1.4-4.71h9.34l1.33-4.28h-9.21l1.58-5.29h25.68l-1.61,5.29h-8.61l-1.34,4.28h8.64l-1.42,4.71H959l-1.65,2h3.78l.92,5.92a3.27,3.27,0,0,0,.3,1.22,4.56,4.56,0,0,0,2,.32h1.15l-1.74,5.76h-2.91c-.45,0-1.12,0-2.05-.09a4.84,4.84,0,0,1-2.09-.87,2.79,2.79,0,0,1-1.53-2l-.92-5.91L950,329a7.23,7.23,0,0,1-6.25,3.23h-5.95l1.53-5.12h2.27a3.51,3.51,0,0,0,1.67-.48,2.53,2.53,0,0,0,1.26-1Z"/><path class="cls-3" d="M861.3,304h21.62l-1.59,5.17h-8.65l-1.35,4.38h8.87l-1.62,5.34h-8.86l-2.14,7.16c-.26.8,2.09.91,2.94.91l4.44-.61-1.78,5.89h-10a9.12,9.12,0,0,1-2.26-.31,2.31,2.31,0,0,1-1.59-1.16,2.28,2.28,0,0,1-.54-2.3l2.86-9.48h-4.91l1.63-5.43h4.94l1.31-4.38h-4.92Z"/><path class="cls-3" d="M875.86,294.76h8.87l-1.62,5.4H871l-1.31,1.14c-.56.55-.76.32-1.49.72a8.82,8.82,0,0,1-4,1H860.3l1.57-5.19H863a4.27,4.27,0,0,0,2-.3,4.71,4.71,0,0,0,1.31-1.69l2.23-4.05h8.82Z"/><path class="cls-14" d="M892.88,303.63a14,14,0,0,1,6.57-2.93c.94-.18,6.83-.12,6.83-.12l.9-3H894.69Zm11.71,2.26H892.2l-.74,2.5h10.71a10,10,0,0,1,1.64,0Zm-16.05-14h7.56l-1.1,3.8a21.06,21.06,0,0,1,4.06-2.56,33.87,33.87,0,0,1,5.43-1.19l12.23-.06-4.17,13.88a15.58,15.58,0,0,1-2,4.6,5.19,5.19,0,0,1-2.07,1.9,7.92,7.92,0,0,1-2.83,1c-.82.06-2.05.09-3.77.1H890.05l-3.32,11c-.31,1.08-.47,1.59-.26,1.89a1.35,1.35,0,0,0,1.13.56l5.19-.51-1.77,6h-5.8c-1.85,0-3.2,0-4.14-.11a4.47,4.47,0,0,1-2.46-.49c-.61-.48-1.37-1.1-1.35-1.74A19.62,19.62,0,0,1,878,327Z"/><path class="cls-3" d="M910.57,314.27l-.69,3.33a4.64,4.64,0,0,1-1.35,2.51,5.5,5.5,0,0,1-4.06,1.42l-4.19.17,0,3.77c-.06,1.08.24,1,.41,1.14a1.29,1.29,0,0,0,.55.33l1.32-.06,4-.24-1.65,5.51h-4.61c-3.22,0-5.63-.07-6.4-.7-.77-.48-.87-1.11-.85-2.16l.29-14.69h7.36l-.09,3h1.77a2.6,2.6,0,0,0,1.26-.21,1.64,1.64,0,0,0,.51-.78l.72-2.34Z"/><path class="cls-3" d="M805.84,240.62c-.26,1.18-5,22.91-5,22.93-1,4.39-1.74,7.54-4.25,9.55a7.59,7.59,0,0,1-5,1.74c-3.07,0-4.91-1.53-5.21-4.45l-.06-1s.94-5.9.95-5.93,4.94-19.8,5.83-22.41c0-.15,0-.22.07-.3-9.62.09-11.33,0-11.44-.14-.06.2-.31,1.43-.31,1.43l-5.06,22.32-.43,1.9-.83,6.18a9.14,9.14,0,0,0,1.08,4.61c2.3,4,8.87,4.61,12.57,4.61,4.78,0,9.26-1,12.29-2.87,5.26-3.11,6.65-8,7.87-12.29l.57-2.21s5.11-20.56,6-23.24a1.11,1.11,0,0,1,.08-.3c-7,.08-9,0-9.69-.14"/><path class="cls-3" d="M834,281.44c-3.41-.05-4.6-.05-8.6.16l-.15-.3c.35-1.53.72-3,1.06-4.55l.49-2.08a78.3,78.3,0,0,0,1.53-8.12c.07-.69.3-2.42-1.67-2.42a6.78,6.78,0,0,0-2.56.8c-.48,1.73-1.45,6.55-1.9,8.76-1,4.63-1.06,5.16-1.5,7.45l-.29.3c-3.52-.05-4.73-.05-8.78.16l-.19-.34c.68-2.76,1.35-5.54,2-8.29A120.4,120.4,0,0,0,816,258.85l.31-.22c4-.55,4.91-.66,9.18-1.54l.36.41-.64,2.37c.72-.42,1.4-.86,2.14-1.24a13.43,13.43,0,0,1,5.5-1.28c1.86,0,3.91.51,4.76,2.69.82,1.93.28,4.31-.79,9l-.55,2.37c-1.1,5.22-1.27,6.15-1.88,9.73Z"/><path class="cls-3" d="M847.87,281.44c-2,0-3.37-.05-4.67,0s-2.56.08-4.45.17l-.11-.17-.13-.17a30.67,30.67,0,0,1,1.07-3.37,22,22,0,0,0,1-3.4c.6-2.62,1-4.44,1.23-6s.43-2.87.63-4.4l.16-.11.17-.15,4.67-.68c1.32-.21,2.68-.46,4.8-.86l.09.19.05.18c-.39,1.62-.79,3.24-1.18,4.88s-.77,3.24-1.13,4.87c-.77,3.44-1.07,4.72-1.26,5.63s-.23,1.35-.51,3.14l-.19.16Z"/><path class="cls-3" d="M869.61,269.32c-.19.88-1,4.17-2,5.57a3.29,3.29,0,0,1-2.56,1.65c-.27,0-1.95,0-2-2.51a16.43,16.43,0,0,1,.55-3.87c.9-4,2-7.31,4.66-7.31,2.13,0,2.27,2.48,1.35,6.47m8.92.38c1.2-5.25.28-7.71-.89-9.21-1.79-2.27-4.92-3-8.19-3-2,0-6.62.19-10.27,3.58-2.61,2.42-3.82,5.71-4.56,8.85s-1.58,9,3.74,11.16a15.9,15.9,0,0,0,5.53.89,14.48,14.48,0,0,0,10.89-4.26,19.18,19.18,0,0,0,3.74-8"/><path class="cls-3" d="M962,281.8c-4.1,0-5.3,0-9.11.12l-.25-.31c1-3.91,2.08-7.82,3-11.77a90.37,90.37,0,0,0,1.87-10.32l.32-.26c4.09-.59,5.21-.74,9.48-1.53l.13.35c-.78,3.21-1.56,6.44-2.3,9.67-1.58,6.78-2.15,10.24-2.75,13.76Z"/><path class="cls-3" d="M955.78,269.77c-.2.84-1,4.17-2,5.55a4.68,4.68,0,0,1-3.31,1.61c-.27,0-1.94,0-2-2.48a17,17,0,0,1,.57-3.88c.89-3.89,2-7.21,4.66-7.21,2.13,0,3,2.42,2.12,6.41m8.15.39c1.19-5.23-3.62-.46-4.39-2.19-1.19-2.68-.44-8.13-5.19-10-1.82-.71-6.11.2-9.76,3.55a16.76,16.76,0,0,0-4.55,8.8c-.72,3.15-1.59,8.95,3.71,11a10.72,10.72,0,0,0,4.75.85c5.32-.29,9.38-8.32,12.37-11.5,2.32-2.52,2.72.95,3.07-.59"/><path class="cls-3" d="M901.84,281.44c-3.42-.05-4.58-.05-8.61.16l-.14-.3c.34-1.53.73-3,1.08-4.55l.48-2.08c.74-3.23,1.46-7,1.54-8.12.07-.69.29-2.42-1.66-2.42a6.78,6.78,0,0,0-2.56.8c-.47,1.73-1.45,6.55-1.92,8.76-1,4.63-1,5.16-1.49,7.45l-.29.3c-3.51-.05-4.72-.05-8.76.16l-.18-.34c.67-2.76,1.33-5.54,2-8.29a120.4,120.4,0,0,0,2.56-14.12l.31-.22c4-.55,4.91-.66,9.18-1.54l.34.41-.62,2.37c.7-.42,1.42-.86,2.14-1.24a13.5,13.5,0,0,1,5.48-1.28c1.86,0,3.91.51,4.8,2.69.79,1.93.25,4.31-.82,9l-.54,2.37c-1.12,5.22-1.29,6.15-1.88,9.73Z"/><path class="cls-3" d="M931.42,240.58l-2.84,0c-7.38.08-10.34,0-11.55-.1-.12.51-.31,1.5-.31,1.5l-2.64,12.28-6.61,27.27c6.43-.07,9.07-.07,10.18,0l1.75-8.49s1.29-5.35,1.36-5.54a3,3,0,0,1,.81-.77h.6c5.55,0,11.83,0,16.74-3.62a17.85,17.85,0,0,0,6.65-10.59,15.35,15.35,0,0,0,.46-3.69,7.69,7.69,0,0,0-1.33-4.74c-2.5-3.51-7.49-3.58-13.26-3.58m3.69,12.76a9,9,0,0,1-4.6,6.11c-1.88.94-4.17,1-6.53,1h-1.54l.12-.61,2.81-12.19.07-.62.06-.51,1.12.12,5.93.51c2.29.87,3.23,3.17,2.56,6.14"/><path class="cls-3" d="M995.69,257.68l-.33-.36c-4.2.84-5,1-8.84,1.5l-.3.28,0,.18v-.06c-2.88,6.66-2.79,5.22-5.15,10.46V269l-.63-11.35-.36-.36c-4.41.84-4.52,1-8.6,1.5l-.33.28c0,.14,0,.3-.06.45l0,.06a57.86,57.86,0,0,1,.9,6.14c.24,2,.55,4.06.79,6,.41,3.33.63,5,1.11,10.06-2.74,4.55-3.41,6.27-6,10.26l.15.37c4-.15,4.9-.15,7.84-.15l.65-.73c2.23-4.8,19.19-33.9,19.19-33.9"/><path class="cls-3" d="M851.62,260.51c2.25-1.57,2.56-3.74.63-4.88s-5.29-.77-7.57.8-2.55,3.73-.62,4.86,5.28.79,7.56-.78"/><path class="cls-3" d="M976.21,292l-3.32,5.68a6.47,6.47,0,0,1-6.09,3.4l-5.27-.08,1.53-5.12h1a2.78,2.78,0,0,0,1.24-.19,1.38,1.38,0,0,0,.67-.59l2-3.1Z"/></g></g><g id="Layer_2-3" data-name="Layer 2"><g id="Layer_1-2-3" data-name="Layer 1-2"><path class="cls-3" d="M1279.5,301.66h0a211.4,211.4,0,0,1-187.2,0h0v35.87a38.39,38.39,0,0,0,38.4,38.39h110.41a38.39,38.39,0,0,0,38.39-38.39Z"/><path class="cls-15" d="M1241.11,183.11H1130.7a44,44,0,0,0-44,44h0V337.53a44,44,0,0,0,44,44h110.42a44,44,0,0,0,44-44h0V227.12a44,44,0,0,0-44-44Zm0,192.81H1130.7a38.17,38.17,0,0,1-19.92-5.56c-.52-.32-1-.65-1.55-1a38.42,38.42,0,0,1-16.93-31.84V301.66h0a211.4,211.4,0,0,0,187.2,0h0v35.87a38.36,38.36,0,0,1-38.39,38.39Z"/><path class="cls-3" d="M1139.88,295.44c-3.39,0-5.5-1.95-4.71-5.38l2.81-12.29h3.39l-2.81,12.32a1.86,1.86,0,0,0,2,2.45,3.15,3.15,0,0,0,3.11-2.45l2.82-12.32h3.39l-2.81,12.29A7,7,0,0,1,1139.88,295.44Z"/><path class="cls-3" d="M1156.66,295.2l1.95-8.55c.3-1.3-.31-2.1-1.79-2.1a6.54,6.54,0,0,0-2,.31l-2.39,10.34h-3.28l2.83-12.34a15.38,15.38,0,0,1,5.37-.94c3.85,0,5.27,1.59,4.63,4.39l-2,8.89Z"/><path class="cls-3" d="M1163.12,295.2l3-13h3.28l-3,13Zm5.08-15.06a1.4,1.4,0,0,1-1.52-1.29,1.42,1.42,0,0,1,0-.5,2.39,2.39,0,0,1,2.27-1.75,1.4,1.4,0,0,1,1.53,1.26,1.63,1.63,0,0,1,0,.49,2.44,2.44,0,0,1-2.27,1.79Z"/><path class="cls-3" d="M1174.93,295.48c-3.78,0-5.2-2.91-4.31-6.79s3.63-6.77,7.41-6.77,5.21,2.89,4.33,6.77S1178.71,295.48,1174.93,295.48Zm2.52-11c-1.73,0-3,1.57-3.58,4.18s-.09,4.15,1.65,4.15,3-1.55,3.55-4.15S1179.17,284.5,1177.45,284.5Z"/><path class="cls-3" d="M1191.05,295.2l2-8.55c.3-1.3-.31-2.1-1.79-2.1a6.6,6.6,0,0,0-2,.31l-2.39,10.34h-3.26l2.82-12.34a15.39,15.39,0,0,1,5.38-.94c3.85,0,5.26,1.59,4.63,4.39l-2,8.89Z"/><path class="cls-3" d="M1204.07,288.55a10.41,10.41,0,0,1-1.58-.12l-1.55,6.77h-3.32l3.84-16.79a14.52,14.52,0,0,1,5.25-1c4.33,0,6.21,2.19,5.43,5.59C1211.42,286.21,1208.57,288.55,1204.07,288.55Zm2.09-8.48a6.35,6.35,0,0,0-1.79.26l-1.27,5.52a6.76,6.76,0,0,0,1.42.12c2.38,0,3.91-1.11,4.33-2.94.43-2-.51-3-2.69-3Z"/><path class="cls-3" d="M1216.64,295.48c-3.9,0-5.5-1.54-4.89-4.18.81-3.54,4.65-4.24,8.63-4.46l.14-.67c.32-1.35-.51-1.85-2-1.85a12.13,12.13,0,0,0-3.81.77l-.31-2.22a15.14,15.14,0,0,1,5-.94c3.32,0,4.87,1.3,4.11,4.63l-1.83,8A13.33,13.33,0,0,1,1216.64,295.48Zm3.25-6.56c-2.43.12-4.6.34-5,2.28-.28,1.23.52,1.93,2.22,1.93a6.23,6.23,0,0,0,1.92-.27Z"/><path class="cls-3" d="M1228.44,300.37H1225l3.14-5.17-1.92-13h3.71l.56,8.17a15.56,15.56,0,0,1,0,2.05h0a19.6,19.6,0,0,1,.9-2.05l4.3-8.17h3.68Z"/><path class="cls-11" d="M1169.5,332.85h17.77a2.61,2.61,0,0,1,2.6,3.41l-6.26,26.91a4.58,4.58,0,0,1-4.18,3.41h-17.79a2.62,2.62,0,0,1-2.61-3.41l6.27-26.91a4.55,4.55,0,0,1,4.18-3.41"/><path class="cls-12" d="M1185,332.85h17.61c1.88,0,1,1.53.6,3.41l-6.26,26.91c-.45,1.88-.31,3.41-2.19,3.41h-17.63a2.61,2.61,0,0,1-2.6-3.41l6.26-26.91c.45-1.88,1.56-3.41,3.44-3.41"/><path class="cls-13" d="M1203.05,332.85h7.11a2.61,2.61,0,0,1,2.61,3.41l-6.27,26.91a4.58,4.58,0,0,1-4.18,3.41h-9.41a2.62,2.62,0,0,1-2.61-3.41l6.26-26.91a4.54,4.54,0,0,1,4.18-3.41Z"/><path class="cls-3" d="M1110.94,227.12h38.15a3,3,0,1,0,0-6.1h-38.15a3,3,0,1,0,0,6.1Z"/><path class="cls-3" d="M1168.84,232.67a3.18,3.18,0,0,0-6.32-.67,3.75,3.75,0,0,0,0,.67h0v29.44h0a3.18,3.18,0,0,0,6.35.28v-.28h0V232.7Z"/><path class="cls-3" d="M1247.83,246.61h0l-9.25-9.24h0a3.17,3.17,0,0,0-4.48,4.48h0l9.24,9.24h0a3.17,3.17,0,1,0,4.49-4.48Z"/><path class="cls-3" d="M1152.12,237H1108a3.06,3.06,0,0,0,0,6.11h7.16L1110,256.12h0a6.62,6.62,0,0,0,3.91,8.51,6.73,6.73,0,0,0,2.31.41h29a7.1,7.1,0,0,0,7.11-7.1h0a7,7,0,0,0-.6-2.86l-2.39-5.13h0a3.23,3.23,0,0,0-5.85,2.73h0l1.67,3.58h0a1.77,1.77,0,0,1,.2.82,1.87,1.87,0,0,1-1.87,1.87h-24.59a2.13,2.13,0,0,1-2.11-2.14,2,2,0,0,1,.15-.78h0l5.11-13h30.15a3,3,0,1,0,0-6.1Z"/><path class="cls-3" d="M1265.46,226.22h-4v-4.49h0a3.19,3.19,0,0,0-6.38,0h0v4.49h-20.33a3,3,0,0,0,0,6h20.3v25a2.1,2.1,0,0,1-2.1,2.11h-2.67a3,3,0,1,0,0,6h4.43a6.74,6.74,0,0,0,6.74-6.74h0V232.23h4a3,3,0,1,0,0-6Z"/><path class="cls-3" d="M1202,257.18a2.1,2.1,0,0,1-2.1,2.11h-2.7a3,3,0,0,0,0,6h4.43a6.74,6.74,0,0,0,6.74-6.74V246.89l-6.37,6.37Z"/><path class="cls-3" d="M1227.19,228.1l-6.34,6.36v27.67h0a3.17,3.17,0,0,0,6.34,0h0Z"/><path class="cls-3" d="M1227.32,219.87a3.14,3.14,0,0,0-4.45,0h0l-14.46,14.45v-6.57h0a6.74,6.74,0,0,0-6.74-6.74h-28.4a2,2,0,0,1-1.38-.54l-1.15-1.15a3.07,3.07,0,0,0-4.34,4.34h0l2.09,2.08h0a5,5,0,0,0,3.32,1.26H1200a2.1,2.1,0,0,1,2.08,2.09v11.58l-3.1,3.11-10.22-10.21h0a3.16,3.16,0,0,0-4.46,0h0L1182,235.8l14.07,14.07h0a4,4,0,0,0,5.65,0h0l25.55-25.56h0a3.13,3.13,0,0,0,0-4.44Z"/><path class="cls-3" d="M1182,235.8,1171.81,246h0a3.15,3.15,0,0,0,4.26,4.65l.2-.2h0l8.15-8.14Z"/></g></g></g></g></svg>