<svg xmlns="http://www.w3.org/2000/svg" viewBox="0 0 1544.99 480.96"><defs><style>.cls-1{fill:#181f37;}.cls-1,.cls-2,.cls-4,.cls-5,.cls-6,.cls-7{fill-rule:evenodd;}.cls-2{fill:#4c70b4;}.cls-3{fill:none;stroke:#4c70b4;stroke-linecap:round;stroke-miterlimit:10;stroke-width:24.74px;}.cls-4{fill:#373530;}.cls-5{fill:#35322c;}.cls-6{fill:#332d28;}.cls-7{fill:#009fe3;}.cls-8{fill:#1677ff;}.cls-9{fill:#fff;}</style></defs><g id="Layer_2" data-name="Layer 2"><g id="Layer_1-2" data-name="Layer 1"><g id="Layer_2-2" data-name="Layer 2-2"><g id="Layer_1-2-2" data-name="Layer 1-2-2"><g id="Group"><path id="Fill-4" class="cls-1" d="M342.06,111.68V74.53L313.29,30.27H339l11.07,21,.34.64a25.33,25.33,0,0,1,2.41,6.28,21.78,21.78,0,0,1,2.42-6.06c.22-.41.38-.68.45-.84l11-21h25.79L363.69,74.55V111.7H342.06"/><path id="Fill-5" class="cls-1" d="M421.07,76.78a12,12,0,0,0-3.68-7.68,10.87,10.87,0,0,0-7.67-2.89A11.13,11.13,0,0,0,402,68.85c-1.94,1.76-3.21,4.41-3.84,7.93ZM440.79,88H397.64c0,4.33,1.16,7.67,3.37,10s5.34,3.53,9.38,3.53a15.8,15.8,0,0,0,7.67-1.69,11.16,11.16,0,0,0,4.75-5l15.06,6a19.52,19.52,0,0,1-9.55,10q-6.85,3.5-16.8,3.5-14.82,0-23.79-8.14t-9-21.5q0-13.12,9-21.79t22.67-8.68q14.1,0,22.25,8.78t8.14,24Z"/><path id="Fill-6" class="cls-1" d="M493.69,85.06q0-6.57-3.52-10.34t-9.59-3.79q-6.06,0-9.55,3.79t-3.47,10.34q0,6.61,3.45,10.37c2.31,2.51,5.5,3.76,9.6,3.76s7.24-1.26,9.59-3.78S493.71,89.44,493.69,85.06Zm17.76,28H493v-9.15a27.41,27.41,0,0,1-8.6,8.48,20.52,20.52,0,0,1-10.62,2.8q-12,0-19.05-8.17t-7.08-22q0-13.42,7-21.66t18.4-8.26q7.2,0,11.72,2.55a22.8,22.8,0,0,1,8.06,8.57c-.22-1.34-.39-2.84-.51-4.53s-.16-3.52-.16-5.48V26.86h19.19v86.19Z"/><path id="Fill-7" class="cls-1" d="M541.22,84.17q0,6.56,3.46,10.34t9.52,3.78q6.06,0,9.59-3.78t3.51-10.34q0-6.56-3.49-10.34t-9.59-3.78q-6.08,0-9.52,3.78T541.22,84.17ZM523.5,136.86v-81H542v9.46a26.91,26.91,0,0,1,8.57-8.45,20.58,20.58,0,0,1,10.61-2.78q12,0,19,8.09t7.08,21.94q0,13.42-7,21.74t-18.4,8.32q-7.2,0-11.71-2.61a23.19,23.19,0,0,1-8.07-8.62,38.49,38.49,0,0,1,.43,4c.09,1.6.14,3.56.14,5.9v23.92H523.5Z"/><path id="Fill-8" class="cls-1" d="M645.41,84q0-6.57-3.55-10.4t-9.65-3.84q-6.13,0-9.64,3.84T619.05,84q0,6.57,3.54,10.34a12.49,12.49,0,0,0,9.59,3.78q6.12,0,9.66-3.78C644.2,91.79,645.38,88.34,645.41,84ZM663,56v56.17H644.61V103a26.32,26.32,0,0,1-8.84,8.56,23.44,23.44,0,0,1-11.55,2.72q-11.36,0-18.15-8.2t-6.8-22q0-13.74,7.11-21.83t19.13-8.09a21.47,21.47,0,0,1,11,2.7,22.63,22.63,0,0,1,8,8.31V55.91Z"/><path id="Fill-9" class="cls-1" d="M675.1,138.52,691,105.15,668.19,57.56H690.4l7.92,20.3q1,2.55,1.68,4.76a35.7,35.7,0,0,1,1,4.08,32.83,32.83,0,0,1,1-4.14c.42-1.43,1-3,1.65-4.7l8-20.3h21.4l-35.65,81H675.1"/><g id="Group-4"><path id="Fill-10" class="cls-1" d="M718.47,31.78h2.62a3.9,3.9,0,0,1,2.56.73,2,2,0,0,1,.84,1.74,1.54,1.54,0,0,1-.17.76l-.09.18a2.57,2.57,0,0,1-.69,1,2.9,2.9,0,0,1-1.08.64,4,4,0,0,1-1.37.22h-2.6V31.78Zm7.38,9.38c-.25-.38-.46-.72-.64-1a8.3,8.3,0,0,0-.64-.8l-.67-.64-.32-.22a6.2,6.2,0,0,0,1.15-.51,5,5,0,0,0,1.32-1.07,4.61,4.61,0,0,0,.85-1.45v-.13a2.82,2.82,0,0,0,.25-1.28,3.77,3.77,0,0,0-.44-1.92,4.27,4.27,0,0,0-1.2-1.5,5,5,0,0,0-1.81-.92,8.34,8.34,0,0,0-2.28-.29h-5.57V45h2.62V39.36H720a3.76,3.76,0,0,1,1,.13l.79.4.76.75a10.72,10.72,0,0,1,.77,1.13l1.92,3.11.08.12h3.07l-.25-.39Z"/><path id="Fill-11" class="cls-1" d="M722,48a11,11,0,1,1,.07,0Zm0-23.8a35.34,35.34,0,1,0,.07,0H722Z"/></g></g><g id="Group-2"><path id="Fill-12" class="cls-2" d="M145,5.34c-7.4,0-13.43,5.61-13.43,12.5V129.06c0,6.89,6,12.49,13.43,12.49H264.41c7.4,0,13.43-5.6,13.43-12.49V17.84c0-6.89-6-12.5-13.43-12.5ZM264.38,146.9H145c-10.56,0-19.18-8-19.18-17.84V17.84C125.78,8,134.37,0,145,0H264.41C275,0,283.59,8,283.59,17.84V129.06C283.53,138.9,275,146.9,264.38,146.9Z"/><path id="Fill-13" class="cls-2" d="M266,108.41c-14.83,0-29.68.06-44.51,0a54,54,0,0,1-10.14-1.11,9.18,9.18,0,0,1-7.72-7.93,16.53,16.53,0,0,1,.93-9.87,9.71,9.71,0,0,1,8-5.91,68.72,68.72,0,0,1,8.72-.64c11.48-.07,23,0,34.42,0h1.92V64H219.32a59.43,59.43,0,0,1-6.11-.35c-5.23-.55-8-2.84-9.29-7.85s-.31-9.8,3.83-13.59a10.23,10.23,0,0,1,7-2.44c5-.12,10-.15,15.05-.16H268V20.84c-.57,0-1.05-.07-1.54-.07l-59.23.14a28.91,28.91,0,0,0-17.35,5.21,28.61,28.61,0,0,0-11.21,16.43,28.28,28.28,0,0,0-.7,12H160.31a8.45,8.45,0,0,0,0,16.9H187a8.46,8.46,0,1,1,.58,16.91,5.61,5.61,0,0,1-.58,0H148.21a8.46,8.46,0,0,0,0,16.91h29.84a24.43,24.43,0,0,0,5.11,10.93c4.8,5.83,11.26,9,18.75,10a109.32,109.32,0,0,0,14,1c16.88.11,33.75,0,50.63,0a10,10,0,0,0,1.4-.07V108.41h-2.05"/><path id="Fill-14" class="cls-2" d="M160.47,48.07a8.46,8.46,0,1,0,.58-16.91,5.61,5.61,0,0,0-.58,0H144.73a8.46,8.46,0,0,0,0,16.91h15.74"/></g></g></g><path class="cls-3" d="M772.49,67.16h688.13a72.27,72.27,0,0,1,72,72.05V396.59a72.25,72.25,0,0,1-72,72H84.37a72.25,72.25,0,0,1-72-72V139.21a72.27,72.27,0,0,1,72-72.05"/><g id="Layer_2-2-2" data-name="Layer 2"><g id="Layer_1-2-2-2" data-name="Layer 1-2"><path class="cls-4" d="M166.27,271.24l21.46,45.18H143.91Zm32.93,70.59h26.25l-49-104.6h-7.18a6.52,6.52,0,0,0-3.36.93,6.12,6.12,0,0,0-2.29,2.52L114.21,341.83h17.51l8.85-17.08H191Z"/><path class="cls-4" d="M259.17,341.83H235.42V241.73a4.49,4.49,0,0,1,1.39-3.18,4.63,4.63,0,0,1,3.24-1.32h19.16v104.6"/><path class="cls-5" d="M280.05,269.16a4.38,4.38,0,0,1,1.33-3.15,4.58,4.58,0,0,1,3.25-1.31h19.31v77.13H280.05V269.16"/><path class="cls-6" d="M348,320.35a13.11,13.11,0,0,0,1.07,5.27,12.6,12.6,0,0,0,3,4.31,13.88,13.88,0,0,0,4.71,2.89,17.37,17.37,0,0,0,6.06,1.05,9.63,9.63,0,0,0,5.81-2,17.27,17.27,0,0,0,4.74-5.56,32.93,32.93,0,0,0,3.23-8.49A45.46,45.46,0,0,0,377.8,307a70.46,70.46,0,0,0-1.05-13.12,35.73,35.73,0,0,0-3-9.45,15.33,15.33,0,0,0-4.56-5.72,9.75,9.75,0,0,0-5.8-1.9,13.58,13.58,0,0,0-4.42.74,18.28,18.28,0,0,0-4.07,2.05,24.36,24.36,0,0,0-3.73,3.07,38.15,38.15,0,0,0-3.23,3.71Zm-24-51.14a4.46,4.46,0,0,1,1.36-3.2,4.71,4.71,0,0,1,3.26-1.31H348v6.06a37.94,37.94,0,0,1,9.45-5.47,33.2,33.2,0,0,1,12.47-2.15,31.79,31.79,0,0,1,13.75,2.9,32.57,32.57,0,0,1,10.58,7.88,35.38,35.38,0,0,1,6.8,11.55,40.31,40.31,0,0,1,2.38,14,52.35,52.35,0,0,1-2.83,17.5,40.37,40.37,0,0,1-8.13,13.87,37.1,37.1,0,0,1-12.8,9.19,41.5,41.5,0,0,1-16.79,3.29c-3.14,0-5.88-.13-8.16-.35a25.88,25.88,0,0,1-6.72-1.68v30.92h-24Z"/><path class="cls-6" d="M431.21,316.29c0-9,7.45-15.8,16.59-16.46,5.78-.42,9.23.6,11.32,1.86v26.45a16.71,16.71,0,0,1-11.32,4.39,16.41,16.41,0,0,1-16.59-16.23h0m34.16-50.71c-11.47-3.21-26-3.82-45.8,1.24.65,1.94,1.52,5.38,2.14,7.38,31.35-5.47,37.41-1.22,37.41,12.05v4.14c-5.72-.39-12.48-1.34-18-1.43-21.45-.33-29.24,16.39-29.24,26.94,0,18.48,17.95,35.6,47.25,23v2.95h24.5V285.54c0-10.92-9.63-17.54-18.25-19.92"/><path class="cls-6" d="M490.06,263.26h25.37l25,47.6L561,266.36a5.33,5.33,0,0,1,2-2.32,5.5,5.5,0,0,1,2.9-.84h13.58L539.6,349.09c-9.58,23.37-32.81,20.07-37.06,20.07v-13c3.19,0,13.86.12,18.54-5a22.31,22.31,0,0,0,2.83-4.77c.71-1.47,1.34-2.75,1.88-3.91l2.79-6.18-38.52-73.06"/><path class="cls-7" d="M304.83,241.85c0,6.29-5.77,11.41-12.9,11.41S279,248.14,279,241.85s5.75-11.4,12.87-11.4,12.92,5.11,12.92,11.4"/><path class="cls-7" d="M748.56,342.65H731a1.59,1.59,0,0,1-1.38-.84l-20.43-35.15-10.5,12.22v23.77H684.39a1.6,1.6,0,0,1-1.6-1.6V265.16a1.62,1.62,0,0,1,1.6-1.61h14.28v32.23a.84.84,0,0,0,.84.84.82.82,0,0,0,.61-.28l26.77-32.17a1.6,1.6,0,0,1,1.23-.57h18.5l-27,31.39Zm-84.89,0H649.19a1.6,1.6,0,0,1-1.6-1.59h0v-29.9a1.6,1.6,0,0,0-1.61-1.6H619.73v33.1H605.22a1.6,1.6,0,0,1-1.6-1.6V265.16a1.61,1.61,0,0,1,1.6-1.61h14.51v32.33H646a1.59,1.59,0,0,0,1.57-1.61V265.16a1.61,1.61,0,0,1,1.6-1.61h14.48Z"/></g></g><g id="Layer_2-3" data-name="Layer 2"><g id="Layer_1-2-3" data-name="Layer 1-2"><path class="cls-8" d="M1020.37,213.17H924.86a22.61,22.61,0,0,0-22.52,22.7h0v96.33a22.62,22.62,0,0,0,22.51,22.7h95.52a22.62,22.62,0,0,0,22.51-22.7h0V235.88a22.61,22.61,0,0,0-22.49-22.71h0"/><path class="cls-9" d="M1018.05,302.17c-5.62-1.9-13.17-4.81-21.59-7.87a114.74,114.74,0,0,0,11.73-29.88h-27.7V254.36h34v-5.62h-34V232H966.65a2.38,2.38,0,0,0-2.43,2.32v14.45H929.88v5.62h34.34v10.06H935.89V270h55a99.57,99.57,0,0,1-7.91,19.52c-17.86-6-36.87-10.75-48.82-7.79-7.64,1.9-12.56,5.3-15.46,8.82-13.28,16.3-3.72,41,24.29,41,16.57,0,32.55-9.32,44.92-24.68,18.46,8.93,55,24.31,55,24.31V309.37s-4.6-.37-24.83-7.2m-77.75,20c-21.87,0-28.33-17.36-17.52-26.87,3.6-3.2,10.19-4.77,13.7-5.12,13-1.3,25,3.72,39.21,10.68-10,13.12-22.67,21.31-35.39,21.31"/><path class="cls-8" d="M1207.51,233.93c0,7.33,5.36,12.26,12.83,12.26s12.83-4.93,12.83-12.26-5.35-12.28-12.83-12.28-12.83,5.08-12.83,12.28"/><rect x="1171.68" y="224.76" width="22.28" height="102.94"/><path d="M1132.62,228.28h-29.89l-33.43,99.41h20.61l5.63-19.45h35.4l5.36,19.45h26.37ZM1100.19,292l13.25-45.83h.56L1126.55,292Z"/><rect x="1209.19" y="252.12" width="22.28" height="75.59"/><polygon points="1464.29 252.26 1464.43 252.12 1443.42 252.12 1430.16 298.09 1429.46 298.09 1414.23 252.12 1389.27 252.12 1419.31 327.98 1406.76 351.1 1406.76 351.67 1426.36 351.67 1464.29 252.26"/><path d="M1286.89,250.56c-8.19,0-14.52,3.11-21.71,9v-7.44H1242.9v99.52h22.28V327a48.16,48.16,0,0,0,13,1.69c19.88,0,37.79-14.66,37.79-40.75,0-23.41-13-37.37-29-37.37m-14.1,64.16a24.53,24.53,0,0,1-7.61-1.12V272.72c4.65-3.25,8.46-4.8,13.25-4.8,8.32,0,15,6.63,15,20.73,0,18.05-9.73,26.09-20.59,26.09"/><path d="M1384.9,308.8V277.19c0-17.21-10.15-26.66-28.06-26.66-11.42,0-19.35,2-33.7,6.35l3.94,17.34c13.12-6,18.9-8.46,25-8.46,7.34,0,10.58,5.21,10.58,13.26v.56c-25.52,4.8-33.42,7.45-38.36,12.41-3.66,3.67-5.21,8.89-5.21,14.95,0,14.52,11.29,22.28,21.86,22.28,7.9,0,14.24-3,22.85-9.45l1.55,7.92h22.28Zm-22.28.56c-5.92,3.25-9.31,4.52-13.25,4.52-5.36,0-8.75-3.53-8.75-9.17a8,8,0,0,1,2.12-5.95c2.68-2.69,7.89-4.66,19.88-7.45Z"/></g></g></g></g></svg>